<?xml version="1.0" encoding="utf-8"?>
<!-- Generator: Adobe Illustrator 21.1.0, SVG Export Plug-In . SVG Version: 6.00 Build 0)  -->
<svg version="1.1" id="Layer_1" xmlns="http://www.w3.org/2000/svg" xmlns:xlink="http://www.w3.org/1999/xlink" x="0px" y="0px"
	 viewBox="0 0 388.2 357" style="enable-background:new 0 0 388.2 357;" xml:space="preserve">
<style type="text/css">
	.st0{fill:#FFA639;stroke:#FF9C32;stroke-width:2;stroke-miterlimit:10;}
	.st1{fill:#FFAF3B;stroke:#FF9C32;stroke-width:2;stroke-miterlimit:10;}
	.st2{fill:none;stroke:#FF9C32;stroke-width:2;stroke-miterlimit:10;}
	.st3{fill:#FFFECA;stroke:#FF9C32;stroke-width:2;stroke-miterlimit:10;}
	.st4{fill:#FFF1A5;stroke:#FF9C32;stroke-width:2;stroke-miterlimit:10;}
</style>
<g id="Selected_1_">
	<g id="Selected">
		<path class="st0" d="M304.6,71.1c27.5,27.5,44.6,65.5,44.6,107.4c0,83.7-68.2,151.9-151.9,151.9c-39.7,0-75.9-15.3-102.9-40.3"/>
		<path class="st1" d="M94.4,289.9c-30.1-27.8-48.9-67.5-48.9-111.5c0-83.7,68.2-151.9,151.9-151.9c41.8,0,79.8,17,107.3,44.5"/>
		<circle class="st2" cx="196.7" cy="178.4" r="171"/>
	</g>
</g>
<g id="Bed">
	<path class="st3" d="M259.7,191.1h-126c-6.6,0-12-5.4-12-12v-54.8c0-6.6,5.4-12,12-12h126c6.6,0,12,5.4,12,12v54.8
		C271.7,185.7,266.3,191.1,259.7,191.1z"/>
	<path class="st4" d="M281.7,193.8h-170v-12.2c0-16.5,13.5-30,30-30h110c16.5,0,30,13.5,30,30V193.8z"/>
	<polygon class="st3" points="111.7,193.8 111.7,244.4 136.7,244.4 136.7,219.1 256.7,219.1 256.7,244.4 281.7,244.4 281.7,193.8 	
		"/>
	<path class="st4" d="M188.5,151.5H135v-13.7c0-2.8,2.2-5,5-5h43.5c2.8,0,5,2.2,5,5V151.5z"/>
	<path class="st4" d="M255.8,151.5h-53.5v-13.7c0-2.8,2.2-5,5-5h43.5c2.8,0,5,2.2,5,5V151.5z"/>
</g>
</svg>
