<?xml version="1.0" encoding="utf-8"?>
<!-- Generator: Adobe Illustrator 21.1.0, SVG Export Plug-In . SVG Version: 6.00 Build 0)  -->
<svg version="1.1" id="Layer_1" xmlns="http://www.w3.org/2000/svg" xmlns:xlink="http://www.w3.org/1999/xlink" x="0px" y="0px"
	 viewBox="0 0 352 357" style="enable-background:new 0 0 352 357;" xml:space="preserve">
<style type="text/css">
	.st0{fill:#FFA639;stroke:#FF9C32;stroke-width:2;stroke-miterlimit:10;}
	.st1{fill:#FFAF3B;stroke:#FF9C32;stroke-width:2;stroke-miterlimit:10;}
	.st2{fill:none;stroke:#FF9C32;stroke-width:2;stroke-miterlimit:10;}
	.st3{fill:#FFFFE5;stroke:#CE7824;stroke-miterlimit:10;}
</style>
<g id="Selected">
	<path class="st0" d="M283.6,71.1c27.5,27.5,44.6,65.5,44.6,107.4c0,83.7-68.2,151.9-151.9,151.9c-39.7,0-75.9-15.3-102.9-40.3"/>
	<path class="st1" d="M73.4,289.9c-30.1-27.8-48.9-67.5-48.9-111.5c0-83.7,68.2-151.9,151.9-151.9c41.8,0,79.8,17,107.3,44.5"/>
	<circle class="st2" cx="175.7" cy="178.4" r="171"/>
</g>
<path id="Dumbell_2_" class="st3" d="M120.4,216.2h-12.6c-3.1,0-5.6-2.5-5.6-5.6v-63.7c0-3.1,2.5-5.6,5.6-5.6h12.6
	c3.1,0,5.6,2.5,5.6,5.6v63.7C126,213.6,123.5,216.2,120.4,216.2z M102,201v-44.6c0-2.2-1.8-3.9-3.9-3.9h-8.8c-2.2,0-3.9,1.8-3.9,3.9
	V201c0,2.2,1.8,3.9,3.9,3.9h8.8C100.2,204.9,102,203.2,102,201z M84.4,171.9c-3.8,0-6.8,3-6.8,6.8s3,6.8,6.8,6.8 M243.5,215.6h-12.6
	c-3.1,0-5.6-2.5-5.6-5.6v-63.7c0-3.1,2.5-5.6,5.6-5.6h12.6c3.1,0,5.6,2.5,5.6,5.6V210C249.1,213.1,246.6,215.6,243.5,215.6z
	 M266,200.4v-44.6c0-2.2-1.8-3.9-3.9-3.9h-8.8c-2.2,0-3.9,1.8-3.9,3.9v44.6c0,2.2,1.8,3.9,3.9,3.9h8.8
	C264.2,204.4,266,202.6,266,200.4z M267,185c3.8,0,6.8-3,6.8-6.8s-3-6.8-6.8-6.8 M225.4,166.8H126v23.8h99.3L225.4,166.8
	L225.4,166.8z"/>
</svg>
