<?xml version="1.0" encoding="utf-8"?>
<!-- Generator: Adobe Illustrator 21.1.0, SVG Export Plug-In . SVG Version: 6.00 Build 0)  -->
<svg version="1.1" id="Capa_1" xmlns="http://www.w3.org/2000/svg" xmlns:xlink="http://www.w3.org/1999/xlink" x="0px" y="0px"
	 viewBox="0 0 135.3 135.7" style="enable-background:new 0 0 135.3 135.7;" xml:space="preserve">
<style type="text/css">
	.st0{opacity:0.75;fill:#FFFFFF;}
	.st1{fill:#AAAAAA;}
</style>
<circle class="st0" cx="67.8" cy="67.8" r="65.4"/>
<path class="st1" d="M67.8,135.2c-37.2,0-67.4-30.3-67.4-67.4c0-37.2,30.3-67.4,67.4-67.4s67.4,30.3,67.4,67.4
	C135.2,105,105,135.2,67.8,135.2z M67.8,4.3c-35,0-63.4,28.5-63.4,63.4s28.5,63.4,63.4,63.4c35,0,63.4-28.5,63.4-63.4
	S102.8,4.3,67.8,4.3z"/>
<path class="st1" d="M40.5,44.4c-1.1-1.1-1.1-2.8,0-3.9c1.1-1.1,2.8-1.1,3.9,0l23.3,23.4l23.4-23.4c1.1-1.1,2.8-1.1,3.8,0
	c1.1,1.1,1.1,2.8,0,3.9L71.6,67.8L95,91.1c1.1,1.1,1.1,2.8,0,3.9c-1.1,1.1-2.8,1.1-3.8,0L67.8,71.6L44.4,95c-1.1,1.1-2.8,1.1-3.9,0
	c-1.1-1.1-1.1-2.8,0-3.9l23.3-23.4L40.5,44.4z"/>
</svg>
