<?xml version="1.0" encoding="utf-8"?>
<!-- Generator: Adobe Illustrator 21.1.0, SVG Export Plug-In . SVG Version: 6.00 Build 0)  -->
<svg version="1.1" id="Layer_1" xmlns="http://www.w3.org/2000/svg" xmlns:xlink="http://www.w3.org/1999/xlink" x="0px" y="0px"
	 viewBox="0 0 388.2 357" style="enable-background:new 0 0 388.2 357;" xml:space="preserve">
<style type="text/css">
	.st0{fill:#FFA639;stroke:#FF9C32;stroke-width:2;stroke-miterlimit:10;}
	.st1{fill:#FFAF3B;stroke:#FF9C32;stroke-width:2;stroke-miterlimit:10;}
	.st2{fill:none;stroke:#FF9C32;stroke-width:2;stroke-miterlimit:10;}
	.st3{fill:#FFF1A5;stroke:#FF9C32;stroke-miterlimit:10;}
	.st4{fill:#FFE164;stroke:#FF9C32;stroke-miterlimit:10;}
	.st5{fill:#FFFFE5;}
	.st6{fill:#FFE885;stroke:#FF9C32;stroke-miterlimit:10;}
	.st7{fill:#FFFFE5;stroke:#FF9C32;stroke-miterlimit:10;}
	.st8{fill:#FF9C32;}
</style>
<g id="Selected_1_">
	<g id="Selected">
		<path class="st0" d="M304.6,71.1c27.5,27.5,44.6,65.5,44.6,107.4c0,83.7-68.2,151.9-151.9,151.9c-39.7,0-75.9-15.3-102.9-40.3"/>
		<path class="st1" d="M94.4,289.9c-30.1-27.8-48.9-67.5-48.9-111.5c0-83.7,68.2-151.9,151.9-151.9c41.8,0,79.8,17,107.3,44.5"/>
		<circle class="st2" cx="196.7" cy="178.4" r="171"/>
	</g>
</g>
<g>
	<g id="Notebook">
		<rect x="149.9" y="101.7" class="st3" width="87.9" height="153.3"/>
		<rect x="136.5" y="101.7" class="st4" width="13.4" height="153.3"/>
		<path class="st5" d="M216.6,160.5h-45.5c-2.8,0-5-2.2-5-5v-25.8c0-2.8,2.2-5,5-5h45.5c2.8,0,5,2.2,5,5v25.8
			C221.6,158.3,219.4,160.5,216.6,160.5z"/>
		<g>
			<line class="st2" x1="178.4" y1="136.1" x2="209.3" y2="136.1"/>
			<line class="st2" x1="178.4" y1="142.6" x2="209.3" y2="142.6"/>
			<line class="st2" x1="178.4" y1="149.1" x2="209.3" y2="149.1"/>
		</g>
	</g>
	<g id="Pencil">
		<ellipse transform="matrix(0.3967 -0.9179 0.9179 0.3967 40.7864 314.905)" class="st4" cx="260" cy="126.4" rx="8" ry="8"/>
		
			<rect x="187" y="167.4" transform="matrix(0.3967 -0.9179 0.9179 0.3967 -16.9643 324.9115)" class="st6" width="103.5" height="16"/>
		<polygon class="st7" points="212.4,236.2 210.5,219.6 225.8,226.2 		"/>
		<polygon class="st8" points="212.5,236 212,229.6 217.5,232 		"/>
		
			<rect x="253.3" y="123.8" transform="matrix(0.3967 -0.9179 0.9179 0.3967 34.3006 316.0938)" class="st7" width="8.7" height="16.3"/>
	</g>
</g>
</svg>
