<?xml version="1.0" encoding="utf-8"?>
<!-- Generator: Adobe Illustrator 21.1.0, SVG Export Plug-In . SVG Version: 6.00 Build 0)  -->
<svg version="1.1" id="Layer_1" xmlns="http://www.w3.org/2000/svg" xmlns:xlink="http://www.w3.org/1999/xlink" x="0px" y="0px"
	 viewBox="0 0 388.2 357" style="enable-background:new 0 0 388.2 357;" xml:space="preserve">
<style type="text/css">
	.st0{fill:#FFA639;stroke:#FF9C32;stroke-width:2;stroke-miterlimit:10;}
	.st1{fill:#FFAF3B;stroke:#FF9C32;stroke-width:2;stroke-miterlimit:10;}
	.st2{fill:none;stroke:#FF9C32;stroke-width:2;stroke-miterlimit:10;}
	.st3{fill:#FFFFE5;stroke:#F7931E;stroke-width:2;stroke-miterlimit:10;}
	.st4{fill:#FFF1A5;stroke:#F7931E;stroke-width:2;stroke-miterlimit:10;}
</style>
<g id="Selected_1_">
	<g id="Selected">
		<path class="st0" d="M304.6,71.1c27.5,27.5,44.6,65.5,44.6,107.4c0,83.7-68.2,151.9-151.9,151.9c-39.7,0-75.9-15.3-102.9-40.3"/>
		<path class="st1" d="M94.4,289.9c-30.1-27.8-48.9-67.5-48.9-111.5c0-83.7,68.2-151.9,151.9-151.9c41.8,0,79.8,17,107.3,44.5"/>
		<circle class="st2" cx="196.7" cy="178.4" r="171"/>
	</g>
</g>
<g id="Woman">
	<path class="st3" d="M254.2,228.1l-21.2,0.6c0,0,30.7-11,23-29.4c-7.7-18.4-11.2-19.9-12.4-27.8c-1.2-8-1-11.7-21.2-20.6
		c-9.3-4.1-12.6-4.4-13.7-7.8c7.8-4,13.1-12.1,13.1-21.5c0-13.3-10.8-28.5-24.2-28.5s-24.2,15.1-24.2,28.5c0,9.7,5.8,18.1,14.1,22
		c-0.6,2.9-2.9,5.9-9.4,7.6c-16.2,4.4-18.2,8.5-22.4,18c-3.1,7-25.3,36.4-8.5,46.6c12.7,7.7,22.4,12.7,22.4,12.7s-65-8.2-51.1,18.3
		c3.1,5.9,4,3.5,4.9,7.1c0.9,3.5,8.3,9.1,28.8,8.5s81.5,5,93.5-1.5c12.1-6.5,23.6,5,29.8-12.1S266,228.1,254.2,228.1z M172.6,219.2
		c-0.6-4.7-18.6-16.2-14.1-18.6c4.4-2.4,11.5-18,11.5-18s-0.6,9.4,2.7,15.7C175.8,204.7,173.2,223.9,172.6,219.2z M223.8,221.5
		c0,0,2.7-9.1,1-15.9c-1.7-6.9,5.2-25,4.7-20.3c-0.5,4.7,14.4,20,9.6,21.3C234.2,207.9,223.8,221.5,223.8,221.5z"/>
	<ellipse class="st4" cx="197.8" cy="90" rx="7" ry="5.7"/>
	<path class="st4" d="M174,117c0,0,14.2-5.7,16.8-11c3.3,7.3,31.7,18.6,30.6,11c-0.7-5.3-3.4-21.9-23.8-23.9S174,117,174,117z"/>
	<path class="st4" d="M253.7,227.8l-21,0.6c0,0,30.4-11.1,22.8-29.6c-7.6-18.5-11.1-20-12.3-28s-1-11.8-21-20.8
		c-7.3-3.3-13.1,9.2-21.9,9.9c-6.3,0.5-15.2-11.5-21.9-9.6c-16.1,4.5-18,8.6-22.2,18.1c-3.1,7-25.1,36.7-8.5,46.9
		c12.6,7.7,22.2,12.8,22.2,12.8s-64.4-8.2-50.6,18.4c3.1,5.9,3.9,3.6,4.8,7.1c0.9,3.6,8.2,9.2,28.5,8.6c20.3-0.6,80.7,5,92.7-1.5
		c12-6.5,23.4,5,29.5-12.2S265.3,227.8,253.7,227.8z M172.8,218.9c-0.6-4.7-18.4-16.3-14-18.7c4.4-2.4,11.4-18.1,11.4-18.1
		s-0.6,9.5,2.6,15.8C176,204.3,173.4,223.7,172.8,218.9z M223.5,221.2c0,0,2.7-9.1,1-16c-1.7-6.9,5.2-25.2,4.7-20.4
		c-0.5,4.8,14.3,20.1,9.5,21.4C233.9,207.5,223.5,221.2,223.5,221.2z"/>
</g>
</svg>
