<?xml version="1.0" encoding="utf-8"?>
<!-- Generator: Adobe Illustrator 21.1.0, SVG Export Plug-In . SVG Version: 6.00 Build 0)  -->
<svg version="1.1" id="Layer_1" xmlns="http://www.w3.org/2000/svg" xmlns:xlink="http://www.w3.org/1999/xlink" x="0px" y="0px"
	 viewBox="0 0 388.2 357" style="enable-background:new 0 0 388.2 357;" xml:space="preserve">
<style type="text/css">
	.st0{fill:#FFA639;stroke:#FF9C32;stroke-width:2;stroke-miterlimit:10;}
	.st1{fill:#FFAF3B;stroke:#FF9C32;stroke-width:2;stroke-miterlimit:10;}
	.st2{fill:none;stroke:#FF9C32;stroke-width:2;stroke-miterlimit:10;}
	.st3{fill:#FFFFE5;stroke:#CE7824;stroke-width:0.75;stroke-miterlimit:10;}
	.st4{fill:#CE7824;}
	.st5{fill:none;stroke:#CE7824;stroke-width:0.75;stroke-miterlimit:10;}
</style>
<g id="Selected_1_">
	<g id="Selected">
		<path class="st0" d="M304.6,71.1c27.5,27.5,44.6,65.5,44.6,107.4c0,83.7-68.2,151.9-151.9,151.9c-39.7,0-75.9-15.3-102.9-40.3"/>
		<path class="st1" d="M94.4,289.9c-30.1-27.8-48.9-67.5-48.9-111.5c0-83.7,68.2-151.9,151.9-151.9c41.8,0,79.8,17,107.3,44.5"/>
		<circle class="st2" cx="196.7" cy="178.4" r="171"/>
	</g>
</g>
<g>
	<path class="st3" d="M115.3,191l98.6-88l14.3,17.9l-57.6,132.6C162.6,250.4,115.3,191,115.3,191"/>
	<path class="st4" d="M149.1,180.1l-20.3,15.6c-0.5,0.4-0.5,1-0.2,1.4l0.1,0.1c0.4,0.5,1,0.5,1.4,0.2l20.3-15.6
		c0.5-0.4,0.5-1,0.2-1.4l-0.1-0.1C150,179.9,149.4,179.7,149.1,180.1z"/>
	<path class="st4" d="M151.2,182.9l-20.3,15.6c-0.5,0.4-0.5,1-0.2,1.4l0.1,0.1c0.4,0.5,1,0.5,1.4,0.2l20.3-15.6
		c0.5-0.4,0.5-1,0.2-1.4l-0.1-0.1C152.3,182.6,151.6,182.5,151.2,182.9z"/>
	<path class="st4" d="M153.4,186l-20.3,15.6c-0.5,0.4-0.5,1-0.2,1.4l0.1,0.1c0.4,0.5,1,0.5,1.4,0.2l20.3-15.6c0.5-0.4,0.5-1,0.2-1.4
		l-0.1-0.1C154.5,185.6,153.9,185.6,153.4,186z"/>
	<path class="st4" d="M155.7,188.9l-20.3,15.6c-0.5,0.4-0.5,1-0.2,1.4l0.1,0.1c0.4,0.5,1,0.5,1.4,0.2l20.3-15.6
		c0.5-0.4,0.5-1,0.2-1.4l-0.1-0.1C156.6,188.6,156,188.5,155.7,188.9z"/>
	<path class="st4" d="M157.8,191.9l-20.3,15.6c-0.5,0.4-0.5,1-0.2,1.4l0.1,0.1c0.4,0.5,1,0.5,1.4,0.2l20.3-15.6
		c0.5-0.4,0.5-1,0.2-1.4l-0.1-0.1C158.9,191.6,158.3,191.5,157.8,191.9z"/>
	<path class="st4" d="M160.2,194.6l-20.3,15.6c-0.5,0.4-0.5,1-0.2,1.4l0.1,0.1c0.4,0.5,1,0.5,1.4,0.2l20.3-15.6
		c0.5-0.4,0.5-1,0.2-1.4l-0.1-0.1C161.3,194.4,160.7,194.3,160.2,194.6z"/>
	<path class="st4" d="M162.4,197.6l-20.3,15.6c-0.5,0.4-0.5,1-0.2,1.4l0.1,0.1c0.4,0.5,1,0.5,1.4,0.2l20.3-15.6
		c0.5-0.4,0.5-1,0.2-1.4l-0.1-0.1C163.5,197.4,162.9,197.3,162.4,197.6z"/>
	<path class="st4" d="M164.7,200.5l-20.3,15.6c-0.5,0.4-0.5,1-0.2,1.4l0.1,0.1c0.4,0.5,1,0.5,1.4,0.2l20.3-15.6
		c0.5-0.4,0.5-1,0.2-1.4l-0.1-0.1C165.7,200.3,165,200.3,164.7,200.5z"/>
	<path class="st4" d="M166.8,203.6l-20.3,15.6c-0.5,0.4-0.5,1-0.2,1.4l0.1,0.1c0.4,0.5,1,0.5,1.4,0.2l20.3-15.6
		c0.5-0.4,0.5-1,0.2-1.4l-0.1-0.1C167.9,203.4,167.3,203.3,166.8,203.6z"/>
	<path class="st4" d="M169,206.6l-20.3,15.6c-0.5,0.4-0.5,1-0.2,1.4l0.1,0.1c0.4,0.5,1,0.5,1.4,0.2l20.3-15.6c0.5-0.4,0.5-1,0.2-1.4
		l-0.1-0.1C170.1,206.4,169.3,206.3,169,206.6z"/>
	<path class="st4" d="M171.3,209.6L151,225.2c-0.5,0.4-0.5,1-0.2,1.4l0.1,0.1c0.4,0.5,1,0.5,1.4,0.2l20.3-15.6
		c0.5-0.4,0.5-1,0.2-1.4l-0.1-0.1C172.3,209.4,171.7,209.3,171.3,209.6z"/>
	<path class="st4" d="M173.1,212.9l-20.3,15.6c-0.5,0.4-0.5,1-0.2,1.4l0.1,0.1c0.4,0.5,1,0.5,1.4,0.2l20.3-15.6
		c0.5-0.4,0.5-1,0.2-1.4l-0.1-0.1C174.1,212.6,173.5,212.5,173.1,212.9z"/>
	<path class="st4" d="M175.7,215.9l-20.3,15.6c-0.5,0.4-0.5,1-0.2,1.4l0.1,0.1c0.4,0.5,1,0.5,1.4,0.2l20.3-15.6
		c0.5-0.4,0.5-1,0.2-1.4l-0.1-0.1C176.8,215.6,176.2,215.5,175.7,215.9z"/>
	<path class="st4" d="M178,219l-20.3,15.6c-0.5,0.4-0.5,1-0.2,1.4l0.1,0.1c0.4,0.5,1,0.5,1.4,0.2l20.3-15.6c0.5-0.4,0.5-1,0.2-1.4
		l-0.1-0.1C179.1,218.7,178.5,218.7,178,219z"/>
	<path class="st4" d="M181.3,221.4L161.1,237c-0.5,0.4-0.5,1-0.2,1.4l0.1,0.1c0.4,0.5,1,0.5,1.4,0.2l20.3-15.6
		c0.5-0.4,0.5-1,0.2-1.4l-0.1-0.1C182.4,221.1,181.8,221.1,181.3,221.4z"/>
	<path class="st4" d="M184.3,224.4L164.1,240c-0.5,0.4-0.5,1-0.2,1.4l0.1,0.1c0.4,0.5,1,0.5,1.4,0.2l20.3-15.6
		c0.5-0.4,0.5-1,0.2-1.4l-0.1-0.1C185.4,224.1,184.7,224,184.3,224.4z"/>
	<path class="st3" d="M237.9,103.7L125,168.9c15.2,29.6,45.4,70.1,45.7,84.8l14.3-10.3h-0.1l14-10.2l0,0l9.8-7.1l-0.2,0.1l16.1-11.6
		c0,0,0,0,0.1,0l53.3-38.5C279.5,172.1,237.9,103.7,237.9,103.7z"/>
	<line class="st5" x1="146.1" y1="192.2" x2="246" y2="134.7"/>
	<path class="st4" d="M208.6,165l41.4-23.9c0,0,22.2,36.2,21.8,39.1c-2.3,1.7-39.2,28.3-39.2,28.3S219.7,182,208.6,165z"/>
	<path class="st4" d="M196,173.4l-40.4,23.4c-0.6,0.4-0.8,1.1-0.5,1.7l0.1,0.2c0.4,0.6,1.1,0.8,1.7,0.5l40.4-23.4
		c0.6-0.4,0.8-1.1,0.5-1.7l-0.1-0.2C197.3,173.3,196.6,173,196,173.4z"/>
	<path class="st4" d="M177.4,193.7l-22.2,12.8c-0.5,0.2-0.6,0.8-0.4,1.3l0.1,0.1c0.2,0.5,0.8,0.6,1.3,0.4l22.2-12.8
		c0.5-0.2,0.6-0.8,0.4-1.3l-0.1-0.1C178.5,193.5,177.9,193.4,177.4,193.7z"/>
	<path class="st4" d="M179.2,196.7L157,209.5c-0.5,0.2-0.6,0.8-0.4,1.3l0.1,0.1c0.2,0.5,0.8,0.6,1.3,0.4l22.2-12.8
		c0.5-0.2,0.6-0.8,0.4-1.3l-0.1-0.1C180.3,196.5,179.7,196.4,179.2,196.7z"/>
	<path class="st4" d="M181,200l-22.2,12.7c-0.5,0.2-0.6,0.8-0.4,1.3l0.1,0.1c0.2,0.5,0.8,0.6,1.3,0.4l22.2-12.8
		c0.5-0.2,0.6-0.8,0.4-1.3l-0.1-0.1C182.1,199.9,181.5,199.7,181,200z"/>
	<path class="st4" d="M182.8,203.1L160.6,216c-0.5,0.2-0.6,0.8-0.4,1.3l0.1,0.1c0.2,0.5,0.8,0.6,1.3,0.4l22.2-12.8
		c0.5-0.2,0.6-0.8,0.4-1.3l-0.1-0.1C183.9,203,183.3,202.9,182.8,203.1z"/>
	<path class="st4" d="M184.6,206.4l-22.2,12.8c-0.5,0.2-0.6,0.8-0.4,1.3l0.1,0.1c0.2,0.5,0.8,0.6,1.3,0.4l22.2-12.8
		c0.5-0.2,0.6-0.8,0.4-1.3l-0.1-0.1C185.7,206.3,185.1,206.1,184.6,206.4z"/>
	<path class="st4" d="M186.6,209.5l-22.2,12.8c-0.5,0.2-0.6,0.8-0.4,1.3l0.1,0.1c0.2,0.5,0.8,0.6,1.3,0.4l22.2-12.8
		c0.5-0.2,0.6-0.8,0.4-1.3l-0.1-0.1C187.7,209.4,187.1,209.3,186.6,209.5z"/>
	<path class="st4" d="M188.4,212.7l-22.2,12.8c-0.5,0.2-0.6,0.8-0.4,1.3l0.1,0.1c0.2,0.5,0.8,0.6,1.3,0.4l22.2-12.8
		c0.5-0.2,0.6-0.8,0.4-1.3l-0.1-0.1C189.5,212.6,188.9,212.4,188.4,212.7z"/>
	<path class="st4" d="M190.2,215.9L168,228.7c-0.5,0.2-0.6,0.8-0.4,1.3l0.1,0.1c0.2,0.5,0.8,0.6,1.3,0.4l22.2-12.8
		c0.5-0.2,0.6-0.8,0.4-1.3l-0.1-0.1C191.3,215.9,190.7,215.6,190.2,215.9z"/>
	<path class="st4" d="M192,219.2L169.8,232c-0.5,0.2-0.6,0.8-0.4,1.3l0.1,0.1c0.2,0.5,0.8,0.6,1.3,0.4L193,221
		c0.5-0.2,0.6-0.8,0.4-1.3l-0.1-0.1C193.1,219.1,192.5,219,192,219.2z"/>
	<path class="st4" d="M193.7,222.6l-22.2,12.8c-0.5,0.2-0.6,0.8-0.4,1.3l0.1,0.1c0.2,0.5,0.8,0.6,1.3,0.4l22.2-12.8
		c0.5-0.2,0.6-0.8,0.4-1.3L195,223C194.8,222.5,194.2,222.2,193.7,222.6z"/>
	<path class="st4" d="M195.6,225.7l-22.2,12.8c-0.5,0.2-0.6,0.8-0.4,1.3l0.1,0.1c0.2,0.5,0.8,0.6,1.3,0.4l22.2-12.8
		c0.5-0.2,0.6-0.8,0.4-1.3l-0.1-0.1C196.7,225.6,196.1,225.5,195.6,225.7z"/>
	<path class="st4" d="M197.1,229.3l-22.2,12.8c-0.5,0.2-0.6,0.8-0.4,1.3l0.1,0.1c0.2,0.5,0.8,0.6,1.3,0.4l22.2-12.8
		c0.5-0.2,0.6-0.8,0.4-1.3l-0.1-0.1C198.1,229.2,197.5,228.9,197.1,229.3z"/>
	<path class="st4" d="M204.4,178.7l-22.2,12.8c-0.5,0.2-0.6,0.8-0.4,1.3l0.1,0.1c0.2,0.5,0.8,0.6,1.3,0.4l22.2-12.8
		c0.5-0.2,0.6-0.8,0.4-1.3l-0.1-0.1C205.5,178.5,204.9,178.4,204.4,178.7z"/>
	<path class="st4" d="M206.2,181.7L184,194.5c-0.5,0.2-0.6,0.8-0.4,1.3l0.1,0.1c0.2,0.5,0.8,0.6,1.3,0.4l22.2-12.8
		c0.5-0.2,0.6-0.8,0.4-1.3l-0.1-0.1C207.3,181.5,206.7,181.4,206.2,181.7z"/>
	<path class="st4" d="M208,185l-22.2,12.8c-0.5,0.2-0.6,0.8-0.4,1.3l0.1,0.1c0.2,0.5,0.8,0.6,1.3,0.4l22.2-12.8
		c0.5-0.2,0.6-0.8,0.4-1.3l-0.1-0.1C209.1,184.9,208.5,184.8,208,185z"/>
	<path class="st4" d="M209.8,188.3l-22.2,12.8c-0.5,0.2-0.6,0.8-0.4,1.3l0.1,0.1c0.2,0.5,0.8,0.6,1.3,0.4l22.2-12.8
		c0.5-0.2,0.6-0.8,0.4-1.3l-0.1-0.1C210.9,188.1,210.3,187.9,209.8,188.3z"/>
	<path class="st4" d="M211.6,191.4l-22.2,12.8c-0.5,0.2-0.6,0.8-0.4,1.3l0.1,0.1c0.2,0.5,0.8,0.6,1.3,0.4l22.2-12.8
		c0.5-0.2,0.6-0.8,0.4-1.3l-0.1-0.1C212.7,191.3,212.1,191.1,211.6,191.4z"/>
	<path class="st4" d="M213.6,194.5l-22.2,12.8c-0.5,0.2-0.6,0.8-0.4,1.3l0.1,0.1c0.2,0.5,0.8,0.6,1.3,0.4l22.2-12.8
		c0.5-0.2,0.6-0.8,0.4-1.3l-0.1-0.1C214.7,194.4,214.1,194.3,213.6,194.5z"/>
	<path class="st4" d="M215.4,197.7l-22.2,12.8c-0.5,0.2-0.6,0.8-0.4,1.3l0.1,0.1c0.2,0.5,0.8,0.6,1.3,0.4l22.2-12.8
		c0.5-0.2,0.6-0.8,0.4-1.3l-0.1-0.1C216.5,197.6,215.9,197.5,215.4,197.7z"/>
	<path class="st4" d="M217.2,201L195,213.8c-0.5,0.2-0.6,0.8-0.4,1.3l0.1,0.1c0.2,0.5,0.8,0.6,1.3,0.4l22.2-12.8
		c0.5-0.2,0.6-0.8,0.4-1.3l-0.1-0.1C218.3,200.9,217.7,200.6,217.2,201z"/>
	<path class="st4" d="M219,204.2L196.8,217c-0.5,0.2-0.6,0.8-0.4,1.3l0.1,0.1c0.2,0.5,0.8,0.6,1.3,0.4L220,206
		c0.5-0.2,0.6-0.8,0.4-1.3l-0.1-0.1C220.1,204.1,219.5,204,219,204.2z"/>
	<path class="st4" d="M220.7,207.6l-22.2,12.8c-0.5,0.2-0.6,0.8-0.4,1.3l0.1,0.1c0.2,0.5,0.8,0.6,1.3,0.4l22.2-12.8
		c0.5-0.2,0.6-0.8,0.4-1.3L222,208C221.8,207.5,221.2,207.3,220.7,207.6z"/>
	<path class="st4" d="M222.6,210.8l-22.2,12.7c-0.5,0.2-0.6,0.8-0.4,1.3l0.1,0.1c0.2,0.5,0.8,0.6,1.3,0.4l22.2-12.8
		c0.5-0.2,0.6-0.8,0.4-1.3l-0.1-0.1C223.7,210.7,223.1,210.5,222.6,210.8z"/>
	<path class="st4" d="M223.9,214.3L202,227c-0.5,0.4-0.7,1-0.4,1.6c0.4,0.5,1,0.7,1.6,0.4l5.6-3.2l15.8-11.5
		C224.4,214.2,224.2,214.2,223.9,214.3z"/>
	<path class="st4" d="M198,232.8l-22,12.7c-0.5,0.4-0.7,1-0.4,1.6c0.4,0.5,1,0.7,1.6,0.4l7.9-4.6l13.9-10.1
		C198.6,232.7,198.3,232.7,198,232.8z"/>
	<path class="st4" d="M173.7,152.7c-1.1,0.7-1.3,1.2-1,2c0.2,0.6,0.7,1.6,1.8,3.2l4.4,7.7l-0.6,0.4l-14-5.3l0,0l2.8,4.8
		c1.1,1.8,1.6,2.6,2,3.1c0.7,1,1.2,0.8,2.6,0.2l0.4,0.5l-4.6,2.6l-0.4-0.5c1.1-0.7,1.4-1.2,1-2.3c-0.2-0.6-0.7-1.6-1.8-3.4l-2.4-4.2
		c-0.8-1.4-0.8-1.4-1.6-1.7c-0.7-0.2-1.2-0.1-2.2,0.2l-0.4-0.5l2.9-1.7l13.6,5l0,0l-2.8-4.7c-1.1-1.8-1.6-2.6-2-3.1
		c-0.6-0.8-1.2-0.8-2.5-0.1l-0.4-0.5l4.6-2.6L173.7,152.7z"/>
	<path class="st4" d="M189.9,155.3c0.2,0.7,1,2.8,1.1,3.5l-9.2,5.4l-0.4-0.5c1.7-1.2,1.7-1.4,0.8-3l-4.4-7.7c-1-1.7-1.2-1.7-2.8-1
		l-0.4-0.5l8.5-4.9c0.2,0.5,1.1,1.7,1.8,2.6l-0.5,0.5c-0.6-0.7-1.1-1-1.6-1.3c-0.5-0.2-1.1-0.1-2.5,0.7l-1.4,0.8
		c-0.6,0.4-0.6,0.4-0.2,1l2.5,4.3l1.8-1.1c1.7-1,1.7-1.2,1.2-2.6l0.6-0.4l2.2,3.7l-0.6,0.4c-1.1-1.2-1.2-1.3-2.9-0.4l-1.8,1.1
		l2.2,3.6c0.5,1,0.8,1.2,1.3,1.3c0.5,0,1.2-0.4,2.2-1c1.4-0.8,1.9-1.3,2-2c0.1-0.6,0.1-1.4-0.1-2.4L189.9,155.3z"/>
	<path class="st4" d="M203.2,135.6c-1.2,1-1.3,1.2-1,3.1c0.2,1.4,1.2,5.8,2.8,12l-0.6,0.4c-2.9-2.4-6.4-5.4-8.9-7.6l0,0
		c0.8,4,1.6,7.7,2.4,11.4l-0.6,0.4c-3-2.9-6.1-5.6-9.1-8.4c-1.4-1.3-1.8-1.3-3-0.7l-0.4-0.5l4.7-2.8l0.4,0.5c-1.3,1-1.2,1.2-0.4,1.9
		c2.3,2.2,4.6,4.3,7,6.6l0,0c-0.8-3.8-1.6-7.7-2.4-11.4l0.6-0.4c2.9,2.5,5.9,5,8.9,7.6l0,0c-0.7-3-1.8-7.4-2.3-9
		c-0.4-1.3-0.6-1.4-2.2-0.7l-0.4-0.5l4.2-2.5L203.2,135.6z"/>
	<path class="st4" d="M211.6,133.9c-1.1-1.1-2.3-2-4-1.1c-1.4,0.8-1.6,2.3-1,3.4c0.8,1.4,2.2,1.6,4.1,1.4c1.9-0.1,4.3-0.2,5.5,1.9
		c1.2,2,0.4,4.7-2.2,6.1c-0.8,0.5-1.4,0.7-2,0.8s-1,0.1-1.2,0.1c-0.4-0.4-1.6-1.8-2.3-2.6l0.5-0.5c1,1,3,2.4,4.9,1.3
		c1.4-0.8,1.8-2.3,1-3.6c-0.8-1.4-2.3-1.4-4.2-1.4c-1.6,0.1-4.1,0.2-5.4-1.9c-1.1-1.8-0.5-4.3,1.9-5.8c0.8-0.5,1.8-0.7,2.6-1
		c0.5,0.6,1,1.3,1.9,2.4L211.6,133.9z"/>
</g>
</svg>
