<?xml version="1.0" encoding="utf-8"?>
<!-- Generator: Adobe Illustrator 21.1.0, SVG Export Plug-In . SVG Version: 6.00 Build 0)  -->
<svg version="1.1" id="Layer_1" xmlns="http://www.w3.org/2000/svg" xmlns:xlink="http://www.w3.org/1999/xlink" x="0px" y="0px"
	 viewBox="0 0 388.2 357" style="enable-background:new 0 0 388.2 357;" xml:space="preserve">
<style type="text/css">
	.st0{fill:#FFA639;stroke:#FF9C32;stroke-width:2;stroke-miterlimit:10;}
	.st1{fill:#FFAF3B;stroke:#FF9C32;stroke-width:2;stroke-miterlimit:10;}
	.st2{fill:none;stroke:#FF9C32;stroke-width:2;stroke-miterlimit:10;}
	.st3{fill:#EA9436;}
	.st4{fill:#FFF1A5;}
	.st5{fill:#FFB730;}
	.st6{fill:#FFDA7D;}
	.st7{fill:#FFDB58;}
	.st8{fill:#FFD652;}
</style>
<g id="Selected_1_">
	<g id="Selected">
		<path class="st0" d="M304.6,71.1c27.5,27.5,44.6,65.5,44.6,107.4c0,83.7-68.2,151.9-151.9,151.9c-39.7,0-75.9-15.3-102.9-40.3"/>
		<path class="st1" d="M94.4,289.9c-30.1-27.8-48.9-67.5-48.9-111.5c0-83.7,68.2-151.9,151.9-151.9c41.8,0,79.8,17,107.3,44.5"/>
		<circle class="st2" cx="196.7" cy="178.4" r="171"/>
	</g>
</g>
<g>
	<g id="Orange">
		<circle class="st3" cx="176.3" cy="172.9" r="70.7"/>
		<circle class="st4" cx="176.3" cy="172.9" r="66.1"/>
		<g>
			<path class="st5" d="M136.7,216.2c9.8,8.9,22.5,14.6,36.6,15.3v-51.9C161.1,191.8,148.9,204,136.7,216.2z"/>
			<path class="st5" d="M170.1,175.5h-52.4c0.6,14.3,6.3,27.2,15.3,37.1L170.1,175.5z"/>
			<path class="st5" d="M173.4,166.1v-51.8c-14.1,0.7-26.8,6.3-36.6,15.2C149,141.7,161.2,153.9,173.4,166.1z"/>
			<path class="st5" d="M133.1,133.2c-9,9.8-14.8,22.8-15.4,37h52.4C157.8,157.9,145.4,145.6,133.1,133.2z"/>
			<path class="st5" d="M215.9,129.6c-9.9-9.1-23-14.8-37.3-15.3V167C191,154.5,203.5,142.1,215.9,129.6z"/>
			<path class="st5" d="M182.7,170.2h52.2c-0.6-14.2-6.3-27.1-15.3-36.9C207.3,145.6,195,157.9,182.7,170.2z"/>
			<path class="st5" d="M219.7,212.4c9-9.8,14.6-22.7,15.2-37h-52.2C195,187.8,207.4,200.1,219.7,212.4z"/>
			<path class="st5" d="M178.6,178.7v52.8c14.4-0.6,27.5-6.3,37.4-15.4C203.5,203.7,191.1,191.2,178.6,178.7z"/>
		</g>
		<g>
			<path class="st6" d="M152.3,164.3c0.5,0.1,0.8,0.5,0.7,1l0,0c-0.1,0.5-0.5,0.8-1,0.7l-16.4-2.8c-0.5-0.1-0.8-0.5-0.7-1l0,0
				c0.1-0.5,0.5-0.8,1-0.7L152.3,164.3z"/>
			<path class="st6" d="M184.4,156c-0.2,0.4-0.8,0.6-1.2,0.3l0,0c-0.4-0.2-0.6-0.8-0.3-1.2l8.3-14.5c0.2-0.4,0.8-0.6,1.2-0.3l0,0
				c0.4,0.2,0.6,0.8,0.3,1.2L184.4,156z"/>
			<path class="st6" d="M184.3,141.7c-0.1,0.5-0.6,0.8-1,0.7l0,0c-0.5-0.1-0.8-0.6-0.7-1L186,125c0.1-0.5,0.6-0.8,1-0.7l0,0
				c0.5,0.1,0.8,0.6,0.7,1L184.3,141.7z"/>
			<path class="st6" d="M143.4,154c0.4,0.2,0.6,0.7,0.4,1.2l0,0c-0.2,0.4-0.7,0.6-1.2,0.4l-10-4.4c-0.4-0.2-0.6-0.7-0.4-1.2l0,0
				c0.2-0.4,0.7-0.6,1.2-0.4L143.4,154z"/>
			<path class="st6" d="M171,156.1c0.2,0.4,0,1-0.4,1.2l0,0c-0.4,0.2-1,0-1.2-0.4l-5.1-9.6c-0.2-0.4,0-1,0.4-1.2l0,0
				c0.4-0.2,1,0,1.2,0.4L171,156.1z"/>
			<path class="st6" d="M167.5,137.6c0.2,0.4,0,1-0.4,1.2l0,0c-0.4,0.2-1,0-1.2-0.4l-5.1-9.6c-0.2-0.4,0-1,0.4-1.2l0,0
				c0.4-0.2,1,0,1.2,0.4L167.5,137.6z"/>
			<path class="st6" d="M197,163.8c-0.5,0.2-1-0.1-1.1-0.5l0,0c-0.2-0.5,0.1-1,0.5-1.1l15.7-5.7c0.5-0.2,1,0.1,1.1,0.5l0,0
				c0.2,0.5-0.1,1-0.5,1.1L197,163.8z"/>
			<path class="st6" d="M181.2,188.4c-0.1-0.5,0.3-0.9,0.7-1l0,0c0.5-0.1,0.9,0.3,1,0.7l2.5,16.5c0.1,0.5-0.3,0.9-0.7,1l0,0
				c-0.5,0.1-0.9-0.3-1-0.7L181.2,188.4z"/>
			<path class="st6" d="M190.2,199.5c-0.2-0.4,0-1,0.4-1.2l0,0c0.4-0.2,1,0,1.2,0.4l7.4,14.9c0.2,0.4,0,1-0.4,1.2l0,0
				c-0.4,0.2-1,0-1.2-0.4L190.2,199.5z"/>
			<path class="st6" d="M207.7,167.4c-0.5,0-0.9-0.3-0.9-0.8l0,0c0-0.5,0.3-0.9,0.8-0.9l10.8-1.1c0.5,0,0.9,0.3,0.9,0.8l0,0
				c0,0.5-0.3,0.9-0.8,0.9L207.7,167.4z"/>
			<path class="st6" d="M193.4,180.5c-0.4-0.2-0.6-0.8-0.3-1.2l0,0c0.2-0.4,0.8-0.6,1.2-0.3l9.6,5.2c0.4,0.2,0.6,0.8,0.3,1.2l0,0
				c-0.2,0.4-0.8,0.6-1.2,0.3L193.4,180.5z"/>
			<path class="st6" d="M207,192.1c-0.4-0.2-0.6-0.8-0.3-1.2l0,0c0.2-0.4,0.8-0.6,1.2-0.3l9.6,5.2c0.4,0.2,0.6,0.8,0.3,1.2l0,0
				c-0.2,0.4-0.8,0.6-1.2,0.3L207,192.1z"/>
			<path class="st6" d="M161,178c0.5-0.1,0.9,0.2,1,0.7l0,0c0.1,0.5-0.2,0.9-0.7,1l-16.4,3c-0.5,0.1-0.9-0.2-1-0.7l0,0
				c-0.1-0.5,0.2-0.9,0.7-1L161,178z"/>
			<path class="st6" d="M150.2,187.3c0.4-0.2,1-0.1,1.2,0.4l0,0c0.2,0.4,0.1,1-0.4,1.2l-14.7,7.9c-0.4,0.2-1,0.1-1.2-0.4l0,0
				c-0.2-0.4-0.1-1,0.4-1.2L150.2,187.3z"/>
			<path class="st6" d="M169.3,189.9c0.2-0.4,0.8-0.6,1.2-0.4l0,0c0.4,0.2,0.6,0.8,0.4,1.2l-4.9,9.7c-0.2,0.4-0.8,0.6-1.2,0.4l0,0
				c-0.4-0.2-0.6-0.8-0.4-1.2L169.3,189.9z"/>
			<path class="st6" d="M158.1,203.8c0.2-0.4,0.8-0.6,1.2-0.4l0,0c0.4,0.2,0.6,0.8,0.4,1.2l-4.9,9.7c-0.2,0.4-0.8,0.6-1.2,0.4l0,0
				c-0.4-0.2-0.6-0.8-0.4-1.2L158.1,203.8z"/>
		</g>
	</g>
	<g id="Lemon">
		<path class="st7" d="M285.8,162.9c-0.8-4.4-4.4-7.9-8.8-8.8c-2.4-0.5-4.8-0.1-6.8,0.8c-3.4,1.6-7.2,2-10.8,0.9
			c-16.9-5.2-38.2,0.6-53.9,16.3c-15.7,15.7-21.5,37-16.3,53.9c1.1,3.6,0.6,7.4-0.9,10.8c-0.9,2-1.3,4.4-0.8,6.8
			c0.8,4.4,4.4,7.9,8.8,8.8c2.5,0.5,4.8,0.1,6.8-0.8c3.4-1.6,7.2-2,10.8-0.9c16.9,5.2,38.2-0.6,53.9-16.3
			c15.7-15.7,21.5-37,16.3-53.9c-1.1-3.6-0.6-7.4,0.9-10.8C285.9,167.7,286.3,165.4,285.8,162.9z"/>
		<g>
			<path class="st8" d="M237.2,155c-11.1,2.1-22.4,7.9-31.7,17.2c-15.7,15.7-21.5,37-16.3,53.9c1.1,3.6,0.6,7.4-0.9,10.8
				c-0.9,2-1.3,4.4-0.8,6.8c0.8,4.4,4.4,7.9,8.8,8.8c2.5,0.5,4.8,0.1,6.8-0.8c3.4-1.6,7.2-2,10.8-0.9c1.5,0.5,3.1,0.8,4.6,1.1
				C207.8,229,201.6,181.7,237.2,155z"/>
		</g>
		<g>
			<path class="st3" d="M286.7,170.3c1.1-2.4,1.4-5.1,0.9-7.8l0,0c-1-5.1-5-9.1-10.1-10.1c-2.7-0.5-5.4-0.2-7.8,0.9
				c-3.3,1.5-6.7,1.8-9.7,0.9c-18.1-5.6-40,1-55.8,16.8c-15.8,15.8-22.4,37.6-16.8,55.8c0.9,3,0.6,6.5-0.9,9.7
				c-1.1,2.4-1.4,5.1-0.9,7.8c1,5.1,5,9.1,10.1,10.1c0.8,0.2,1.7,0.2,2.5,0.2c1.8,0,3.6-0.4,5.3-1.2c3.3-1.5,6.7-1.8,9.7-0.9
				c18.1,5.6,40-1,55.8-16.8c15.8-15.8,22.4-37.6,16.8-55.8C284.9,177,285.2,173.5,286.7,170.3z M282.7,180.9
				c5.2,17-1.1,37.6-16,52.6c-14.9,14.9-35.6,21.2-52.6,16c-3.8-1.2-8-0.8-12,1c-1.8,0.8-3.8,1.1-5.9,0.7c-3.8-0.7-6.8-3.7-7.5-7.5
				c-0.4-2-0.1-4.1,0.7-5.9c1.8-4,2.2-8.2,1-12c-5.2-17,1.1-37.6,16-52.6c11.4-11.4,26.2-17.8,40.2-17.8c4.2,0,8.4,0.6,12.4,1.8
				c3.8,1.2,8,0.8,12-1c1.8-0.8,3.8-1.1,5.9-0.7c3.8,0.7,6.8,3.7,7.5,7.5l0,0c0.4,2,0.1,4.1-0.7,5.9
				C281.9,172.9,281.6,177.2,282.7,180.9z"/>
			<path class="st3" d="M199.4,190.7c-0.8-0.4-1.8-0.1-2.1,0.7c-5.5,11.2-6.9,23.1-3.7,33.4c0.2,0.7,0.8,1.1,1.5,1.1
				c0.2,0,0.3,0,0.5-0.1c0.8-0.3,1.3-1.2,1.1-2c-2.9-9.5-1.7-20.5,3.5-31C200.5,192.1,200.2,191.1,199.4,190.7z"/>
			<path class="st3" d="M279.8,192.2C279.8,192.2,279.8,192.2,279.8,192.2c-0.9,0-1.6,0.7-1.6,1.6c-0.1,7.3-2.2,15-6.1,22.2
				c-0.4,0.8-0.1,1.7,0.6,2.2c0.2,0.1,0.5,0.2,0.8,0.2c0.6,0,1.1-0.3,1.4-0.8c4.2-7.6,6.5-15.8,6.5-23.7
				C281.4,192.9,280.6,192.2,279.8,192.2z"/>
			<path class="st3" d="M277.7,187.6c0.1,0.8,0.8,1.4,1.6,1.4c0.1,0,0.2,0,0.2,0c0.9-0.1,1.5-1,1.3-1.8c-0.3-1.8-0.7-3.6-1.2-5.3
				c-0.3-0.8-1.2-1.3-2-1.1c-0.8,0.3-1.3,1.2-1.1,2C277.1,184.4,277.5,186,277.7,187.6z"/>
		</g>
	</g>
</g>
</svg>
