<?xml version="1.0" encoding="utf-8"?>
<!-- Generator: Adobe Illustrator 21.1.0, SVG Export Plug-In . SVG Version: 6.00 Build 0)  -->
<svg version="1.1" id="Layer_1" xmlns="http://www.w3.org/2000/svg" xmlns:xlink="http://www.w3.org/1999/xlink" x="0px" y="0px"
	 viewBox="0 0 388.2 357" style="enable-background:new 0 0 388.2 357;" xml:space="preserve">
<style type="text/css">
	.st0{fill:#FFA639;stroke:#FF9C32;stroke-width:2;stroke-miterlimit:10;}
	.st1{fill:#FFAF3B;stroke:#FF9C32;stroke-width:2;stroke-miterlimit:10;}
	.st2{fill:none;stroke:#FF9C32;stroke-width:2;stroke-miterlimit:10;}
	.st3{fill:#FFF1A5;stroke:#FF9C32;stroke-width:2;stroke-miterlimit:10;}
	.st4{fill:#FFFFE5;stroke:#FF9C32;stroke-width:2;stroke-miterlimit:10;}
</style>
<g id="Selected_1_">
	<g id="Selected">
		<path class="st0" d="M304.6,71.1c27.5,27.5,44.6,65.5,44.6,107.4c0,83.7-68.2,151.9-151.9,151.9c-39.7,0-75.9-15.3-102.9-40.3"/>
		<path class="st1" d="M94.4,289.9c-30.1-27.8-48.9-67.5-48.9-111.5c0-83.7,68.2-151.9,151.9-151.9c41.8,0,79.8,17,107.3,44.5"/>
		<circle class="st2" cx="196.7" cy="178.4" r="171"/>
	</g>
</g>
<g>
	<g id="Water_Bottle">
		<rect x="132.1" y="134.5" class="st3" width="63.4" height="69.5"/>
		<path class="st4" d="M183.2,276.1h-38.8c-8.2,0-15-6.8-15-15v-67.3c0-2.8,2.2-5,5-5h58.8c2.8,0,5,2.2,5,5v67.3
			C198.2,269.4,191.5,276.1,183.2,276.1z"/>
		<path class="st4" d="M163.8,91.6L163.8,91.6c-18.9,0-34.4,15.5-34.4,34.4v20.3c0,2.4,1.9,4.3,4.3,4.3h60.2c2.4,0,4.3-1.9,4.3-4.3
			V126C198.2,107.1,182.7,91.6,163.8,91.6z"/>
		<path class="st3" d="M158.8,80.7h10.1c2.8,0,5,2.2,5,5v7h-20.1v-7C153.8,82.9,156,80.7,158.8,80.7z"/>
	</g>
	<g id="Glass">
		<path class="st4" d="M233.9,231c7.5,7.7,25.1-2.7,28.1-3.9l2-35.7h-60.5l2.3,39.5C207.9,228.1,218.8,215.6,233.9,231z"/>
		<path class="st3" d="M233.9,231c-15.1-15.4-26-2.9-28.1-0.1l2.4,42.6h51l2.7-46.4C259,228.3,241.4,238.7,233.9,231z"/>
	</g>
</g>
</svg>
