<svg id="Layer_1" data-name="Layer 1" xmlns="http://www.w3.org/2000/svg" width="11in" height="8.5in" viewBox="0 0 792 612">
  <defs>
    <style>
      .cls-1 {
        fill: #ad00a1;
      }

      .cls-2 {
        fill: #fff;
      }
    </style>
  </defs>
  <title>breakfasttest</title>
  <rect class="cls-1" width="792" height="612"/>
  <g>
    <path class="cls-2" d="M144.93,326.65a4.55,4.55,0,0,1-2-1.1,4.8,4.8,0,0,1-1.33-2.5,18.8,18.8,0,0,1-.4-4.31V290.29a4.62,4.62,0,0,1,1.86-4.07,8.16,8.16,0,0,1,4.78-1.3h11.72q.87,0,2.58.1a21,21,0,0,1,2.64.26q.92.17,2.37.53a7.45,7.45,0,0,1,2.24.88,19.16,19.16,0,0,1,1.77,1.34,5.65,5.65,0,0,1,1.49,1.86,13,13,0,0,1,1.23,5.63,9.44,9.44,0,0,1-2.19,6.09,9.07,9.07,0,0,1-5.69,3.32v.12a11.18,11.18,0,0,1,6.84,3.43,9.56,9.56,0,0,1,2.57,6.7,10.8,10.8,0,0,1-.89,4.34,11.69,11.69,0,0,1-2.61,3.74,12,12,0,0,1-4.59,2.66,20.07,20.07,0,0,1-6.51,1h-13A13,13,0,0,1,144.93,326.65ZM155,303a22.54,22.54,0,0,0,3.58-.25,9.53,9.53,0,0,0,2.74-.87,4.22,4.22,0,0,0,1.88-1.79,6.85,6.85,0,0,0,0-5.73,4.13,4.13,0,0,0-1.82-1.76,8.94,8.94,0,0,0-2.57-.84,19.62,19.62,0,0,0-3.22-.23h-4.3V303Zm.52,17.37a28.15,28.15,0,0,0,4.1-.25,8.92,8.92,0,0,0,2.89-.92,4.09,4.09,0,0,0,1.85-1.93A7.65,7.65,0,0,0,165,314a4.79,4.79,0,0,0-2.48-4.62,15.73,15.73,0,0,0-7.24-1.33h-3.9v12.24Z"/>
    <path class="cls-2" d="M183.77,325.31a6.18,6.18,0,0,1-1.5-4.4V290.52a5,5,0,0,1,1.86-4.2,7.48,7.48,0,0,1,4.69-1.43h11.6a45.45,45.45,0,0,1,5,.25,22.74,22.74,0,0,1,4.39.94,11.32,11.32,0,0,1,3.62,1.83,8.28,8.28,0,0,1,2.34,3,10.43,10.43,0,0,1,.89,4.47q0,8.25-9.29,9.87v.12a15.76,15.76,0,0,1,3.81.82,5.9,5.9,0,0,1,2.44,1.7,7.52,7.52,0,0,1,1.44,2.68,23.14,23.14,0,0,1,.76,4l.55,3.84q.49,4.44-.65,6.44t-4.2,2a4.71,4.71,0,0,1-3.93-1.67,10,10,0,0,1-1.62-5.4l-.43-3.78a7.57,7.57,0,0,0-1.8-4.76q-1.49-1.47-4.89-1.47h-5.92v11.08a6.14,6.14,0,0,1-1.5,4.46,5.12,5.12,0,0,1-3.84,1.54A5,5,0,0,1,183.77,325.31ZM197.43,303a20.46,20.46,0,0,0,3.16-.22,12.23,12.23,0,0,0,2.74-.78,4.43,4.43,0,0,0,2.12-1.75,5.4,5.4,0,0,0,.75-2.94,7.26,7.26,0,0,0-.27-2.09,5.4,5.4,0,0,0-.69-1.52,3.57,3.57,0,0,0-1.15-1,7.17,7.17,0,0,0-1.4-.65,8.76,8.76,0,0,0-1.72-.33q-1.05-.12-1.8-.14t-2,0h-4.44V303Z"/>
    <path class="cls-2" d="M226.81,326.26a4.46,4.46,0,0,1-1.62-1.76,9.55,9.55,0,0,1-.85-2.35,12.15,12.15,0,0,1-.27-2.63V293.32q0-1.65.12-2.77a9.75,9.75,0,0,1,.52-2.27,4.73,4.73,0,0,1,1.11-1.83,5,5,0,0,1,1.93-1.11,9.21,9.21,0,0,1,3-.42h18.59a3.92,3.92,0,0,1,2.84,1.14,3.74,3.74,0,0,1,1.17,2.79,3.65,3.65,0,0,1-1.17,2.76,4,4,0,0,1-2.84,1.11H234.4v9H248a3.92,3.92,0,0,1,2.84,1.14,3.74,3.74,0,0,1,1.17,2.79,3.65,3.65,0,0,1-1.17,2.76,4,4,0,0,1-2.84,1.11H234.4v9.67H250a3.52,3.52,0,0,1,2.64,1.13,3.84,3.84,0,0,1,1.08,2.77,3.79,3.79,0,0,1-1.08,2.76,3.55,3.55,0,0,1-2.64,1.11H229.23A4.48,4.48,0,0,1,226.81,326.26Z"/>
    <path class="cls-2" d="M285.74,317.36h-17l-1.9,5.43a6.17,6.17,0,0,1-2.06,3.06,4.11,4.11,0,0,1-2.81,1,6.06,6.06,0,0,1-2.7-.87,3.7,3.7,0,0,1-1.69-2.45,7.13,7.13,0,0,1,.23-3.77l10.53-27.24a21,21,0,0,1,1.85-4.11,8.86,8.86,0,0,1,2.16-2.53,7.22,7.22,0,0,1,2.29-1.2,10.22,10.22,0,0,1,5.17,0,7.22,7.22,0,0,1,2.29,1.2,8.86,8.86,0,0,1,2.16,2.53,21,21,0,0,1,1.85,4.11l10.53,27.24a7.13,7.13,0,0,1,.23,3.77,3.7,3.7,0,0,1-1.69,2.45,6.06,6.06,0,0,1-2.7.87,4.11,4.11,0,0,1-2.81-1,6.17,6.17,0,0,1-2.06-3.06Zm-8.48-24.07-6.35,18h12.7Z"/>
    <path class="cls-2" d="M304.63,325.13a6.27,6.27,0,0,1-1.54-4.26v-30a6.27,6.27,0,0,1,1.54-4.26,4.78,4.78,0,0,1,3.74-1.77,4.87,4.87,0,0,1,3.75,1.79,6.18,6.18,0,0,1,1.59,4.24l-.06,13,13.19-14.83q.89-1.18,1.33-1.7t1.14-1.23a4.43,4.43,0,0,1,1.36-1,3.56,3.56,0,0,1,1.4-.27,4.62,4.62,0,0,1,3.28,1.36,4.4,4.4,0,0,1,1.43,3.32q0,1.85-2.71,5.43l-9.24,9.93,9.9,11.46q2.77,3.87,2.77,5.86a4.26,4.26,0,0,1-1.52,3.29,5,5,0,0,1-3.39,1.36,3.88,3.88,0,0,1-1.11-.16,3.53,3.53,0,0,1-1.07-.55q-.53-.39-.92-.72a7.33,7.33,0,0,1-.91-1l-.78-1q-.26-.35-.81-1.14t-.72-1l-12.61-15.07.06,14.6a6.23,6.23,0,0,1-1.56,4.26,4.85,4.85,0,0,1-3.78,1.77A4.78,4.78,0,0,1,304.63,325.13Z"/>
    <path class="cls-2" d="M345.57,325.13a6.19,6.19,0,0,1-1.56-4.23V290.57a5,5,0,0,1,1.89-4.24,7.85,7.85,0,0,1,4.83-1.41h18a3.5,3.5,0,0,1,2.64,1.14,3.89,3.89,0,0,1,1.08,2.79,3.79,3.79,0,0,1-1.08,2.76,3.55,3.55,0,0,1-2.64,1.11h-14v8.86h13.1a3.52,3.52,0,0,1,2.64,1.13,3.88,3.88,0,0,1,1.08,2.8,3.79,3.79,0,0,1-1.08,2.76,3.55,3.55,0,0,1-2.64,1.11h-13.1l0,11.54a6.19,6.19,0,0,1-1.56,4.23,4.88,4.88,0,0,1-7.53,0Z"/>
    <path class="cls-2" d="M403.29,317.36h-17l-1.9,5.43a6.17,6.17,0,0,1-2.06,3.06,4.11,4.11,0,0,1-2.81,1,6.06,6.06,0,0,1-2.7-.87,3.7,3.7,0,0,1-1.69-2.45,7.13,7.13,0,0,1,.23-3.77l10.53-27.24a21,21,0,0,1,1.85-4.11,8.86,8.86,0,0,1,2.16-2.53,7.22,7.22,0,0,1,2.29-1.2,10.22,10.22,0,0,1,5.17,0,7.22,7.22,0,0,1,2.29,1.2,8.86,8.86,0,0,1,2.16,2.53,21,21,0,0,1,1.85,4.11l10.53,27.24a7.13,7.13,0,0,1,.23,3.77,3.7,3.7,0,0,1-1.69,2.45,6.06,6.06,0,0,1-2.7.87,4.11,4.11,0,0,1-2.81-1,6.17,6.17,0,0,1-2.06-3.06Zm-8.48-24.07-6.35,18h12.7Z"/>
    <path class="cls-2" d="M421.58,324.92a3.44,3.44,0,0,1-1.27-1.49,3.51,3.51,0,0,1-.3-1.83,5.75,5.75,0,0,1,.52-1.82,3.44,3.44,0,0,1,1.21-1.43,4.09,4.09,0,0,1,1.76-.66,3.67,3.67,0,0,1,2.15.48,24.65,24.65,0,0,0,9.73,2.08,10.76,10.76,0,0,0,5.24-1.13,3.68,3.68,0,0,0,2-3.43q0-3-4.44-4.5L428.63,308q-5.4-2-7.62-4.46a9.59,9.59,0,0,1-2.22-6.71,11.11,11.11,0,0,1,4.65-9.35Q428.08,284,436,284a32.21,32.21,0,0,1,7.69,1,13.35,13.35,0,0,1,6,2.87,3.72,3.72,0,0,1,1.1,2,3.65,3.65,0,0,1-.12,2,5.86,5.86,0,0,1-1,1.7,2.7,2.7,0,0,1-1.54,1,3,3,0,0,1-1.79-.19,21.22,21.22,0,0,0-4.81-2,20.43,20.43,0,0,0-5.12-.56,14.62,14.62,0,0,0-3.61.42,6.45,6.45,0,0,0-2.77,1.43,3.18,3.18,0,0,0-1.13,2.45,3.47,3.47,0,0,0,1.54,3,17.58,17.58,0,0,0,4.55,2.12,10.12,10.12,0,0,0,2.21.43,10.73,10.73,0,0,1,2.24.43q2.66.81,4.55,1.56a24.74,24.74,0,0,1,3.68,1.83,11.65,11.65,0,0,1,2.87,2.35,9.87,9.87,0,0,1,1.73,3,12.47,12.47,0,0,1-4,13.68Q443.61,328,435.67,328,426.64,328,421.58,324.92Z"/>
    <path class="cls-2" d="M468.67,325.13a6.23,6.23,0,0,1-1.54-4.23V292.85h-7.94a4.06,4.06,0,0,1-2.9-1.17,3.84,3.84,0,0,1,0-5.63,4.06,4.06,0,0,1,2.9-1.17h26.35a4,4,0,0,1,2.89,1.17,3.8,3.8,0,0,1,1.21,2.84,3.72,3.72,0,0,1-1.21,2.8,4,4,0,0,1-2.89,1.15h-7.76v28.05a6.16,6.16,0,0,1-1.57,4.23,4.87,4.87,0,0,1-3.77,1.77A4.81,4.81,0,0,1,468.67,325.13Z"/>
    <path class="cls-2" d="M520.13,325.13a6.23,6.23,0,0,1-1.54-4.23V292.85h-7.94a4.06,4.06,0,0,1-2.9-1.17,3.84,3.84,0,0,1,0-5.63,4.06,4.06,0,0,1,2.9-1.17H537a4,4,0,0,1,2.89,1.17,3.8,3.8,0,0,1,1.21,2.84,3.72,3.72,0,0,1-1.21,2.8,4,4,0,0,1-2.89,1.15h-7.76v28.05a6.16,6.16,0,0,1-1.57,4.23,4.87,4.87,0,0,1-3.77,1.77A4.81,4.81,0,0,1,520.13,325.13Z"/>
    <path class="cls-2" d="M548.48,326.26a4.46,4.46,0,0,1-1.62-1.76,9.55,9.55,0,0,1-.85-2.35,12.15,12.15,0,0,1-.27-2.63V293.32q0-1.65.12-2.77a9.75,9.75,0,0,1,.52-2.27,4.73,4.73,0,0,1,1.11-1.83,5,5,0,0,1,1.93-1.11,9.21,9.21,0,0,1,3-.42H571a3.92,3.92,0,0,1,2.84,1.14,3.74,3.74,0,0,1,1.17,2.79,3.65,3.65,0,0,1-1.17,2.76,4,4,0,0,1-2.84,1.11H556.07v9h13.59a3.92,3.92,0,0,1,2.84,1.14,3.74,3.74,0,0,1,1.17,2.79,3.65,3.65,0,0,1-1.17,2.76,4,4,0,0,1-2.84,1.11H556.07v9.67h15.61a3.52,3.52,0,0,1,2.64,1.13,3.84,3.84,0,0,1,1.08,2.77,3.79,3.79,0,0,1-1.08,2.76,3.55,3.55,0,0,1-2.64,1.11H550.91A4.48,4.48,0,0,1,548.48,326.26Z"/>
    <path class="cls-2" d="M582.77,324.92a3.44,3.44,0,0,1-1.27-1.49,3.51,3.51,0,0,1-.3-1.83,5.75,5.75,0,0,1,.52-1.82,3.44,3.44,0,0,1,1.21-1.43,4.09,4.09,0,0,1,1.76-.66,3.67,3.67,0,0,1,2.15.48,24.65,24.65,0,0,0,9.73,2.08,10.76,10.76,0,0,0,5.24-1.13,3.68,3.68,0,0,0,2-3.43q0-3-4.44-4.5L589.81,308q-5.4-2-7.62-4.46a9.59,9.59,0,0,1-2.22-6.71,11.11,11.11,0,0,1,4.65-9.35q4.65-3.49,12.55-3.49a32.21,32.21,0,0,1,7.69,1,13.35,13.35,0,0,1,6,2.87,3.72,3.72,0,0,1,1.1,2,3.65,3.65,0,0,1-.12,2,5.86,5.86,0,0,1-1,1.7,2.7,2.7,0,0,1-1.54,1,3,3,0,0,1-1.79-.19,21.22,21.22,0,0,0-4.81-2,20.43,20.43,0,0,0-5.12-.56,14.62,14.62,0,0,0-3.61.42,6.45,6.45,0,0,0-2.77,1.43,3.18,3.18,0,0,0-1.13,2.45,3.47,3.47,0,0,0,1.54,3,17.58,17.58,0,0,0,4.55,2.12,10.12,10.12,0,0,0,2.21.43,10.73,10.73,0,0,1,2.24.43q2.66.81,4.55,1.56a24.74,24.74,0,0,1,3.68,1.83,11.65,11.65,0,0,1,2.87,2.35,9.87,9.87,0,0,1,1.73,3,12.47,12.47,0,0,1-4,13.68Q604.79,328,596.85,328,587.82,328,582.77,324.92Z"/>
    <path class="cls-2" d="M629.86,325.13a6.23,6.23,0,0,1-1.54-4.23V292.85h-7.94a4.06,4.06,0,0,1-2.9-1.17,3.84,3.84,0,0,1,0-5.63,4.06,4.06,0,0,1,2.9-1.17h26.35a4,4,0,0,1,2.89,1.17,3.8,3.8,0,0,1,1.21,2.84,3.72,3.72,0,0,1-1.21,2.8,4,4,0,0,1-2.89,1.15H639v28.05a6.16,6.16,0,0,1-1.57,4.23,4.87,4.87,0,0,1-3.77,1.77A4.81,4.81,0,0,1,629.86,325.13Z"/>
  </g>
</svg>
