<?xml version="1.0" encoding="utf-8"?>
<!-- Generator: Adobe Illustrator 21.0.2, SVG Export Plug-In . SVG Version: 6.00 Build 0)  -->
<svg version="1.1" id="Layer_1" xmlns="http://www.w3.org/2000/svg" xmlns:xlink="http://www.w3.org/1999/xlink" x="0px" y="0px"
	 viewBox="0 0 792 612" style="enable-background:new 0 0 792 612;" xml:space="preserve">
<style type="text/css">
	.st0{fill:#7F77E8;}
	.st1{fill:#FFFFFF;}
</style>
<rect class="st0" width="792" height="612"/>
<g>
	<path class="st1" d="M164.7,329.3c-3.6-2.1-6.5-5.2-8.6-9.2c-2.1-4-3.1-8.6-3.1-13.8c0-4.1,0.6-7.8,1.9-11.2s3-6.2,5.2-8.5
		c2.2-2.3,4.9-4,7.9-5.3c3.1-1.3,6.4-1.9,9.9-1.9c4.5,0,8.9,1.1,13.2,3.2c1.6,0.9,2.4,2.1,2.4,3.7c0,1.1-0.4,2-1.2,2.9
		s-1.7,1.3-2.7,1.3c-0.4,0-0.8-0.1-1.3-0.3c-0.2-0.1-0.6-0.3-1.3-0.6c-0.7-0.3-1.2-0.5-1.7-0.7c-0.5-0.2-1.1-0.4-1.8-0.6
		c-0.8-0.2-1.5-0.4-2.4-0.5c-0.8-0.1-1.7-0.2-2.6-0.2c-4.8,0-8.4,1.5-11,4.6c-2.6,3-3.9,7.7-3.9,13.8c0,5.9,1.3,10.4,3.9,13.6
		c2.6,3.2,6.3,4.8,11.2,4.8c3.2,0,6.7-1,10.5-3.1c0.5-0.3,1-0.4,1.5-0.4c1,0,1.8,0.4,2.4,1.2c0.7,0.8,1,1.7,1,2.7
		c0,1.5-0.7,2.6-2,3.6c-4.1,2.7-9.1,4.1-15,4.1C172.5,332.5,168.3,331.5,164.7,329.3z"/>
	<path class="st1" d="M207.2,325.5c-4.3-4.7-6.4-11.2-6.4-19.4c0-8.2,2.1-14.7,6.4-19.5c4.3-4.7,10.4-7.1,18.2-7.1
		c7.9,0,14,2.4,18.2,7.1c4.3,4.7,6.4,11.2,6.4,19.5c0,8.3-2.1,14.7-6.4,19.4c-4.3,4.7-10.3,7.1-18.2,7.1
		C217.5,332.5,211.5,330.2,207.2,325.5z M235.9,319.8c2.3-3.2,3.5-7.8,3.5-13.8c0-6-1.2-10.5-3.5-13.7c-2.3-3.2-5.8-4.8-10.6-4.8
		c-4.7,0-8.2,1.6-10.5,4.8c-2.3,3.2-3.5,7.8-3.5,13.7c0,6,1.2,10.6,3.5,13.8c2.3,3.2,5.8,4.8,10.6,4.8
		C230.1,324.6,233.6,323,235.9,319.8z"/>
	<path class="st1" d="M261,330.2c-1-1-1.5-2.2-1.5-3.8v-40.3c0-1.6,0.5-2.8,1.5-3.8c1-0.9,2.3-1.4,3.8-1.4h23.8c1.1,0,2,0.4,2.7,1.2
		c0.7,0.8,1,1.7,1,2.8s-0.3,2-1,2.8c-0.7,0.8-1.6,1.2-2.7,1.2h-19v12.8h18c1.1,0,2,0.4,2.7,1.2s1,1.7,1,2.7c0,1.1-0.3,2-1,2.8
		c-0.7,0.8-1.6,1.1-2.7,1.1h-18v16.9c0,1.6-0.5,2.8-1.5,3.8c-1,1-2.2,1.4-3.6,1.4C263.2,331.6,262,331.1,261,330.2z"/>
	<path class="st1" d="M302.3,330.2c-1-1-1.5-2.2-1.5-3.8v-40.3c0-1.6,0.5-2.8,1.5-3.8c1-0.9,2.3-1.4,3.8-1.4h23.8
		c1.1,0,2,0.4,2.7,1.2c0.7,0.8,1,1.7,1,2.8s-0.3,2-1,2.8c-0.7,0.8-1.6,1.2-2.7,1.2h-19v12.8h18c1.1,0,2,0.4,2.7,1.2s1,1.7,1,2.7
		c0,1.1-0.3,2-1,2.8c-0.7,0.8-1.6,1.1-2.7,1.1h-18v16.9c0,1.6-0.5,2.8-1.5,3.8c-1,1-2.2,1.4-3.6,1.4
		C304.4,331.6,303.2,331.1,302.3,330.2z"/>
	<path class="st1" d="M343.5,329.9c-1-1.1-1.4-2.5-1.4-3.9v-39.1c0-1.7,0.5-3.2,1.4-4.3c0.9-1.1,2.2-1.7,3.8-1.7h25
		c1.1,0,2.1,0.4,2.7,1.2c0.7,0.8,1,1.7,1,2.8s-0.3,2-1,2.8c-0.7,0.8-1.6,1.2-2.7,1.2h-20.2v12.9h18.8c1.2,0,2.1,0.4,2.8,1.2
		c0.7,0.8,1,1.7,1,2.7s-0.3,2-1,2.7c-0.7,0.8-1.6,1.2-2.8,1.2h-18.8v14.1h21c1.1,0,2,0.4,2.7,1.2c0.7,0.8,1,1.7,1,2.8s-0.3,2-1,2.8
		c-0.7,0.8-1.6,1.2-2.7,1.2H347C345.6,331.6,344.5,331,343.5,329.9z"/>
	<path class="st1" d="M387.7,329.9c-1-1.1-1.4-2.5-1.4-3.9v-39.1c0-1.7,0.5-3.2,1.4-4.3c0.9-1.1,2.2-1.7,3.8-1.7h25
		c1.1,0,2.1,0.4,2.7,1.2c0.7,0.8,1,1.7,1,2.8s-0.3,2-1,2.8c-0.7,0.8-1.6,1.2-2.7,1.2h-20.2v12.9h18.8c1.2,0,2.1,0.4,2.8,1.2
		c0.7,0.8,1,1.7,1,2.7s-0.3,2-1,2.7c-0.7,0.8-1.6,1.2-2.8,1.2h-18.8v14.1h21c1.1,0,2,0.4,2.7,1.2c0.7,0.8,1,1.7,1,2.8s-0.3,2-1,2.8
		c-0.7,0.8-1.6,1.2-2.7,1.2h-26.1C389.8,331.6,388.6,331,387.7,329.9z"/>
	<path class="st1" d="M482.3,330.2c-1-1-1.5-2.2-1.5-3.8v-37.5h-11.5c-1.2,0-2.1-0.4-2.8-1.2c-0.7-0.8-1.1-1.7-1.1-2.8
		c0-1.1,0.4-2,1.1-2.8s1.7-1.2,2.8-1.2h33c1.1,0,2.1,0.4,2.8,1.2s1.1,1.7,1.1,2.8c0,1.1-0.4,2-1.1,2.8c-0.7,0.8-1.6,1.2-2.8,1.2
		h-11.4v37.5c0,1.6-0.5,2.8-1.5,3.8c-1,1-2.2,1.5-3.6,1.5C484.5,331.6,483.3,331.2,482.3,330.2z"/>
	<path class="st1" d="M514.3,329.9c-1-1.1-1.4-2.5-1.4-3.9v-39.1c0-1.7,0.5-3.2,1.4-4.3c0.9-1.1,2.2-1.7,3.8-1.7h25
		c1.1,0,2.1,0.4,2.7,1.2c0.7,0.8,1,1.7,1,2.8s-0.3,2-1,2.8c-0.7,0.8-1.6,1.2-2.7,1.2h-20.2v12.9h18.8c1.2,0,2.1,0.4,2.8,1.2
		s1,1.7,1,2.7s-0.3,2-1,2.7s-1.6,1.2-2.8,1.2h-18.8v14.1h21c1.1,0,2,0.4,2.7,1.2c0.7,0.8,1,1.7,1,2.8s-0.3,2-1,2.8
		c-0.7,0.8-1.6,1.2-2.7,1.2h-26.1C516.5,331.6,515.3,331,514.3,329.9z"/>
	<path class="st1" d="M556,327.3c-0.5-0.4-0.8-1-0.8-1.9c0-1.1,0.4-2.3,1.2-3.4c0.8-1.1,1.8-1.7,2.8-1.7c0.4,0,0.8,0.1,1.2,0.4
		c4.4,2.6,9,3.9,13.8,3.9c3.1,0,5.6-0.6,7.5-1.7c1.9-1.1,2.9-2.7,2.9-4.9c0-1.8-0.5-3.2-1.5-4.2c-1-1-2.6-1.9-4.8-2.6l-11.6-3.9
		c-4-1.4-6.9-3.1-8.7-5.1c-1.8-2-2.7-4.8-2.7-8.2c0-4.5,1.8-8,5.4-10.7c3.6-2.6,8.3-3.9,14-3.9c3.4,0,6.6,0.5,9.8,1.4
		s5.6,2.2,7.3,3.6c0.7,0.7,1.1,1.5,1.1,2.5c0,1.1-0.4,2-1.1,2.9c-0.7,0.9-1.5,1.3-2.5,1.3c-0.5,0-1.1-0.2-1.7-0.5
		c-3.8-2.2-7.9-3.2-12.2-3.2c-1.5,0-2.8,0.1-4,0.3c-1.2,0.2-2.3,0.5-3.3,1c-1,0.4-1.8,1.1-2.4,1.9c-0.6,0.8-0.8,1.8-0.8,3
		c0,1.5,0.4,2.7,1.3,3.6c0.9,0.9,2.2,1.7,3.9,2.3c0.1,0,1.8,0.6,5.1,1.5c3.3,1,5,1.5,5.1,1.5c2.3,0.8,4.3,1.5,5.9,2.3
		c1.6,0.8,3,1.8,4.3,2.9c1.3,1.1,2.2,2.5,2.8,4.1c0.6,1.6,0.9,3.4,0.9,5.4c0,4.7-1.8,8.5-5.5,11.2c-3.6,2.8-8.5,4.1-14.7,4.1
		C566.6,332.5,560.6,330.8,556,327.3z"/>
	<path class="st1" d="M615.2,330.2c-1-1-1.5-2.2-1.5-3.8v-37.5h-11.5c-1.2,0-2.1-0.4-2.8-1.2c-0.7-0.8-1.1-1.7-1.1-2.8
		c0-1.1,0.4-2,1.1-2.8s1.7-1.2,2.8-1.2h33c1.1,0,2.1,0.4,2.8,1.2s1.1,1.7,1.1,2.8c0,1.1-0.4,2-1.1,2.8c-0.7,0.8-1.6,1.2-2.8,1.2
		h-11.4v37.5c0,1.6-0.5,2.8-1.5,3.8c-1,1-2.2,1.5-3.6,1.5C617.4,331.6,616.2,331.2,615.2,330.2z"/>
</g>
</svg>
