<?xml version="1.0" encoding="utf-8"?>
<!-- Generator: Adobe Illustrator 21.0.2, SVG Export Plug-In . SVG Version: 6.00 Build 0)  -->
<svg version="1.1" id="Layer_1" xmlns="http://www.w3.org/2000/svg" xmlns:xlink="http://www.w3.org/1999/xlink" x="0px" y="0px"
	 viewBox="0 0 792 612" style="enable-background:new 0 0 792 612;" xml:space="preserve">
<style type="text/css">
	.st0{fill:none;}
	.st1{clip-path:url(#SVGID_2_);fill:#F9DDAF;}
	.st2{clip-path:url(#SVGID_2_);fill:none;stroke:#FFFFFF;stroke-width:2;stroke-miterlimit:10;}
	.st3{clip-path:url(#SVGID_4_);}
	.st4{clip-path:url(#SVGID_6_);fill:#FFFFE8;}
	.st5{clip-path:url(#SVGID_6_);}
	.st6{opacity:0.25;clip-path:url(#SVGID_8_);}
	.st7{clip-path:url(#SVGID_10_);fill:url(#SVGID_11_);}
</style>
<pattern  y="612" width="145.4" height="83.9" patternUnits="userSpaceOnUse" id="Unnamed_Pattern" viewBox="48.5 -125.9 145.4 83.9" style="overflow:visible;">
	<g>
		<rect x="48.5" y="-125.9" class="st0" width="145.4" height="83.9"/>
		<g>
			<defs>
				<rect id="SVGID_1_" x="48.5" y="-125.9" width="145.4" height="83.9"/>
			</defs>
			<clipPath id="SVGID_2_">
				<use xlink:href="#SVGID_1_"  style="overflow:visible;"/>
			</clipPath>
			<polygon class="st1" points="217.5,-84.9 170.2,-84.9 146.6,-125.9 170.2,-166.9 217.5,-166.9 241.2,-125.9 			"/>
			<polygon class="st2" points="217.5,-84.9 170.2,-84.9 146.6,-125.9 170.2,-166.9 217.5,-166.9 241.2,-125.9 			"/>
			<polygon class="st1" points="72.1,-84.9 24.8,-84.9 1.2,-125.9 24.8,-166.9 72.1,-166.9 95.8,-125.9 			"/>
			<polygon class="st2" points="72.1,-84.9 24.8,-84.9 1.2,-125.9 24.8,-166.9 72.1,-166.9 95.8,-125.9 			"/>
			<polygon class="st1" points="217.5,-1 170.2,-1 146.6,-42 170.2,-82.9 217.5,-82.9 241.2,-42 			"/>
			<polygon class="st2" points="217.5,-1 170.2,-1 146.6,-42 170.2,-82.9 217.5,-82.9 241.2,-42 			"/>
			<polygon class="st1" points="144.8,-43 97.5,-43 73.9,-83.9 97.5,-124.9 144.8,-124.9 168.5,-83.9 			"/>
			<polygon class="st2" points="144.8,-43 97.5,-43 73.9,-83.9 97.5,-124.9 144.8,-124.9 168.5,-83.9 			"/>
			<polygon class="st1" points="72.1,-1 24.8,-1 1.2,-42 24.8,-82.9 72.1,-82.9 95.8,-42 			"/>
			<polygon class="st2" points="72.1,-1 24.8,-1 1.2,-42 24.8,-82.9 72.1,-82.9 95.8,-42 			"/>
		</g>
	</g>
</pattern>
<g>
	<g>
		<defs>
			<rect id="SVGID_3_" x="0" y="25.9" width="792" height="563.2"/>
		</defs>
		<clipPath id="SVGID_4_">
			<use xlink:href="#SVGID_3_"  style="overflow:visible;"/>
		</clipPath>
		<g class="st3">
			<defs>
				<rect id="SVGID_5_" x="0" y="25.9" width="792" height="563.2"/>
			</defs>
			<clipPath id="SVGID_6_">
				<use xlink:href="#SVGID_5_"  style="overflow:visible;"/>
			</clipPath>
			<rect x="1.6" y="27.6" class="st4" width="790.3" height="561"/>
			<g class="st5">
				<defs>
					<rect id="SVGID_7_" x="0" y="25.9" width="792" height="563.2"/>
				</defs>
				<clipPath id="SVGID_8_">
					<use xlink:href="#SVGID_7_"  style="overflow:visible;"/>
				</clipPath>
				<g class="st6">
					<g>
						<defs>
							<rect id="SVGID_9_" x="1.6" y="27.6" width="790.9" height="561"/>
						</defs>
						<clipPath id="SVGID_10_">
							<use xlink:href="#SVGID_9_"  style="overflow:visible;"/>
						</clipPath>
						<pattern  id="SVGID_11_" xlink:href="#Unnamed_Pattern" patternTransform="matrix(0.55 0 0 -0.55 -3307.168 -4606.3823)">
						</pattern>
						<rect x="1.6" y="27.6" class="st7" width="790.9" height="561"/>
					</g>
				</g>
			</g>
		</g>
	</g>
</g>
</svg>
