<?xml version="1.0" encoding="utf-8"?>
<!-- Generator: Adobe Illustrator 21.0.2, SVG Export Plug-In . SVG Version: 6.00 Build 0)  -->
<svg version="1.1" id="Layer_1" xmlns="http://www.w3.org/2000/svg" xmlns:xlink="http://www.w3.org/1999/xlink" x="0px" y="0px"
	 viewBox="0 0 792 612" style="enable-background:new 0 0 792 612;" xml:space="preserve">
<style type="text/css">
	.st0{fill:none;stroke:#FFDB58;stroke-width:5;stroke-linecap:round;stroke-linejoin:round;}
	
		.st1{fill:none;stroke:#FFDB58;stroke-width:5;stroke-linecap:round;stroke-linejoin:round;stroke-dasharray:11.5746,11.5746,11.5746,11.5746,11.5746,11.5746;}
	
		.st2{fill:none;stroke:#FFDB58;stroke-width:5;stroke-linecap:round;stroke-linejoin:round;stroke-dasharray:10.4515,10.4515,10.4515,10.4515,10.4515,10.4515;}
	.st3{fill:#FFDB58;}
	.st4{fill:#FFFFE5;stroke:#FFE063;stroke-width:5;stroke-miterlimit:10;}
	.st5{fill:#FFFFE5;stroke:#FFE063;stroke-width:2.0946;stroke-miterlimit:10;}
	.st6{fill:#FFFFE5;stroke:#FFE063;stroke-width:5;stroke-linecap:round;stroke-linejoin:round;stroke-miterlimit:10;}
	.st7{fill:none;stroke:#FFE063;stroke-width:5;stroke-linecap:round;stroke-linejoin:round;stroke-miterlimit:10;}
	.st8{fill:#FFFFE5;stroke:#FFE063;stroke-width:2.9012;stroke-linecap:round;stroke-linejoin:round;stroke-miterlimit:10;}
	.st9{fill:none;stroke:#FFE063;stroke-width:2.9012;stroke-linecap:round;stroke-linejoin:round;stroke-miterlimit:10;}
	.st10{fill:#FFFFE5;stroke:#FFE063;stroke-width:2.625;stroke-linecap:round;stroke-linejoin:round;stroke-miterlimit:10;}
	.st11{fill:none;stroke:#FFE063;stroke-width:2.625;stroke-linecap:round;stroke-linejoin:round;stroke-miterlimit:10;}
	.st12{fill:#FFFFFF;stroke:#FFE063;stroke-width:5;stroke-linecap:round;stroke-linejoin:round;stroke-miterlimit:10;}
	.st13{fill:#FFFFE5;stroke:#FFE063;stroke-width:3.221;stroke-linecap:round;stroke-linejoin:round;stroke-miterlimit:10;}
	.st14{fill:none;stroke:#FFE063;stroke-width:3.221;stroke-linecap:round;stroke-linejoin:round;stroke-miterlimit:10;}
	.st15{fill:#FFFFFF;stroke:#FFE063;stroke-width:3.221;stroke-linecap:round;stroke-linejoin:round;stroke-miterlimit:10;}
</style>
<g id="Bee">
	<g>
		<g>
			<path class="st0" d="M390.6,137.9c2-0.3,4-0.5,6-0.7"/>
			<path class="st1" d="M408.1,136.4c39.2-0.9,74.6,13.9,69.3,29c-0.6,1.7-1.5,2.9-2.7,3.7"/>
			<path class="st1" d="M469.1,170.2c-23.9-2.5-77.6-74.8,72.3-74.8c28.5,0,42.3-15.9,48.5-27.1"/>
			<path class="st0" d="M592.4,63.1c1.4-3.4,2-5.7,2-5.7"/>
		</g>
	</g>
	<g>
		<g>
			<path class="st0" d="M199.4,337.4c0,0,2.2,0.1,6,0"/>
			<path class="st2" d="M215.8,336.8c18.2-1.9,48-8.7,70-31.6"/>
			<path class="st2" d="M289.3,301.3c14.6-17.1,25.1-42.1,25.1-78.9c0-5.2,0.3-10.1,0.9-14.7"/>
			<path class="st0" d="M316.2,202.6c0.4-2,0.8-4,1.3-5.9"/>
		</g>
	</g>
	<g id="_x35_DqBM2.tif">
		<g>
			<path class="st3" d="M382.3,152.6c-1.1,1-2,2.3-3.3,2.9c-0.9,0.4-2.2,0-3.3-0.1c0.1-1-0.3-2.4,0.3-2.9c1.8-1.9,3-3.6,1.2-6
				c-1.5-2-5.8-3.7-8.1-3c-0.7,0.2-1.6,1.1-1.7,1.8c-1,5.3-3.9,9.6-7.5,13.4c-2.1,2.2-2.5,4.7-2.7,7.4c-0.4,5.4-1.1,10.8-3.7,15.8
				c-2.3,4.4-5.5,7.6-10.7,7.7c-5.6,0.1-10.6-1.7-13.1-7.2c-1-2.2-2.4-1.8-4-1.6c-8,0.9-15.4-0.9-22.4-4.8c-2.6-1.4-3.7-3.2-3.5-6.2
				c0.6-7.9,3-14.9,8.1-20.9c1.1-1.3,1.8-2.2,0.7-4.2c-3-5.1-1.6-10.1,1.4-14.6c2.9-4.3,7.6-5.7,12.3-4.5c5.6,1.3,11,3.8,16.5,5.6
				c1.9,0.6,3.9,1.4,5.7,1.3c5.3-0.3,10.6-1.1,15.8,0.4c0.7,0.2,2.1-0.5,2.6-1.2c2-2.9,2.1-6.1,0.7-9.3c-0.8-1.8-2.3-2.7-4.3-2.4
				c-1.6,0.3-3.5,1.2-4-1.2c-0.5-2.7,1.8-2.9,3.6-3.3c0.5-0.1,1-0.4,1.5-0.5c1.3,0.4,2.6,0.7,3.9,1.1c5.6,6.4,6.1,11.2,2,18.9
				c-1.4,2.7-0.7,3.8,2.4,3.9c8.2,0.3,11.8,3,14.2,10.7C382.9,150.5,382.6,151.5,382.3,152.6z M348.2,143.3
				c-4.8-4.5-10-7.9-15.9-10.2c-3.5-1.4-7.2-2.6-10.9-3.1c-5.4-0.7-8.8,2.1-9.6,7.1c-0.8,4.9,1.1,7.4,6.9,8.6
				C328.7,147.9,338.4,145.6,348.2,143.3z M352.3,149.4c-6.3,6.3-11.7,12.5-15.8,19.8c-1,1.8-1.8,3.7-2.4,5.6
				c-1.8,6,0.9,9.9,7.2,10.4c3.3,0.2,5.7-1.3,7.5-4c2.5-4,3.3-8.6,3.8-13.2C353.1,162,353.4,156.1,352.3,149.4z M311.2,153
				c-4.5,4-4.8,5.5-2.2,10.1c1.7,3.1,3.4,6.2,5.2,9.3c2,3.6,3.8,4.5,7.9,4.1c1.7-0.2,1.8-0.8,1.1-2.1
				C319.2,167.3,315.2,160.2,311.2,153z M319.1,150.9c3.6,6.5,6.9,12.4,10.2,18.3c0.2,0.4,1.2,0.8,1.5,0.6c1.4-0.7,3.1-6.1,2.4-7.5
				c-1.7-3.2-3.5-6.4-5.4-9.6c-0.4-0.6-1.1-1.4-1.8-1.4C324,150.9,321.9,151,319.1,150.9z M357.3,154c5.4-5.3,7-10.7,4.7-14.3
				c-2-3.1-7.4-4.2-13.6-2.1C355.9,140.6,357.6,146.5,357.3,154z M343.8,151.6c-0.4-0.6-0.8-1.8-1.1-1.8c-2.1,0.2-4.2,0.6-6.3,1
				c0.7,1.6,1.3,3.1,2.2,4.6c0.2,0.3,1.3,0.5,1.6,0.3C341.4,154.5,342.5,153.2,343.8,151.6z"/>
		</g>
	</g>
</g>
<path class="st4" d="M204.7,479.6c0.5-2.5,0.7-5,0.7-7.7c0-23.6-19.1-42.7-42.7-42.7c-18,0-33.4,11.1-39.6,26.9
	c-4.4-3.5-10-5.5-16-5.5c-14.4,0-26,11.6-26,26c0,1,0.1,2,0.2,3H204.7z"/>
<path class="st4" d="M570.2,535.8c-0.5-2.5-0.7-5-0.7-7.7c0-23.6,19.1-42.7,42.7-42.7c18,0,33.4,11.1,39.6,26.9
	c4.4-3.5,10-5.5,16-5.5c14.4,0,26,11.6,26,26c0,1-0.1,2-0.2,3H570.2z"/>
<path class="st4" d="M584.5,245.2c1.4-3.2,2.1-6.7,2.1-10.3c0-14.4-11.6-26-26-26c-0.3,0-0.5,0-0.8,0c-3.9-21.4-22.7-37.7-45.2-37.7
	c-22.7,0-41.5,16.4-45.3,38c-12.5,1.9-22,12.7-22,25.7c0,3.7,0.8,7.2,2.1,10.3H584.5z"/>
<path class="st5" d="M630.7,137.9c0.6-1.3,0.9-2.8,0.9-4.3c0-6-4.9-10.9-10.9-10.9c-0.1,0-0.2,0-0.3,0c-1.6-9-9.5-15.8-19-15.8
	c-9.5,0-17.4,6.9-19,15.9c-5.2,0.8-9.2,5.3-9.2,10.8c0,1.5,0.3,3,0.9,4.3H630.7z"/>
<path class="st5" d="M509.8,549.2c0.6-1.3,0.9-2.8,0.9-4.3c0-6-4.9-10.9-10.9-10.9c-0.1,0-0.2,0-0.3,0c-1.6-9-9.5-15.8-19-15.8
	c-9.5,0-17.4,6.9-19,15.9c-5.2,0.8-9.2,5.3-9.2,10.8c0,1.5,0.3,3,0.9,4.3H509.8z"/>
<path class="st5" d="M756.4,72.9c0.6-1.3,0.9-2.8,0.9-4.3c0-6-4.9-10.9-10.9-10.9c-0.1,0-0.2,0-0.3,0c-1.6-9-9.5-15.8-19-15.8
	c-9.5,0-17.4,6.9-19,15.9c-5.2,0.8-9.2,5.3-9.2,10.8c0,1.5,0.3,3,0.9,4.3H756.4z"/>
<g>
	<path class="st6" d="M61.7,339.4c0-23.6,19.1-71,42.7-71s42.7,47.4,42.7,71s-19.1,42.7-42.7,42.7S61.7,362.9,61.7,339.4z"/>
	<ellipse class="st6" cx="79.4" cy="405.7" rx="9.7" ry="7.3"/>
	<path class="st7" d="M103.7,439.1v-110 M105,359.2c0,0,12.2,2.9,12.2-11.7 M79,406.7c0,28.7,22.4,24,22.4,24"/>
</g>
<g>
	<path class="st8" d="M481.5,352.7c0-13.7,11.1-41.2,24.8-41.2S531,339,531,352.7c0,13.7-11.1,24.8-24.8,24.8
		S481.5,366.3,481.5,352.7z"/>
	<ellipse class="st8" cx="491.8" cy="391.2" rx="5.6" ry="4.3"/>
	<path class="st9" d="M505.9,410.5v-63.8 M506.7,364.2c0,0,7.1,1.7,7.1-6.8 M491.6,391.7c0,16.6,13,13.9,13,13.9"/>
</g>
<g>
	<path class="st8" d="M275,495.2c0-13.7-11.1-41.2-24.8-41.2c-13.7,0-24.8,27.5-24.8,41.2c0,13.7,11.1,24.8,24.8,24.8
		C264,520,275,508.9,275,495.2z"/>
	<ellipse class="st8" cx="264.8" cy="533.7" rx="5.6" ry="4.3"/>
	<path class="st9" d="M250.7,489.2V553 M242.9,499.9c0,8.4,7.1,6.8,7.1,6.8 M252,548.2c0,0,13,2.7,13-13.9"/>
</g>
<g>
	<path class="st6" d="M423.4,350.4c0-11.2-7.6-20.6-18-23.2c0.4-1.7,0.6-3.6,0.6-5.4c0-10.3-6.5-19.1-15.6-22.5
		c-2.8-10.1-12.1-17.5-23.1-17.5c-12.8,0-23.3,10.1-24,22.7c-10.4,2.7-18,12.1-18,23.3c0,4.2,1.1,8.1,2.9,11.5
		c-6.9,4.2-11.6,11.8-11.6,20.5c0,10.8,7.1,19.9,16.9,22.9c-1,2.6-1.5,5.5-1.5,8.4c0,13.3,10.7,24,24,24c7,0,13.3-3,17.7-7.8
		c4.4,4.8,10.7,7.8,17.7,7.8c13.3,0,24-10.7,24-24c0-7.2-3.1-13.6-8.1-18C416.7,369.8,423.4,360.9,423.4,350.4z"/>
	<path class="st7" d="M372.7,553v-223 M371.9,377.4l-13-13 M372.4,482.4l24.5-24.5 M372.4,390l13-13"/>
</g>
<g>
	<path class="st10" d="M784.1,465.3c0-5.9-4-10.8-9.4-12.2c0.2-0.9,0.3-1.9,0.3-2.9c0-5.4-3.4-10-8.2-11.8
		c-1.5-5.3-6.4-9.2-12.1-9.2c-6.7,0-12.2,5.3-12.6,11.9c-5.4,1.4-9.5,6.3-9.5,12.2c0,2.2,0.6,4.2,1.5,6c-3.6,2.2-6.1,6.2-6.1,10.8
		c0,5.7,3.7,10.4,8.8,12c-0.5,1.4-0.8,2.9-0.8,4.4c0,7,5.6,12.6,12.6,12.6c3.7,0,7-1.6,9.3-4.1c2.3,2.5,5.6,4.1,9.3,4.1
		c7,0,12.6-5.6,12.6-12.6c0-3.8-1.7-7.1-4.3-9.4C780.6,475.5,784.1,470.8,784.1,465.3z"/>
	<path class="st11" d="M757.5,571.7V454.6 M757.1,479.4l-6.8-6.8 M757.3,534.6l12.9-12.9 M757.4,486.1l6.8-6.8"/>
</g>
<g>
	<path class="st10" d="M117,79.7c0-5.9-4-10.8-9.4-12.2c0.2-0.9,0.3-1.9,0.3-2.9c0-5.4-3.4-10-8.2-11.8c-1.5-5.3-6.4-9.2-12.1-9.2
		c-6.7,0-12.2,5.3-12.6,11.9c-5.4,1.4-9.5,6.3-9.5,12.2c0,2.2,0.6,4.2,1.5,6C63.5,76,61,80,61,84.6c0,5.7,3.7,10.4,8.8,12
		c-0.5,1.4-0.8,2.9-0.8,4.4c0,7,5.6,12.6,12.6,12.6c3.7,0,7-1.6,9.3-4.1c2.3,2.5,5.6,4.1,9.3,4.1c7,0,12.6-5.6,12.6-12.6
		c0-3.8-1.7-7.1-4.3-9.4C113.5,89.9,117,85.2,117,79.7z"/>
	<path class="st11" d="M90.4,186.1V69 M90,93.9l-6.8-6.8 M90.3,149l12.9-12.9 M90.3,100.5l6.8-6.8"/>
</g>
<g>
	<path class="st6" d="M611.5,387.5c-1.8-18.3,1.1-26.4,5.3-45.3c8.7-38.7,14-52.7,2.7-72c-30.2-51.2,16.6-56.3,26.7-56
		c24,0.7,47.3,24.7,33.3,51.3c-17.6,33.6,4.1,58.4,10,82c6.7,26.7,3.6,33.6,2,42.7c-3.9,21.7-17.9,37.3-40,37.3
		C629.4,427.5,613.6,409.5,611.5,387.5z M623.8,280.6h-46"/>
	<path class="st7" d="M651.2,520.8V311.5 M633.1,346.9c0,0-0.3,12.3,16.5,12.3 M652.1,336.9c16.8,0,16.5-12.3,16.5-12.3
		 M652.1,388.1c27,0,22.8-18.5,22.8-18.5"/>
	<path class="st12" d="M587.8,296.1h-16.5 M587.8,296.1h6c2.5,0,4.5-2,4.5-4.5l0,0c0-2.5-2-4.5-4.5-4.5h-29.5c-2.5,0-4.5,2-4.5,4.5
		l0,0c0,2.5,2,4.5,4.5,4.5h7 M598.3,329.3L598.3,329.3c0-2.5-2-4.5-4.5-4.5h-29.5c-2.5,0-4.5,2-4.5,4.5l0,0c0,2.5,2,4.5,4.5,4.5
		h29.5C596.3,333.8,598.3,331.8,598.3,329.3z M600.2,300.6L600.2,300.6c0-2.5-2-4.5-4.5-4.5h-33.3c-2.5,0-4.5,2-4.5,4.5l0,0
		c0,2.5,2,4.5,4.5,4.5h33.3C598.2,305.1,600.2,303.1,600.2,300.6z M600.2,319.3L600.2,319.3c0-2.5-2-4.5-4.5-4.5h-33.3
		c-2.5,0-4.5,2-4.5,4.5l0,0c0,2.5,2,4.5,4.5,4.5h33.3C598.2,323.8,600.2,321.8,600.2,319.3z M602.4,309.6L602.4,309.6
		c0-2.5-2-4.5-4.5-4.5h-37.6c-2.5,0-4.5,2-4.5,4.5l0,0c0,2.5,2,4.5,4.5,4.5h37.6C600.3,314.1,602.4,312.1,602.4,309.6z"/>
</g>
<g>
	<path class="st13" d="M217,135.3c-1.2-11.8,0.7-17,3.4-29.2c5.6-24.9,9-34,1.7-46.4c-19.5-33,10.7-36.3,17.2-36.1
		c15.5,0.4,30.5,15.9,21.5,33.1c-11.4,21.6,2.6,37.6,6.4,52.8c4.3,17.2,2.3,21.7,1.3,27.5c-2.5,14-11.5,24-25.8,24
		S218.4,149.5,217,135.3z M225,66.5h-29.6"/>
	<path class="st14" d="M242.6,221.2V86.4 M230.9,109.2c0,0-0.2,7.9,10.6,7.9 M243.2,102.7c10.8,0,10.6-7.9,10.6-7.9 M243.2,135.7
		c17.4,0,14.7-11.9,14.7-11.9"/>
	<path class="st15" d="M201.8,76.5h-10.6 M201.8,76.5h3.9c1.6,0,2.9-1.3,2.9-2.9v0c0-1.6-1.3-2.9-2.9-2.9h-19
		c-1.6,0-2.9,1.3-2.9,2.9v0c0,1.6,1.3,2.9,2.9,2.9h4.5 M208.5,97.9L208.5,97.9c0-1.6-1.3-2.9-2.9-2.9h-19c-1.6,0-2.9,1.3-2.9,2.9v0
		c0,1.6,1.3,2.9,2.9,2.9h19C207.2,100.7,208.5,99.4,208.5,97.9z M209.8,79.4L209.8,79.4c0-1.6-1.3-2.9-2.9-2.9h-21.5
		c-1.6,0-2.9,1.3-2.9,2.9v0c0,1.6,1.3,2.9,2.9,2.9h21.5C208.5,82.3,209.8,81,209.8,79.4z M209.8,91.4L209.8,91.4
		c0-1.6-1.3-2.9-2.9-2.9h-21.5c-1.6,0-2.9,1.3-2.9,2.9v0c0,1.6,1.3,2.9,2.9,2.9h21.5C208.5,94.3,209.8,93,209.8,91.4z M211.1,85.2
		L211.1,85.2c0-1.6-1.3-2.9-2.9-2.9H184c-1.6,0-2.9,1.3-2.9,2.9v0c0,1.6,1.3,2.9,2.9,2.9h24.2C209.8,88.1,211.1,86.8,211.1,85.2z"/>
</g>
</svg>
