<?xml version="1.0" encoding="utf-8"?>
<!-- Generator: Adobe Illustrator 21.0.2, SVG Export Plug-In . SVG Version: 6.00 Build 0)  -->
<svg version="1.1" id="Layer_1" xmlns="http://www.w3.org/2000/svg" xmlns:xlink="http://www.w3.org/1999/xlink" x="0px" y="0px"
	 viewBox="0 0 2048 1536" style="enable-background:new 0 0 2048 1536;" xml:space="preserve">
<style type="text/css">
	.st0{fill:none;stroke:#FFDB58;stroke-width:9.0326;stroke-linecap:round;stroke-linejoin:round;}
	
		.st1{fill:none;stroke:#FFDB58;stroke-width:9.0326;stroke-linecap:round;stroke-linejoin:round;stroke-dasharray:20.9117,20.9117,20.9117,20.9117,20.9117,20.9117;}
	
		.st2{fill:none;stroke:#FFDB58;stroke-width:9.0326;stroke-linecap:round;stroke-linejoin:round;stroke-dasharray:18.8828,18.8828,18.8828,18.8828,18.8828,18.8828;}
	.st3{fill:#FFDB58;}
	.st4{fill:#FFFFE5;stroke:#FFE063;stroke-width:9.0326;stroke-miterlimit:10;}
	.st5{fill:#FFFFE5;stroke:#FFE063;stroke-width:3.7839;stroke-miterlimit:10;}
	.st6{fill:#FFFFE5;stroke:#FFE063;stroke-width:9.0326;stroke-linecap:round;stroke-linejoin:round;stroke-miterlimit:10;}
	.st7{fill:none;stroke:#FFE063;stroke-width:9.0326;stroke-linecap:round;stroke-linejoin:round;stroke-miterlimit:10;}
	.st8{fill:#FFFFE5;stroke:#FFE063;stroke-width:5.2412;stroke-linecap:round;stroke-linejoin:round;stroke-miterlimit:10;}
	.st9{fill:none;stroke:#FFE063;stroke-width:5.2412;stroke-linecap:round;stroke-linejoin:round;stroke-miterlimit:10;}
	.st10{fill:#FFFFE5;stroke:#FFE063;stroke-width:4.7421;stroke-linecap:round;stroke-linejoin:round;stroke-miterlimit:10;}
	.st11{fill:none;stroke:#FFE063;stroke-width:4.7421;stroke-linecap:round;stroke-linejoin:round;stroke-miterlimit:10;}
	.st12{fill:#FFFFFF;stroke:#FFE063;stroke-width:9.0326;stroke-linecap:round;stroke-linejoin:round;stroke-miterlimit:10;}
	.st13{fill:#FFFFE5;stroke:#FFE063;stroke-width:12.265;stroke-linecap:round;stroke-linejoin:round;stroke-miterlimit:10;}
	.st14{fill:none;stroke:#FFE063;stroke-width:12.265;stroke-linecap:round;stroke-linejoin:round;stroke-miterlimit:10;}
	.st15{fill:#FFFFFF;stroke:#FFE063;stroke-width:12.265;stroke-linecap:round;stroke-linejoin:round;stroke-miterlimit:10;}
	.st16{fill:#FFFFE5;stroke:#FFE063;stroke-width:5.8187;stroke-linecap:round;stroke-linejoin:round;stroke-miterlimit:10;}
	.st17{fill:none;stroke:#FFE063;stroke-width:5.8187;stroke-linecap:round;stroke-linejoin:round;stroke-miterlimit:10;}
	.st18{fill:#FFFFFF;stroke:#FFE063;stroke-width:5.8187;stroke-linecap:round;stroke-linejoin:round;stroke-miterlimit:10;}
	.st19{fill:none;stroke:#FFDB58;stroke-width:6.3952;stroke-linecap:round;stroke-linejoin:round;}
	
		.st20{fill:none;stroke:#FFDB58;stroke-width:6.3952;stroke-linecap:round;stroke-linejoin:round;stroke-dasharray:14.8049,14.8049,14.8049,14.8049,14.8049,14.8049;}
	
		.st21{fill:none;stroke:#FFDB58;stroke-width:6.3952;stroke-linecap:round;stroke-linejoin:round;stroke-dasharray:13.3685,13.3685,13.3685,13.3685,13.3685,13.3685;}
	.st22{fill:#FFFFE5;stroke:#FFE063;stroke-width:6.3952;stroke-miterlimit:10;}
	.st23{fill:#FFFFE5;stroke:#FFE063;stroke-width:2.6791;stroke-miterlimit:10;}
	.st24{fill:#FFFFE5;stroke:#FFE063;stroke-width:6.3952;stroke-linecap:round;stroke-linejoin:round;stroke-miterlimit:10;}
	.st25{fill:none;stroke:#FFE063;stroke-width:6.3952;stroke-linecap:round;stroke-linejoin:round;stroke-miterlimit:10;}
	.st26{fill:#FFFFE5;stroke:#FFE063;stroke-width:3.7108;stroke-linecap:round;stroke-linejoin:round;stroke-miterlimit:10;}
	.st27{fill:none;stroke:#FFE063;stroke-width:3.7108;stroke-linecap:round;stroke-linejoin:round;stroke-miterlimit:10;}
	.st28{fill:#FFFFE5;stroke:#FFE063;stroke-width:3.3575;stroke-linecap:round;stroke-linejoin:round;stroke-miterlimit:10;}
	.st29{fill:none;stroke:#FFE063;stroke-width:3.3575;stroke-linecap:round;stroke-linejoin:round;stroke-miterlimit:10;}
	.st30{fill:#FFFFFF;stroke:#FFE063;stroke-width:6.3952;stroke-linecap:round;stroke-linejoin:round;stroke-miterlimit:10;}
	.st31{fill:#FFFFE5;stroke:#FFE063;stroke-width:5.5744;stroke-linecap:round;stroke-linejoin:round;stroke-miterlimit:10;}
	.st32{fill:none;stroke:#FFE063;stroke-width:5.5744;stroke-linecap:round;stroke-linejoin:round;stroke-miterlimit:10;}
	.st33{fill:#FFFFFF;stroke:#FFE063;stroke-width:5.5744;stroke-linecap:round;stroke-linejoin:round;stroke-miterlimit:10;}
</style>
<g id="Bee">
	<g>
		<g>
			<path class="st0" d="M685.2,246.2c3.6-0.5,7.2-1,10.8-1.4"/>
			<path class="st1" d="M716.9,243.6c70.8-1.6,134.8,25.1,125.1,52.4c-1.1,3-2.7,5.2-4.9,6.6"/>
			<path class="st1" d="M827.1,304.6c-43.2-4.6-140.3-135.1,130.5-135.1c51.4,0,76.4-28.7,87.6-49"/>
			<path class="st0" d="M1049.8,111.1c2.6-6.2,3.6-10.2,3.6-10.2"/>
		</g>
	</g>
	<g>
		<g>
			<path class="st0" d="M339.8,606.7c0,0,4,0.2,10.8,0.1"/>
			<path class="st2" d="M369.5,605.5c32.9-3.4,86.6-15.6,126.5-57.1"/>
			<path class="st2" d="M502.3,541.4c26.4-30.8,45.3-76.1,45.3-142.5c0-9.4,0.6-18.2,1.7-26.6"/>
			<path class="st0" d="M550.7,363c0.7-3.6,1.5-7.1,2.4-10.6"/>
		</g>
	</g>
	<g id="_x35_DqBM2.tif">
		<g>
			<path class="st3" d="M670.2,272.8c-1.9,1.8-3.6,4.2-5.9,5.3c-1.5,0.8-3.9-0.1-5.9-0.2c0.1-1.8-0.5-4.3,0.5-5.3
				c3.2-3.3,5.5-6.4,2.1-10.9c-2.7-3.6-10.5-6.8-14.5-5.4c-1.3,0.4-2.9,2-3.1,3.3c-1.9,9.6-7.1,17.3-13.5,24.2
				c-3.7,4-4.5,8.4-4.9,13.4c-0.8,9.8-2,19.6-6.8,28.5c-4.2,8-10,13.7-19.3,13.9c-10.2,0.2-19.2-3-23.7-13.1c-1.8-4-4.2-3.2-7.1-2.9
				c-14.4,1.6-27.8-1.6-40.5-8.6c-4.7-2.6-6.7-5.8-6.3-11.2c1-14.2,5.4-26.9,14.7-37.8c2-2.4,3.3-4,1.2-7.5
				c-5.5-9.2-2.8-18.3,2.5-26.4c5.2-7.8,13.7-10.3,22.2-8.2c10.2,2.4,19.9,6.8,29.9,10.2c3.4,1.1,7,2.5,10.4,2.3
				c9.6-0.5,19.1-2,28.6,0.8c1.3,0.4,3.8-0.9,4.6-2.1c3.7-5.2,3.8-11.1,1.3-16.8c-1.4-3.3-4.1-4.9-7.8-4.3c-2.8,0.5-6.4,2.1-7.2-2.2
				c-0.9-4.8,3.2-5.3,6.6-6c0.9-0.2,1.8-0.6,2.7-1c2.4,0.7,4.7,1.4,7.1,2c10,11.5,11,20.2,3.6,34.1c-2.5,4.8-1.3,6.8,4.4,7
				c14.9,0.5,21.4,5.4,25.6,19.3C671.3,269,670.7,270.9,670.2,272.8z M608.6,256c-8.7-8.1-18.2-14.2-28.7-18.4
				c-6.3-2.5-13-4.7-19.7-5.7c-9.7-1.3-15.9,3.8-17.4,12.9c-1.4,8.8,2,13.4,12.5,15.6C573.4,264.2,591,260.2,608.6,256z M615.9,267
				c-11.4,11.5-21.1,22.6-28.5,35.7c-1.8,3.2-3.3,6.6-4.3,10.1c-3.3,10.9,1.7,17.9,13,18.7c6,0.4,10.4-2.3,13.5-7.3
				c4.6-7.3,6-15.5,6.9-23.9C617.5,289.7,618,279.1,615.9,267z M541.8,273.5c-8.2,7.3-8.7,9.9-4,18.3c3.1,5.6,6.2,11.2,9.3,16.8
				c3.7,6.6,6.9,8.1,14.2,7.3c3-0.3,3.3-1.5,2.1-3.8C556.2,299.3,549,286.5,541.8,273.5z M556,269.7c6.5,11.7,12.5,22.4,18.5,33
				c0.4,0.7,2.1,1.4,2.8,1.1c2.6-1.3,5.7-11.1,4.3-13.6c-3.1-5.8-6.3-11.6-9.7-17.3c-0.7-1.1-2-2.5-3.2-2.6
				C564.9,269.8,561.1,269.9,556,269.7z M625,275.4c9.8-9.5,12.7-19.4,8.4-25.9c-3.7-5.6-13.4-7.5-24.5-3.8
				C622.6,251.2,625.6,261.8,625,275.4z M600.7,271c-0.7-1.2-1.5-3.3-2-3.2c-3.8,0.4-7.6,1.2-11.3,1.8c1.3,2.8,2.4,5.7,3.9,8.4
				c0.3,0.6,2.4,0.9,2.8,0.5C596.3,276.3,598.2,273.8,600.7,271z"/>
		</g>
	</g>
</g>
<path class="st4" d="M349.3,863.4c0.8-4.5,1.3-9.1,1.3-13.8c0-42.6-34.5-77.1-77.1-77.1c-32.5,0-60.3,20.1-71.6,48.5
	c-8-6.3-18-10-29-10c-25.9,0-47,21-47,47c0,1.8,0.1,3.6,0.3,5.4H349.3z"/>
<path class="st4" d="M1009.6,965c-0.8-4.5-1.3-9.1-1.3-13.9c0-42.6,34.5-77.1,77.1-77.1c32.5,0,60.3,20.1,71.6,48.5
	c8-6.3,18-10,29-10c25.9,0,47,21,47,47c0,1.8-0.1,3.6-0.3,5.4H1009.6z"/>
<path class="st4" d="M1035.5,440c2.5-5.7,3.9-12,3.9-18.7c0-25.9-21-47-47-47c-0.5,0-0.9,0-1.4,0c-7.1-38.7-41-68.1-81.7-68.1
	c-40.9,0-74.9,29.6-81.8,68.6c-22.6,3.4-39.8,22.9-39.8,46.4c0,6.6,1.4,12.9,3.9,18.7H1035.5z"/>
<path class="st5" d="M1118.9,246.3c1-2.4,1.6-5,1.6-7.8c0-10.9-8.8-19.7-19.7-19.7c-0.2,0-0.4,0-0.6,0c-3-16.2-17.2-28.5-34.2-28.5
	c-17.2,0-31.4,12.4-34.3,28.7c-9.4,1.4-16.7,9.6-16.7,19.5c0,2.8,0.6,5.4,1.6,7.8H1118.9z"/>
<path class="st5" d="M900.6,989.3c1-2.4,1.6-5,1.6-7.8c0-10.9-8.8-19.7-19.7-19.7c-0.2,0-0.4,0-0.6,0c-3-16.2-17.2-28.5-34.2-28.5
	c-17.2,0-31.4,12.4-34.3,28.7c-9.4,1.4-16.7,9.6-16.7,19.5c0,2.8,0.6,5.4,1.6,7.8H900.6z"/>
<path class="st5" d="M1346,128.8c1-2.4,1.6-5,1.6-7.8c0-10.9-8.8-19.7-19.7-19.7c-0.2,0-0.4,0-0.6,0c-3-16.2-17.2-28.5-34.2-28.5
	c-17.2,0-31.4,12.4-34.3,28.7c-9.4,1.4-16.7,9.6-16.7,19.5c0,2.8,0.6,5.4,1.6,7.8H1346z"/>
<g>
	<path class="st6" d="M91.1,610.2c0-42.6,34.5-128.3,77.1-128.3s77.1,85.7,77.1,128.3s-34.5,77.1-77.1,77.1S91.1,652.8,91.1,610.2z"
		/>
	<ellipse class="st6" cx="123" cy="730" rx="17.5" ry="13.2"/>
	<path class="st7" d="M166.9,790.3V591.5 M169.3,646c0,0,22,5.2,22-21.1 M122.4,731.8c0,51.8,40.5,43.4,40.5,43.4"/>
</g>
<g>
	<path class="st8" d="M849.5,634.2c0-24.7,20-74.4,44.7-74.4s44.7,49.7,44.7,74.4c0,24.7-20,44.7-44.7,44.7S849.5,658.9,849.5,634.2
		z"/>
	<ellipse class="st8" cx="868" cy="703.7" rx="10.1" ry="7.7"/>
	<path class="st9" d="M893.5,738.7V623.4 M894.9,655c0,0,12.7,3,12.7-12.2 M867.6,704.8c0,30,23.5,25.2,23.5,25.2"/>
</g>
<g>
	<path class="st8" d="M476.5,891.7c0-24.7-20-74.4-44.7-74.4c-24.7,0-44.7,49.7-44.7,74.4c0,24.7,20,44.7,44.7,44.7
		C456.4,936.4,476.5,916.4,476.5,891.7z"/>
	<ellipse class="st8" cx="457.9" cy="961.3" rx="10.1" ry="7.7"/>
	<path class="st9" d="M432.4,880.9v115.3 M418.3,900.2c0,15.2,12.7,12.2,12.7,12.2 M434.8,987.5c0,0,23.5,4.9,23.5-25.2"/>
</g>
<g>
	<path class="st6" d="M744.4,630.1c0-20.2-13.8-37.1-32.4-42c0.7-3.2,1.1-6.4,1.1-9.8c0-18.6-11.7-34.4-28.1-40.6
		c-5.1-18.3-21.9-31.7-41.8-31.7c-23.2,0-42.1,18.2-43.3,41.1c-18.7,4.8-32.6,21.8-32.6,42c0,7.5,1.9,14.6,5.3,20.7
		c-12.5,7.6-20.9,21.4-20.9,37.1c0,19.4,12.8,35.9,30.4,41.4c-1.8,4.7-2.7,9.9-2.7,15.2c0,23.9,19.4,43.4,43.4,43.4
		c12.6,0,24-5.4,31.9-14c7.9,8.6,19.3,14,31.9,14c23.9,0,43.4-19.4,43.4-43.4c0-12.9-5.7-24.6-14.7-32.5
		C732.3,665.1,744.4,649,744.4,630.1z"/>
	<path class="st7" d="M652.9,996.2V593.4 M651.4,678.8l-23.5-23.5 M652.3,868.5l44.3-44.3 M652.4,701.7l23.5-23.5"/>
</g>
<g>
	<path class="st6" d="M1931.2,145c0-20.2-13.8-37.1-32.4-42c0.7-3.2,1.1-6.4,1.1-9.8c0-18.6-11.7-34.4-28.1-40.6
		c-5.1-18.3-21.9-31.7-41.8-31.7c-23.2,0-42.1,18.2-43.3,41.1c-18.7,4.8-32.6,21.8-32.6,42c0,7.5,1.9,14.6,5.3,20.7
		c-12.5,7.6-20.9,21.4-20.9,37.1c0,19.4,12.8,35.9,30.4,41.4c-1.8,4.7-2.7,9.9-2.7,15.2c0,23.9,19.4,43.4,43.4,43.4
		c12.6,0,24-5.4,31.9-14c7.9,8.6,19.3,14,31.9,14c23.9,0,43.4-19.4,43.4-43.4c0-12.9-5.7-24.6-14.7-32.5
		C1919.1,180.1,1931.2,164,1931.2,145z"/>
	<path class="st7" d="M1839.7,511.1V108.3 M1838.2,193.8l-23.5-23.5 M1839.1,383.5l44.3-44.3 M1839.2,216.6l23.5-23.5"/>
</g>
<g>
	<path class="st10" d="M1396.1,837.6c0-10.6-7.2-19.5-17-22c0.4-1.7,0.6-3.4,0.6-5.2c0-9.8-6.1-18.1-14.8-21.3
		c-2.7-9.6-11.5-16.6-21.9-16.6c-12.2,0-22.1,9.6-22.7,21.6c-9.8,2.5-17.1,11.4-17.1,22.1c0,3.9,1,7.6,2.8,10.9
		c-6.6,4-11,11.2-11,19.5c0,10.2,6.7,18.9,16,21.7c-0.9,2.5-1.4,5.2-1.4,8c0,12.6,10.2,22.8,22.8,22.8c6.6,0,12.6-2.8,16.8-7.4
		c4.2,4.5,10.1,7.4,16.8,7.4c12.6,0,22.8-10.2,22.8-22.8c0-6.8-3-12.9-7.7-17.1C1389.7,856,1396.1,847.6,1396.1,837.6z"/>
	<path class="st11" d="M1348.1,1029.8V818.4 M1347.3,863.2l-12.3-12.3 M1347.7,962.8l23.2-23.2 M1347.8,875.2l12.3-12.3"/>
</g>
<g>
	<path class="st10" d="M191,141.1c0-10.6-7.2-19.5-17-22c0.4-1.7,0.6-3.4,0.6-5.2c0-9.8-6.1-18.1-14.8-21.3
		C157.1,83,148.3,76,137.9,76c-12.2,0-22.1,9.6-22.7,21.6c-9.8,2.5-17.1,11.4-17.1,22.1c0,3.9,1,7.6,2.8,10.9
		c-6.6,4-11,11.2-11,19.5c0,10.2,6.7,18.9,16,21.7c-0.9,2.5-1.4,5.2-1.4,8c0,12.6,10.2,22.8,22.8,22.8c6.6,0,12.6-2.8,16.8-7.4
		c4.2,4.5,10.1,7.4,16.8,7.4c12.6,0,22.8-10.2,22.8-22.8c0-6.8-3-12.9-7.7-17.1C184.6,159.5,191,151,191,141.1z"/>
	<path class="st11" d="M143,333.3V121.8 M142.2,166.7l-12.3-12.3 M142.6,266.3l23.2-23.2 M142.7,178.7l12.3-12.3"/>
</g>
<g>
	<path class="st6" d="M1084.2,697.1c-3.3-33.1,2-47.8,9.6-81.9c15.7-69.9,25.4-95.2,4.8-130.1c-54.6-92.5,30.1-101.7,48.2-101.2
		c43.4,1.2,85.5,44.6,60.2,92.7c-31.8,60.7,7.4,105.5,18.1,148.1c12,48.2,6.5,60.7,3.6,77.1c-7.1,39.3-32.4,67.4-72.3,67.4
		C1116.6,769.3,1088.1,736.8,1084.2,697.1z M1106.5,504.1h-83.1"/>
	<path class="st7" d="M1155.9,937.9V559.8 M1123.2,623.8c0,0-0.5,22.1,29.8,22.1 M1157.6,605.7c30.3,0,29.8-22.1,29.8-22.1
		 M1157.6,698.3c48.8,0,41.1-33.4,41.1-33.4"/>
	<path class="st12" d="M1041.5,532.1h-29.8 M1041.5,532.1h10.8c4.5,0,8.1-3.7,8.1-8.1l0,0c0-4.5-3.7-8.1-8.1-8.1H999
		c-4.5,0-8.1,3.7-8.1,8.1l0,0c0,4.5,3.7,8.1,8.1,8.1h12.6 M1060.5,592L1060.5,592c0-4.5-3.7-8.1-8.1-8.1H999c-4.5,0-8.1,3.7-8.1,8.1
		l0,0c0,4.5,3.7,8.1,8.1,8.1h53.3C1056.8,600.1,1060.5,596.5,1060.5,592z M1063.9,540.2L1063.9,540.2c0-4.5-3.7-8.1-8.1-8.1h-60.2
		c-4.5,0-8.1,3.7-8.1,8.1l0,0c0,4.5,3.7,8.1,8.1,8.1h60.2C1060.3,548.3,1063.9,544.7,1063.9,540.2z M1063.9,573.9L1063.9,573.9
		c0-4.5-3.7-8.1-8.1-8.1h-60.2c-4.5,0-8.1,3.7-8.1,8.1l0,0c0,4.5,3.7,8.1,8.1,8.1h60.2C1060.3,582.1,1063.9,578.4,1063.9,573.9z
		 M1067.8,556.5L1067.8,556.5c0-4.5-3.7-8.1-8.1-8.1h-67.9c-4.5,0-8.1,3.7-8.1,8.1l0,0c0,4.5,3.7,8.1,8.1,8.1h67.9
		C1064.1,564.6,1067.8,560.9,1067.8,556.5z"/>
</g>
<g>
	<path class="st13" d="M1775.5,1144.6c-4.4-45,2.7-64.9,13.1-111.2c21.3-94.8,34.5-129.3,6.5-176.6
		c-74.1-125.6,40.8-138.1,65.4-137.4c58.9,1.6,116.1,60.5,81.8,125.9c-43.2,82.4,10.1,143.2,24.5,201.1
		c16.4,65.4,8.9,82.5,4.9,104.7c-9.6,53.3-43.9,91.6-98.1,91.6C1819.4,1242.8,1780.8,1198.6,1775.5,1144.6z M1805.7,882.6h-112.8"/>
	<path class="st14" d="M1872.8,1471.7V958.2 M1828.4,1045.1c0,0-0.6,30,40.5,30 M1875,1020.6c41.1,0,40.5-30,40.5-30 M1875,1146.3
		c66.2,0,55.8-45.4,55.8-45.4"/>
	<path class="st15" d="M1717.4,920.6h-40.5 M1717.4,920.6h14.7c6.1,0,11-5,11-11v0c0-6.1-5-11-11-11h-72.4c-6.1,0-11,5-11,11v0
		c0,6.1,5,11,11,11h17.2 M1743.2,1002L1743.2,1002c0-6.1-5-11-11-11h-72.4c-6.1,0-11,5-11,11l0,0c0,6.1,5,11,11,11h72.4
		C1738.2,1013,1743.2,1008,1743.2,1002z M1747.9,931.6L1747.9,931.6c0-6.1-5-11-11-11H1655c-6.1,0-11,5-11,11v0c0,6.1,5,11,11,11
		h81.8C1742.9,942.7,1747.9,937.7,1747.9,931.6z M1747.9,977.4L1747.9,977.4c0-6.1-5-11-11-11H1655c-6.1,0-11,5-11,11l0,0
		c0,6.1,5,11,11,11h81.8C1742.9,988.5,1747.9,983.5,1747.9,977.4z M1753.1,953.7L1753.1,953.7c0-6.1-5-11-11-11h-92.2
		c-6.1,0-11,5-11,11v0c0,6.1,5,11,11,11h92.2C1748.1,964.7,1753.1,959.8,1753.1,953.7z"/>
</g>
<g>
	<path class="st16" d="M371.6,241.6c-2.1-21.3,1.3-30.8,6.2-52.8c10.1-45,16.3-61.4,3.1-83.8c-35.2-59.6,19.4-65.5,31-65.2
		c27.9,0.8,55.1,28.7,38.8,59.7c-20.5,39.1,4.8,67.9,11.6,95.4c7.8,31,4.2,39.1,2.3,49.7c-4.5,25.3-20.8,43.4-46.5,43.4
		C392.5,288.1,374.1,267.1,371.6,241.6z M386,117.2h-53.5"/>
	<path class="st17" d="M417.8,396.7V153.1 M396.8,194.3c0,0-0.3,14.3,19.2,14.3 M418.9,182.7c19.5,0,19.2-14.3,19.2-14.3
		 M418.9,242.3c31.4,0,26.5-21.5,26.5-21.5"/>
	<path class="st18" d="M344.1,135.3h-19.2 M344.1,135.3h7c2.9,0,5.2-2.4,5.2-5.2v0c0-2.9-2.4-5.2-5.2-5.2h-34.3
		c-2.9,0-5.2,2.4-5.2,5.2v0c0,2.9,2.4,5.2,5.2,5.2h8.1 M356.3,173.9L356.3,173.9c0-2.9-2.4-5.2-5.2-5.2h-34.3
		c-2.9,0-5.2,2.4-5.2,5.2l0,0c0,2.9,2.4,5.2,5.2,5.2h34.3C354,179.1,356.3,176.7,356.3,173.9z M358.6,140.5L358.6,140.5
		c0-2.9-2.4-5.2-5.2-5.2h-38.8c-2.9,0-5.2,2.4-5.2,5.2v0c0,2.9,2.4,5.2,5.2,5.2h38.8C356.2,145.7,358.6,143.4,358.6,140.5z
		 M358.6,162.2L358.6,162.2c0-2.9-2.4-5.2-5.2-5.2h-38.8c-2.9,0-5.2,2.4-5.2,5.2v0c0,2.9,2.4,5.2,5.2,5.2h38.8
		C356.2,167.5,358.6,165.1,358.6,162.2z M361,151L361,151c0-2.9-2.4-5.2-5.2-5.2H312c-2.9,0-5.2,2.4-5.2,5.2v0
		c0,2.9,2.4,5.2,5.2,5.2h43.7C358.7,156.2,361,153.9,361,151z"/>
</g>
<g id="Bee_1_">
	<g>
		<g>
			<path class="st19" d="M358.6,1125c-2.5-0.4-5.1-0.7-7.6-1"/>
			<path class="st20" d="M336.2,1123.1c-50.1-1.1-95.4,17.8-88.6,37.1c0.8,2.1,1.9,3.7,3.5,4.7"/>
			<path class="st20" d="M258.2,1166.3c30.6-3.2,99.3-95.6-92.4-95.6c-36.4,0-54.1-20.3-62-34.7"/>
			<path class="st19" d="M100.5,1029.3c-1.8-4.4-2.5-7.2-2.5-7.2"/>
		</g>
	</g>
	<g>
		<g>
			<path class="st19" d="M603.2,1380.2c0,0-2.8,0.2-7.7,0.1"/>
			<path class="st21" d="M582.2,1379.4c-23.3-2.4-61.3-11.1-89.6-40.4"/>
			<path class="st21" d="M488.2,1334c-18.7-21.8-32-53.9-32-100.9c0-6.6-0.4-12.9-1.2-18.8"/>
			<path class="st19" d="M453.8,1207.7c-0.5-2.6-1-5.1-1.7-7.5"/>
		</g>
	</g>
	<g id="_x35_DqBM2.tif_1_">
		<g>
			<path class="st3" d="M368.1,1139.8c3-9.8,7.6-13.3,18.1-13.6c4-0.1,4.9-1.6,3.1-5c-5.2-9.9-4.6-16,2.5-24.2c1.7-0.5,3.4-1,5-1.4
				c0.6,0.2,1.3,0.5,1.9,0.7c2.4,0.5,5.3,0.8,4.7,4.3c-0.6,3.1-3.1,1.9-5.1,1.6c-2.6-0.4-4.5,0.7-5.5,3c-1.8,4.1-1.7,8.2,0.9,11.9
				c0.6,0.9,2.4,1.8,3.3,1.5c6.7-1.9,13.5-0.9,20.2-0.6c2.4,0.1,5-0.8,7.3-1.6c7.1-2.4,14-5.5,21.2-7.2c6-1.4,12.1,0.3,15.7,5.8
				c3.8,5.8,5.7,12.2,1.8,18.7c-1.5,2.5-0.6,3.6,0.9,5.3c6.6,7.7,9.7,16.7,10.4,26.8c0.3,3.8-1.2,6.1-4.4,7.9
				c-9,4.9-18.4,7.2-28.7,6.1c-2.1-0.2-3.8-0.8-5.1,2c-3.2,7.1-9.5,9.4-16.7,9.3c-6.6-0.2-10.7-4.2-13.7-9.9
				c-3.3-6.4-4.2-13.2-4.8-20.2c-0.3-3.5-0.8-6.6-3.5-9.5c-4.6-4.9-8.3-10.3-9.6-17.1c-0.2-0.9-1.3-2.1-2.2-2.3
				c-2.9-0.9-8.4,1.3-10.3,3.8c-2.4,3.2-0.8,5.4,1.5,7.7c0.7,0.7,0.3,2.5,0.4,3.7c-1.4,0.1-3.1,0.7-4.2,0.1
				c-1.6-0.8-2.8-2.5-4.2-3.8C368.9,1142.4,368.5,1141.1,368.1,1139.8z M450.6,1135c7.5-1.6,9.9-4.8,8.9-11
				c-1.1-6.4-5.4-10.1-12.3-9.1c-4.8,0.7-9.5,2.2-14,4c-7.4,3-14.2,7.3-20.3,13.1C425.4,1134.9,437.8,1137.7,450.6,1135z
				 M407.4,1163.4c0.6,5.9,1.6,11.7,4.9,16.9c2.2,3.5,5.3,5.5,9.5,5.1c8-0.6,11.5-5.5,9.2-13.2c-0.7-2.5-1.8-4.9-3.1-7.1
				c-5.2-9.3-12.1-17.2-20.2-25.3C406.2,1148.3,406.6,1155.8,407.4,1163.4z M444.9,1171.7c-0.9,1.6-0.7,2.4,1.5,2.7
				c5.2,0.6,7.5-0.5,10.1-5.2c2.2-4,4.4-7.9,6.6-11.9c3.3-5.9,2.9-7.8-2.9-13C455.1,1153.5,450,1162.6,444.9,1171.7z M441.1,1142
				c-0.8,0.1-1.8,1-2.3,1.8c-2.4,4-4.6,8.1-6.8,12.3c-1,1.8,1.2,8.7,3.1,9.6c0.4,0.2,1.7-0.3,2-0.8c4.3-7.5,8.5-15.1,13.1-23.3
				C446.5,1141.7,443.8,1141.7,441.1,1142z M412.7,1124.6c-7.8-2.7-14.8-1.3-17.3,2.7c-3,4.6-1,11.6,6,18.4
				C400.9,1136,403,1128.5,412.7,1124.6z M423.2,1147.8c0.3,0.3,1.8,0,2-0.3c1.1-1.9,1.9-3.9,2.8-5.9c-2.7-0.5-5.3-1-8-1.3
				c-0.4,0-0.9,1.4-1.4,2.3C420.2,1144.5,421.6,1146.3,423.2,1147.8z"/>
		</g>
	</g>
</g>
<path class="st22" d="M1016.2,1326.8c-0.6-3.2-0.9-6.5-0.9-9.8c0-30.1,24.4-54.6,54.6-54.6c23,0,42.7,14.2,50.7,34.4
	c5.7-4.4,12.8-7.1,20.5-7.1c18.4,0,33.3,14.9,33.3,33.3c0,1.3-0.1,2.6-0.2,3.8H1016.2z"/>
<path class="st22" d="M1576,716.3c0.6-3.2,0.9-6.5,0.9-9.8c0-30.1-24.4-54.6-54.6-54.6c-23,0-42.7,14.2-50.7,34.4
	c-5.7-4.4-12.8-7.1-20.5-7.1c-18.4,0-33.3,14.9-33.3,33.3c0,1.3,0.1,2.6,0.2,3.8H1576z"/>
<path class="st22" d="M1557.7,344.6c-1.8-4.1-2.7-8.5-2.7-13.2c0-18.4,14.9-33.3,33.3-33.3c0.3,0,0.7,0,1,0
	c5-27.4,29-48.2,57.9-48.2c29,0,53.1,21,57.9,48.6c16,2.4,28.2,16.2,28.2,32.9c0,4.7-1,9.2-2.7,13.2H1557.7z"/>
<path class="st5" d="M1479.4,1022.1c-1-2.4-1.6-5-1.6-7.8c0-10.9,8.8-19.7,19.7-19.7c0.2,0,0.4,0,0.6,0c3-16.2,17.2-28.5,34.2-28.5
	c17.2,0,31.4,12.4,34.3,28.7c9.4,1.4,16.7,9.6,16.7,19.5c0,2.8-0.6,5.4-1.6,7.8H1479.4z"/>
<path class="st23" d="M1653.2,733.5c-0.7-1.7-1.1-3.6-1.1-5.5c0-7.7,6.2-13.9,13.9-13.9c0.1,0,0.3,0,0.4,0
	c2.1-11.5,12.1-20.2,24.2-20.2c12.1,0,22.2,8.8,24.3,20.3c6.7,1,11.8,6.8,11.8,13.8c0,2-0.4,3.8-1.1,5.5H1653.2z"/>
<path class="st5" d="M1515.2,846.4c-1-2.4-1.6-5-1.6-7.8c0-10.9,8.8-19.7,19.7-19.7c0.2,0,0.4,0,0.6,0c3-16.2,17.2-28.5,34.2-28.5
	c17.2,0,31.4,12.4,34.3,28.7c9.4,1.4,16.7,9.6,16.7,19.5c0,2.8-0.6,5.4-1.6,7.8H1515.2z"/>
<g>
	<path class="st24" d="M1199.1,1147.5c0-30.1-24.4-90.8-54.6-90.8s-54.6,60.7-54.6,90.8s24.4,54.6,54.6,54.6
		S1199.1,1177.7,1199.1,1147.5z"/>
	<ellipse class="st24" cx="1176.5" cy="1232.4" rx="12.4" ry="9.4"/>
	<path class="st25" d="M1145.4,1134.3V1275 M1128.2,1157.9c0,18.6,15.6,14.9,15.6,14.9 M1148.2,1264.3c0,0,28.7,6,28.7-30.7"/>
</g>
<g>
	<path class="st26" d="M1689.4,482.1c0-17.5-14.2-52.7-31.7-52.7c-17.5,0-31.7,35.2-31.7,52.7c0,17.5,14.2,31.7,31.7,31.7
		C1675.3,513.8,1689.4,499.6,1689.4,482.1z"/>
	<ellipse class="st26" cx="1676.3" cy="531.3" rx="7.2" ry="5.4"/>
	<path class="st27" d="M1658.3,474.4v81.6 M1648.3,488.1c0,10.8,9,8.7,9,8.7 M1659.9,549.9c0,0,16.7,3.5,16.7-17.8"/>
</g>
<g>
	<path class="st26" d="M926.2,1346.8c0-17.5,14.2-52.7,31.7-52.7c17.5,0,31.7,35.2,31.7,52.7c0,17.5-14.2,31.7-31.7,31.7
		C940.4,1378.5,926.2,1364.3,926.2,1346.8z"/>
	<ellipse class="st26" cx="939.3" cy="1396.1" rx="7.2" ry="5.4"/>
	<path class="st27" d="M957.4,1420.8v-81.6 M958.4,1361.5c0,0,9,2.1,9-8.7 M939.1,1396.8c0,21.3,16.7,17.8,16.7,17.8"/>
</g>
<g>
	<path class="st24" d="M736.5,1161.6c0-14.3,9.8-26.3,23-29.7c-0.5-2.2-0.8-4.6-0.8-7c0-13.2,8.3-24.4,19.9-28.7
		c3.6-12.9,15.5-22.4,29.6-22.4c16.4,0,29.8,12.9,30.7,29.1c13.3,3.4,23.1,15.4,23.1,29.7c0,5.3-1.3,10.3-3.7,14.7
		c8.9,5.4,14.8,15.1,14.8,26.3c0,13.8-9.1,25.4-21.6,29.3c1.3,3.3,1.9,7,1.9,10.8c0,17-13.7,30.7-30.7,30.7c-8.9,0-17-3.8-22.6-9.9
		c-5.6,6.1-13.7,9.9-22.6,9.9c-17,0-30.7-13.7-30.7-30.7c0-9.2,4-17.4,10.4-23C745.1,1186.4,736.5,1175,736.5,1161.6z"/>
	<path class="st25" d="M801.3,1135.6v285.2 M819,1179.5l-16.6,16.6 M770.4,1299.1l31.3,31.3 M785,1195.6l16.6,16.6"/>
</g>
<g>
	<path class="st28" d="M1302.4,626.1c0-7.5,5.1-13.8,12.1-15.6c-0.3-1.2-0.4-2.4-0.4-3.6c0-6.9,4.3-12.8,10.4-15.1
		c1.9-6.8,8.1-11.8,15.5-11.8c8.6,0,15.7,6.8,16.1,15.3c7,1.8,12.1,8.1,12.1,15.6c0,2.8-0.7,5.4-2,7.7c4.7,2.8,7.8,7.9,7.8,13.8
		c0,7.2-4.8,13.3-11.3,15.4c0.7,1.8,1,3.7,1,5.7c0,8.9-7.2,16.1-16.1,16.1c-4.7,0-8.9-2-11.9-5.2c-2.9,3.2-7.2,5.2-11.9,5.2
		c-8.9,0-16.1-7.2-16.1-16.1c0-4.8,2.1-9.1,5.5-12.1C1306.9,639.2,1302.4,633.2,1302.4,626.1z"/>
	<path class="st29" d="M1336.4,612.5v149.7 M1345.7,635.5l-8.7,8.7 M1320.2,698.3l16.5,16.5 M1327.9,644l8.7,8.7"/>
</g>
<g>
	<path class="st28" d="M1314.9,204.8c0-7.5,5.1-13.8,12.1-15.6c-0.3-1.2-0.4-2.4-0.4-3.6c0-6.9,4.3-12.8,10.4-15.1
		c1.9-6.8,8.1-11.8,15.5-11.8c8.6,0,15.7,6.8,16.1,15.3c7,1.8,12.1,8.1,12.1,15.6c0,2.8-0.7,5.4-2,7.7c4.7,2.8,7.8,7.9,7.8,13.8
		c0,7.2-4.8,13.3-11.3,15.4c0.7,1.8,1,3.7,1,5.7c0,8.9-7.2,16.1-16.1,16.1c-4.7,0-8.9-2-11.9-5.2c-2.9,3.2-7.2,5.2-11.9,5.2
		c-8.9,0-16.1-7.2-16.1-16.1c0-4.8,2.1-9.1,5.5-12.1C1319.4,217.9,1314.9,211.9,1314.9,204.8z"/>
	<path class="st29" d="M1348.9,191.2v149.7 M1358.2,214.2l-8.7,8.7 M1332.7,277l16.5,16.5 M1340.4,222.7l8.7,8.7"/>
</g>
<g>
	<path class="st24" d="M1472,577.8c-28.3,0-46.2-19.9-51.2-47.8c-2.1-11.6-6-20.5,2.6-54.6c7.5-30.2,35.3-61.9,12.8-104.9
		c-17.9-34.1,11.9-64.8,42.6-65.7c12.8-0.4,72.8,6.1,34.1,71.6c-14.6,24.7-7.7,42.6,3.4,92.1c5.4,24.2,9.1,34.5,6.8,58
		C1520.4,554.7,1500.3,577.8,1472,577.8z M1566.3,390h-58.8"/>
	<path class="st25" d="M1472.5,429.4v267.7 M1474.5,490.4c21.4,0,21.1-15.7,21.1-15.7 M1450.2,446.3c0,0-0.3,15.7,21.1,15.7
		 M1442.2,503.8c0,0-5.4,23.7,29.1,23.7"/>
	<path class="st30" d="M1574.6,409.8h-21.1 M1574.6,409.8h9c3.2,0,5.8-2.6,5.8-5.8l0,0c0-3.2-2.6-5.8-5.8-5.8h-37.7
		c-3.2,0-5.8,2.6-5.8,5.8l0,0c0,3.2,2.6,5.8,5.8,5.8h7.7 M1589.3,452.2L1589.3,452.2c0-3.2-2.6-5.8-5.8-5.8h-37.7
		c-3.2,0-5.8,2.6-5.8,5.8v0c0,3.2,2.6,5.8,5.8,5.8h37.7C1586.7,458,1589.3,455.4,1589.3,452.2z M1591.8,415.6L1591.8,415.6
		c0-3.2-2.6-5.8-5.8-5.8h-42.7c-3.2,0-5.8,2.6-5.8,5.8l0,0c0,3.2,2.6,5.8,5.8,5.8h42.7C1589.2,421.3,1591.8,418.7,1591.8,415.6z
		 M1591.8,439.4L1591.8,439.4c0-3.2-2.6-5.8-5.8-5.8h-42.7c-3.2,0-5.8,2.6-5.8,5.8l0,0c0,3.2,2.6,5.8,5.8,5.8h42.7
		C1589.2,445.2,1591.8,442.6,1591.8,439.4z M1594.5,427.1L1594.5,427.1c0-3.2-2.6-5.8-5.8-5.8h-48.1c-3.2,0-5.8,2.6-5.8,5.8v0
		c0,3.2,2.6,5.8,5.8,5.8h48.1C1591.9,432.8,1594.5,430.2,1594.5,427.1z"/>
</g>
<g>
	<path class="st31" d="M1376.7,1373.9c-24.6,0-40.2-17.4-44.6-41.6c-1.8-10.1-5.2-17.8,2.2-47.6c6.6-26.3,30.8-54,11.1-91.4
		c-15.6-29.7,10.4-56.5,37.2-57.2c11.2-0.3,63.4,5.3,29.7,62.4c-12.7,21.5-6.7,37.2,3,80.3c4.7,21.1,8,30.1,5.9,50.5
		C1418.9,1353.8,1401.3,1373.9,1376.7,1373.9z M1458.8,1210.2h-51.3"/>
	<path class="st32" d="M1377.1,1244.6V1478 M1378.9,1297.7c18.7,0,18.4-13.7,18.4-13.7 M1357.7,1259.3c0,0-0.3,13.7,18.4,13.7
		 M1350.7,1309.4c0,0-4.7,20.6,25.4,20.6"/>
	<path class="st33" d="M1466.1,1227.5h-18.4 M1466.1,1227.5h7.8c2.8,0,5-2.3,5-5l0,0c0-2.8-2.3-5-5-5H1441c-2.8,0-5,2.3-5,5l0,0
		c0,2.8,2.3,5,5,5h6.7 M1478.9,1264.5L1478.9,1264.5c0-2.8-2.3-5-5-5H1441c-2.8,0-5,2.3-5,5l0,0c0,2.8,2.3,5,5,5h32.9
		C1476.7,1269.5,1478.9,1267.2,1478.9,1264.5z M1481.1,1232.5L1481.1,1232.5c0-2.8-2.3-5-5-5h-37.2c-2.8,0-5,2.3-5,5l0,0
		c0,2.8,2.3,5,5,5h37.2C1478.8,1237.5,1481.1,1235.3,1481.1,1232.5z M1481.1,1253.3L1481.1,1253.3c0-2.8-2.3-5-5-5h-37.2
		c-2.8,0-5,2.3-5,5l0,0c0,2.8,2.3,5,5,5h37.2C1478.8,1258.4,1481.1,1256.1,1481.1,1253.3z M1483.4,1242.6L1483.4,1242.6
		c0-2.8-2.3-5-5-5h-41.9c-2.8,0-5,2.3-5,5l0,0c0,2.8,2.3,5,5,5h41.9C1481.2,1247.6,1483.4,1245.3,1483.4,1242.6z"/>
</g>
</svg>
