<svg id="Layer_1" data-name="Layer 1" xmlns="http://www.w3.org/2000/svg" width="11in" height="8.5in" viewBox="0 0 792 612">
  <defs>
    <style>
      .cls-1 {
        fill: #005d02;
      }

      .cls-2 {
        fill: #fff;
      }
    </style>
  </defs>
  <title>dressedtest</title>
  <rect class="cls-1" width="792" height="612"/>
  <g>
    <path class="cls-2" d="M153.49,328.06a7,7,0,0,1-1.85-3.3,18.39,18.39,0,0,1-.47-4.37V291.48q0-4.92,1.83-7t6.33-2.1h7q13.14,0,19.91,6T193,306.24q0,11.46-6.52,17.34t-19.21,5.88H157.07A4.81,4.81,0,0,1,153.49,328.06Zm13.16-6.73a18.73,18.73,0,0,0,8-1.42,8.93,8.93,0,0,0,4.39-4.78,24,24,0,0,0,1.42-9.18q0-8.51-3.11-12t-10.42-3.45h-4v30.79Z"/>
    <path class="cls-2" d="M202.82,327.66a6.93,6.93,0,0,1-1.68-4.94V288.63a5.57,5.57,0,0,1,2.09-4.71,8.39,8.39,0,0,1,5.26-1.6h13a51,51,0,0,1,5.58.28,25.51,25.51,0,0,1,4.92,1.05,12.7,12.7,0,0,1,4.06,2.06,9.29,9.29,0,0,1,2.62,3.42,11.7,11.7,0,0,1,1,5q0,9.26-10.42,11.07v.13a17.68,17.68,0,0,1,4.27.92,6.61,6.61,0,0,1,2.74,1.91,8.44,8.44,0,0,1,1.62,3,26,26,0,0,1,.86,4.52l.62,4.31q.55,5-.73,7.22t-4.71,2.23a5.28,5.28,0,0,1-4.4-1.88q-1.49-1.88-1.81-6.05l-.49-4.24q-.36-3.69-2-5.34t-5.49-1.65h-6.64v12.43a6.89,6.89,0,0,1-1.68,5,5.74,5.74,0,0,1-4.31,1.73A5.6,5.6,0,0,1,202.82,327.66Zm15.31-25.07a23,23,0,0,0,3.55-.24,13.72,13.72,0,0,0,3.08-.87,5,5,0,0,0,2.38-2,6.05,6.05,0,0,0,.84-3.3,8.14,8.14,0,0,0-.31-2.35,6.06,6.06,0,0,0-.78-1.7,4,4,0,0,0-1.3-1.17,8,8,0,0,0-1.57-.73,9.83,9.83,0,0,0-1.93-.37q-1.18-.13-2-.16t-2.2,0h-5v12.89Z"/>
    <path class="cls-2" d="M251.09,328.73a5,5,0,0,1-1.81-2,10.71,10.71,0,0,1-1-2.64,13.63,13.63,0,0,1-.31-2.95v-29.4q0-1.85.13-3.11a10.93,10.93,0,0,1,.58-2.54,5.3,5.3,0,0,1,1.25-2.06,5.66,5.66,0,0,1,2.17-1.25,10.33,10.33,0,0,1,3.32-.47h20.85a4.4,4.4,0,0,1,3.19,1.28,4.2,4.2,0,0,1,1.31,3.12,4.09,4.09,0,0,1-1.31,3.09,4.46,4.46,0,0,1-3.19,1.25H259.6v10.07h15.25a4.4,4.4,0,0,1,3.19,1.28,4.2,4.2,0,0,1,1.31,3.12,4.09,4.09,0,0,1-1.31,3.09,4.46,4.46,0,0,1-3.19,1.25H259.6v10.85h17.52a4,4,0,0,1,3,1.26,4.31,4.31,0,0,1,1.21,3.11,4.26,4.26,0,0,1-1.21,3.09,4,4,0,0,1-3,1.25H253.81A5,5,0,0,1,251.09,328.73Z"/>
    <path class="cls-2" d="M289.55,327.22a3.86,3.86,0,0,1-1.42-1.67,3.93,3.93,0,0,1-.34-2.06,6.45,6.45,0,0,1,.58-2,3.86,3.86,0,0,1,1.36-1.6,4.58,4.58,0,0,1,2-.74,4.12,4.12,0,0,1,2.41.53A27.65,27.65,0,0,0,305,322a12.07,12.07,0,0,0,5.88-1.26,4.13,4.13,0,0,0,2.28-3.85q0-3.4-5-5.05l-10.75-3.56q-6.05-2.27-8.55-5a10.76,10.76,0,0,1-2.49-7.53,12.46,12.46,0,0,1,5.21-10.49q5.21-3.92,14.08-3.92a36.13,36.13,0,0,1,8.63,1.08,15,15,0,0,1,6.72,3.22,4.18,4.18,0,0,1,1.23,2.2,4.1,4.1,0,0,1-.13,2.3A6.57,6.57,0,0,1,321,292a3,3,0,0,1-1.73,1.08,3.32,3.32,0,0,1-2-.21,23.8,23.8,0,0,0-5.39-2.28,22.91,22.91,0,0,0-5.75-.63,16.4,16.4,0,0,0-4,.47,7.24,7.24,0,0,0-3.11,1.6,3.56,3.56,0,0,0-1.26,2.75,3.89,3.89,0,0,0,1.73,3.32,19.72,19.72,0,0,0,5.1,2.38A11.35,11.35,0,0,0,307,301a12,12,0,0,1,2.51.49q3,.91,5.1,1.75a27.75,27.75,0,0,1,4.13,2.06,13.07,13.07,0,0,1,3.22,2.64,11.07,11.07,0,0,1,1.94,3.42,14,14,0,0,1-4.48,15.35q-5.21,4-14.12,4Q295.21,330.69,289.55,327.22Z"/>
    <path class="cls-2" d="M332.74,327.22a3.86,3.86,0,0,1-1.42-1.67,3.93,3.93,0,0,1-.34-2.06,6.45,6.45,0,0,1,.58-2,3.86,3.86,0,0,1,1.36-1.6,4.58,4.58,0,0,1,2-.74,4.12,4.12,0,0,1,2.41.53A27.65,27.65,0,0,0,348.21,322a12.07,12.07,0,0,0,5.88-1.26,4.13,4.13,0,0,0,2.28-3.85q0-3.4-5-5.05l-10.75-3.56q-6.05-2.27-8.55-5a10.76,10.76,0,0,1-2.49-7.53,12.46,12.46,0,0,1,5.21-10.49q5.21-3.92,14.08-3.92a36.13,36.13,0,0,1,8.63,1.08,15,15,0,0,1,6.72,3.22,4.18,4.18,0,0,1,1.23,2.2,4.1,4.1,0,0,1-.13,2.3,6.57,6.57,0,0,1-1.12,1.91,3,3,0,0,1-1.73,1.08,3.32,3.32,0,0,1-2-.21,23.8,23.8,0,0,0-5.39-2.28,22.91,22.91,0,0,0-5.75-.63,16.4,16.4,0,0,0-4,.47,7.24,7.24,0,0,0-3.11,1.6,3.56,3.56,0,0,0-1.26,2.75,3.89,3.89,0,0,0,1.73,3.32,19.72,19.72,0,0,0,5.1,2.38,11.35,11.35,0,0,0,2.48.49,12,12,0,0,1,2.51.49q3,.91,5.1,1.75a27.75,27.75,0,0,1,4.13,2.06,13.07,13.07,0,0,1,3.22,2.64,11.07,11.07,0,0,1,1.94,3.42,14,14,0,0,1-4.48,15.35q-5.21,4-14.12,4Q338.4,330.69,332.74,327.22Z"/>
    <path class="cls-2" d="M377.9,328.73a5,5,0,0,1-1.81-2,10.71,10.71,0,0,1-1-2.64,13.63,13.63,0,0,1-.31-2.95v-29.4q0-1.85.13-3.11a10.93,10.93,0,0,1,.58-2.54,5.3,5.3,0,0,1,1.25-2.06,5.66,5.66,0,0,1,2.17-1.25,10.33,10.33,0,0,1,3.32-.47h20.85a4.4,4.4,0,0,1,3.19,1.28,4.2,4.2,0,0,1,1.31,3.12,4.09,4.09,0,0,1-1.31,3.09,4.46,4.46,0,0,1-3.19,1.25H386.42v10.07h15.25a4.4,4.4,0,0,1,3.19,1.28,4.2,4.2,0,0,1,1.31,3.12,4.09,4.09,0,0,1-1.31,3.09,4.46,4.46,0,0,1-3.19,1.25H386.42v10.85h17.52a4,4,0,0,1,3,1.26,4.31,4.31,0,0,1,1.21,3.11,4.26,4.26,0,0,1-1.21,3.09,4,4,0,0,1-3,1.25H380.62A5,5,0,0,1,377.9,328.73Z"/>
    <path class="cls-2" d="M417.58,328.06a7,7,0,0,1-1.85-3.3,18.39,18.39,0,0,1-.47-4.37V291.48q0-4.92,1.83-7t6.33-2.1h7q13.14,0,19.91,6t6.77,17.86q0,11.46-6.52,17.34t-19.21,5.88H421.16A4.81,4.81,0,0,1,417.58,328.06Zm13.16-6.73a18.73,18.73,0,0,0,8-1.42,8.93,8.93,0,0,0,4.39-4.78,24,24,0,0,0,1.42-9.18q0-8.51-3.11-12T431,290.54h-4v30.79Z"/>
    <path class="cls-2" d="M494.21,327.46a7,7,0,0,1-1.73-4.74V291.25h-8.9a4.56,4.56,0,0,1-3.25-1.31,4.31,4.31,0,0,1,0-6.31,4.56,4.56,0,0,1,3.25-1.31h29.56a4.5,4.5,0,0,1,3.24,1.31,4.26,4.26,0,0,1,1.36,3.19,4.18,4.18,0,0,1-1.36,3.14,4.53,4.53,0,0,1-3.24,1.3h-8.71v31.47a6.91,6.91,0,0,1-1.76,4.74,5.46,5.46,0,0,1-4.23,2A5.4,5.4,0,0,1,494.21,327.46Z"/>
    <path class="cls-2" d="M526,328.73a5,5,0,0,1-1.81-2,10.71,10.71,0,0,1-1-2.64,13.63,13.63,0,0,1-.31-2.95v-29.4q0-1.85.13-3.11a10.93,10.93,0,0,1,.58-2.54,5.3,5.3,0,0,1,1.25-2.06,5.66,5.66,0,0,1,2.17-1.25,10.33,10.33,0,0,1,3.32-.47h20.85a4.4,4.4,0,0,1,3.19,1.28,4.2,4.2,0,0,1,1.31,3.12,4.09,4.09,0,0,1-1.31,3.09,4.46,4.46,0,0,1-3.19,1.25H534.53v10.07h15.25a4.4,4.4,0,0,1,3.19,1.28,4.2,4.2,0,0,1,1.31,3.12,4.09,4.09,0,0,1-1.31,3.09,4.46,4.46,0,0,1-3.19,1.25H534.53v10.85h17.52a4,4,0,0,1,3,1.26,4.31,4.31,0,0,1,1.21,3.11,4.26,4.26,0,0,1-1.21,3.09,4,4,0,0,1-3,1.25H528.74A5,5,0,0,1,526,328.73Z"/>
    <path class="cls-2" d="M564.48,327.22a3.86,3.86,0,0,1-1.42-1.67,3.93,3.93,0,0,1-.34-2.06,6.45,6.45,0,0,1,.58-2,3.86,3.86,0,0,1,1.36-1.6,4.58,4.58,0,0,1,2-.74,4.12,4.12,0,0,1,2.41.53A27.65,27.65,0,0,0,580,322a12.07,12.07,0,0,0,5.88-1.26,4.13,4.13,0,0,0,2.28-3.85q0-3.4-5-5.05l-10.75-3.56q-6.05-2.27-8.55-5a10.76,10.76,0,0,1-2.49-7.53,12.46,12.46,0,0,1,5.21-10.49q5.21-3.92,14.08-3.92a36.13,36.13,0,0,1,8.63,1.08,15,15,0,0,1,6.72,3.22,4.18,4.18,0,0,1,1.23,2.2,4.1,4.1,0,0,1-.13,2.3A6.57,6.57,0,0,1,596,292a3,3,0,0,1-1.73,1.08,3.32,3.32,0,0,1-2-.21,23.8,23.8,0,0,0-5.39-2.28,22.91,22.91,0,0,0-5.75-.63,16.4,16.4,0,0,0-4,.47,7.24,7.24,0,0,0-3.11,1.6,3.56,3.56,0,0,0-1.26,2.75,3.89,3.89,0,0,0,1.73,3.32,19.72,19.72,0,0,0,5.1,2.38A11.35,11.35,0,0,0,582,301a12,12,0,0,1,2.51.49q3,.91,5.1,1.75a27.75,27.75,0,0,1,4.13,2.06,13.07,13.07,0,0,1,3.22,2.64,11.07,11.07,0,0,1,1.94,3.42,14,14,0,0,1-4.48,15.35q-5.21,4-14.12,4Q570.15,330.69,564.48,327.22Z"/>
    <path class="cls-2" d="M617.3,327.46a7,7,0,0,1-1.73-4.74V291.25h-8.9a4.56,4.56,0,0,1-3.25-1.31,4.31,4.31,0,0,1,0-6.31,4.56,4.56,0,0,1,3.25-1.31h29.56a4.5,4.5,0,0,1,3.24,1.31,4.26,4.26,0,0,1,1.36,3.19,4.18,4.18,0,0,1-1.36,3.14,4.53,4.53,0,0,1-3.24,1.3h-8.71v31.47a6.91,6.91,0,0,1-1.76,4.74,5.46,5.46,0,0,1-4.23,2A5.4,5.4,0,0,1,617.3,327.46Z"/>
  </g>
</svg>
