<svg id="Layer_1" data-name="Layer 1" xmlns="http://www.w3.org/2000/svg" width="11in" height="8.5in" viewBox="0 0 792 612">
  <defs>
    <style>
      .cls-1 {
        fill: #9f1600;
      }

      .cls-2 {
        fill: #fff;
      }
    </style>
  </defs>
  <title>packtest</title>
  <rect class="cls-1" width="792" height="612"/>
  <g>
    <path class="cls-2" d="M178.05,332.26a8.5,8.5,0,0,1-2.14-5.8V289a35.11,35.11,0,0,1,.18-3.84,15.52,15.52,0,0,1,.73-3.23,6.72,6.72,0,0,1,1.56-2.65,7.41,7.41,0,0,1,2.75-1.64,12.33,12.33,0,0,1,4.2-.63h15.49a49,49,0,0,1,7,.46,24.91,24.91,0,0,1,6.06,1.68,14.63,14.63,0,0,1,4.87,3.21,14.31,14.31,0,0,1,3.11,5.15,21.38,21.38,0,0,1,1.17,7.41q0,8.91-5.78,13.47T200.82,313H190.57v13.51a8.41,8.41,0,0,1-2.18,5.8,6.74,6.74,0,0,1-5.19,2.44A6.62,6.62,0,0,1,178.05,332.26Zm20.4-28.3a24.45,24.45,0,0,0,4.48-.48,8.41,8.41,0,0,0,3.15-1.39,5.66,5.66,0,0,0,2-2.73,13.16,13.16,0,0,0,.63-4.44q0-4.91-2.28-6.61t-7.31-1.7h-8.55V304Z"/>
    <path class="cls-2" d="M265.82,321.58H242.53L239.92,329a8.47,8.47,0,0,1-2.83,4.2,5.64,5.64,0,0,1-3.86,1.33,8.32,8.32,0,0,1-3.7-1.19A5.08,5.08,0,0,1,227.2,330a9.78,9.78,0,0,1,.32-5.17L242,287.44a28.8,28.8,0,0,1,2.53-5.64,12.16,12.16,0,0,1,3-3.47,9.91,9.91,0,0,1,3.15-1.64,14,14,0,0,1,7.09,0,9.91,9.91,0,0,1,3.15,1.64,12.16,12.16,0,0,1,3,3.47,28.8,28.8,0,0,1,2.53,5.64l14.46,37.39a9.78,9.78,0,0,1,.32,5.17,5.08,5.08,0,0,1-2.32,3.37,8.32,8.32,0,0,1-3.7,1.19,5.64,5.64,0,0,1-3.86-1.33,8.47,8.47,0,0,1-2.83-4.2Zm-11.64-33-8.71,24.75h17.43Z"/>
    <path class="cls-2" d="M305.07,334.24a27,27,0,0,1-9-5.62,25.4,25.4,0,0,1-6.12-9.37,34.66,34.66,0,0,1-2.24-12.75,35.84,35.84,0,0,1,2.24-13,26.78,26.78,0,0,1,6.18-9.68,27.43,27.43,0,0,1,9.29-6,31.48,31.48,0,0,1,11.6-2.1,30.84,30.84,0,0,1,16.24,3.92,6.89,6.89,0,0,1,2,2,5.59,5.59,0,0,1,.91,2.3,7.72,7.72,0,0,1,0,2.34,4.54,4.54,0,0,1-.89,2.08,6.93,6.93,0,0,1-1.6,1.51,3.84,3.84,0,0,1-2.2.61,7.18,7.18,0,0,1-2.67-.55,27.78,27.78,0,0,0-10.93-2.61,26.8,26.8,0,0,0-4.65.36,12.79,12.79,0,0,0-4.06,1.52,9.5,9.5,0,0,0-3.35,3.17,17.94,17.94,0,0,0-2.12,5.47,35.58,35.58,0,0,0-.83,8.22q0,9.07,3.64,13.8t10.85,4.73a26.45,26.45,0,0,0,6.73-1,28.78,28.78,0,0,0,6.69-2.65,3.42,3.42,0,0,1,3.6.16,4.91,4.91,0,0,1,2.38,3.6q.55,3.41-2.77,6-7.09,5.43-17.82,5.43A30.79,30.79,0,0,1,305.07,334.24Z"/>
    <path class="cls-2" d="M347.23,332.26a8.6,8.6,0,0,1-2.12-5.84V285.31a8.6,8.6,0,0,1,2.12-5.84,6.56,6.56,0,0,1,5.13-2.44,6.68,6.68,0,0,1,5.15,2.46,8.48,8.48,0,0,1,2.18,5.82l-.08,17.86,18.1-20.36q1.23-1.62,1.82-2.34t1.56-1.68a6.07,6.07,0,0,1,1.86-1.35,4.89,4.89,0,0,1,1.92-.38,6.34,6.34,0,0,1,4.5,1.86,6,6,0,0,1,2,4.55q0,2.53-3.72,7.45l-12.67,13.62,13.58,15.72q3.8,5.31,3.8,8a5.84,5.84,0,0,1-2.08,4.52,6.8,6.8,0,0,1-4.65,1.86,5.32,5.32,0,0,1-1.52-.22,4.84,4.84,0,0,1-1.47-.75q-.73-.53-1.27-1a10.06,10.06,0,0,1-1.25-1.35q-.71-.89-1.07-1.37t-1.11-1.56q-.75-1.09-1-1.41L359.6,306.38l.08,20a8.55,8.55,0,0,1-2.14,5.84,6.66,6.66,0,0,1-5.19,2.44A6.56,6.56,0,0,1,347.23,332.26Z"/>
    <path class="cls-2" d="M436.73,332.26a8.55,8.55,0,0,1-2.12-5.8V288H423.72a5.58,5.58,0,0,1-4-1.6,5.27,5.27,0,0,1,0-7.72,5.58,5.58,0,0,1,4-1.6h36.16a5.51,5.51,0,0,1,4,1.6,5.22,5.22,0,0,1,1.66,3.9,5.11,5.11,0,0,1-1.66,3.84,5.55,5.55,0,0,1-4,1.58H449.23v38.5a8.46,8.46,0,0,1-2.16,5.8,6.68,6.68,0,0,1-5.17,2.44A6.6,6.6,0,0,1,436.73,332.26Z"/>
    <path class="cls-2" d="M475.65,333.8a6.12,6.12,0,0,1-2.22-2.42,13.1,13.1,0,0,1-1.17-3.23,16.67,16.67,0,0,1-.38-3.6v-36q0-2.26.16-3.8a13.37,13.37,0,0,1,.71-3.11,6.49,6.49,0,0,1,1.52-2.51,6.92,6.92,0,0,1,2.65-1.52,12.64,12.64,0,0,1,4.06-.57H506.5a5.38,5.38,0,0,1,3.9,1.56,5.13,5.13,0,0,1,1.6,3.82,5,5,0,0,1-1.6,3.78,5.45,5.45,0,0,1-3.9,1.52H486.06v12.32h18.65a5.38,5.38,0,0,1,3.9,1.56,5.13,5.13,0,0,1,1.6,3.82,5,5,0,0,1-1.6,3.78,5.45,5.45,0,0,1-3.9,1.52H486.06V324h21.43a4.84,4.84,0,0,1,3.62,1.54,5.28,5.28,0,0,1,1.49,3.8,5.21,5.21,0,0,1-1.49,3.78,4.87,4.87,0,0,1-3.62,1.52H479A6.15,6.15,0,0,1,475.65,333.8Z"/>
    <path class="cls-2" d="M522.7,332a4.72,4.72,0,0,1-1.74-2,4.81,4.81,0,0,1-.42-2.51,7.89,7.89,0,0,1,.71-2.5,4.73,4.73,0,0,1,1.66-2,5.61,5.61,0,0,1,2.42-.91,5,5,0,0,1,3,.65,33.83,33.83,0,0,0,13.35,2.85,14.76,14.76,0,0,0,7.19-1.54,5,5,0,0,0,2.79-4.71q0-4.16-6.1-6.18l-13.15-4.36Q525,306,521.91,302.63t-3-9.21a15.24,15.24,0,0,1,6.38-12.83q6.38-4.79,17.23-4.79A44.2,44.2,0,0,1,553,277.13a18.31,18.31,0,0,1,8.22,3.94,5.11,5.11,0,0,1,1.51,2.69,5,5,0,0,1-.16,2.81,8,8,0,0,1-1.37,2.34,3.71,3.71,0,0,1-2.12,1.33,4.06,4.06,0,0,1-2.46-.26,29.12,29.12,0,0,0-6.59-2.79,28,28,0,0,0-7-.77,20.06,20.06,0,0,0-5,.57,8.85,8.85,0,0,0-3.8,2,4.36,4.36,0,0,0-1.54,3.37,4.76,4.76,0,0,0,2.12,4.06,24.12,24.12,0,0,0,6.24,2.91,13.88,13.88,0,0,0,3,.59,14.72,14.72,0,0,1,3.07.59q3.64,1.11,6.24,2.14a34,34,0,0,1,5,2.51,16,16,0,0,1,3.94,3.23,13.54,13.54,0,0,1,2.38,4.18,17.11,17.11,0,0,1-5.49,18.77q-6.38,4.89-17.27,4.89Q529.63,336.2,522.7,332Z"/>
    <path class="cls-2" d="M587.31,332.26a8.55,8.55,0,0,1-2.12-5.8V288H574.3a5.58,5.58,0,0,1-4-1.6,5.27,5.27,0,0,1,0-7.72,5.58,5.58,0,0,1,4-1.6h36.16a5.51,5.51,0,0,1,4,1.6,5.22,5.22,0,0,1,1.66,3.9,5.11,5.11,0,0,1-1.66,3.84,5.55,5.55,0,0,1-4,1.58H599.81v38.5a8.46,8.46,0,0,1-2.16,5.8,6.68,6.68,0,0,1-5.17,2.44A6.6,6.6,0,0,1,587.31,332.26Z"/>
  </g>
</svg>
