<svg id="Layer_1" data-name="Layer 1" xmlns="http://www.w3.org/2000/svg" width="11in" height="8.5in" viewBox="0 0 792 612">
  <defs>
    <style>
      .cls-1 {
        fill: #eaff31;
      }

      .cls-2 {
        fill: #fff;
      }
    </style>
  </defs>
  <title>washtest</title>
  <rect class="cls-1" width="792" height="612"/>
  <g>
    <path class="cls-2" d="M259.17,327a7.86,7.86,0,0,1-2.73,2,8.2,8.2,0,0,1-3.37.65,9,9,0,0,1-3.45-.7,7.94,7.94,0,0,1-3-2.32,10.36,10.36,0,0,1-2-4l-8.56-29.16-8.59,29.16a10.36,10.36,0,0,1-2,4,7.94,7.94,0,0,1-3,2.32,9,9,0,0,1-3.43.7,8.27,8.27,0,0,1-3.37-.65,7.82,7.82,0,0,1-2.75-2,6.59,6.59,0,0,1-1.57-3l-8.18-34.72a5.68,5.68,0,0,1,1.49-5.59,4.64,4.64,0,0,1,5.08-1.25q2.86,1,3.69,5.21l6.48,29.55,7.54-24.66a33.31,33.31,0,0,1,1.25-4,15.34,15.34,0,0,1,1.61-3,6.11,6.11,0,0,1,2.4-2.11,8.46,8.46,0,0,1,6.68,0,6.08,6.08,0,0,1,2.4,2.12,15.31,15.31,0,0,1,1.6,3,38.6,38.6,0,0,1,1.26,4l7.51,24.66,6.52-29.55q.83-4.25,3.69-5.21a4.61,4.61,0,0,1,5.06,1.25,5.7,5.7,0,0,1,1.47,5.59L260.74,324A6.59,6.59,0,0,1,259.17,327Z"/>
    <path class="cls-2" d="M304.21,318.57H285.43l-2.11,6A6.83,6.83,0,0,1,281,328a4.55,4.55,0,0,1-3.11,1.07,6.71,6.71,0,0,1-3-1,4.1,4.1,0,0,1-1.87-2.72,7.89,7.89,0,0,1,.26-4.17L285,291a23.23,23.23,0,0,1,2-4.55,9.81,9.81,0,0,1,2.4-2.79,8,8,0,0,1,2.54-1.33,11.31,11.31,0,0,1,5.72,0,8,8,0,0,1,2.54,1.33,9.81,9.81,0,0,1,2.4,2.79,23.23,23.23,0,0,1,2,4.55l11.66,30.15a7.89,7.89,0,0,1,.26,4.17,4.1,4.1,0,0,1-1.87,2.72,6.71,6.71,0,0,1-3,1A4.55,4.55,0,0,1,308.6,328a6.83,6.83,0,0,1-2.28-3.39Zm-9.39-26.64-7,20h14.05Z"/>
    <path class="cls-2" d="M324.46,326.94a3.81,3.81,0,0,1-1.41-1.65,3.88,3.88,0,0,1-.34-2,6.36,6.36,0,0,1,.57-2,3.81,3.81,0,0,1,1.34-1.58,4.52,4.52,0,0,1,1.95-.73,4.06,4.06,0,0,1,2.38.53,27.28,27.28,0,0,0,10.76,2.3,11.91,11.91,0,0,0,5.8-1.25,4.07,4.07,0,0,0,2.25-3.8q0-3.35-4.92-5l-10.6-3.51q-6-2.24-8.43-4.94a10.61,10.61,0,0,1-2.46-7.43,12.29,12.29,0,0,1,5.14-10.35q5.14-3.87,13.89-3.87a35.65,35.65,0,0,1,8.51,1.07,14.77,14.77,0,0,1,6.63,3.18,4.12,4.12,0,0,1,1.21,2.17,4,4,0,0,1-.13,2.27,6.48,6.48,0,0,1-1.1,1.88,3,3,0,0,1-1.71,1.07,3.28,3.28,0,0,1-2-.21,23.48,23.48,0,0,0-5.32-2.25,22.61,22.61,0,0,0-5.67-.62,16.18,16.18,0,0,0-4,.46,7.14,7.14,0,0,0-3.07,1.58,3.52,3.52,0,0,0-1.25,2.72,3.84,3.84,0,0,0,1.71,3.27,19.45,19.45,0,0,0,5,2.35,11.2,11.2,0,0,0,2.44.48,11.87,11.87,0,0,1,2.48.48q2.94.89,5,1.72a27.38,27.38,0,0,1,4.07,2,12.89,12.89,0,0,1,3.18,2.6,10.92,10.92,0,0,1,1.92,3.37A13.8,13.8,0,0,1,354,326.41q-5.14,3.94-13.93,3.94Q330.05,330.36,324.46,326.94Z"/>
    <path class="cls-2" d="M367.71,327.19a6.84,6.84,0,0,1-1.72-4.7V289.28a6.84,6.84,0,0,1,1.72-4.7,5.43,5.43,0,0,1,8.34,0,6.84,6.84,0,0,1,1.72,4.7v11.08h16.55V289.28a6.82,6.82,0,0,1,1.74-4.68,5.42,5.42,0,0,1,8.34,0,6.8,6.8,0,0,1,1.74,4.7V322.5a6.8,6.8,0,0,1-1.74,4.7,5.42,5.42,0,0,1-8.32,0,6.84,6.84,0,0,1-1.72-4.7l0-12.59H377.77V322.5a6.84,6.84,0,0,1-1.72,4.7,5.43,5.43,0,0,1-8.34,0Z"/>
    <path class="cls-2" d="M444.32,327.18a6.89,6.89,0,0,1-1.71-4.68v-31h-8.78a4.5,4.5,0,0,1-3.21-1.29,4.25,4.25,0,0,1,0-6.23,4.5,4.5,0,0,1,3.21-1.29H463a4.44,4.44,0,0,1,3.19,1.29,4.21,4.21,0,0,1,1.34,3.15,4.12,4.12,0,0,1-1.34,3.1,4.47,4.47,0,0,1-3.19,1.28H454.4v31a6.82,6.82,0,0,1-1.74,4.68,5.39,5.39,0,0,1-4.17,2A5.32,5.32,0,0,1,444.32,327.18Z"/>
    <path class="cls-2" d="M475.71,328.42a4.93,4.93,0,0,1-1.79-1.95,10.57,10.57,0,0,1-.94-2.6,13.45,13.45,0,0,1-.3-2.91V292q0-1.82.13-3.07a10.79,10.79,0,0,1,.57-2.51,5.23,5.23,0,0,1,1.23-2,5.58,5.58,0,0,1,2.14-1.23,10.19,10.19,0,0,1,3.27-.46h20.57a4.34,4.34,0,0,1,3.15,1.26A4.14,4.14,0,0,1,505,287a4,4,0,0,1-1.29,3.05,4.4,4.4,0,0,1-3.15,1.23H484.11v9.93h15a4.34,4.34,0,0,1,3.15,1.26,4.14,4.14,0,0,1,1.29,3.08,4,4,0,0,1-1.29,3.05,4.4,4.4,0,0,1-3.15,1.23h-15v10.7h17.28a3.9,3.9,0,0,1,2.92,1.25,4.25,4.25,0,0,1,1.2,3.07,4.2,4.2,0,0,1-1.2,3.05,3.92,3.92,0,0,1-2.92,1.23h-23A5,5,0,0,1,475.71,328.42Z"/>
    <path class="cls-2" d="M513.65,326.94a3.81,3.81,0,0,1-1.41-1.65,3.88,3.88,0,0,1-.34-2,6.36,6.36,0,0,1,.57-2,3.81,3.81,0,0,1,1.34-1.58,4.52,4.52,0,0,1,1.95-.73,4.06,4.06,0,0,1,2.38.53,27.28,27.28,0,0,0,10.76,2.3,11.91,11.91,0,0,0,5.8-1.25,4.07,4.07,0,0,0,2.25-3.8q0-3.35-4.92-5l-10.6-3.51q-6-2.24-8.43-4.94a10.61,10.61,0,0,1-2.46-7.43,12.29,12.29,0,0,1,5.14-10.35q5.14-3.87,13.89-3.87a35.65,35.65,0,0,1,8.51,1.07,14.77,14.77,0,0,1,6.63,3.18,4.12,4.12,0,0,1,1.21,2.17,4,4,0,0,1-.13,2.27,6.48,6.48,0,0,1-1.1,1.88,3,3,0,0,1-1.71,1.07,3.28,3.28,0,0,1-2-.21,23.48,23.48,0,0,0-5.32-2.25,22.61,22.61,0,0,0-5.67-.62,16.18,16.18,0,0,0-4,.46,7.14,7.14,0,0,0-3.07,1.58,3.52,3.52,0,0,0-1.25,2.72,3.84,3.84,0,0,0,1.71,3.27,19.45,19.45,0,0,0,5,2.35,11.2,11.2,0,0,0,2.44.48,11.87,11.87,0,0,1,2.48.48q2.94.89,5,1.72a27.38,27.38,0,0,1,4.07,2,12.89,12.89,0,0,1,3.18,2.6,10.92,10.92,0,0,1,1.92,3.37,13.8,13.8,0,0,1-4.42,15.14q-5.14,3.94-13.93,3.94Q519.24,330.36,513.65,326.94Z"/>
    <path class="cls-2" d="M565.77,327.18a6.89,6.89,0,0,1-1.71-4.68v-31h-8.78a4.5,4.5,0,0,1-3.21-1.29,4.25,4.25,0,0,1,0-6.23,4.5,4.5,0,0,1,3.21-1.29h29.16a4.44,4.44,0,0,1,3.19,1.29,4.21,4.21,0,0,1,1.34,3.15,4.12,4.12,0,0,1-1.34,3.1,4.47,4.47,0,0,1-3.19,1.28h-8.59v31a6.82,6.82,0,0,1-1.74,4.68,5.39,5.39,0,0,1-4.17,2A5.32,5.32,0,0,1,565.77,327.18Z"/>
  </g>
</svg>
