<?xml version="1.0" encoding="utf-8"?>
<!-- Generator: Adobe Illustrator 21.1.0, SVG Export Plug-In . SVG Version: 6.00 Build 0)  -->

<?xml-stylesheet type="text/css" href="../../../css/gameanim.css"?>

<svg version="1.1" id="Layer_1" xmlns="http://www.w3.org/2000/svg" xmlns:xlink="http://www.w3.org/1999/xlink" x="0px" y="0px"
	 viewBox="0 0 1242 2208" style="enable-background:new 0 0 1242 2208;" xml:space="preserve">
<style type="text/css">
	.st0{fill:none;}
	.st1{fill:none;stroke:#FFDB58;stroke-width:2;stroke-miterlimit:10;}
	.st2{fill:#FFF1A5;}
	.st3{opacity:0.5;fill:url(#Pattern_2_);enable-background:new    ;}
	.st4{fill:#F2F2F2;stroke:#132560;stroke-width:4;stroke-linecap:round;stroke-linejoin:round;stroke-miterlimit:10;}
	.st5{fill:none;stroke:#132560;stroke-width:4;stroke-linecap:round;stroke-linejoin:round;stroke-miterlimit:10;}
	.st6{fill:#FFFFE4;stroke:#14275E;stroke-width:3;stroke-miterlimit:10;}
	.st7{fill:#F2F2F2;stroke:#14275E;stroke-width:3;stroke-miterlimit:10;}
	.st8{fill:#132560;stroke:#14275E;stroke-width:0.75;stroke-miterlimit:10;}
	.st9{fill:#F2F2F2;stroke:#132560;stroke-width:0.75;stroke-linecap:round;stroke-linejoin:round;stroke-miterlimit:10;}
	.st10{fill:#132560;}
	.st11{fill:#FFFFE4;stroke:#14275E;stroke-width:4;stroke-miterlimit:10;}
	.st12{fill:#132560;stroke:#14275E;stroke-width:4;stroke-miterlimit:10;}
	.st13{fill:#FF9C32;}
	.st14{fill:#FFDB58;}
	.st15{fill:#FFFFFF;}
	
		.st16{fill:#FFFFE4;stroke:#132560;stroke-width:3;stroke-linecap:round;stroke-linejoin:round;stroke-miterlimit:10;stroke-dasharray:480,30,200,30,0,0;}
	.st17{fill:#F2F2F2;stroke:#132560;stroke-width:3;stroke-linecap:round;stroke-linejoin:round;stroke-miterlimit:10;}
	.st18{opacity:0.5;fill:#FFDB58;}
	.st19{fill:#6696E2;stroke:#14275E;stroke-width:4;stroke-miterlimit:10;}
</style>
<pattern  y="2208" width="102.1" height="97.7" patternUnits="userSpaceOnUse" id="Pattern_1_" viewBox="51.1 -122.1 102.1 97.7" style="overflow:visible;">
	<g>
		<rect x="51.1" y="-122.1" class="st0" width="102.1" height="97.7"/>
		<g>
			<rect x="51.1" y="-122.1" class="st0" width="102.1" height="97.7"/>
			<g>
				<rect x="51.1" y="-122.1" class="st0" width="102.1" height="97.7"/>
				<rect x="103.1" y="-47.9" class="st1" width="100.1" height="46.9"/>
				<rect x="1" y="-47.9" class="st1" width="100.1" height="46.9"/>
				<rect x="52.1" y="-96.7" class="st1" width="100.1" height="46.9"/>
				<rect x="103.1" y="-145.6" class="st1" width="100.1" height="46.9"/>
				<rect x="1" y="-145.6" class="st1" width="100.1" height="46.9"/>
			</g>
		</g>
	</g>
</pattern>
<rect id="Background" x="1.5" y="4.5" class="st2" width="1237" height="2202"/>
<pattern  id="Pattern_2_" xlink:href="#Pattern_1_" patternTransform="matrix(1 0 0 1 -2484.7002 17682.2012)">
</pattern>
<rect id="Pattern" x="95.2" y="182.6" class="st3" width="1066.5" height="1665.9"/>
<g id="Fridge_2_">
	<path class="st4" d="M130,1201.1h330.8c6.6,0,12,5.4,12,12v617.7c0,6.6-5.4,12-12,12H130c-6.6,0-12-5.4-12-12v-617.7
		C118,1206.5,123.4,1201.1,130,1201.1z"/>
	<line class="st5" x1="472.8" y1="1472.8" x2="118" y2="1472.8"/>
	<line class="st5" x1="155.5" y1="1341.1" x2="213.7" y2="1341.1"/>
	<line class="st5" x1="155.5" y1="1592" x2="213.7" y2="1592"/>
</g>
<g id="Middle_1_">
	<g id="MidCounter_1_">
		<rect x="474.9" y="1546.7" class="st6" width="320.2" height="296.6"/>
		<rect x="474.9" y="1512.1" class="st7" width="320.2" height="34.7"/>
		<rect x="489.1" y="1559.9" class="st8" width="290.4" height="271"/>
		<rect x="592.7" y="1577.2" class="st9" width="83.2" height="18"/>
		<g>
			<polygon class="st10" points="632.9,1449 631.5,1449 612.1,1449 612.1,1460.1 631.5,1460.1 631.5,1510 642.6,1510 642.6,1449 			
				"/>
			<rect x="590" y="1500.3" class="st10" width="20.8" height="11.1"/>
			<rect x="659.3" y="1500.3" class="st10" width="20.8" height="11.1"/>
		</g>
	</g>
	<g id="MidShelf">
		<path id="Fork" class="st10" d="M708.5,1299.9h-4.9v-63.8h-8.3v63.8h-4.9c-5.3,0-9.7,4.4-9.7,9.7v19.4
			c0,5.3,4.4,9.7,9.7,9.7h18c5.3,0,9.7-4.4,9.7-9.7v-19.4C718.2,1304.3,713.8,1299.9,708.5,1299.9z M691.8,1329.7
			c0,1.1-0.9,2.1-2.1,2.1c-1.1,0-2.1-0.9-2.1-2.1v-20.8c0-1.1,0.9-2.1,2.1-2.1c1.1,0,2.1,0.9,2.1,2.1V1329.7z M701.5,1329.7
			c0,1.1-0.9,2.1-2.1,2.1c-1.1,0-2.1-0.9-2.1-2.1v-20.8c0-1.1,0.9-2.1,2.1-2.1c1.1,0,2.1,0.9,2.1,2.1V1329.7z M711.2,1329.7
			c0,1.1-0.9,2.1-2.1,2.1c-1.1,0-2.1-0.9-2.1-2.1v-20.8c0-1.1,0.9-2.1,2.1-2.1c1.1,0,2.1,0.9,2.1,2.1V1329.7z"/>
		<path id="Spatula" class="st10" d="M757,1299.9h-4.9v-63.8h-8.3v63.8H739c-5.3,0-9.7,4.4-9.7,9.7v19.4c0,4.4,2.9,8.1,6.9,9.3
			v-16.9c0-1.1,0.9-2.1,2.1-2.1c1.1,0,2.1,0.9,2.1,2.1v17.3h5.5v-17.3c0-1.1,0.9-2.1,2.1-2.1c1.1,0,2.1,0.9,2.1,2.1v17.3h5.5v-17.3
			c0-1.1,0.9-2.1,2.1-2.1c1.1,0,2.1,0.9,2.1,2.1v16.9c4-1.2,6.9-4.9,6.9-9.3v-19.4C766.7,1304.3,762.3,1299.9,757,1299.9z"/>
		<path id="Spoon" class="st10" d="M657.2,1297.9v-61.7h-8.3v61.7c-7.2,2.5-12.5,11.1-12.5,21.4c0,12.2,7.4,22.2,16.6,22.2
			c9.2,0,16.6-9.9,16.6-22.2C669.7,1309,664.4,1300.3,657.2,1297.9z"/>
		<rect id="Shelf_1_" x="489.5" y="1207" class="st4" width="289.7" height="27.7"/>
	</g>
	<g id="MidTop_2_">
		<rect x="488.8" y="921.7" class="st11" width="291.1" height="250.1"/>
		<rect x="503.3" y="931.6" class="st12" width="126" height="230.2"/>
		<rect x="641.2" y="931.1" class="st12" width="126" height="231.3"/>
		<rect x="528.5" y="1112.2" class="st4" width="75.6" height="16.4"/>
		<rect x="666.4" y="1112.2" class="st4" width="75.6" height="16.4"/>
	</g>
</g>
<g id="Oven">
	<g id="Oven_1_">
		<g id="leftFire">
			<path id="rightOrange_1_" class="st13" d="M875.2,1536c0,11.9,9.7,21.6,21.6,21.6l0,0c11.9,0,21.6-9.7,21.6-21.6
				c0-12-6-21.6-2-29.9c0,0-6.4,1.2-10,10.8c0,0-12-12-7-28.7c0,0-12.2,4.8-10.9,20.4c1.1,13.4-1.3,15.6-1.3,15.6
				c0-10.8-8.4-15.6-8.4-15.6C881.2,1521.6,875.2,1525.2,875.2,1536z"/>
			<path id="rightYellow_1_" class="st14" d="M912.3,1541.1c0,9-6.9,16.6-15.9,16.5c-8.4-0.2-14.7-6.6-14-15
				c0.3-3.7,3.1-9.8,7.8-15.9l3.1,1.9c-0.1-7.6,3.5-17.7,3.5-17.7C899.1,1521.5,912.3,1524.2,912.3,1541.1z"/>
			<path id="rightWhite_1_" class="st15" d="M890.8,1533.6c-1.2,7.2-3.6,9.8-3.6,14.4c0,4.8,4.3,9.6,9.6,9.6l0,0
				c5.3,0,9.6-4.4,9.6-9.7c0-14.3-8.4-21.5-8.4-21.5c1.2,7.2-2.4,10.8-2.4,10.8C894.1,1535,890.8,1533.6,890.8,1533.6z"/>
		</g>
		<g id="rightFire">
			<path id="rightOrange" class="st13" d="M1011.2,1536c0,11.9,9.7,21.6,21.6,21.6l0,0c11.9,0,21.6-9.7,21.6-21.6
				c0-12-6-21.6-2-29.9c0,0-6.4,1.2-10,10.8c0,0-12-12-7-28.7c0,0-12.2,4.8-10.9,20.4c1.1,13.4-1.3,15.6-1.3,15.6
				c0-10.8-8.4-15.6-8.4-15.6C1017.2,1521.6,1011.2,1525.2,1011.2,1536z"/>
			<path id="rightYellow" class="st14" d="M1048.3,1541.1c0,9-6.9,16.6-15.9,16.5c-8.4-0.2-14.7-6.6-14-15c0.3-3.7,3.1-9.8,7.8-15.9
				l3.1,1.9c-0.1-7.6,3.5-17.7,3.5-17.7C1035.1,1521.5,1048.3,1524.2,1048.3,1541.1z"/>
			<path id="rightWhite" class="st15" d="M1026.8,1533.6c-1.2,7.2-3.6,9.8-3.6,14.4c0,4.8,4.3,9.6,9.6,9.6l0,0
				c5.3,0,9.6-4.4,9.6-9.7c0-14.3-8.4-21.5-8.4-21.5c1.2,7.2-2.4,10.8-2.4,10.8C1030.1,1535,1026.8,1533.6,1026.8,1533.6z"/>
		</g>
		<rect x="795.6" y="1549.7" class="st4" width="343" height="293.6"/>
		<rect x="850.5" y="1623.7" class="st10" width="233.2" height="183.8"/>
		<polyline class="st10" points="927.9,1547.9 869.6,1547.9 869.6,1534.2 927.9,1534.2 		"/>
		<polyline class="st10" points="1063.8,1547.9 1005.4,1547.9 1005.4,1534.2 1063.8,1534.2 		"/>
		<circle id="button1" class="st16" cx="861.4" cy="1588.1" r="16.5"/>
		<circle id="button2" class="st16" cx="931.4" cy="1588.1" r="16.5"/>
		<circle id="button3" class="st16" cx="1001.4" cy="1588.1" r="16.5"/>
		<circle id="button4" class="st16" cx="1071.4" cy="1588.1" r="16.5"/>
		<rect x="834.7" y="1649.2" class="st17" width="266.2" height="26.1"/>
	</g>
	<polygon id="ovenLight" class="st18" points="829.2,1344.1 1102.6,1344.1 1132,1546.4 807.2,1546.9 	"/>
	<path id="Oven_x5F_Top" class="st4" d="M793.6,1330.4h344.4v25.2H793.6V1330.4z M861.5,1234.3h208.3V926.1H861.5V1234.3z
		 M1069,1234.3H862.3l-53.3,95.5h313.4L1069,1234.3z"/>
</g>
<path id="water5" class="st19" d="M590.9,1480.8c-0.1,0.1-0.3,0.1-0.4,0.2c-1.3,0.4-2.6,0.2-3.6-0.4c-1.1-0.6-1.9-1.6-2.3-2.9
	c-0.4-1.3-0.2-2.6,0.4-3.6c0.4-0.7,1-1.4,1.8-1.8l1.4-0.8l5.4-3l0.1,2.4l0.1,1.9l0.1,3.5C594,1478.2,592.8,1480,590.9,1480.8z"/>
<path id="water4" class="st19" d="M563.6,1485.8c-0.2,0.1-0.4,0.2-0.6,0.2c-1.8,0.5-3.6,0.2-5.1-0.6c-1.5-0.8-2.7-2.3-3.2-4.1
	c-0.5-1.8-0.2-3.6,0.6-5.1c0.6-1.1,1.5-2,2.6-2.6l2-1.1l7.6-4.2l0.1,3.4l0.1,2.6l0.2,4.9C568,1482.1,566.2,1484.8,563.6,1485.8z"/>
<path id="water3" class="st19" d="M594.8,1533c-0.2,0.1-0.4,0.2-0.6,0.2c-1.8,0.5-3.6,0.2-5.1-0.6c-1.5-0.8-2.7-2.3-3.2-4.1
	c-0.5-1.8-0.2-3.6,0.6-5.1c0.6-1.1,1.5-2,2.6-2.6l2-1.1l7.6-4.2l0.1,3.4l0.1,2.6l0.2,4.9C599.2,1529.3,597.4,1532,594.8,1533z"/>
<path id="water2" class="st19" d="M614.3,1489.6c-0.1,0.1-0.3,0.2-0.4,0.3c-1.2,0.7-2.6,0.8-3.8,0.5s-2.4-1.2-3.1-2.4
	c-0.7-1.2-0.8-2.6-0.5-3.8c0.2-0.9,0.7-1.7,1.4-2.3l1.3-1.2l4.7-4.5l0.7,2.5l0.6,1.9l1,3.5C616.8,1486.2,616,1488.4,614.3,1489.6z"
	/>
<path id="water1" class="st19" d="M574.8,1511.7c-0.1,0.1-0.3,0.1-0.4,0.1c-1.2,0.3-2.5,0.2-3.5-0.4c-1-0.6-1.9-1.6-2.2-2.8
	c-0.3-1.2-0.2-2.5,0.4-3.5c0.4-0.7,1-1.4,1.8-1.8l1.4-0.8l5.2-2.9l0.1,2.4l0.1,1.8l0.1,3.4C577.8,1509.1,576.6,1510.9,574.8,1511.7z
	"/>
</svg>
