<?xml version="1.0" encoding="utf-8"?>
<!-- Generator: Adobe Illustrator 21.0.2, SVG Export Plug-In . SVG Version: 6.00 Build 0)  -->
<svg version="1.1" xmlns="http://www.w3.org/2000/svg" xmlns:xlink="http://www.w3.org/1999/xlink" x="0px" y="0px"
	 viewBox="0 0 1242 2208" style="enable-background:new 0 0 1242 2208;" xml:space="preserve">
<style type="text/css">
	.st0{fill:none;}
	.st1{fill:none;stroke:#FFDB58;stroke-width:2;stroke-miterlimit:10;}
	.st2{fill:#FFF1A5;stroke:#000000;stroke-miterlimit:10;}
	.st3{opacity:0.5;fill:url(#New_Pattern);}
	.st4{fill:#132560;}
	.st5{fill:#F2F2F2;stroke:#132560;stroke-width:4;stroke-linecap:round;stroke-linejoin:round;stroke-miterlimit:10;}
	.st6{fill:#B3B3B3;stroke:#132560;stroke-width:4;stroke-linecap:round;stroke-linejoin:round;stroke-miterlimit:10;}
	.st7{fill:#FFFFE4;stroke:#132560;stroke-width:3;stroke-linecap:round;stroke-linejoin:round;stroke-miterlimit:10;}
	.st8{fill:none;stroke:#132560;stroke-width:3;stroke-linecap:round;stroke-linejoin:round;stroke-miterlimit:10;}
	.st9{fill:#FFF1A5;stroke:#14275E;stroke-width:3;stroke-miterlimit:10;}
	.st10{fill:none;stroke:#14275E;stroke-width:4;stroke-miterlimit:10;}
	.st11{fill:none;stroke:#14275E;stroke-width:4;stroke-linecap:round;stroke-linejoin:round;stroke-miterlimit:10;}
	
		.st12{fill:#F2F2F2;stroke:#132560;stroke-width:4;stroke-linecap:round;stroke-linejoin:round;stroke-miterlimit:10;stroke-dasharray:500,30,200,30,0,0;}
	
		.st13{fill:#B3B3B3;stroke:#132560;stroke-width:4;stroke-linecap:round;stroke-linejoin:round;stroke-miterlimit:10;stroke-dasharray:300,50,200,50;}
</style>
<pattern  x="-2332" y="534" width="102.1" height="97.7" patternUnits="userSpaceOnUse" id="New_Pattern" viewBox="51.1 -122.1 102.1 97.7" style="overflow:visible;">
	<g>
		<rect x="51.1" y="-122.1" class="st0" width="102.1" height="97.7"/>
		<rect x="103.1" y="-47.9" class="st1" width="100.1" height="46.9"/>
		<rect x="1" y="-47.9" class="st1" width="100.1" height="46.9"/>
		<rect x="52.1" y="-96.7" class="st1" width="100.1" height="46.9"/>
		<rect x="103.1" y="-145.6" class="st1" width="100.1" height="46.9"/>
		<rect x="1" y="-145.6" class="st1" width="100.1" height="46.9"/>
	</g>
</pattern>
<g id="Tablet">
</g>
<g id="Mobile">
	
		<rect x="-481" y="487" transform="matrix(-1.836970e-16 1 -1 -1.836970e-16 1725.5 485.5)" class="st2" width="2202" height="1237"/>
	<rect x="65" y="78" class="st3" width="1140" height="1950"/>
	<rect id="Table_1_" x="82.6" y="1961.4" class="st4" width="1113.4" height="72"/>
	<rect id="Shelf" x="862.7" y="1364" class="st4" width="333.3" height="72"/>
	<g id="Machine_2_">
		<g id="Machine_x5F_Base_1_">
			<path class="st5" d="M683.8,1930.2H211.1c-13.8,0-25-11.2-25-25v-78.4c0-13.8,11.2-25,25-25h472.7c13.8,0,25,11.2,25,25v78.4
				C708.8,1918.9,697.5,1930.2,683.8,1930.2z"/>
			<path class="st6" d="M263.3,1438.1h368.3c21,0,38.2,17.2,38.2,38.2l-44.3,287.3c0,21-17.2,38.2-38.2,38.2H304.5
				c-21,0-38.2-17.2-38.2-38.2l-41.3-287.3C225.1,1455.3,242.3,1438.1,263.3,1438.1z"/>
			<path class="st5" d="M153.8,1126.3h587.3c13.8,0,25,11.2,25,25v261.8c0,13.8-11.2,25-25,25H153.8c-13.8,0-25-11.2-25-25v-261.8
				C128.8,1137.6,140,1126.3,153.8,1126.3z M129.6,1221.1h634.2"/>
			<path class="st6" d="M688.8,1930.2H206.1c-11,0-20-9-20-20v30.6c0,11,9,20,20,20h482.7c11,0,20-9,20-20v-30.6
				C708.8,1921.2,699.8,1930.2,688.8,1930.2z"/>
			<path class="st6" d="M360.9,1438.1H534c13.8,0,25,11.2,25,25v60c0,13.8-11.2,25-25,25H360.9c-13.8,0-25-11.2-25-25v-60
				C335.9,1449.3,347.1,1438.1,360.9,1438.1z"/>
			<path class="st5" d="M405.2,1437.6h84.5c13.8,0,25,11.2,25,25v180.1c0,13.8-11.2,25-25,25h-84.5c-13.8,0-25-11.2-25-25v-180.1
				C380.2,1448.9,391.4,1437.6,405.2,1437.6z"/>
			<path class="st12" d="M106.4,1483.9h185.4c7.4,0,13.5,6.1,13.5,13.5v14.3c0,7.4-6.1,13.5-13.5,13.5H106.4
				c-7.4,0-13.5-6.1-13.5-13.5v-14.3C92.9,1490,98.9,1483.9,106.4,1483.9z"/>
			<rect x="294.6" y="1493.1" class="st4" width="151.3" height="22.9"/>
			<path class="st4" d="M765.9,1334.2v-139.1c0-5.6,4.6-10.1,10.1-10.1h10.7c5.6,0,10.1,4.6,10.1,10.1v139.1
				c0,5.6-4.6,10.1-10.1,10.1H776C770.4,1344.3,765.9,1339.7,765.9,1334.2z"/>
		</g>
		<g id="Machine_x5F_Visuals_1_">
			<g id="Meter_1_">
				<circle class="st7" cx="642.3" cy="1328.8" r="73.4"/>
				<path class="st8" d="M584.2,1328.8c0-32,26.1-58.1,58.1-58.1s58.1,26.1,58.1,58.1 M643,1331.9l-29-29 M610.9,1356.3h62.7
					 M624.7,1370.1h35.1"/>
			</g>
			<g id="Left_x5F_Buttons_1_">
				<circle class="st7" cx="222" cy="1306.6" r="26"/>
				<path class="st7" d="M222,1320.4c-7.6,0-13.8-6.2-13.8-13.8s6.2-13.8,13.8-13.8s13.8,6.2,13.8,13.8S229.6,1320.4,222,1320.4z"/>
				<path class="st9" d="M222,1376.9c-7.6,0-13.8-6.2-13.8-13.8s6.2-13.8,13.8-13.8s13.8,6.2,13.8,13.8S229.6,1376.9,222,1376.9z"/>
			</g>
			<g id="Right_x5F_Buttons_1_">
				<circle class="st7" cx="307.6" cy="1306.6" r="26"/>
				<path class="st7" d="M307.6,1320.4c-7.6,0-13.8-6.2-13.8-13.8s6.2-13.8,13.8-13.8c7.6,0,13.8,6.2,13.8,13.8
					S315.2,1320.4,307.6,1320.4z"/>
				<path class="st9" d="M307.6,1376.9c-7.6,0-13.8-6.2-13.8-13.8s6.2-13.8,13.8-13.8c7.6,0,13.8,6.2,13.8,13.8
					S315.2,1376.9,307.6,1376.9z"/>
			</g>
		</g>
	</g>
	<g id="Coffee_2_">
		<path class="st5" d="M1074.1,1788.5c0,63.9-56.4,173.7-126.2,173.7s-126.2-109.8-126.2-173.7H1074.1z M1073.2,1835.1h-6.6
			c-1.4,4.7-2.8,9.4-4.7,14h11.2c7,0,12.9,5.9,12.9,12.9s-5.9,12.9-12.9,12.9h-22.2c-2.3,4.7-4.9,9.4-7.5,14h29.7
			c14.7,0,26.9-12.2,26.9-26.9S1087.9,1835.1,1073.2,1835.1z"/>
		<path class="st10" d="M899.2,1907.9c-23.9-22.5-42.8-56.2-54.1-89.4"/>
		<path class="st11" d="M899.7,1621.6c0-0.9-42.1,35.3-22.7,56.2c25.5,27.6,62,21.8,24.8,48c-11.2,8-5.1,26.2,7.7,30.7l11.2,4"/>
		<path class="st11" d="M990.1,1628.2c-22.5,8.7-49.4,24.6-14.3,41.2c33.9,16.2,30.2,46.1,11.5,52.7c-28.8,10.1,9.1,38.4,9.1,38.4"
			/>
		<path class="st11" d="M951.4,1634c0-0.7-54.1,35.3-18.5,47.3c22.7,7.7,25.3,21.8,11.9,42.8c-5.1,8.2-5.4,22.5,2.6,26.9l6.8,4"/>
	</g>
	<g id="Sugar_1_">
		<path id="Jar_1_" class="st5" d="M924.6,1142.1h209.6v195.8c0,13.8-11.2,25-25,25H949.6c-13.8,0-25-11.2-25-25V1142.1z"/>
		<ellipse id="Label_1_" class="st7" cx="1029.4" cy="1226.1" rx="69.1" ry="46.1"/>
		<g id="Sugar_x5F_Text_1_">
			<path class="st4" d="M981.4,1219.8c-1.1,0-1.9,0.4-1.9,1.2c0,3.3,11.7,1.3,11.7,9.4c0,4.8-4.2,7-9.2,7c-3.8,0-8-1.3-10.8-3.6
				l2.5-5.1c2.3,2,6,3.4,8.4,3.4c1.4,0,2.3-0.5,2.3-1.5c0-3.4-11.7-1.2-11.7-9.2c0-4.3,3.7-7.1,9.3-7.1c3.4,0,6.9,1,9.4,2.6
				l-2.5,5.1C986.6,1221,983.3,1219.8,981.4,1219.8z"/>
			<path class="st4" d="M1004,1232c2.2,0,3.8-1.6,3.8-4.2v-13h6.7v13c0,6-4.1,9.8-10.5,9.8c-6.4,0-10.6-3.8-10.6-9.8v-13h6.7v13
				C1000,1230.4,1001.8,1232,1004,1232z"/>
			<path class="st4" d="M1032.6,1225.7h5.7v9c-2.4,1.7-6.4,2.9-9.6,2.9c-6.9,0-12.1-4.9-12.1-11.5c0-6.6,5.3-11.4,12.5-11.4
				c3.4,0,7.1,1.3,9.5,3.4l-3.8,4.6c-1.5-1.5-3.8-2.4-5.7-2.4c-3.2,0-5.7,2.5-5.7,5.9c0,3.4,2.5,5.9,5.7,5.9c0.9,0,2.2-0.3,3.4-0.9
				V1225.7z"/>
			<path class="st4" d="M1056.7,1233.7h-9.1l-1.3,3.6h-6.8l9.6-22.4h6.8l9.2,22.4h-7.1L1056.7,1233.7z M1054.9,1228.9l-2.7-7.3
				l-2.8,7.3H1054.9z"/>
			<path class="st4" d="M1079.9,1237.3l-3-6h-3.5v6h-6.7v-22.4h10.5c6,0,9.5,2.9,9.5,8c0,3.3-1.3,5.8-3.8,7.1l4.5,7.3H1079.9z
				 M1073.4,1226.1h3.8c2,0,3.1-1.1,3.1-3.1c0-2-1.2-3-3.1-3h-3.8V1226.1z"/>
		</g>
		<g id="Jar_x5F_Lid_1_">
			<path id="_x3C_Compound_x5F_Path_x3E__1_" class="st13" d="M1032.6,1065.4v-4.6c3.7-1.3,6.4-4.9,6.4-9c0-5.3-4.3-9.6-9.6-9.6
				s-9.6,4.3-9.6,9.6c0,4.2,2.7,7.7,6.4,9v4.6c-44.4,1.3-81.9,29.9-96.4,69.5h199.2C1114.4,1095.2,1076.9,1066.7,1032.6,1065.4z"/>
			<path class="st4" d="M922.6,1133.3h213.6c2.9,0,5.2,2.3,5.2,5.2l0,0c0,2.9-2.3,5.2-5.2,5.2H922.6c-2.9,0-5.2-2.3-5.2-5.2l0,0
				C917.4,1135.6,919.7,1133.3,922.6,1133.3z"/>
		</g>
	</g>
</g>
</svg>
