<svg id="Layer_1" data-name="Layer 1" xmlns="http://www.w3.org/2000/svg" width="364.59" height="563.4" viewBox="0 0 364.59 563.4"> 
	<?xml-stylesheet type="text/css" href="../../../css/game_animation.css"?>
  <defs>
    <style>
      .cls-1, .cls-10, .cls-12, .cls-15, .cls-2, .cls-3, .cls-8 {
        fill: none;
      }

      .cls-1, .cls-2, .cls-3 {
        stroke: #ffdb58;
      }

      .cls-1, .cls-10, .cls-11, .cls-12, .cls-13, .cls-14, .cls-15, .cls-16, .cls-2, .cls-3, .cls-7, .cls-8, .cls-9 {
        stroke-linecap: round;
        stroke-linejoin: round;
      }

      .cls-1, .cls-13, .cls-2, .cls-3, .cls-5, .cls-7, .cls-8 {
        stroke-width: 2.51px;
      }

      .cls-2 {
        stroke-dasharray: 5.8 5.8 5.8 5.8 5.8 5.8;
      }

      .cls-3 {
        stroke-dasharray: 5.24 5.24 5.24 5.24 5.24 5.24;
      }

      .cls-4 {
        fill: #ffdb58;
      }

      .cls-11, .cls-14, .cls-5, .cls-6, .cls-7, .cls-9 {
        fill: #ffffe5;
      }

      .cls-10, .cls-11, .cls-12, .cls-13, .cls-14, .cls-15, .cls-16, .cls-5, .cls-6, .cls-7, .cls-8, .cls-9 {
        stroke: #ffe063;
      }

      .cls-5, .cls-6 {
        stroke-miterlimit: 10;
      }

      .cls-6 {
        stroke-width: 1.05px;
      }

      .cls-10, .cls-9 {
        stroke-width: 1.45px;
      }

      .cls-11, .cls-12 {
        stroke-width: 1.32px;
      }

      .cls-13, .cls-16 {
        fill: #fff;
      }

      .cls-14, .cls-15, .cls-16 {
        stroke-width: 1.61px;
      }
    </style>
  </defs>
  <title>customactivity_mobile</title>
  <g id="Bee">
    <g>
      <path class="cls-1" d="M364.69,80.3q1.49-.22,3-.38" transform="translate(-198.61 -22.23)"/>
      <path class="cls-2" d="M373.46,79.56c19.63-.45,37.38,7,34.71,14.52a3.55,3.55,0,0,1-1.35,1.83" transform="translate(-198.61 -22.23)"/>
      <path class="cls-2" d="M404,96.48C392.05,95.22,365.12,59,440.24,59c14.27,0,21.19-8,24.3-13.6" transform="translate(-198.61 -22.23)"/>
      <path class="cls-1" d="M465.81,42.8a19.83,19.83,0,0,0,1-2.83" transform="translate(-198.61 -22.23)"/>
    </g>
    <g>
      <path class="cls-1" d="M268.86,180.28s1.1.07,3,0" transform="translate(-198.61 -22.23)"/>
      <path class="cls-3" d="M277.09,180c9.13-1,24-4.33,35.08-15.83" transform="translate(-198.61 -22.23)"/>
      <path class="cls-3" d="M313.93,162.19c7.32-8.55,12.56-21.11,12.56-39.54a55.45,55.45,0,0,1,.47-7.36" transform="translate(-198.61 -22.23)"/>
      <path class="cls-1" d="M327.38,112.69q.29-1.51.66-2.93" transform="translate(-198.61 -22.23)"/>
    </g>
    <g id="_5DqBM2.tif" data-name="5DqBM2.tif">
      <path class="cls-4" d="M360.52,87.65a8.1,8.1,0,0,1-1.64,1.48c-.43.22-1.09,0-1.64-.05,0-.5-.13-1.18.14-1.46.89-.93,1.51-1.79.58-3a4.64,4.64,0,0,0-4-1.51A1.48,1.48,0,0,0,353,84a13.59,13.59,0,0,1-3.75,6.71,5.57,5.57,0,0,0-1.36,3.71,20,20,0,0,1-1.87,7.91c-1.16,2.21-2.76,3.81-5.35,3.87-2.83.07-5.32-.84-6.56-3.63-.49-1.1-1.18-.89-2-.8a18.49,18.49,0,0,1-11.23-2.38,2.94,2.94,0,0,1-1.74-3.11,17.58,17.58,0,0,1,4.08-10.49c.56-.66.92-1.12.34-2.09-1.52-2.54-.79-5.06.71-7.32a5.52,5.52,0,0,1,6.16-2.28c2.83.68,5.52,1.89,8.29,2.82a8.18,8.18,0,0,0,2.88.63c2.66-.14,5.29-.55,7.93.22a1.56,1.56,0,0,0,1.29-.59,4.58,4.58,0,0,0,.37-4.67,1.85,1.85,0,0,0-2.15-1.18c-.79.13-1.77.58-2-.61s.89-1.46,1.83-1.67a6.31,6.31,0,0,0,.75-.27l2,.56c2.79,3.19,3,5.59,1,9.47-.7,1.33-.35,1.89,1.21,1.94,4.13.13,5.94,1.49,7.11,5.34ZM343.44,83a25.58,25.58,0,0,0-8-5.11A23.57,23.57,0,0,0,330,76.33a4,4,0,0,0-4.83,3.57c-.4,2.44.54,3.71,3.47,4.33C333.67,85.28,338.54,84.17,343.44,83Zm2,3.06a45.84,45.84,0,0,0-7.9,9.9,13.92,13.92,0,0,0-1.21,2.8c-.9,3,.46,5,3.6,5.19a3.84,3.84,0,0,0,3.74-2,15,15,0,0,0,1.9-6.62A32.5,32.5,0,0,0,345.46,86.07Zm-20.58,1.8c-2.26,2-2.41,2.76-1.12,5.08l2.58,4.65c1,1.82,1.92,2.25,3.95,2,.83-.09.92-.42.57-1C328.89,95,326.89,91.45,324.89,87.87Zm3.94-1.06C330.64,90.06,332.28,93,334,96a.85.85,0,0,0,.77.29c.72-.36,1.58-3.07,1.2-3.77-.87-1.62-1.76-3.23-2.68-4.81a1.49,1.49,0,0,0-.89-.72C331.31,86.82,330.24,86.85,328.82,86.81ZM348,88.38c2.72-2.64,3.52-5.38,2.34-7.19-1-1.55-3.73-2.09-6.79-1C347.31,81.67,348.13,84.61,348,88.38Zm-6.75-1.22c-.2-.32-.41-.9-.56-.89-1.05.1-2.1.32-3.14.51.35.78.67,1.58,1.09,2.32a.83.83,0,0,0,.78.14C340,88.62,340.56,87.93,341.23,87.16Z" transform="translate(-198.61 -22.23)"/>
    </g>
  </g>
  <path class="cls-5" d="M271.51,251.5a21.38,21.38,0,0,0-40.89-11.76A13,13,0,0,0,209.55,250a13.15,13.15,0,0,0,.09,1.5Z" transform="translate(-198.61 -22.23)"/>
  <path class="cls-5" d="M454.67,279.69a21.38,21.38,0,0,1,40.89-11.76,13,13,0,0,1,21.06,10.25,13.15,13.15,0,0,1-.09,1.5Z" transform="translate(-198.61 -22.23)"/>
  <path class="cls-5" d="M461.84,134.06a13,13,0,0,0-12-18.21h-.38a23,23,0,0,0-45.36.14,13,13,0,0,0-10,18.06Z" transform="translate(-198.61 -22.23)"/>
  <path class="cls-6" d="M485,80.31a5.46,5.46,0,0,0-5-7.63h-.16a9.66,9.66,0,0,0-19,.06,5.46,5.46,0,0,0-4.18,7.56Z" transform="translate(-198.61 -22.23)"/>
  <path class="cls-6" d="M424.42,286.41a5.46,5.46,0,0,0-5-7.63h-.16a9.66,9.66,0,0,0-19,.06,5.46,5.46,0,0,0-4.18,7.56Z" transform="translate(-198.61 -22.23)"/>
  <path class="cls-6" d="M548,47.73a5.46,5.46,0,0,0-5-7.63h-.16a9.66,9.66,0,0,0-19,.06,5.46,5.46,0,0,0-4.18,7.56Z" transform="translate(-198.61 -22.23)"/>
  <g>
    <path class="cls-7" d="M199.86,181.26c0-11.81,9.57-35.58,21.38-35.58s21.38,23.77,21.38,35.58a21.38,21.38,0,0,1-42.76,0Z" transform="translate(-198.61 -22.23)"/>
    <ellipse class="cls-7" cx="10.11" cy="192.27" rx="4.84" ry="3.67"/>
    <path class="cls-8" d="M220.91,231.2V176.08m.65,15.1s6.09,1.43,6.09-5.85M208.55,215c0,14.37,11.25,12,11.25,12" transform="translate(-198.61 -22.23)"/>
  </g>
  <g>
    <path class="cls-9" d="M410.25,187.91c0-6.85,5.55-20.65,12.41-20.65s12.41,13.79,12.41,20.65a12.41,12.41,0,0,1-24.81,0Z" transform="translate(-198.61 -22.23)"/>
    <ellipse class="cls-9" cx="216.77" cy="184.97" rx="2.81" ry="2.13"/>
    <path class="cls-10" d="M422.46,216.9v-32m.37,8.76s3.54.83,3.54-3.4m-11.08,17.22c0,8.34,6.53,7,6.53,7" transform="translate(-198.61 -22.23)"/>
  </g>
  <g>
    <path class="cls-9" d="M306.77,259.35c0-6.85-5.55-20.65-12.41-20.65S282,252.5,282,259.35a12.41,12.41,0,0,0,24.81,0Z" transform="translate(-198.61 -22.23)"/>
    <ellipse class="cls-9" cx="103.02" cy="256.41" rx="2.81" ry="2.13"/>
    <path class="cls-10" d="M294.56,256.35v32m-3.91-26.62c0,4.23,3.54,3.4,3.54,3.4m1,20.8s6.53,1.36,6.53-7" transform="translate(-198.61 -22.23)"/>
  </g>
  <g>
    <path class="cls-7" d="M381.11,186.77a12,12,0,0,0-9-11.64,12,12,0,0,0-7.48-14A12,12,0,0,0,341,163.76a12,12,0,0,0-7.58,17.4,12,12,0,0,0,2.64,21.78,12,12,0,0,0,20.12,12.36A12,12,0,1,0,373,198.13,12,12,0,0,0,381.11,186.77Z" transform="translate(-198.61 -22.23)"/>
    <path class="cls-8" d="M355.72,288.33V176.59m-.42,23.71-6.51-6.51m6.77,59.13,12.28-12.28m-12.26-34,6.51-6.51" transform="translate(-198.61 -22.23)"/>
  </g>
  <g>
    <path class="cls-11" d="M561.88,244.34a6.32,6.32,0,0,0-4.72-6.11,6.31,6.31,0,0,0-3.93-7.34,6.31,6.31,0,0,0-12.39,1.37,6.32,6.32,0,0,0-4,9.13,6.32,6.32,0,0,0,1.39,11.43,6.31,6.31,0,0,0,10.56,6.49,6.31,6.31,0,1,0,8.82-9A6.32,6.32,0,0,0,561.88,244.34Z" transform="translate(-198.61 -22.23)"/>
    <path class="cls-12" d="M548.55,297.66V239m-.22,12.45L544.91,248m3.55,31,6.45-6.45m-6.43-17.86,3.42-3.42" transform="translate(-198.61 -22.23)"/>
  </g>
  <g>
    <path class="cls-11" d="M227.59,51.13A6.32,6.32,0,0,0,222.87,45a6.31,6.31,0,0,0-3.93-7.34A6.31,6.31,0,0,0,206.55,39a6.32,6.32,0,0,0-4,9.13A6.32,6.32,0,0,0,204,59.61a6.31,6.31,0,0,0,10.56,6.49,6.31,6.31,0,1,0,8.82-9A6.32,6.32,0,0,0,227.59,51.13Z" transform="translate(-198.61 -22.23)"/>
    <path class="cls-12" d="M214.26,104.45V45.79M214,58.23l-3.42-3.42m3.55,31,6.45-6.45m-6.43-17.86,3.42-3.42" transform="translate(-198.61 -22.23)"/>
  </g>
  <g>
    <path class="cls-7" d="M475.37,205.36c-.9-9.19.55-13.25,2.67-22.72,4.34-19.38,7-26.42,1.34-36.08-15.15-25.66,8.34-28.2,13.36-28.06,12,.33,23.72,12.36,16.7,25.72-8.83,16.83,2.05,29.26,5,41.09,3.34,13.36,1.82,16.85,1,21.38-2,10.9-9,18.71-20,18.71S476.45,216.37,475.37,205.36Zm6.18-53.54H458.5" transform="translate(-198.61 -22.23)"/>
    <path class="cls-8" d="M495.25,272.17V167.27M486.19,185s-.13,6.14,8.27,6.14M495.71,180c8.39,0,8.27-6.14,8.27-6.14m-8.27,31.82c13.53,0,11.4-9.27,11.4-9.27" transform="translate(-198.61 -22.23)"/>
    <path class="cls-13" d="M463.51,159.59h-8.27m8.27,0h3a2.26,2.26,0,0,0,2.26-2.26h0a2.26,2.26,0,0,0-2.26-2.26H451.73a2.26,2.26,0,0,0-2.26,2.26h0a2.26,2.26,0,0,0,2.26,2.26h3.51m13.53,16.62h0a2.26,2.26,0,0,0-2.26-2.26H451.73a2.26,2.26,0,0,0-2.26,2.26h0a2.26,2.26,0,0,0,2.26,2.26h14.78A2.26,2.26,0,0,0,468.77,176.21Zm1-14.37h0a2.26,2.26,0,0,0-2.26-2.26H450.77a2.26,2.26,0,0,0-2.26,2.26h0a2.26,2.26,0,0,0,2.26,2.26h16.71A2.26,2.26,0,0,0,469.74,161.84Zm0,9.35h0a2.26,2.26,0,0,0-2.26-2.26H450.77a2.26,2.26,0,0,0-2.26,2.26h0a2.26,2.26,0,0,0,2.26,2.26h16.71A2.26,2.26,0,0,0,469.74,171.2Zm1.06-4.84h0a2.26,2.26,0,0,0-2.26-2.26H449.71a2.26,2.26,0,0,0-2.26,2.26h0a2.26,2.26,0,0,0,2.26,2.26h18.83A2.26,2.26,0,0,0,470.8,166.35Z" transform="translate(-198.61 -22.23)"/>
  </g>
  <g>
    <path class="cls-14" d="M277.7,79c-.58-5.92.35-8.54,1.72-14.63,2.8-12.48,4.53-17,.86-23.24C270.52,24.59,285.65,23,288.89,23c7.75.22,15.28,8,10.76,16.57C294,50.45,301,58.46,302.88,66.08c2.15,8.61,1.17,10.85.65,13.77-1.26,7-5.78,12.05-12.91,12.05S278.39,86.09,277.7,79Zm4-34.49H266.83" transform="translate(-198.61 -22.23)"/>
    <path class="cls-15" d="M290.5,122V54.46M284.66,65.9s-.08,4,5.33,4m.81-7.18c5.41,0,5.33-4,5.33-4m-5.33,20.5c8.72,0,7.34-6,7.34-6" transform="translate(-198.61 -22.23)"/>
    <path class="cls-16" d="M270.06,49.51h-5.33m5.33,0H272a1.46,1.46,0,0,0,1.45-1.45h0A1.46,1.46,0,0,0,272,46.61h-9.52A1.46,1.46,0,0,0,261,48.06h0a1.46,1.46,0,0,0,1.45,1.45h2.26m8.72,10.71h0A1.46,1.46,0,0,0,272,58.77h-9.52A1.46,1.46,0,0,0,261,60.22h0a1.46,1.46,0,0,0,1.45,1.45H272A1.46,1.46,0,0,0,273.45,60.22Zm.62-9.25h0a1.46,1.46,0,0,0-1.45-1.45H261.85A1.46,1.46,0,0,0,260.4,51h0a1.46,1.46,0,0,0,1.45,1.45h10.77A1.46,1.46,0,0,0,274.07,51Zm0,6h0a1.46,1.46,0,0,0-1.45-1.45H261.85A1.46,1.46,0,0,0,260.4,57h0a1.46,1.46,0,0,0,1.45,1.45h10.77A1.46,1.46,0,0,0,274.07,57Zm.68-3.12h0a1.46,1.46,0,0,0-1.45-1.45H261.17a1.46,1.46,0,0,0-1.45,1.45h0a1.46,1.46,0,0,0,1.45,1.45H273.3A1.46,1.46,0,0,0,274.75,53.87Z" transform="translate(-198.61 -22.23)"/>
  </g>
  <g id="Bee-2" data-name="Bee">
    <g>
      <path class="cls-1" d="M397.13,367.61q-1.49-.22-3-.38" transform="translate(-198.61 -22.23)"/>
      <path class="cls-2" d="M388.36,366.87c-19.63-.45-37.38,7-34.71,14.52a3.55,3.55,0,0,0,1.35,1.83" transform="translate(-198.61 -22.23)"/>
      <path class="cls-2" d="M357.78,383.79c12-1.26,38.92-37.47-36.21-37.47-14.27,0-21.19-8-24.3-13.6" transform="translate(-198.61 -22.23)"/>
      <path class="cls-1" d="M296,330.11a19.83,19.83,0,0,1-1-2.83" transform="translate(-198.61 -22.23)"/>
    </g>
    <g>
      <path class="cls-1" d="M493,467.59s-1.1.07-3,0" transform="translate(-198.61 -22.23)"/>
      <path class="cls-3" d="M484.73,467.27c-9.13-1-24-4.33-35.08-15.83" transform="translate(-198.61 -22.23)"/>
      <path class="cls-3" d="M447.89,449.51C440.57,441,435.33,428.4,435.33,410a55.45,55.45,0,0,0-.47-7.36" transform="translate(-198.61 -22.23)"/>
      <path class="cls-1" d="M434.44,400q-.29-1.51-.66-2.93" transform="translate(-198.61 -22.23)"/>
    </g>
    <g id="_5DqBM2.tif-2" data-name="5DqBM2.tif">
      <path class="cls-4" d="M400.85,373.39c1.17-3.85,3-5.21,7.11-5.34,1.57,0,1.92-.61,1.21-1.94-2-3.88-1.8-6.28,1-9.47l2-.56a6.31,6.31,0,0,0,.75.27c.94.21,2.08.33,1.83,1.67s-1.22.74-2,.61a1.85,1.85,0,0,0-2.15,1.18,4.58,4.58,0,0,0,.37,4.67,1.56,1.56,0,0,0,1.29.59c2.64-.76,5.28-.36,7.93-.22a8.18,8.18,0,0,0,2.88-.63c2.77-.93,5.47-2.14,8.29-2.82a5.52,5.52,0,0,1,6.16,2.28c1.49,2.25,2.22,4.77.71,7.32-.58,1-.22,1.43.34,2.09a17.58,17.58,0,0,1,4.08,10.49,2.94,2.94,0,0,1-1.74,3.11,18.49,18.49,0,0,1-11.23,2.38c-.8-.09-1.49-.3-2,.8-1.24,2.79-3.73,3.69-6.56,3.63-2.59-.06-4.2-1.66-5.35-3.87a20,20,0,0,1-1.87-7.91,5.57,5.57,0,0,0-1.36-3.71,13.59,13.59,0,0,1-3.75-6.71,1.48,1.48,0,0,0-.87-.92,4.64,4.64,0,0,0-4,1.51c-.93,1.24-.31,2.1.58,3,.27.28.1,1,.14,1.46-.56,0-1.21.27-1.64.05A8.1,8.1,0,0,1,401.3,375Zm32.31-1.85c2.93-.61,3.87-1.88,3.47-4.33a4,4,0,0,0-4.83-3.57,23.57,23.57,0,0,0-5.47,1.57,25.58,25.58,0,0,0-8,5.11C423.28,371.49,428.14,372.59,433.16,371.54Zm-16.93,11.1a15,15,0,0,0,1.9,6.62,3.84,3.84,0,0,0,3.74,2c3.14-.23,4.5-2.16,3.6-5.19a13.92,13.92,0,0,0-1.21-2.8,45.84,45.84,0,0,0-7.9-9.9A32.5,32.5,0,0,0,416.23,382.64Zm14.72,3.25c-.35.62-.26,1,.57,1,2,.22,2.93-.2,3.95-2l2.58-4.65c1.29-2.32,1.14-3.05-1.12-5.08C434.93,378.77,432.93,382.33,430.95,385.89Zm-1.49-11.63a1.49,1.49,0,0,0-.89.72c-.93,1.58-1.82,3.19-2.68,4.81-.38.7.48,3.42,1.2,3.77a.85.85,0,0,0,.77-.29c1.68-2.94,3.32-5.9,5.14-9.15C431.57,374.16,430.51,374.14,429.46,374.26Zm-11.15-6.8c-3.07-1-5.78-.51-6.79,1-1.18,1.81-.38,4.55,2.34,7.19C413.68,371.93,414.5,369,418.3,367.46Zm4.12,9.09a.83.83,0,0,0,.78-.14c.41-.74.73-1.54,1.09-2.32-1-.18-2.09-.41-3.14-.51-.15,0-.37.57-.56.89C421.26,375.25,421.81,375.94,422.43,376.55Z" transform="translate(-198.61 -22.23)"/>
    </g>
  </g>
  <path class="cls-5" d="M490.31,538.81a21.38,21.38,0,0,1,40.89-11.76,13,13,0,0,1,21.06,10.25,13.15,13.15,0,0,1-.09,1.5Z" transform="translate(-198.61 -22.23)"/>
  <path class="cls-5" d="M307.14,567a21.38,21.38,0,0,0-40.89-11.76,13,13,0,0,0-21.06,10.25,13.15,13.15,0,0,0,.09,1.5Z" transform="translate(-198.61 -22.23)"/>
  <path class="cls-5" d="M300,421.37a13,13,0,0,1,12-18.21h.38a23,23,0,0,1,45.36.14,13,13,0,0,1,10,18.06Z" transform="translate(-198.61 -22.23)"/>
  <path class="cls-6" d="M276.84,367.62a5.46,5.46,0,0,1,5-7.63H282a9.66,9.66,0,0,1,19,.06,5.46,5.46,0,0,1,4.18,7.56Z" transform="translate(-198.61 -22.23)"/>
  <path class="cls-6" d="M337.39,573.72a5.46,5.46,0,0,1,5-7.63h.16a9.66,9.66,0,0,1,19,.06,5.46,5.46,0,0,1,4.18,7.56Z" transform="translate(-198.61 -22.23)"/>
  <path class="cls-6" d="M213.82,335a5.46,5.46,0,0,1,5-7.63H219a9.66,9.66,0,0,1,19,.06,5.46,5.46,0,0,1,4.18,7.56Z" transform="translate(-198.61 -22.23)"/>
  <g>
    <path class="cls-7" d="M562,468.57c0-11.81-9.57-35.58-21.38-35.58s-21.38,23.77-21.38,35.58a21.38,21.38,0,0,0,42.76,0Z" transform="translate(-198.61 -22.23)"/>
    <ellipse class="cls-7" cx="354.49" cy="479.58" rx="4.84" ry="3.67"/>
    <path class="cls-8" d="M540.91,463.39v55.12m-6.74-45.88c0,7.29,6.09,5.85,6.09,5.85M542,514.34s11.25,2.34,11.25-12" transform="translate(-198.61 -22.23)"/>
  </g>
  <g>
    <path class="cls-9" d="M351.57,475.23c0-6.85-5.55-20.65-12.41-20.65s-12.41,13.79-12.41,20.65a12.41,12.41,0,0,0,24.81,0Z" transform="translate(-198.61 -22.23)"/>
    <ellipse class="cls-9" cx="147.82" cy="472.29" rx="2.81" ry="2.13"/>
    <path class="cls-10" d="M339.36,472.22v32m-3.91-26.62c0,4.23,3.54,3.4,3.54,3.4m1,20.8s6.53,1.36,6.53-7" transform="translate(-198.61 -22.23)"/>
  </g>
  <g>
    <path class="cls-9" d="M455,546.66c0-6.85,5.55-20.65,12.41-20.65s12.41,13.79,12.41,20.65a12.41,12.41,0,1,1-24.81,0Z" transform="translate(-198.61 -22.23)"/>
    <ellipse class="cls-9" cx="261.57" cy="543.72" rx="2.81" ry="2.13"/>
    <path class="cls-10" d="M467.26,575.65v-32m.37,8.76s3.54.83,3.54-3.4m-11.08,17.22c0,8.34,6.53,7,6.53,7" transform="translate(-198.61 -22.23)"/>
  </g>
  <g>
    <path class="cls-7" d="M380.71,474.08a12,12,0,0,1,9-11.64,12,12,0,0,1,7.48-14,12,12,0,0,1,23.59,2.61,12,12,0,0,1,7.58,17.4,12,12,0,0,1-2.64,21.78,12,12,0,0,1-20.12,12.36,12,12,0,1,1-16.81-17.16A12,12,0,0,1,380.71,474.08Z" transform="translate(-198.61 -22.23)"/>
    <path class="cls-8" d="M406.1,463.91V575.65M413,481.1l-6.51,6.51M394,528l12.28,12.28m-6.54-52.81,6.51,6.51" transform="translate(-198.61 -22.23)"/>
  </g>
  <g>
    <path class="cls-11" d="M199.94,531.66a6.32,6.32,0,0,1,4.72-6.11,6.31,6.31,0,0,1,3.93-7.34A6.31,6.31,0,0,1,221,519.58a6.32,6.32,0,0,1,4,9.13,6.32,6.32,0,0,1-1.39,11.43A6.31,6.31,0,0,1,213,546.63a6.31,6.31,0,1,1-8.82-9A6.32,6.32,0,0,1,199.94,531.66Z" transform="translate(-198.61 -22.23)"/>
    <path class="cls-12" d="M213.27,526.31V585m3.64-49.64-3.42,3.42m-6.58,21.18,6.45,6.45m-3.43-27.72,3.42,3.42" transform="translate(-198.61 -22.23)"/>
  </g>
  <g>
    <path class="cls-11" d="M534.22,338.44a6.32,6.32,0,0,1,4.72-6.11,6.31,6.31,0,0,1,3.93-7.34,6.31,6.31,0,0,1,12.39,1.37,6.32,6.32,0,0,1,4,9.13,6.32,6.32,0,0,1-1.39,11.43,6.31,6.31,0,0,1-10.56,6.49,6.31,6.31,0,1,1-8.82-9A6.32,6.32,0,0,1,534.22,338.44Z" transform="translate(-198.61 -22.23)"/>
    <path class="cls-12" d="M547.55,333.1v58.66m3.64-49.64-3.42,3.42m-6.58,21.18,6.45,6.45m-3.43-27.72,3.42,3.42" transform="translate(-198.61 -22.23)"/>
  </g>
  <g>
    <path class="cls-7" d="M266.4,512.71c-11.07,0-18.09-7.81-20-18.71-.81-4.53-2.34-8,1-21.38,3-11.83,13.85-24.27,5-41.09-7-13.36,4.68-25.39,16.7-25.72,5-.14,28.51,2.4,13.36,28.06-5.7,9.66-3,16.7,1.34,36.08,2.12,9.47,3.58,13.53,2.67,22.72C285.37,503.69,277.47,512.71,266.4,512.71Zm36.92-73.58H280.27" transform="translate(-198.61 -22.23)"/>
    <path class="cls-8" d="M266.57,454.58v104.9m.79-81c8.39,0,8.27-6.14,8.27-6.14m-17.79-11.15s-.13,6.14,8.27,6.14m-11.4,16.41s-2.13,9.27,11.4,9.27" transform="translate(-198.61 -22.23)"/>
    <path class="cls-13" d="M306.58,446.9h-8.27m8.27,0h3.51a2.26,2.26,0,0,0,2.26-2.26h0a2.26,2.26,0,0,0-2.26-2.26H295.3a2.26,2.26,0,0,0-2.26,2.26h0a2.26,2.26,0,0,0,2.26,2.26h3m14,16.62h0a2.26,2.26,0,0,0-2.26-2.26H295.3a2.26,2.26,0,0,0-2.26,2.26h0a2.26,2.26,0,0,0,2.26,2.26h14.78A2.26,2.26,0,0,0,312.34,463.52Zm1-14.37h0A2.26,2.26,0,0,0,311,446.9H294.34a2.26,2.26,0,0,0-2.26,2.26h0a2.26,2.26,0,0,0,2.26,2.26H311A2.26,2.26,0,0,0,313.3,449.16Zm0,9.35h0a2.26,2.26,0,0,0-2.26-2.26H294.34a2.26,2.26,0,0,0-2.26,2.26h0a2.26,2.26,0,0,0,2.26,2.26H311A2.26,2.26,0,0,0,313.3,458.51Zm1.06-4.84h0a2.26,2.26,0,0,0-2.26-2.26H293.27a2.26,2.26,0,0,0-2.26,2.26h0a2.26,2.26,0,0,0,2.26,2.26h18.83A2.26,2.26,0,0,0,314.36,453.67Z" transform="translate(-198.61 -22.23)"/>
  </g>
  <g>
    <path class="cls-14" d="M471.21,379.22c-7.13,0-11.65-5-12.91-12.05-.52-2.92-1.51-5.17.65-13.77,1.91-7.62,8.92-15.63,3.23-26.47-4.52-8.61,3-16.36,10.76-16.57,3.24-.09,18.37,1.55,8.61,18.08-3.67,6.22-1.94,10.76.86,23.24,1.37,6.1,2.3,8.71,1.72,14.63C483.42,373.41,478.34,379.22,471.21,379.22ZM495,331.82H480.14" transform="translate(-198.61 -22.23)"/>
    <path class="cls-15" d="M471.32,341.78v67.58m.51-52.19c5.41,0,5.33-4,5.33-4M465.69,346s-.08,4,5.33,4m-7.34,10.57s-1.37,6,7.34,6" transform="translate(-198.61 -22.23)"/>
    <path class="cls-16" d="M497.09,336.83h-5.33m5.33,0h2.26a1.46,1.46,0,0,0,1.45-1.45h0a1.46,1.46,0,0,0-1.45-1.45h-9.52a1.46,1.46,0,0,0-1.45,1.45h0a1.46,1.46,0,0,0,1.45,1.45h1.94m9,10.71h0a1.46,1.46,0,0,0-1.45-1.45h-9.52a1.46,1.46,0,0,0-1.45,1.45h0a1.46,1.46,0,0,0,1.45,1.45h9.52A1.46,1.46,0,0,0,500.8,347.53Zm.62-9.25h0a1.46,1.46,0,0,0-1.45-1.45H489.2a1.46,1.46,0,0,0-1.45,1.45h0a1.46,1.46,0,0,0,1.45,1.45H500A1.46,1.46,0,0,0,501.42,338.28Zm0,6h0a1.46,1.46,0,0,0-1.45-1.45H489.2a1.46,1.46,0,0,0-1.45,1.45h0a1.46,1.46,0,0,0,1.45,1.45H500A1.46,1.46,0,0,0,501.42,344.31Zm.68-3.12h0a1.46,1.46,0,0,0-1.45-1.45H488.52a1.46,1.46,0,0,0-1.45,1.45h0a1.46,1.46,0,0,0,1.45,1.45h12.13A1.46,1.46,0,0,0,502.1,341.19Z" transform="translate(-198.61 -22.23)"/>
  </g>
</svg>
