<?xml version="1.0" encoding="utf-8"?>
<!-- Generator: Adobe Illustrator 21.1.0, SVG Export Plug-In . SVG Version: 6.00 Build 0)  --> 

<?xml-stylesheet type="text/css" href="../../../css/game_animation.css"?>

<svg version="1.1" xmlns="http://www.w3.org/2000/svg" xmlns:xlink="http://www.w3.org/1999/xlink" x="0px" y="0px"
	 viewBox="0 0 1242 2208" style="enable-background:new 0 0 1242 2208;" xml:space="preserve">
<style type="text/css">
	.st0{fill:#FFF1A5;}
	.st1{opacity:0.46;}
	.st2{fill:none;stroke:#FFDB58;stroke-width:3;stroke-miterlimit:10;}
	.st3{fill:#75462D;}
	.st4{fill:#FFFFFF;}
	.st5{fill:#FFDB58;stroke:#FF9C32;stroke-width:4;stroke-miterlimit:10;}
	.st6{fill:#F9F9F9;stroke:#FF9C32;stroke-width:4;stroke-miterlimit:10;}
	.st7{fill:#FFF1A5;stroke:#FF9C32;stroke-width:4;stroke-miterlimit:10;}
	.st8{fill:#FFAE64;stroke:#FF9C32;stroke-width:4;stroke-miterlimit:10;}
	.st9{fill:#FF9C32;}
</style>
<g id="Closet">
	<rect id="background" x="-2" class="st0" width="1244" height="2208"/>
	<g id="pattern" class="st1">
		<g>
			<g>
				<path class="st2" d="M1195.9,191.9c0-5.2,4.3-9.5,9.5-9.5c5.3,0,9.5,4.2,9.5,9.5l0.4,504c0,0,0,0,0,0c0,5.2-4.3,9.5-9.5,9.5
					c-5.3,0-9.5-4.2-9.5-9.5L1195.9,191.9C1195.9,191.9,1195.9,191.9,1195.9,191.9z"/>
			</g>
			<g>
				<path class="st2" d="M1196.1,119.4V40.5c0-5.3,4.3-9.5,9.5-9.5s9.5,4.3,9.5,9.5v78.9c0,5.3-4.3,9.5-9.5,9.5
					S1196.1,124.6,1196.1,119.4z"/>
			</g>
			<g>
				<path class="st2" d="M1196.1,1144.2V795c0-5.3,4.3-9.5,9.5-9.5s9.5,4.3,9.5,9.5v349.1c0,5.3-4.3,9.5-9.5,9.5
					S1196.1,1149.4,1196.1,1144.2z"/>
			</g>
			<g>
				<path class="st2" d="M1196.1,1816.4v-61.5c0-5.3,4.3-9.5,9.5-9.5s9.5,4.3,9.5,9.5v61.5c0,5.3-4.3,9.5-9.5,9.5
					S1196.1,1821.6,1196.1,1816.4z"/>
			</g>
			<g>
				<path class="st2" d="M1195.9,1339.1C1195.9,1339,1195.9,1339,1195.9,1339.1l0.4-92.3c0-5.3,4.3-9.5,9.5-9.5
					c5.2,0,9.5,4.3,9.5,9.5c0,0,0,0,0,0l-0.4,92.2c0,5.3-4.3,9.5-9.5,9.5C1200.1,1348.5,1195.9,1344.3,1195.9,1339.1z"/>
			</g>
			<g>
				<path class="st2" d="M1196.1,1697.5v-297c0-5.3,4.3-9.5,9.5-9.5s9.5,4.3,9.5,9.5v297c0,5.3-4.3,9.5-9.5,9.5
					S1196.1,1702.7,1196.1,1697.5z"/>
			</g>
			<g>
				<path class="st2" d="M1196.1,2114.5v-234.3c0-5.3,4.3-9.5,9.5-9.5s9.5,4.3,9.5,9.5v234.3c0,5.3-4.3,9.5-9.5,9.5
					S1196.1,2119.7,1196.1,2114.5z"/>
			</g>
		</g>
		<g>
			<g>
				<path class="st2" d="M962.6,2114.5v-349.1c0-5.3,4.3-9.5,9.5-9.5c5.3,0,9.5,4.3,9.5,9.5v349.1c0,5.3-4.3,9.5-9.5,9.5
					C966.9,2124,962.6,2119.7,962.6,2114.5z"/>
			</g>
			<g>
				<path class="st2" d="M962.6,1696.9v-83.5c0-5.3,4.3-9.5,9.5-9.5c5.3,0,9.5,4.3,9.5,9.5v83.5c0,5.3-4.3,9.5-9.5,9.5
					C966.9,1706.4,962.6,1702.2,962.6,1696.9z"/>
			</g>
			<g>
				<path class="st2" d="M962.6,390.8v-83.5c0-5.3,4.3-9.5,9.5-9.5c5.3,0,9.5,4.3,9.5,9.5v83.5c0,5.3-4.3,9.5-9.5,9.5
					C966.9,400.3,962.6,396,962.6,390.8z"/>
			</g>
			<g>
				<path class="st2" d="M962.6,214.5v-174c0-5.3,4.3-9.5,9.5-9.5c5.3,0,9.5,4.3,9.5,9.5v174c0,5.3-4.3,9.5-9.5,9.5
					C966.9,224,962.6,219.7,962.6,214.5z"/>
			</g>
			<g>
				<path class="st2" d="M962.6,789.8V466.2c0-5.3,4.3-9.5,9.5-9.5c5.3,0,9.5,4.3,9.5,9.5v323.6c0,5.3-4.3,9.5-9.5,9.5
					C966.9,799.3,962.6,795.1,962.6,789.8z"/>
			</g>
			<g>
				<path class="st2" d="M962.6,956.3V844.9c0-5.3,4.3-9.5,9.5-9.5c5.3,0,9.5,4.3,9.5,9.5v111.4c0,5.3-4.3,9.5-9.5,9.5
					C966.9,965.8,962.6,961.5,962.6,956.3z"/>
			</g>
			<g>
				<path class="st2" d="M962.6,1426.1V1005c0-5.3,4.3-9.5,9.5-9.5c5.3,0,9.5,4.3,9.5,9.5v421.1c0,5.3-4.3,9.5-9.5,9.5
					C966.9,1435.6,962.6,1431.3,962.6,1426.1z"/>
			</g>
			<g>
				<path class="st2" d="M962.6,1564.7v-85.8c0-5.3,4.3-9.5,9.5-9.5c5.3,0,9.5,4.3,9.5,9.5v85.8c0,5.3-4.3,9.5-9.5,9.5
					C966.9,1574.2,962.6,1569.9,962.6,1564.7z"/>
			</g>
		</g>
		<g>
			<g>
				<path class="st2" d="M807.1,2114.5v-349.1c0-5.3,4.3-9.5,9.5-9.5c5.3,0,9.5,4.3,9.5,9.5v349.1c0,5.3-4.3,9.5-9.5,9.5
					C811.3,2124,807.1,2119.7,807.1,2114.5z"/>
			</g>
			<g>
				<path class="st2" d="M807.1,1696.9v-83.5c0-5.3,4.3-9.5,9.5-9.5c5.3,0,9.5,4.3,9.5,9.5v83.5c0,5.3-4.3,9.5-9.5,9.5
					C811.3,1706.4,807.1,1702.2,807.1,1696.9z"/>
			</g>
			<g>
				<path class="st2" d="M807.1,390.8v-83.5c0-5.3,4.3-9.5,9.5-9.5c5.3,0,9.5,4.3,9.5,9.5v83.5c0,5.3-4.3,9.5-9.5,9.5
					C811.3,400.3,807.1,396,807.1,390.8z"/>
			</g>
			<g>
				<path class="st2" d="M807.1,214.5v-174c0-5.3,4.3-9.5,9.5-9.5c5.3,0,9.5,4.3,9.5,9.5v174c0,5.3-4.3,9.5-9.5,9.5
					C811.3,224,807.1,219.7,807.1,214.5z"/>
			</g>
			<g>
				<path class="st2" d="M807.1,789.8V466.2c0-5.3,4.3-9.5,9.5-9.5c5.3,0,9.5,4.3,9.5,9.5v323.6c0,5.3-4.3,9.5-9.5,9.5
					C811.3,799.3,807.1,795.1,807.1,789.8z"/>
			</g>
			<g>
				<path class="st2" d="M807.1,956.3V844.9c0-5.3,4.3-9.5,9.5-9.5c5.3,0,9.5,4.3,9.5,9.5v111.4c0,5.3-4.3,9.5-9.5,9.5
					C811.3,965.8,807.1,961.5,807.1,956.3z"/>
			</g>
			<g>
				<path class="st2" d="M807.1,1426.1V1005c0-5.3,4.3-9.5,9.5-9.5c5.3,0,9.5,4.3,9.5,9.5v421.1c0,5.3-4.3,9.5-9.5,9.5
					C811.3,1435.6,807.1,1431.3,807.1,1426.1z"/>
			</g>
			<g>
				<path class="st2" d="M807.1,1564.7v-85.8c0-5.3,4.3-9.5,9.5-9.5c5.3,0,9.5,4.3,9.5,9.5v85.8c0,5.3-4.3,9.5-9.5,9.5
					C811.3,1574.2,807.1,1569.9,807.1,1564.7z"/>
			</g>
		</g>
		<g>
			<g>
				<path class="st2" d="M1118.1,2114.5v-349.1c0-5.3,4.3-9.5,9.5-9.5s9.5,4.3,9.5,9.5v349.1c0,5.3-4.3,9.5-9.5,9.5
					S1118.1,2119.7,1118.1,2114.5z"/>
			</g>
			<g>
				<path class="st2" d="M1118.1,1696.9v-83.5c0-5.3,4.3-9.5,9.5-9.5s9.5,4.3,9.5,9.5v83.5c0,5.3-4.3,9.5-9.5,9.5
					S1118.1,1702.2,1118.1,1696.9z"/>
			</g>
			<g>
				<path class="st2" d="M1118.1,390.8v-83.5c0-5.3,4.3-9.5,9.5-9.5s9.5,4.3,9.5,9.5v83.5c0,5.3-4.3,9.5-9.5,9.5
					S1118.1,396,1118.1,390.8z"/>
			</g>
			<g>
				<path class="st2" d="M1118.1,214.5v-174c0-5.3,4.3-9.5,9.5-9.5s9.5,4.3,9.5,9.5v174c0,5.3-4.3,9.5-9.5,9.5
					S1118.1,219.7,1118.1,214.5z"/>
			</g>
			<g>
				<path class="st2" d="M1118.1,789.8V466.2c0-5.3,4.3-9.5,9.5-9.5s9.5,4.3,9.5,9.5v323.6c0,5.3-4.3,9.5-9.5,9.5
					S1118.1,795.1,1118.1,789.8z"/>
			</g>
			<g>
				<path class="st2" d="M1118.1,956.3V844.9c0-5.3,4.3-9.5,9.5-9.5s9.5,4.3,9.5,9.5v111.4c0,5.3-4.3,9.5-9.5,9.5
					S1118.1,961.5,1118.1,956.3z"/>
			</g>
			<g>
				<path class="st2" d="M1118.1,1426.1V1005c0-5.3,4.3-9.5,9.5-9.5s9.5,4.3,9.5,9.5v421.1c0,5.3-4.3,9.5-9.5,9.5
					S1118.1,1431.3,1118.1,1426.1z"/>
			</g>
			<g>
				<path class="st2" d="M1118.1,1564.7v-85.8c0-5.3,4.3-9.5,9.5-9.5s9.5,4.3,9.5,9.5v85.8c0,5.3-4.3,9.5-9.5,9.5
					S1118.1,1569.9,1118.1,1564.7z"/>
			</g>
		</g>
		<g>
			<g>
				<path class="st2" d="M1040.4,389.6V40.5c0-5.3,4.3-9.5,9.5-9.5s9.5,4.3,9.5,9.5v349.1c0,5.3-4.3,9.5-9.5,9.5
					S1040.4,394.9,1040.4,389.6z"/>
			</g>
			<g>
				<path class="st2" d="M1040.4,541.6v-83.5c0-5.3,4.3-9.5,9.5-9.5s9.5,4.3,9.5,9.5v83.5c0,5.3-4.3,9.5-9.5,9.5
					S1040.4,546.8,1040.4,541.6z"/>
			</g>
			<g>
				<path class="st2" d="M1040.4,1847.7v-83.5c0-5.3,4.3-9.5,9.5-9.5s9.5,4.3,9.5,9.5v83.5c0,5.3-4.3,9.5-9.5,9.5
					S1040.4,1853,1040.4,1847.7z"/>
			</g>
			<g>
				<path class="st2" d="M1040.4,2114.5v-174c0-5.3,4.3-9.5,9.5-9.5s9.5,4.3,9.5,9.5v174c0,5.3-4.3,9.5-9.5,9.5
					S1040.4,2119.7,1040.4,2114.5z"/>
			</g>
			<g>
				<path class="st2" d="M1040.4,1688.8v-323.6c0-5.3,4.3-9.5,9.5-9.5s9.5,4.3,9.5,9.5v323.6c0,5.3-4.3,9.5-9.5,9.5
					S1040.4,1694,1040.4,1688.8z"/>
			</g>
			<g>
				<path class="st2" d="M1040.4,1310.1v-111.4c0-5.3,4.3-9.5,9.5-9.5s9.5,4.3,9.5,9.5v111.4c0,5.3-4.3,9.5-9.5,9.5
					S1040.4,1315.3,1040.4,1310.1z"/>
			</g>
			<g>
				<path class="st2" d="M1040.4,1150V728.9c0-5.3,4.3-9.5,9.5-9.5s9.5,4.3,9.5,9.5V1150c0,5.3-4.3,9.5-9.5,9.5
					S1040.4,1155.2,1040.4,1150z"/>
			</g>
			<g>
				<path class="st2" d="M1040.4,676.1v-85.8c0-5.3,4.3-9.5,9.5-9.5s9.5,4.3,9.5,9.5v85.8c0,5.3-4.3,9.5-9.5,9.5
					S1040.4,681.4,1040.4,676.1z"/>
			</g>
		</g>
		<g>
			<g>
				<path class="st2" d="M884.8,2114.5v-349.1c0-5.3,4.3-9.5,9.5-9.5c5.3,0,9.5,4.3,9.5,9.5v349.1c0,5.3-4.3,9.5-9.5,9.5
					C889.1,2124,884.8,2119.7,884.8,2114.5z"/>
			</g>
			<g>
				<path class="st2" d="M884.8,1696.9v-83.5c0-5.3,4.3-9.5,9.5-9.5c5.3,0,9.5,4.3,9.5,9.5v83.5c0,5.3-4.3,9.5-9.5,9.5
					C889.1,1706.4,884.8,1702.2,884.8,1696.9z"/>
			</g>
			<g>
				<path class="st2" d="M884.8,390.8v-83.5c0-5.3,4.3-9.5,9.5-9.5c5.3,0,9.5,4.3,9.5,9.5v83.5c0,5.3-4.3,9.5-9.5,9.5
					C889.1,400.3,884.8,396,884.8,390.8z"/>
			</g>
			<g>
				<path class="st2" d="M884.8,214.5v-174c0-5.3,4.3-9.5,9.5-9.5c5.3,0,9.5,4.3,9.5,9.5v174c0,5.3-4.3,9.5-9.5,9.5
					C889.1,224,884.8,219.7,884.8,214.5z"/>
			</g>
			<g>
				<path class="st2" d="M884.8,789.8V466.2c0-5.3,4.3-9.5,9.5-9.5c5.3,0,9.5,4.3,9.5,9.5v323.6c0,5.3-4.3,9.5-9.5,9.5
					C889.1,799.3,884.8,795.1,884.8,789.8z"/>
			</g>
			<g>
				<path class="st2" d="M884.8,956.3V844.9c0-5.3,4.3-9.5,9.5-9.5c5.3,0,9.5,4.3,9.5,9.5v111.4c0,5.3-4.3,9.5-9.5,9.5
					C889.1,965.8,884.8,961.5,884.8,956.3z"/>
			</g>
			<g>
				<path class="st2" d="M884.8,1426.1V1005c0-5.3,4.3-9.5,9.5-9.5c5.3,0,9.5,4.3,9.5,9.5v421.1c0,5.3-4.3,9.5-9.5,9.5
					C889.1,1435.6,884.8,1431.3,884.8,1426.1z"/>
			</g>
			<g>
				<path class="st2" d="M884.8,1564.7v-85.8c0-5.3,4.3-9.5,9.5-9.5c5.3,0,9.5,4.3,9.5,9.5v85.8c0,5.3-4.3,9.5-9.5,9.5
					C889.1,1574.2,884.8,1569.9,884.8,1564.7z"/>
			</g>
		</g>
		<g>
			<g>
				<path class="st2" d="M651.2,2114.5v-883.9c0-5.3,4.3-9.5,9.5-9.5c5.3,0,9.5,4.3,9.5,9.5v883.9c0,5.3-4.3,9.5-9.5,9.5
					C655.4,2124,651.2,2119.7,651.2,2114.5z"/>
			</g>
			<g>
				<path class="st2" d="M651.2,1151.1v-62.6c0-5.3,4.3-9.5,9.5-9.5c5.3,0,9.5,4.3,9.5,9.5v62.6c0,5.3-4.3,9.5-9.5,9.5
					C655.4,1160.6,651.2,1156.4,651.2,1151.1z"/>
			</g>
			<g>
				<path class="st2" d="M651.2,600.7v-62.6c0-5.3,4.3-9.5,9.5-9.5c5.3,0,9.5,4.3,9.5,9.5v62.6c0,5.3-4.3,9.5-9.5,9.5
					C655.4,610.2,651.2,606,651.2,600.7z"/>
			</g>
			<g>
				<path class="st2" d="M651.2,1007.3V670.9c0-5.3,4.3-9.5,9.5-9.5c5.3,0,9.5,4.3,9.5,9.5v336.4c0,5.3-4.3,9.5-9.5,9.5
					C655.4,1016.8,651.2,1012.6,651.2,1007.3z"/>
			</g>
			<g>
				<path class="st2" d="M651.2,487.1V252.7c0-5.3,4.3-9.5,9.5-9.5c5.3,0,9.5,4.3,9.5,9.5v234.3c0,5.3-4.3,9.5-9.5,9.5
					C655.4,496.6,651.2,492.3,651.2,487.1z"/>
			</g>
			<g>
				<path class="st2" d="M651.2,150.7V39.3c0-5.3,4.3-9.5,9.5-9.5c5.3,0,9.5,4.3,9.5,9.5v111.4c0,5.3-4.3,9.5-9.5,9.5
					C655.4,160.2,651.2,155.9,651.2,150.7z"/>
			</g>
		</g>
		<g>
			<g>
				<path class="st2" d="M573.4,923.2V39.3c0-5.3,4.3-9.5,9.5-9.5c5.3,0,9.5,4.3,9.5,9.5v883.9c0,5.3-4.3,9.5-9.5,9.5
					C577.7,932.7,573.4,928.5,573.4,923.2z"/>
			</g>
			<g>
				<path class="st2" d="M573.4,1065.3v-62.6c0-5.3,4.3-9.5,9.5-9.5c5.3,0,9.5,4.3,9.5,9.5v62.6c0,5.3-4.3,9.5-9.5,9.5
					C577.7,1074.8,573.4,1070.6,573.4,1065.3z"/>
			</g>
			<g>
				<path class="st2" d="M573.4,1615.7v-62.6c0-5.3,4.3-9.5,9.5-9.5c5.3,0,9.5,4.3,9.5,9.5v62.6c0,5.3-4.3,9.5-9.5,9.5
					C577.7,1625.2,573.4,1621,573.4,1615.7z"/>
			</g>
			<g>
				<path class="st2" d="M573.4,1482.9v-336.4c0-5.3,4.3-9.5,9.5-9.5c5.3,0,9.5,4.3,9.5,9.5v336.4c0,5.3-4.3,9.5-9.5,9.5
					C577.7,1492.4,573.4,1488.1,573.4,1482.9z"/>
			</g>
			<g>
				<path class="st2" d="M573.4,1901.1v-234.3c0-5.3,4.3-9.5,9.5-9.5c5.3,0,9.5,4.3,9.5,9.5v234.3c0,5.3-4.3,9.5-9.5,9.5
					C577.7,1910.6,573.4,1906.3,573.4,1901.1z"/>
			</g>
			<g>
				<path class="st2" d="M573.4,2114.5v-111.4c0-5.3,4.3-9.5,9.5-9.5c5.3,0,9.5,4.3,9.5,9.5v111.4c0,5.3-4.3,9.5-9.5,9.5
					C577.7,2124,573.4,2119.7,573.4,2114.5z"/>
			</g>
		</g>
		<g>
			<g>
				<path class="st2" d="M728.9,1963.1L728.9,1963.1l0.4-504c0-5.3,4.3-9.5,9.5-9.5c5.2,0,9.5,4.3,9.5,9.5c0,0,0,0,0,0l-0.4,504
					c0,5.3-4.3,9.5-9.5,9.5C733.2,1972.6,728.9,1968.4,728.9,1963.1z"/>
			</g>
			<g>
				<path class="st2" d="M729.1,2114.5v-78.9c0-5.3,4.3-9.5,9.5-9.5s9.5,4.3,9.5,9.5v78.9c0,5.3-4.3,9.5-9.5,9.5
					S729.1,2119.7,729.1,2114.5z"/>
			</g>
			<g>
				<path class="st2" d="M729.1,1359.9v-349.1c0-5.3,4.3-9.5,9.5-9.5s9.5,4.3,9.5,9.5v349.1c0,5.3-4.3,9.5-9.5,9.5
					S729.1,1365.2,729.1,1359.9z"/>
			</g>
			<g>
				<path class="st2" d="M729.1,400.1v-61.5c0-5.3,4.3-9.5,9.5-9.5s9.5,4.3,9.5,9.5v61.5c0,5.3-4.3,9.5-9.5,9.5
					S729.1,405.3,729.1,400.1z"/>
			</g>
			<g>
				<path class="st2" d="M728.9,815.9c0-5.2,4.2-9.5,9.5-9.5c5.3,0,9.5,4.2,9.5,9.5l0.4,92.2c0,0,0,0,0,0c0,5.2-4.2,9.5-9.5,9.5
					c-5.3,0-9.5-4.2-9.5-9.5L728.9,815.9C728.9,815.9,728.9,815.9,728.9,815.9z"/>
			</g>
			<g>
				<path class="st2" d="M729.1,754.4v-297c0-5.3,4.3-9.5,9.5-9.5s9.5,4.3,9.5,9.5v297c0,5.3-4.3,9.5-9.5,9.5
					S729.1,759.7,729.1,754.4z"/>
			</g>
			<g>
				<path class="st2" d="M729.1,274.8V40.5c0-5.3,4.3-9.5,9.5-9.5s9.5,4.3,9.5,9.5v234.3c0,5.3-4.3,9.5-9.5,9.5
					S729.1,280,729.1,274.8z"/>
			</g>
		</g>
		<g>
			<g>
				<path class="st2" d="M417.5,191.9c0-5.2,4.3-9.5,9.5-9.5c5.3,0,9.5,4.2,9.5,9.5l0.4,504c0,0,0,0,0,0c0,5.2-4.3,9.5-9.5,9.5
					c-5.3,0-9.5-4.2-9.5-9.5L417.5,191.9C417.5,191.9,417.5,191.9,417.5,191.9z"/>
			</g>
			<g>
				<path class="st2" d="M417.7,119.4V40.5c0-5.3,4.3-9.5,9.5-9.5c5.3,0,9.5,4.3,9.5,9.5v78.9c0,5.3-4.3,9.5-9.5,9.5
					C422,128.9,417.7,124.6,417.7,119.4z"/>
			</g>
			<g>
				<path class="st2" d="M417.7,1144.2V795c0-5.3,4.3-9.5,9.5-9.5c5.3,0,9.5,4.3,9.5,9.5v349.1c0,5.3-4.3,9.5-9.5,9.5
					C422,1153.7,417.7,1149.4,417.7,1144.2z"/>
			</g>
			<g>
				<path class="st2" d="M417.7,1816.4v-61.5c0-5.3,4.3-9.5,9.5-9.5c5.3,0,9.5,4.3,9.5,9.5v61.5c0,5.3-4.3,9.5-9.5,9.5
					C422,1825.9,417.7,1821.6,417.7,1816.4z"/>
			</g>
			<g>
				<path class="st2" d="M417.5,1339.1C417.5,1339,417.5,1339,417.5,1339.1l0.4-92.3c0-5.3,4.3-9.5,9.5-9.5c5.2,0,9.5,4.3,9.5,9.5
					c0,0,0,0,0,0l-0.4,92.2c0,5.3-4.3,9.5-9.5,9.5C421.7,1348.5,417.5,1344.3,417.5,1339.1z"/>
			</g>
			<g>
				<path class="st2" d="M417.7,1697.5v-297c0-5.3,4.3-9.5,9.5-9.5c5.3,0,9.5,4.3,9.5,9.5v297c0,5.3-4.3,9.5-9.5,9.5
					C422,1707,417.7,1702.7,417.7,1697.5z"/>
			</g>
			<g>
				<path class="st2" d="M417.7,2114.5v-234.3c0-5.3,4.3-9.5,9.5-9.5c5.3,0,9.5,4.3,9.5,9.5v234.3c0,5.3-4.3,9.5-9.5,9.5
					C422,2124,417.7,2119.7,417.7,2114.5z"/>
			</g>
		</g>
		<g>
			<g>
				<path class="st2" d="M495.7,389.6V40.5c0-5.3,4.3-9.5,9.5-9.5c5.3,0,9.5,4.3,9.5,9.5v349.1c0,5.3-4.3,9.5-9.5,9.5
					C499.9,399.1,495.7,394.9,495.7,389.6z"/>
			</g>
			<g>
				<path class="st2" d="M495.7,541.6v-83.5c0-5.3,4.3-9.5,9.5-9.5c5.3,0,9.5,4.3,9.5,9.5v83.5c0,5.3-4.3,9.5-9.5,9.5
					C499.9,551.1,495.7,546.8,495.7,541.6z"/>
			</g>
			<g>
				<path class="st2" d="M495.7,1847.7v-83.5c0-5.3,4.3-9.5,9.5-9.5c5.3,0,9.5,4.3,9.5,9.5v83.5c0,5.3-4.3,9.5-9.5,9.5
					C499.9,1857.2,495.7,1853,495.7,1847.7z"/>
			</g>
			<g>
				<path class="st2" d="M495.7,2114.5v-174c0-5.3,4.3-9.5,9.5-9.5c5.3,0,9.5,4.3,9.5,9.5v174c0,5.3-4.3,9.5-9.5,9.5
					C499.9,2124,495.7,2119.7,495.7,2114.5z"/>
			</g>
			<g>
				<path class="st2" d="M495.7,1688.8v-323.6c0-5.3,4.3-9.5,9.5-9.5c5.3,0,9.5,4.3,9.5,9.5v323.6c0,5.3-4.3,9.5-9.5,9.5
					C499.9,1698.3,495.7,1694,495.7,1688.8z"/>
			</g>
			<g>
				<path class="st2" d="M495.7,1310.1v-111.4c0-5.3,4.3-9.5,9.5-9.5c5.3,0,9.5,4.3,9.5,9.5v111.4c0,5.3-4.3,9.5-9.5,9.5
					C499.9,1319.6,495.7,1315.3,495.7,1310.1z"/>
			</g>
			<g>
				<path class="st2" d="M495.7,1150V728.9c0-5.3,4.3-9.5,9.5-9.5c5.3,0,9.5,4.3,9.5,9.5V1150c0,5.3-4.3,9.5-9.5,9.5
					C499.9,1159.5,495.7,1155.2,495.7,1150z"/>
			</g>
			<g>
				<path class="st2" d="M495.7,676.1v-85.8c0-5.3,4.3-9.5,9.5-9.5c5.3,0,9.5,4.3,9.5,9.5v85.8c0,5.3-4.3,9.5-9.5,9.5
					C499.9,685.6,495.7,681.4,495.7,676.1z"/>
			</g>
		</g>
		<g>
			<g>
				<path class="st2" d="M184.2,389.6V40.5c0-5.3,4.3-9.5,9.5-9.5s9.5,4.3,9.5,9.5v349.1c0,5.3-4.3,9.5-9.5,9.5
					S184.2,394.9,184.2,389.6z"/>
			</g>
			<g>
				<path class="st2" d="M184.2,541.6v-83.5c0-5.3,4.3-9.5,9.5-9.5s9.5,4.3,9.5,9.5v83.5c0,5.3-4.3,9.5-9.5,9.5
					S184.2,546.8,184.2,541.6z"/>
			</g>
			<g>
				<path class="st2" d="M184.2,1847.7v-83.5c0-5.3,4.3-9.5,9.5-9.5s9.5,4.3,9.5,9.5v83.5c0,5.3-4.3,9.5-9.5,9.5
					S184.2,1853,184.2,1847.7z"/>
			</g>
			<g>
				<path class="st2" d="M184.2,2114.5v-174c0-5.3,4.3-9.5,9.5-9.5s9.5,4.3,9.5,9.5v174c0,5.3-4.3,9.5-9.5,9.5
					S184.2,2119.7,184.2,2114.5z"/>
			</g>
			<g>
				<path class="st2" d="M184.2,1688.8v-323.6c0-5.3,4.3-9.5,9.5-9.5s9.5,4.3,9.5,9.5v323.6c0,5.3-4.3,9.5-9.5,9.5
					S184.2,1694,184.2,1688.8z"/>
			</g>
			<g>
				<path class="st2" d="M184.2,1310.1v-111.4c0-5.3,4.3-9.5,9.5-9.5s9.5,4.3,9.5,9.5v111.4c0,5.3-4.3,9.5-9.5,9.5
					S184.2,1315.3,184.2,1310.1z"/>
			</g>
			<g>
				<path class="st2" d="M184.2,1150V728.9c0-5.3,4.3-9.5,9.5-9.5s9.5,4.3,9.5,9.5V1150c0,5.3-4.3,9.5-9.5,9.5
					S184.2,1155.2,184.2,1150z"/>
			</g>
			<g>
				<path class="st2" d="M184.2,676.1v-85.8c0-5.3,4.3-9.5,9.5-9.5s9.5,4.3,9.5,9.5v85.8c0,5.3-4.3,9.5-9.5,9.5
					S184.2,681.4,184.2,676.1z"/>
			</g>
		</g>
		<g>
			<g>
				<path class="st2" d="M28.7,389.6V40.5c0-5.3,4.3-9.5,9.5-9.5s9.5,4.3,9.5,9.5v349.1c0,5.3-4.3,9.5-9.5,9.5
					S28.7,394.9,28.7,389.6z"/>
			</g>
			<g>
				<path class="st2" d="M28.7,541.6v-83.5c0-5.3,4.3-9.5,9.5-9.5s9.5,4.3,9.5,9.5v83.5c0,5.3-4.3,9.5-9.5,9.5
					S28.7,546.8,28.7,541.6z"/>
			</g>
			<g>
				<path class="st2" d="M28.7,1847.7v-83.5c0-5.3,4.3-9.5,9.5-9.5s9.5,4.3,9.5,9.5v83.5c0,5.3-4.3,9.5-9.5,9.5
					S28.7,1853,28.7,1847.7z"/>
			</g>
			<g>
				<path class="st2" d="M28.7,2114.5v-174c0-5.3,4.3-9.5,9.5-9.5s9.5,4.3,9.5,9.5v174c0,5.3-4.3,9.5-9.5,9.5
					S28.7,2119.7,28.7,2114.5z"/>
			</g>
			<g>
				<path class="st2" d="M28.7,1688.8v-323.6c0-5.3,4.3-9.5,9.5-9.5s9.5,4.3,9.5,9.5v323.6c0,5.3-4.3,9.5-9.5,9.5
					S28.7,1694,28.7,1688.8z"/>
			</g>
			<g>
				<path class="st2" d="M28.7,1310.1v-111.4c0-5.3,4.3-9.5,9.5-9.5s9.5,4.3,9.5,9.5v111.4c0,5.3-4.3,9.5-9.5,9.5
					S28.7,1315.3,28.7,1310.1z"/>
			</g>
			<g>
				<path class="st2" d="M28.7,1150V728.9c0-5.3,4.3-9.5,9.5-9.5s9.5,4.3,9.5,9.5V1150c0,5.3-4.3,9.5-9.5,9.5S28.7,1155.2,28.7,1150
					z"/>
			</g>
			<g>
				<path class="st2" d="M28.7,676.1v-85.8c0-5.3,4.3-9.5,9.5-9.5s9.5,4.3,9.5,9.5v85.8c0,5.3-4.3,9.5-9.5,9.5
					S28.7,681.4,28.7,676.1z"/>
			</g>
		</g>
		<g>
			<g>
				<path class="st2" d="M339.7,389.6V40.5c0-5.3,4.3-9.5,9.5-9.5c5.3,0,9.5,4.3,9.5,9.5v349.1c0,5.3-4.3,9.5-9.5,9.5
					C344,399.1,339.7,394.9,339.7,389.6z"/>
			</g>
			<g>
				<path class="st2" d="M339.7,541.6v-83.5c0-5.3,4.3-9.5,9.5-9.5c5.3,0,9.5,4.3,9.5,9.5v83.5c0,5.3-4.3,9.5-9.5,9.5
					C344,551.1,339.7,546.8,339.7,541.6z"/>
			</g>
			<g>
				<path class="st2" d="M339.7,1847.7v-83.5c0-5.3,4.3-9.5,9.5-9.5c5.3,0,9.5,4.3,9.5,9.5v83.5c0,5.3-4.3,9.5-9.5,9.5
					C344,1857.2,339.7,1853,339.7,1847.7z"/>
			</g>
			<g>
				<path class="st2" d="M339.7,2114.5v-174c0-5.3,4.3-9.5,9.5-9.5c5.3,0,9.5,4.3,9.5,9.5v174c0,5.3-4.3,9.5-9.5,9.5
					C344,2124,339.7,2119.7,339.7,2114.5z"/>
			</g>
			<g>
				<path class="st2" d="M339.7,1688.8v-323.6c0-5.3,4.3-9.5,9.5-9.5c5.3,0,9.5,4.3,9.5,9.5v323.6c0,5.3-4.3,9.5-9.5,9.5
					C344,1698.3,339.7,1694,339.7,1688.8z"/>
			</g>
			<g>
				<path class="st2" d="M339.7,1310.1v-111.4c0-5.3,4.3-9.5,9.5-9.5c5.3,0,9.5,4.3,9.5,9.5v111.4c0,5.3-4.3,9.5-9.5,9.5
					C344,1319.6,339.7,1315.3,339.7,1310.1z"/>
			</g>
			<g>
				<path class="st2" d="M339.7,1150V728.9c0-5.3,4.3-9.5,9.5-9.5c5.3,0,9.5,4.3,9.5,9.5V1150c0,5.3-4.3,9.5-9.5,9.5
					C344,1159.5,339.7,1155.2,339.7,1150z"/>
			</g>
			<g>
				<path class="st2" d="M339.7,676.1v-85.8c0-5.3,4.3-9.5,9.5-9.5c5.3,0,9.5,4.3,9.5,9.5v85.8c0,5.3-4.3,9.5-9.5,9.5
					C344,685.6,339.7,681.4,339.7,676.1z"/>
			</g>
		</g>
		<g>
			<g>
				<path class="st2" d="M262,2114.5v-349.1c0-5.3,4.3-9.5,9.5-9.5c5.3,0,9.5,4.3,9.5,9.5v349.1c0,5.3-4.3,9.5-9.5,9.5
					C266.2,2124,262,2119.7,262,2114.5z"/>
			</g>
			<g>
				<path class="st2" d="M262,1696.9v-83.5c0-5.3,4.3-9.5,9.5-9.5c5.3,0,9.5,4.3,9.5,9.5v83.5c0,5.3-4.3,9.5-9.5,9.5
					C266.2,1706.4,262,1702.2,262,1696.9z"/>
			</g>
			<g>
				<path class="st2" d="M262,390.8v-83.5c0-5.3,4.3-9.5,9.5-9.5c5.3,0,9.5,4.3,9.5,9.5v83.5c0,5.3-4.3,9.5-9.5,9.5
					C266.2,400.3,262,396,262,390.8z"/>
			</g>
			<g>
				<path class="st2" d="M262,214.5v-174c0-5.3,4.3-9.5,9.5-9.5c5.3,0,9.5,4.3,9.5,9.5v174c0,5.3-4.3,9.5-9.5,9.5
					C266.2,224,262,219.7,262,214.5z"/>
			</g>
			<g>
				<path class="st2" d="M262,789.8V466.2c0-5.3,4.3-9.5,9.5-9.5c5.3,0,9.5,4.3,9.5,9.5v323.6c0,5.3-4.3,9.5-9.5,9.5
					C266.2,799.3,262,795.1,262,789.8z"/>
			</g>
			<g>
				<path class="st2" d="M262,956.3V844.9c0-5.3,4.3-9.5,9.5-9.5c5.3,0,9.5,4.3,9.5,9.5v111.4c0,5.3-4.3,9.5-9.5,9.5
					C266.2,965.8,262,961.5,262,956.3z"/>
			</g>
			<g>
				<path class="st2" d="M262,1426.1V1005c0-5.3,4.3-9.5,9.5-9.5c5.3,0,9.5,4.3,9.5,9.5v421.1c0,5.3-4.3,9.5-9.5,9.5
					C266.2,1435.6,262,1431.3,262,1426.1z"/>
			</g>
			<g>
				<path class="st2" d="M262,1564.7v-85.8c0-5.3,4.3-9.5,9.5-9.5c5.3,0,9.5,4.3,9.5,9.5v85.8c0,5.3-4.3,9.5-9.5,9.5
					C266.2,1574.2,262,1569.9,262,1564.7z"/>
			</g>
		</g>
		<g>
			<g>
				<path class="st2" d="M106.5,2114.5v-349.1c0-5.3,4.3-9.5,9.5-9.5s9.5,4.3,9.5,9.5v349.1c0,5.3-4.3,9.5-9.5,9.5
					S106.5,2119.7,106.5,2114.5z"/>
			</g>
			<g>
				<path class="st2" d="M106.5,1696.9v-83.5c0-5.3,4.3-9.5,9.5-9.5s9.5,4.3,9.5,9.5v83.5c0,5.3-4.3,9.5-9.5,9.5
					S106.5,1702.2,106.5,1696.9z"/>
			</g>
			<g>
				<path class="st2" d="M106.5,390.8v-83.5c0-5.3,4.3-9.5,9.5-9.5s9.5,4.3,9.5,9.5v83.5c0,5.3-4.3,9.5-9.5,9.5
					S106.5,396,106.5,390.8z"/>
			</g>
			<g>
				<path class="st2" d="M106.5,214.5v-174c0-5.3,4.3-9.5,9.5-9.5s9.5,4.3,9.5,9.5v174c0,5.3-4.3,9.5-9.5,9.5
					S106.5,219.7,106.5,214.5z"/>
			</g>
			<g>
				<path class="st2" d="M106.5,789.8V466.2c0-5.3,4.3-9.5,9.5-9.5s9.5,4.3,9.5,9.5v323.6c0,5.3-4.3,9.5-9.5,9.5
					S106.5,795.1,106.5,789.8z"/>
			</g>
			<g>
				<path class="st2" d="M106.5,956.3V844.9c0-5.3,4.3-9.5,9.5-9.5s9.5,4.3,9.5,9.5v111.4c0,5.3-4.3,9.5-9.5,9.5
					S106.5,961.5,106.5,956.3z"/>
			</g>
			<g>
				<path class="st2" d="M106.5,1426.1V1005c0-5.3,4.3-9.5,9.5-9.5s9.5,4.3,9.5,9.5v421.1c0,5.3-4.3,9.5-9.5,9.5
					S106.5,1431.3,106.5,1426.1z"/>
			</g>
			<g>
				<path class="st2" d="M106.5,1564.7v-85.8c0-5.3,4.3-9.5,9.5-9.5s9.5,4.3,9.5,9.5v85.8c0,5.3-4.3,9.5-9.5,9.5
					S106.5,1569.9,106.5,1564.7z"/>
			</g>
		</g>
	</g>
	<g id="closet">
		<path id="closetBase" class="st3" d="M1202,2034H96c-6.6,0-12-5.4-12-12V243c0-6.6,5.4-12,12-12h1106c6.6,0,12,5.4,12,12v1779
			C1214,2028.6,1208.6,2034,1202,2034z"/>
		
			<rect id="closetBG" x="-202.5" y="617.5" transform="matrix(-1.836970e-16 1 -1 -1.836970e-16 1781.5 483.5)" class="st4" width="1703" height="1030"/>
		<polygon id="shelves" class="st3" points="1190,564.5 1190,526 873.5,526 873.5,280.5 839.5,280.5 839.5,526 133.5,526 
			133.5,564.5 839.5,564.5 839.5,1401 120.5,1401 120.5,1435 839.5,1435 839.5,1720 839.5,1758.5 839.5,1984.5 873.5,1984.5 
			873.5,1758.5 1190,1758.5 1190,1720 873.5,1720 873.5,1284.5 1190,1284.5 1190,1250 873.5,1250 873.5,564.5 		"/>
	</g>
	<g id="hat">
		<path class="st5" d="M336.3,367.4c4.6-1.4,7.4-3.2,7.3-5c-0.1-1.8-3.1-3.2-7.9-4c4.2-2.3,6.6-4.6,6.1-6.4
			c-0.5-1.7-3.7-2.5-8.5-2.3c3.6-3.1,5.5-5.9,4.6-7.5c-0.8-1.6-4.2-1.7-8.8-0.5c2.9-3.8,4.1-6.9,3-8.3c-1.1-1.4-4.4-0.8-8.7,1.4
			c2-4.3,2.6-7.6,1.2-8.7c-1.4-1.1-4.5,0.2-8.3,3.1c1.1-4.7,0.9-8-0.6-8.8c-1.6-0.8-4.3,1.1-7.4,4.8c0.1-4.8-0.7-8-2.5-8.5
			c-1.7-0.4-4,2-6.3,6.2c-0.9-4.7-2.4-7.7-4.2-7.8c-1.8-0.1-3.5,2.8-4.8,7.4c-1.9-4.4-3.9-7-5.7-6.7c-1.8,0.3-2.9,3.5-3.2,8.2
			c-2.7-3.9-5.3-6-7-5.4c-1.7,0.7-2.1,4-1.4,8.7c-3.5-3.3-6.4-4.8-7.9-3.8c-1.5,1-1.2,4.3,0.4,8.8c-4.1-2.5-7.3-3.4-8.6-2.1
			c-1.3,1.3-0.3,4.5,2.3,8.5c-4.5-1.6-7.8-1.8-8.8-0.3c-1,1.5,0.7,4.4,4,7.9c-4.8-0.6-8-0.1-8.7,1.6c-0.6,1.7,1.6,4.2,5.5,6.9
			c-4.8,0.4-7.9,1.6-8.2,3.3c-0.3,1.8,2.4,3.8,6.9,5.6c-4.6,1.4-7.4,3.2-7.3,5c0.2,3.4,10.9,5.5,23.9,4.7c13-0.8,23.3-4.2,23.1-7.5
			c0-0.1,0-0.3-0.1-0.4c0-0.1,0.1-0.2,0.1-0.3c0-0.1,0-0.3,0-0.4c0.1-0.1,0.1-0.2,0.1-0.3c0-0.1,0.1-0.3,0.1-0.4
			c0.1-0.1,0.1-0.2,0.2-0.3c0.1-0.1,0.1-0.2,0.2-0.4c0.1-0.1,0.2-0.1,0.2-0.2c0.1-0.1,0.2-0.2,0.2-0.3c0.1,0,0.2-0.1,0.3-0.1
			c0.1-0.1,0.2-0.2,0.3-0.3c0.1,0,0.2,0,0.3-0.1c0.1,0,0.2-0.1,0.4-0.2c0.1,0,0.2,0,0.3,0c0.1,0,0.3-0.1,0.4-0.1c0.1,0,0.2,0,0.3,0
			c0.1,0,0.3,0,0.4,0c0.1,0,0.2,0.1,0.3,0.1c0.1,0,0.3,0,0.4,0c0.1,0.1,0.2,0.1,0.3,0.2c0.1,0.1,0.3,0.1,0.4,0.1
			c0.1,0.1,0.1,0.2,0.2,0.2c0.1,0.1,0.2,0.1,0.4,0.2c0.1,0.1,0.1,0.2,0.2,0.3c0.1,0.1,0.2,0.2,0.3,0.3c0,0.1,0.1,0.2,0.1,0.3
			c0.1,0.1,0.1,0.2,0.2,0.3c0,0.1,0,0.2,0.1,0.3c0,0.1,0.1,0.3,0.2,0.4c0,0.1,0,0.2,0,0.3c0,0.1,0,0.3,0.1,0.4
			c0,0.1-0.1,0.2-0.1,0.3c-0.5,3.3,9.5,7.6,22.4,9.5c12.8,1.9,23.7,0.8,24.2-2.6C343.4,371.2,340.8,369.2,336.3,367.4z"/>
		<path class="st6" d="M380.2,448c0-51-38.9-92.3-86.9-92.3s-86.9,41.3-86.9,92.3c0,3.9,0.2,7.8,0.7,11.6h172.4
			C379.9,455.8,380.2,452,380.2,448z"/>
		<path class="st6" d="M380.7,459.6h-1.2H207h-1.2c-3.5,0-6.3,2.8-6.3,6.3v34.2c0,3.5,2.8,6.3,6.3,6.3H226h134.5h20.2
			c3.5,0,6.3-2.8,6.3-6.3v-34.2C387,462.5,384.2,459.6,380.7,459.6z"/>
	</g>
	<g id="bag">
		<path class="st6" d="M682,506.5H544c-6.6,0-12-5.4-12-12v-92c0-6.6,5.4-12,12-12h138c6.6,0,12,5.4,12,12v92
			C694,501.1,688.6,506.5,682,506.5z"/>
		<path class="st6" d="M682,429.5H544c-6.6,0-12-5.4-12-12v-54.1c0-6.6,5.4-12,12-12h138c6.6,0,12,5.4,12,12v54.1
			C694,424.1,688.6,429.5,682,429.5z"/>
		<path class="st6" d="M613.1,466.3h-0.1c-6.6,0-12-5.4-12-12v-23.1c0-6.6,5.4-12,12-12h0.1c6.6,0,12,5.4,12,12v23.1
			C625.1,460.9,619.7,466.3,613.1,466.3z"/>
		<circle class="st6" cx="613" cy="442.4" r="6"/>
		<path class="st6" d="M613,294.5c-31.4,0-56.9,25.5-56.9,56.9h13.6c0-23.9,19.4-43.3,43.3-43.3s43.3,19.4,43.3,43.3h13.6
			C669.9,320,644.4,294.5,613,294.5z"/>
	</g>
	<g id="foldedClothes">
		<path class="st5" d="M464,1388H171c-6.6,0-12-5.4-12-12v-34.5c0-6.6,5.4-12,12-12h293c6.6,0,12,5.4,12,12v34.5
			C476,1382.6,470.6,1388,464,1388z"/>
		<path id="middle" class="st7" d="M379.8,1329.5H181.7c-6.6,0-12-5.4-12-12V1266c0-6.6,5.4-12,12-12h198.1c6.6,0,12,5.4,12,12v51.5
			C391.8,1324.1,386.4,1329.5,379.8,1329.5z"/>
		<path class="st5" d="M379.8,1253.5H181.7c-6.6,0-12-5.4-12-12V1201c0-6.6,5.4-12,12-12h198.1c6.6,0,12,5.4,12,12v40.5
			C391.8,1248.1,386.4,1253.5,379.8,1253.5z"/>
	</g>
	<g id="booksTop">
		<path class="st8" d="M1113.5,518H935c-6.6,0-12-5.4-12-12v-11.5c0-6.6,5.4-12,12-12h178.5c6.6,0,12,5.4,12,12V506
			C1125.5,512.6,1120.1,518,1113.5,518z"/>
		<path class="st5" d="M1059.7,482.5H941.9c-6.6,0-12-5.4-12-12v-21.8c0-6.6,5.4-12,12-12h117.9c6.6,0,12,5.4,12,12v21.8
			C1071.7,477.1,1066.3,482.5,1059.7,482.5z"/>
		<path id="top" class="st8" d="M1080.3,436.8H979.6c-6.6,0-12-5.4-12-12V403c0-6.6,5.4-12,12-12h100.7c6.6,0,12,5.4,12,12v21.8
			C1092.3,431.4,1086.9,436.8,1080.3,436.8z"/>
	</g>
	<g id="box">
		<path class="st7" d="M1111.5,1976.5H929c-6.6,0-12-5.4-12-12v-103c0-6.6,5.4-12,12-12h182.6c6.6,0,12,5.4,12,12v103
			C1123.5,1971.1,1118.1,1976.5,1111.5,1976.5z"/>
		<path id="boxLid" class="st7" d="M1127,1857.5H913.5c-6.6,0-12-5.4-12-12v-24c0-6.6,5.4-12,12-12H1127c6.6,0,12,5.4,12,12v24
			C1139,1852.1,1133.6,1857.5,1127,1857.5z"/>
		<rect x="989.7" y="1892.5" class="st6" width="61" height="42"/>
	</g>
	<g id="umbrella" class="float">
		
			<ellipse transform="matrix(0.3964 -0.9181 0.9181 0.3964 -1116.3805 1593.7476)" class="st6" cx="653.8" cy="1645.9" rx="3.8" ry="3.8"/>
		
			<ellipse transform="matrix(0.3964 -0.9181 0.9181 0.3964 -1085.0101 1796.9257)" class="st6" cx="824" cy="1723.6" rx="3.8" ry="3.8"/>
		<g>
			<path class="st6" d="M772.5,1475.5c-29.5-12.7-63.9,0.3-79.5,29.2c-1.5,2.8-0.3,6.4,2.6,7.6l3.5,1.5c2.6,1.1,5.6,0.1,7-2.4
				c12-21.7,38-31.4,60.3-21.8c23.8,10.3,34.4,38.8,23.7,63.5l0,0l-70.7,163.7c-1.2,2.8,0.1,6,2.9,7.2l3.5,1.5
				c2.8,1.2,6-0.1,7.2-2.9l70.7-163.7C817.7,1526.4,803.8,1489,772.5,1475.5z"/>
			
				<ellipse transform="matrix(0.3964 -0.9181 0.9181 0.3964 -1082.2329 1694.6028)" class="st6" cx="747.6" cy="1670.3" rx="3.8" ry="3.8"/>
			<path class="st6" d="M780.9,1723.5c-20.3-8.8-32.9-28-34.1-48.7c0-0.5-0.3-0.9-0.7-1l0,0c-0.4-0.2-0.9-0.1-1.2,0.2
				c-15.9,13.3-38.5,17.3-58.8,8.6c-14.7-6.3-25.3-18.1-30.5-32c-0.4-1.2-2.2-1-2.3,0.3l-41.4,326.9c-0.2,1.2,1.4,1.8,2.1,0.9
				l206.8-251c0.8-0.9-0.1-2.3-1.3-1.9C807.1,1729.4,793.6,1728.9,780.9,1723.5z"/>
			<path class="st8" d="M613.9,1978.7l206.8-251c0.8-0.9-0.1-2.3-1.3-1.9c-12.3,3.6-25.8,3.2-38.5-2.3c-20.3-8.8-32.9-28-34.1-48.7
				c0-0.5-0.3-0.9-0.7-1l0,0c-0.4-0.2-0.9-0.1-1.2,0.2L613.9,1978.7z"/>
		</g>
	</g>
<g id="shirts">
	<g id="shirtHanger">
		<path class="st9" d="M402.8,584.3c0,7.4,0,14.9,0.1,22.5c0,0.7,1.1,1.5,1.9,1.9c14.6,7.5,29.2,15,43.8,22.5
			c20.8,10.6,41.6,21.1,62.2,32c8.8,4.7,15.3,11.7,16.4,22.2c1.2,11.2-7.6,22-19.3,21.9c-69.7-0.2-139.5-0.3-209.2,0.1
			c-14.3,0.1-23.7-14.2-19.2-27.3c2.5-7.3,7.7-12.4,14-16.4c12.2-7.7,24.4-15.3,36.7-22.9c12.2-7.6,24.4-15.3,36.7-22.9
			c1.3-0.8,2.9-1.4,4.4-1.4c2.2,0,3.9,1.4,4.6,3.6c0.7,2.2,0.1,4.1-1.6,5.6c-0.7,0.6-1.5,1-2.3,1.5c-24,15-48.1,30-72.1,45.1
			c-3,1.9-5.7,4.6-8.2,7.2c-2.2,2.3-2.9,5.4-2.6,8.6c0.5,5.1,3.8,8.2,8.8,8.2c69.7,0,139.3,0,209,0c7.1,0,11.2-5.5,9.2-12.4
			c-1.7-5.7-5.8-9.2-10.9-11.8c-25.4-13.1-50.9-26-76.3-39.1c-11-5.6-21.9-11.3-32.9-16.8c-2.7-1.4-3.9-3.3-3.9-6.3
			c0.1-10.1,0-20.2,0-30.3c0-4,1.9-5.9,6-6.1c8.1-0.5,15-3.7,20.6-9.5c7-7.3,7.3-17.2,0.7-25.2c-5.9-7.1-13.5-9.5-22.4-7.2
			c-8.2,2.1-14.2,9.3-15.3,17.9c-0.1,1-0.2,2-0.3,3c-0.3,2.9-2.5,5-5.3,5c-2.9,0-5.2-2.2-5.3-5.2c-0.1-5.9,1.5-11.4,4.5-16.4
			c7.4-12.4,22.3-18.4,36-14.5c14.2,4,23.8,16.8,23.5,31.4c-0.1,6.3-2.5,11.7-6.4,16.5c-6.3,7.7-14.4,12.2-24,14.3
			c-0.4,0.1-0.8,0.2-1.2,0.3C403.1,584,403.1,584,402.8,584.3z"/>
	</g>
	<path id="yellowShirt" class="st7" d="M582.1,691c0,0-85.7-47.7-86.3-47.7h-0.3c-0.6,0-1.1,0.2-1.5,0.6
		c-16.1,15.6-51.4,26.4-92.3,26.4s-76.2-10.8-92.3-26.4c-0.4-0.4-1-0.6-1.5-0.6l0,0c0,0,0,0-0.1,0c-0.8-0.1-83.7,46.2-83.7,46.2
		c-3.4,1.9-4.9,6.9-3.4,11.1l27.8,74.6c1.6,4.2,5.6,6.1,9.1,4.1l42.7-24.1c1.2-0.7,2.6,0.4,2.6,2.1v212.9c0,4.6,3.1,8.4,6.8,8.4H494
		c3.8,0,6.8-3.8,6.8-8.4V757.5c0-1.7,1.4-2.8,2.6-2.1l45.3,25.5c2.5,1.4,5.4,0,6.6-3l29.3-78.8C585.7,696.1,584.6,692.4,582.1,691z"
		/>
</g>
	<g id="boots">
		<g id="rightBoot">
			<path class="st3" d="M379.6,1944.9c0,0,36.8,1.3,44.5,3.5s60.5,15.3,77.1,14.4s58.4-14.8,58.4-14.8s5.1,4.8,2.5,8.7
				c-2.5,3.9-18.2,18.8-65.2,16.6c-47-2.2-67.7-14-67.7-14l1.7,8.7c0,0-44.9,1.3-51.2-3.1V1944.9z"/>
			<polygon class="st3" points="403.2,1876.5 437.2,1879.9 437.2,1949.3 410.5,1949.3 			"/>
			<path class="st9" d="M387.5,1872.6c0-1.6,1.5-2.8,3.1-2.5c4.8,0.9,13.7,2.8,15.6,4.7c2.6,2.6,8.3,74.6,8.3,74.6h-34.9
				c0,0-6.1-6.5-3.5-16.1C378.6,1924.2,387.1,1888.6,387.5,1872.6z"/>
			<path class="st9" d="M431.1,1949.3c0,0,0-64.6,0-68.5s7.9-22.7,18.8-8.7s25.7,49.3,45.8,53.2c20.1,3.9,50.2-1.7,57.6,5.2
				s7.4,18.8,7.4,18.8s-33.1,15.3-54.1,14.8C485.6,1963.7,441.1,1956.3,431.1,1949.3z"/>
		</g>
		<g id="leftBoot">
			<path class="st3" d="M404,1821.2c0,0-24,28-27.6,35c-3.6,7.1-29.9,54.8-41.7,66.4c-11.8,11.5-50.5,32.9-50.5,32.9s0.1,7,4.7,7.8
				s26.1-0.7,56.4-36.7c30.3-36,35.7-59.2,35.7-59.2l5.3,7.2c0,0,31.4-32.1,32.5-39.7L404,1821.2z"/>
			<polygon class="st3" points="337.7,1792.1 317.2,1819.4 368.2,1866.5 386.3,1846.9 			"/>
			<path class="st9" d="M345.5,1777.9c-1.2-1.1-3.1-0.8-4,0.6c-2.6,4.2-7.2,12-7.1,14.6c0.1,3.7,49.2,56.7,49.2,56.7l23.7-25.6
				c0,0-0.7-8.9-9.5-13.5C389.5,1806.4,357.6,1788.5,345.5,1777.9z"/>
			<path class="st9" d="M372.3,1862c0,0-47.4-43.8-50.3-46.5c-2.9-2.7-22-9.6-19.1,7.9c2.9,17.5,18.8,52.3,8,69.7
				c-10.7,17.4-35.3,35.7-35.2,45.9c0.1,10.2,8.8,18.2,8.8,18.2s33.7-14,47.6-29.7C345.9,1911.8,370.6,1874.1,372.3,1862z"/>
		</g>
	</g>
<g id="polos">
	<g id="poloHanger">
		<path class="st9" d="M536.8,584.3c0,7.4,0,14.9,0.1,22.5c0,0.7,1.1,1.5,1.9,1.9c14.6,7.5,29.2,15,43.8,22.5
			c20.8,10.6,41.6,21.1,62.2,32c8.8,4.7,15.3,11.7,16.4,22.2c1.2,11.2-7.6,22-19.3,21.9c-69.7-0.2-139.5-0.3-209.2,0.1
			c-14.3,0.1-23.7-14.2-19.2-27.3c2.5-7.3,7.7-12.4,14-16.4c12.2-7.7,24.4-15.3,36.7-22.9c12.2-7.6,24.4-15.3,36.7-22.9
			c1.3-0.8,2.9-1.4,4.4-1.4c2.2,0,3.9,1.4,4.6,3.6c0.7,2.2,0.1,4.1-1.6,5.6c-0.7,0.6-1.5,1-2.3,1.5c-24,15-48.1,30-72.1,45.1
			c-3,1.9-5.7,4.6-8.2,7.2c-2.2,2.3-2.9,5.4-2.6,8.6c0.5,5.1,3.8,8.2,8.8,8.2c69.7,0,139.3,0,209,0c7.1,0,11.2-5.5,9.2-12.4
			c-1.7-5.7-5.8-9.2-10.9-11.8c-25.4-13.1-50.9-26-76.3-39.1c-11-5.6-21.9-11.3-32.9-16.8c-2.7-1.4-3.9-3.3-3.9-6.3
			c0.1-10.1,0-20.2,0-30.3c0-4,1.9-5.9,6-6.1c8.1-0.5,15-3.7,20.6-9.5c7-7.3,7.3-17.2,0.7-25.2c-5.9-7.1-13.5-9.5-22.4-7.2
			c-8.2,2.1-14.2,9.3-15.3,17.9c-0.1,1-0.2,2-0.3,3c-0.3,2.9-2.5,5-5.3,5c-2.9,0-5.2-2.2-5.3-5.2c-0.1-5.9,1.5-11.4,4.5-16.4
			c7.4-12.4,22.3-18.4,36-14.5c14.2,4,23.8,16.8,23.5,31.4c-0.1,6.3-2.5,11.7-6.4,16.5c-6.3,7.7-14.4,12.2-24,14.3
			c-0.4,0.1-0.8,0.2-1.2,0.3C537.1,584,537.1,584,536.8,584.3z"/>
	</g>
	<g id="whitePolo">
		<path class="st6" d="M716.1,691c0,0-85.7-47.7-86.3-47.7h-0.3c-0.6,0-1.1,0.2-1.5,0.6c-16.1,15.6-51.4,26.4-92.3,26.4
			s-76.2-10.8-92.3-26.4c-0.4-0.4-1-0.6-1.5-0.6l0,0c0,0,0,0-0.1,0c-0.8-0.1-83.7,46.2-83.7,46.2c-3.4,1.9-4.9,6.9-3.4,11.1
			l27.8,74.6c1.6,4.2,5.6,6.1,9.1,4.1l42.7-24.1c1.2-0.7,2.6,0.4,2.6,2.1v212.9c0,4.6,3.1,8.4,6.8,8.4H628c3.8,0,6.8-3.8,6.8-8.4
			V757.5c0-1.7,1.4-2.8,2.6-2.1l45.3,25.5c2.5,1.4,5.4,0,6.6-3l29.3-78.8C719.7,696.1,718.6,692.4,716.1,691z"/>
		<g>
			<rect x="521.7" y="670" class="st6" width="23.7" height="308.6"/>
			<g>
				<ellipse class="st6" cx="533.5" cy="704.7" rx="5.9" ry="8.6"/>
				<ellipse class="st6" cx="533.7" cy="764.5" rx="5.9" ry="8.6"/>
				<ellipse class="st6" cx="533.7" cy="824.3" rx="5.9" ry="8.6"/>
				<ellipse class="st6" cx="533.3" cy="884.1" rx="5.9" ry="8.6"/>
				<ellipse class="st6" cx="533.3" cy="943.8" rx="5.9" ry="8.6"/>
			</g>
		</g>
		<g>
			<path class="st6" d="M619.3,969.5h-41.4c-1.6,0-3-1.3-3-3v-33.6c0-1.6,1.3-3,3-3h41.4c1.6,0,3,1.3,3,3v33.6
				C622.3,968.1,620.9,969.5,619.3,969.5z"/>
			<path class="st6" d="M620.9,932.8h-44.7c-2.8,0-5.1-2.3-5.1-5.1v-1.4c0-2.8,2.3-5.1,5.1-5.1h44.7c2.8,0,5.1,2.3,5.1,5.1v1.4
				C626,930.5,623.7,932.8,620.9,932.8z"/>
			<ellipse class="st6" cx="581" cy="961" rx="3.3" ry="3.8"/>
			<ellipse class="st6" cx="581" cy="926.6" rx="3.3" ry="3.8"/>
			<ellipse class="st6" cx="616" cy="961.1" rx="3.3" ry="3.8"/>
			<ellipse class="st6" cx="616" cy="927.1" rx="3.3" ry="3.8"/>
			<path class="st6" d="M600.4,957.3h-3.6c-2.5,0-4.6-2.1-4.6-4.6v-14c0-2.5,2.1-4.6,4.6-4.6h3.6c2.5,0,4.6,2.1,4.6,4.6v14
				C604.9,955.3,602.9,957.3,600.4,957.3z"/>
		</g>
		<g>
			<path class="st6" d="M496.3,969.5h-41.4c-1.6,0-3-1.3-3-3v-33.6c0-1.6,1.3-3,3-3h41.4c1.6,0,3,1.3,3,3v33.6
				C499.2,968.1,497.9,969.5,496.3,969.5z"/>
			<path class="st6" d="M497.9,932.8h-44.7c-2.8,0-5.1-2.3-5.1-5.1v-1.4c0-2.8,2.3-5.1,5.1-5.1h44.7c2.8,0,5.1,2.3,5.1,5.1v1.4
				C503,930.5,500.7,932.8,497.9,932.8z"/>
			<ellipse class="st6" cx="458" cy="961" rx="3.3" ry="3.8"/>
			<ellipse class="st6" cx="458" cy="926.6" rx="3.3" ry="3.8"/>
			<ellipse class="st6" cx="493" cy="961.1" rx="3.3" ry="3.8"/>
			<ellipse class="st6" cx="493" cy="927.1" rx="3.3" ry="3.8"/>
			<path class="st6" d="M477.3,957.3h-3.6c-2.5,0-4.6-2.1-4.6-4.6v-14c0-2.5,2.1-4.6,4.6-4.6h3.6c2.5,0,4.6,2.1,4.6,4.6v14
				C481.9,955.3,479.9,957.3,477.3,957.3z"/>
		</g>
	</g>
</g>
	<path id="dressHanger" class="st9" d="M1018.8,590.3c0,7.4,0,14.9,0.1,22.5c0,0.7,1.1,1.5,1.9,1.9c14.6,7.5,29.2,15,43.8,22.5
		c20.8,10.6,41.6,21.1,62.2,32c8.8,4.7,15.3,11.7,16.4,22.2c1.2,11.2-7.6,22-19.3,21.9c-69.7-0.2-139.5-0.3-209.2,0.1
		c-14.3,0.1-23.7-14.2-19.2-27.3c2.5-7.3,7.7-12.4,14-16.4c12.2-7.7,24.4-15.3,36.7-22.9c12.2-7.6,24.4-15.3,36.7-22.9
		c1.3-0.8,2.9-1.4,4.4-1.4c2.2,0,3.9,1.4,4.6,3.6c0.7,2.2,0.1,4.1-1.6,5.6c-0.7,0.6-1.5,1-2.3,1.5c-24,15-48.1,30-72.1,45.1
		c-3,1.9-5.7,4.6-8.2,7.2c-2.2,2.3-2.9,5.4-2.6,8.6c0.5,5.1,3.8,8.2,8.8,8.2c69.7,0,139.3,0,209,0c7.1,0,11.2-5.5,9.2-12.4
		c-1.7-5.7-5.8-9.2-10.9-11.8c-25.4-13.1-50.9-26-76.3-39.1c-11-5.6-21.9-11.3-32.9-16.8c-2.7-1.4-3.9-3.3-3.9-6.3
		c0.1-10.1,0-20.2,0-30.3c0-4,1.9-5.9,6-6.1c8.1-0.5,15-3.7,20.6-9.5c7-7.3,7.3-17.2,0.7-25.2c-5.9-7.1-13.5-9.5-22.4-7.2
		c-8.2,2.1-14.2,9.3-15.3,17.9c-0.1,1-0.2,2-0.3,3c-0.3,2.9-2.5,5-5.3,5c-2.9,0-5.2-2.2-5.3-5.2c-0.1-5.9,1.5-11.4,4.5-16.4
		c7.4-12.4,22.3-18.4,36-14.5c14.2,4,23.8,16.8,23.5,31.4c-0.1,6.3-2.5,11.7-6.4,16.5c-6.3,7.7-14.4,12.2-24,14.3
		c-0.4,0.1-0.8,0.2-1.2,0.3C1019.1,590,1019.1,590,1018.8,590.3z"/>
	<g id="dress">
		<path class="st6" d="M1067.6,863.9v-27.8c0,0,20.8-20.8,20.8-83.4c-17.5-12.5-50.9-9.9-69.5,20.8c-18.6-30.8-51.9-33.3-69.5-20.8
			c0,62.5,20.8,83.4,20.8,83.4v27.8C912.8,917,887,1044.6,887,1044.6s97.3,27.8,132,27.8s132-27.8,132-27.8S1125.2,917,1067.6,863.9
			"/>
		<g>
			<polygon class="st9" points="970.4,863.9 1005.1,863.9 1005.1,836.1 970.4,836.1 			"/>
			<polygon class="st9" points="1032.9,863.9 1067.6,863.9 1067.6,836.1 1032.9,836.1 			"/>
			<path class="st9" d="M1067.3,698.1c0,0.1-0.1,0.2-0.1,0.3l-3,47.3c0,0,0,0,0,0c4.8-0.1,9.4,0.6,13.6,1.9c0.1-0.4,0.2-0.7,0.3-1
				l3-46.6C1077,699.2,1072.4,698.6,1067.3,698.1"/>
			<path class="st9" d="M960,746.6c0,0.4,0.2,0.7,0.3,1c4.2-1.3,8.8-1.9,13.6-1.9c0,0,0,0,0,0l-3-47.3c0-0.1-0.1-0.2-0.1-0.3
				c-5.1,0.5-9.7,1.1-13.7,2L960,746.6z"/>
		</g>
	</g>
	<g id="bikiniHanger">
		<path class="st9" d="M1019.8,1314.2c0,5.9,0,12,0.1,18c0,0.5,0.9,1.2,1.5,1.6c11.7,6,23.4,12,35,18c16.6,8.5,33.3,16.9,49.8,25.6
			c7.1,3.7,12.2,9.4,13.1,17.8c0.9,8.9-6.1,17.6-15.5,17.5c-55.8-0.2-111.6-0.3-167.4,0.1c-11.4,0.1-19-11.4-15.3-21.8
			c2-5.8,6.1-9.9,11.2-13.1c9.8-6.1,19.6-12.2,29.3-18.4c9.8-6.1,19.6-12.2,29.4-18.3c1-0.6,2.3-1.1,3.5-1.1c1.8,0,3.1,1.1,3.6,2.9
			c0.6,1.8,0.1,3.3-1.3,4.5c-0.5,0.5-1.2,0.8-1.8,1.2c-19.2,12-38.5,24-57.6,36.1c-2.4,1.5-4.6,3.7-6.5,5.8
			c-1.7,1.9-2.3,4.3-2.1,6.9c0.4,4.1,3,6.5,7.1,6.5c55.7,0,111.5,0,167.2,0c5.6,0,9-4.4,7.3-9.9c-1.3-4.5-4.7-7.4-8.7-9.5
			c-20.3-10.4-40.7-20.8-61-31.3c-8.8-4.5-17.5-9-26.3-13.5c-2.2-1.1-3.1-2.6-3.1-5.1c0.1-8.1,0-16.2,0-24.2c0-3.2,1.5-4.7,4.8-4.9
			c6.5-0.4,12-2.9,16.5-7.6c5.6-5.8,5.8-13.7,0.5-20.1c-4.7-5.7-10.8-7.6-18-5.8c-6.5,1.7-11.4,7.5-12.3,14.3
			c-0.1,0.8-0.1,1.6-0.2,2.4c-0.3,2.3-2,4-4.2,4c-2.3,0-4.2-1.8-4.2-4.2c-0.1-4.7,1.2-9.1,3.6-13.1c5.9-9.9,17.8-14.8,28.8-11.6
			c11.4,3.2,19,13.4,18.8,25.1c-0.1,5-2,9.4-5.1,13.2c-5,6.1-11.5,9.8-19.2,11.5c-0.3,0.1-0.7,0.1-1,0.2
			C1020,1313.9,1020,1314,1019.8,1314.2z"/>
	</g>
	<g id="bikini" class="float2">
		<path class="st7" d="M947.4,1466c9.3-17.5,34.1-22.1,51.9-8.6c10.8,8.2,15.1,22.5,7.2,33.5c-4.7,6.6-12.3,12.3-24.5,12.2
			C953.7,1502.8,947.4,1466,947.4,1466"/>
		<path class="st8" d="M960.9,1453.2l0.5-57.1l-13.4-0.1l-0.6,70.1C950.5,1460.3,955.2,1455.9,960.9,1453.2"/>
		<path class="st7" d="M1094.3,1467.4c-9-17.6-33.7-22.7-51.7-9.6c-10.9,8-15.5,22.2-7.8,33.3c4.6,6.7,12.1,12.5,24.2,12.6
			C1087.4,1504,1094.3,1467.4,1094.3,1467.4"/>
		<path class="st8" d="M947.4,1466c-6.5,3.5-14,6.6-23.4,6.5l-0.2,23.4l39.7,0.4C952.7,1487.2,948.4,1470.5,947.4,1466"/>
		<path class="st8" d="M1081.1,1454.2l0.5-57.1l13.4,0.1l-0.6,70.1C1091.3,1461.5,1086.7,1457.1,1081.1,1454.2"/>
		<path class="st8" d="M1010,1473.3c1.4,5.9,0.5,12.2-3.4,17.6c-1.5,2-3.2,4-5.3,5.7l38.8,0.4c-2-1.8-3.8-3.7-5.2-5.8
			c-3.8-5.5-4.6-11.8-3.1-17.7L1010,1473.3L1010,1473.3z"/>
		<g>
			<path class="st6" d="M950,1475.5c3.9,10.9,13,27.4,32,27.6c9.8,0.1,16.7-3.7,21.4-8.6c-1.2-6.5-5.1-12.6-10.9-17.1
				C979.2,1467.2,961.8,1467.4,950,1475.5"/>
			<path class="st6" d="M1091.5,1476.8c-4.1,10.8-13.5,27.1-32.5,27c-9.8-0.1-16.6-4-21.3-9c1.3-6.4,5.3-12.6,11.2-16.9
				C1062.5,1468,1079.9,1468.4,1091.5,1476.8"/>
		</g>
		<path class="st8" d="M1094.3,1467.4c6.5,3.6,13.9,6.8,23.3,6.9l-0.2,23.4l-39.7-0.4C1088.6,1488.4,1093.2,1471.8,1094.3,1467.4"/>
	</g>
	<g id="sandals">
		<g id="sandalsBack">
			<path class="st6" d="M970.3,1699.4h151.5c3.7,0,6.7,3,6.7,6.7l0,0c0,3.7-3,6.7-6.7,6.7H970.3c-3.7,0-6.7-3-6.7-6.7l0,0
				C963.6,1702.4,966.6,1699.4,970.3,1699.4z"/>
			<path class="st6" d="M1010.9,1699.3c0,0,40.7-18.8,45.2-21.5s21.3-10.4,37.1,1.6c15.7,12,5.9,18.9,5.9,18.9s-5.1-9.1-19.2-10.4
				c-14.1-1.3-17.9,11.2-27.5,11.5C1042.8,1699.7,1010.9,1699.3,1010.9,1699.3z"/>
			<line class="st6" x1="1056.1" y1="1677.8" x2="1071.7" y2="1688.8"/>
			<line class="st6" x1="1050.4" y1="1680.6" x2="1066" y2="1691.7"/>
		</g>
		<g id="sandalsFront">
			<path class="st6" d="M935.3,1699.4h151.5c3.7,0,6.7,3,6.7,6.7l0,0c0,3.7-3,6.7-6.7,6.7H935.3c-3.7,0-6.7-3-6.7-6.7l0,0
				C928.6,1702.4,931.6,1699.4,935.3,1699.4z"/>
			<path class="st6" d="M975.9,1699.3c0,0,40.7-18.8,45.2-21.5c4.5-2.7,21.3-10.4,37.1,1.6c15.7,12,5.9,18.9,5.9,18.9
				s-5.1-9.1-19.2-10.4c-14.1-1.3-17.9,11.2-27.5,11.5C1007.8,1699.7,975.9,1699.3,975.9,1699.3z"/>
			<line class="st6" x1="1021.1" y1="1677.8" x2="1036.7" y2="1688.8"/>
			<line class="st6" x1="1015.4" y1="1680.6" x2="1031" y2="1691.7"/>
		</g>
	</g>
</g>
<g id="Closet_1_">
</g>
</svg>
