<?xml version="1.0" encoding="utf-8"?>
<!-- Generator: Adobe Illustrator 21.0.2, SVG Export Plug-In . SVG Version: 6.00 Build 0)  -->
 
<?xml-stylesheet type="text/css" href="../../../css/game_animation.css"?>

<svg version="1.1" xmlns="http://www.w3.org/2000/svg" xmlns:xlink="http://www.w3.org/1999/xlink" x="0px" y="0px"
	 viewBox="0 0 1242 2208" style="enable-background:new 0 0 1242 2208;" xml:space="preserve">
<style type="text/css">
	.st0{fill:#FFF1A5;}
	.st1{opacity:0.46;}
	.st2{fill:none;stroke:#FFDB58;stroke-width:3;stroke-miterlimit:10;}
	.st3{fill:#F9F9F9;stroke:#FF9C32;stroke-width:4;stroke-miterlimit:10;}
	.st4{fill:#FF9C32;}
	.st5{fill:#FF9C32;stroke:#F9F9F9;stroke-width:4;stroke-miterlimit:10;}
	.st6{fill:none;stroke:#FF9C32;stroke-width:4;stroke-miterlimit:10;}
	.st7{fill:#14275E;}
</style>
<g id="tablet_x5F_teeth">
</g>
<g id="mobile_x5F_teeth">
	<rect id="background" x="0" class="st0" width="1244" height="2208"/>
	<g id="pattern_1_" class="st1">
		<g>
			<g>
				<path class="st2" d="M1194.9,168.9c0-5.2,4.3-9.5,9.5-9.5c5.3,0,9.5,4.2,9.5,9.5l0.4,504c0,0,0,0,0,0c0,5.2-4.3,9.5-9.5,9.5
					c-5.3,0-9.5-4.2-9.5-9.5L1194.9,168.9C1194.9,168.9,1194.9,168.9,1194.9,168.9z"/>
			</g>
			<g>
				<path class="st2" d="M1195.1,96.4V17.5c0-5.3,4.3-9.5,9.5-9.5s9.5,4.3,9.5,9.5v78.9c0,5.3-4.3,9.5-9.5,9.5
					S1195.1,101.6,1195.1,96.4z"/>
			</g>
			<g>
				<path class="st2" d="M1195.1,1121.2V772c0-5.3,4.3-9.5,9.5-9.5s9.5,4.3,9.5,9.5v349.1c0,5.3-4.3,9.5-9.5,9.5
					S1195.1,1126.4,1195.1,1121.2z"/>
			</g>
			<g>
				<path class="st2" d="M1195.1,1793.4v-61.5c0-5.3,4.3-9.5,9.5-9.5s9.5,4.3,9.5,9.5v61.5c0,5.3-4.3,9.5-9.5,9.5
					S1195.1,1798.6,1195.1,1793.4z"/>
			</g>
			<g>
				<path class="st2" d="M1194.9,1316.1C1194.9,1316,1194.9,1316,1194.9,1316.1l0.4-92.3c0-5.3,4.3-9.5,9.5-9.5
					c5.2,0,9.5,4.3,9.5,9.5c0,0,0,0,0,0l-0.4,92.2c0,5.3-4.3,9.5-9.5,9.5C1199.1,1325.5,1194.9,1321.3,1194.9,1316.1z"/>
			</g>
			<g>
				<path class="st2" d="M1195.1,1674.5v-297c0-5.3,4.3-9.5,9.5-9.5s9.5,4.3,9.5,9.5v297c0,5.3-4.3,9.5-9.5,9.5
					S1195.1,1679.7,1195.1,1674.5z"/>
			</g>
			<g>
				<path class="st2" d="M1195.1,2091.5v-234.3c0-5.3,4.3-9.5,9.5-9.5s9.5,4.3,9.5,9.5v234.3c0,5.3-4.3,9.5-9.5,9.5
					S1195.1,2096.7,1195.1,2091.5z"/>
			</g>
		</g>
		<g>
			<g>
				<path class="st2" d="M961.6,2091.5v-349.1c0-5.3,4.3-9.5,9.5-9.5c5.3,0,9.5,4.3,9.5,9.5v349.1c0,5.3-4.3,9.5-9.5,9.5
					C965.9,2101,961.6,2096.7,961.6,2091.5z"/>
			</g>
			<g>
				<path class="st2" d="M961.6,1673.9v-83.5c0-5.3,4.3-9.5,9.5-9.5c5.3,0,9.5,4.3,9.5,9.5v83.5c0,5.3-4.3,9.5-9.5,9.5
					C965.9,1683.4,961.6,1679.2,961.6,1673.9z"/>
			</g>
			<g>
				<path class="st2" d="M961.6,367.8v-83.5c0-5.3,4.3-9.5,9.5-9.5c5.3,0,9.5,4.3,9.5,9.5v83.5c0,5.3-4.3,9.5-9.5,9.5
					C965.9,377.3,961.6,373,961.6,367.8z"/>
			</g>
			<g>
				<path class="st2" d="M961.6,191.5v-174c0-5.3,4.3-9.5,9.5-9.5c5.3,0,9.5,4.3,9.5,9.5v174c0,5.3-4.3,9.5-9.5,9.5
					C965.9,201,961.6,196.7,961.6,191.5z"/>
			</g>
			<g>
				<path class="st2" d="M961.6,766.8V443.2c0-5.3,4.3-9.5,9.5-9.5c5.3,0,9.5,4.3,9.5,9.5v323.6c0,5.3-4.3,9.5-9.5,9.5
					C965.9,776.3,961.6,772.1,961.6,766.8z"/>
			</g>
			<g>
				<path class="st2" d="M961.6,933.3V821.9c0-5.3,4.3-9.5,9.5-9.5c5.3,0,9.5,4.3,9.5,9.5v111.4c0,5.3-4.3,9.5-9.5,9.5
					C965.9,942.8,961.6,938.5,961.6,933.3z"/>
			</g>
			<g>
				<path class="st2" d="M961.6,1403.1V982c0-5.3,4.3-9.5,9.5-9.5c5.3,0,9.5,4.3,9.5,9.5v421.1c0,5.3-4.3,9.5-9.5,9.5
					C965.9,1412.6,961.6,1408.3,961.6,1403.1z"/>
			</g>
			<g>
				<path class="st2" d="M961.6,1541.7v-85.8c0-5.3,4.3-9.5,9.5-9.5c5.3,0,9.5,4.3,9.5,9.5v85.8c0,5.3-4.3,9.5-9.5,9.5
					C965.9,1551.2,961.6,1546.9,961.6,1541.7z"/>
			</g>
		</g>
		<g>
			<g>
				<path class="st2" d="M806.1,2091.5v-349.1c0-5.3,4.3-9.5,9.5-9.5c5.3,0,9.5,4.3,9.5,9.5v349.1c0,5.3-4.3,9.5-9.5,9.5
					C810.3,2101,806.1,2096.7,806.1,2091.5z"/>
			</g>
			<g>
				<path class="st2" d="M806.1,1673.9v-83.5c0-5.3,4.3-9.5,9.5-9.5c5.3,0,9.5,4.3,9.5,9.5v83.5c0,5.3-4.3,9.5-9.5,9.5
					C810.3,1683.4,806.1,1679.2,806.1,1673.9z"/>
			</g>
			<g>
				<path class="st2" d="M806.1,367.8v-83.5c0-5.3,4.3-9.5,9.5-9.5c5.3,0,9.5,4.3,9.5,9.5v83.5c0,5.3-4.3,9.5-9.5,9.5
					C810.3,377.3,806.1,373,806.1,367.8z"/>
			</g>
			<g>
				<path class="st2" d="M806.1,191.5v-174c0-5.3,4.3-9.5,9.5-9.5c5.3,0,9.5,4.3,9.5,9.5v174c0,5.3-4.3,9.5-9.5,9.5
					C810.3,201,806.1,196.7,806.1,191.5z"/>
			</g>
			<g>
				<path class="st2" d="M806.1,766.8V443.2c0-5.3,4.3-9.5,9.5-9.5c5.3,0,9.5,4.3,9.5,9.5v323.6c0,5.3-4.3,9.5-9.5,9.5
					C810.3,776.3,806.1,772.1,806.1,766.8z"/>
			</g>
			<g>
				<path class="st2" d="M806.1,933.3V821.9c0-5.3,4.3-9.5,9.5-9.5c5.3,0,9.5,4.3,9.5,9.5v111.4c0,5.3-4.3,9.5-9.5,9.5
					C810.3,942.8,806.1,938.5,806.1,933.3z"/>
			</g>
			<g>
				<path class="st2" d="M806.1,1403.1V982c0-5.3,4.3-9.5,9.5-9.5c5.3,0,9.5,4.3,9.5,9.5v421.1c0,5.3-4.3,9.5-9.5,9.5
					C810.3,1412.6,806.1,1408.3,806.1,1403.1z"/>
			</g>
			<g>
				<path class="st2" d="M806.1,1541.7v-85.8c0-5.3,4.3-9.5,9.5-9.5c5.3,0,9.5,4.3,9.5,9.5v85.8c0,5.3-4.3,9.5-9.5,9.5
					C810.3,1551.2,806.1,1546.9,806.1,1541.7z"/>
			</g>
		</g>
		<g>
			<g>
				<path class="st2" d="M1117.1,2091.5v-349.1c0-5.3,4.3-9.5,9.5-9.5s9.5,4.3,9.5,9.5v349.1c0,5.3-4.3,9.5-9.5,9.5
					S1117.1,2096.7,1117.1,2091.5z"/>
			</g>
			<g>
				<path class="st2" d="M1117.1,1673.9v-83.5c0-5.3,4.3-9.5,9.5-9.5s9.5,4.3,9.5,9.5v83.5c0,5.3-4.3,9.5-9.5,9.5
					S1117.1,1679.2,1117.1,1673.9z"/>
			</g>
			<g>
				<path class="st2" d="M1117.1,367.8v-83.5c0-5.3,4.3-9.5,9.5-9.5s9.5,4.3,9.5,9.5v83.5c0,5.3-4.3,9.5-9.5,9.5
					S1117.1,373,1117.1,367.8z"/>
			</g>
			<g>
				<path class="st2" d="M1117.1,191.5v-174c0-5.3,4.3-9.5,9.5-9.5s9.5,4.3,9.5,9.5v174c0,5.3-4.3,9.5-9.5,9.5
					S1117.1,196.7,1117.1,191.5z"/>
			</g>
			<g>
				<path class="st2" d="M1117.1,766.8V443.2c0-5.3,4.3-9.5,9.5-9.5s9.5,4.3,9.5,9.5v323.6c0,5.3-4.3,9.5-9.5,9.5
					S1117.1,772.1,1117.1,766.8z"/>
			</g>
			<g>
				<path class="st2" d="M1117.1,933.3V821.9c0-5.3,4.3-9.5,9.5-9.5s9.5,4.3,9.5,9.5v111.4c0,5.3-4.3,9.5-9.5,9.5
					S1117.1,938.5,1117.1,933.3z"/>
			</g>
			<g>
				<path class="st2" d="M1117.1,1403.1V982c0-5.3,4.3-9.5,9.5-9.5s9.5,4.3,9.5,9.5v421.1c0,5.3-4.3,9.5-9.5,9.5
					S1117.1,1408.3,1117.1,1403.1z"/>
			</g>
			<g>
				<path class="st2" d="M1117.1,1541.7v-85.8c0-5.3,4.3-9.5,9.5-9.5s9.5,4.3,9.5,9.5v85.8c0,5.3-4.3,9.5-9.5,9.5
					S1117.1,1546.9,1117.1,1541.7z"/>
			</g>
		</g>
		<g>
			<g>
				<path class="st2" d="M1039.4,366.6V17.5c0-5.3,4.3-9.5,9.5-9.5s9.5,4.3,9.5,9.5v349.1c0,5.3-4.3,9.5-9.5,9.5
					S1039.4,371.9,1039.4,366.6z"/>
			</g>
			<g>
				<path class="st2" d="M1039.4,518.6v-83.5c0-5.3,4.3-9.5,9.5-9.5s9.5,4.3,9.5,9.5v83.5c0,5.3-4.3,9.5-9.5,9.5
					S1039.4,523.8,1039.4,518.6z"/>
			</g>
			<g>
				<path class="st2" d="M1039.4,1824.7v-83.5c0-5.3,4.3-9.5,9.5-9.5s9.5,4.3,9.5,9.5v83.5c0,5.3-4.3,9.5-9.5,9.5
					S1039.4,1830,1039.4,1824.7z"/>
			</g>
			<g>
				<path class="st2" d="M1039.4,2091.5v-174c0-5.3,4.3-9.5,9.5-9.5s9.5,4.3,9.5,9.5v174c0,5.3-4.3,9.5-9.5,9.5
					S1039.4,2096.7,1039.4,2091.5z"/>
			</g>
			<g>
				<path class="st2" d="M1039.4,1665.8v-323.6c0-5.3,4.3-9.5,9.5-9.5s9.5,4.3,9.5,9.5v323.6c0,5.3-4.3,9.5-9.5,9.5
					S1039.4,1671,1039.4,1665.8z"/>
			</g>
			<g>
				<path class="st2" d="M1039.4,1287.1v-111.4c0-5.3,4.3-9.5,9.5-9.5s9.5,4.3,9.5,9.5v111.4c0,5.3-4.3,9.5-9.5,9.5
					S1039.4,1292.3,1039.4,1287.1z"/>
			</g>
			<g>
				<path class="st2" d="M1039.4,1127V705.9c0-5.3,4.3-9.5,9.5-9.5s9.5,4.3,9.5,9.5V1127c0,5.3-4.3,9.5-9.5,9.5
					S1039.4,1132.2,1039.4,1127z"/>
			</g>
			<g>
				<path class="st2" d="M1039.4,653.1v-85.8c0-5.3,4.3-9.5,9.5-9.5s9.5,4.3,9.5,9.5v85.8c0,5.3-4.3,9.5-9.5,9.5
					S1039.4,658.4,1039.4,653.1z"/>
			</g>
		</g>
		<g>
			<g>
				<path class="st2" d="M883.8,2091.5v-349.1c0-5.3,4.3-9.5,9.5-9.5c5.3,0,9.5,4.3,9.5,9.5v349.1c0,5.3-4.3,9.5-9.5,9.5
					C888.1,2101,883.8,2096.7,883.8,2091.5z"/>
			</g>
			<g>
				<path class="st2" d="M883.8,1673.9v-83.5c0-5.3,4.3-9.5,9.5-9.5c5.3,0,9.5,4.3,9.5,9.5v83.5c0,5.3-4.3,9.5-9.5,9.5
					C888.1,1683.4,883.8,1679.2,883.8,1673.9z"/>
			</g>
			<g>
				<path class="st2" d="M883.8,367.8v-83.5c0-5.3,4.3-9.5,9.5-9.5c5.3,0,9.5,4.3,9.5,9.5v83.5c0,5.3-4.3,9.5-9.5,9.5
					C888.1,377.3,883.8,373,883.8,367.8z"/>
			</g>
			<g>
				<path class="st2" d="M883.8,191.5v-174c0-5.3,4.3-9.5,9.5-9.5c5.3,0,9.5,4.3,9.5,9.5v174c0,5.3-4.3,9.5-9.5,9.5
					C888.1,201,883.8,196.7,883.8,191.5z"/>
			</g>
			<g>
				<path class="st2" d="M883.8,766.8V443.2c0-5.3,4.3-9.5,9.5-9.5c5.3,0,9.5,4.3,9.5,9.5v323.6c0,5.3-4.3,9.5-9.5,9.5
					C888.1,776.3,883.8,772.1,883.8,766.8z"/>
			</g>
			<g>
				<path class="st2" d="M883.8,933.3V821.9c0-5.3,4.3-9.5,9.5-9.5c5.3,0,9.5,4.3,9.5,9.5v111.4c0,5.3-4.3,9.5-9.5,9.5
					C888.1,942.8,883.8,938.5,883.8,933.3z"/>
			</g>
			<g>
				<path class="st2" d="M883.8,1403.1V982c0-5.3,4.3-9.5,9.5-9.5c5.3,0,9.5,4.3,9.5,9.5v421.1c0,5.3-4.3,9.5-9.5,9.5
					C888.1,1412.6,883.8,1408.3,883.8,1403.1z"/>
			</g>
			<g>
				<path class="st2" d="M883.8,1541.7v-85.8c0-5.3,4.3-9.5,9.5-9.5c5.3,0,9.5,4.3,9.5,9.5v85.8c0,5.3-4.3,9.5-9.5,9.5
					C888.1,1551.2,883.8,1546.9,883.8,1541.7z"/>
			</g>
		</g>
		<g>
			<g>
				<path class="st2" d="M650.2,2091.5v-883.9c0-5.3,4.3-9.5,9.5-9.5c5.3,0,9.5,4.3,9.5,9.5v883.9c0,5.3-4.3,9.5-9.5,9.5
					C654.4,2101,650.2,2096.7,650.2,2091.5z"/>
			</g>
			<g>
				<path class="st2" d="M650.2,1128.1v-62.6c0-5.3,4.3-9.5,9.5-9.5c5.3,0,9.5,4.3,9.5,9.5v62.6c0,5.3-4.3,9.5-9.5,9.5
					C654.4,1137.6,650.2,1133.4,650.2,1128.1z"/>
			</g>
			<g>
				<path class="st2" d="M650.2,577.7v-62.6c0-5.3,4.3-9.5,9.5-9.5c5.3,0,9.5,4.3,9.5,9.5v62.6c0,5.3-4.3,9.5-9.5,9.5
					C654.4,587.2,650.2,583,650.2,577.7z"/>
			</g>
			<g>
				<path class="st2" d="M650.2,984.3V647.9c0-5.3,4.3-9.5,9.5-9.5c5.3,0,9.5,4.3,9.5,9.5v336.4c0,5.3-4.3,9.5-9.5,9.5
					C654.4,993.8,650.2,989.6,650.2,984.3z"/>
			</g>
			<g>
				<path class="st2" d="M650.2,464.1V229.7c0-5.3,4.3-9.5,9.5-9.5c5.3,0,9.5,4.3,9.5,9.5v234.3c0,5.3-4.3,9.5-9.5,9.5
					C654.4,473.6,650.2,469.3,650.2,464.1z"/>
			</g>
			<g>
				<path class="st2" d="M650.2,127.7V16.3c0-5.3,4.3-9.5,9.5-9.5c5.3,0,9.5,4.3,9.5,9.5v111.4c0,5.3-4.3,9.5-9.5,9.5
					C654.4,137.2,650.2,132.9,650.2,127.7z"/>
			</g>
		</g>
		<g>
			<g>
				<path class="st2" d="M572.4,900.2V16.3c0-5.3,4.3-9.5,9.5-9.5c5.3,0,9.5,4.3,9.5,9.5v883.9c0,5.3-4.3,9.5-9.5,9.5
					C576.7,909.7,572.4,905.5,572.4,900.2z"/>
			</g>
			<g>
				<path class="st2" d="M572.4,1042.3v-62.6c0-5.3,4.3-9.5,9.5-9.5c5.3,0,9.5,4.3,9.5,9.5v62.6c0,5.3-4.3,9.5-9.5,9.5
					C576.7,1051.8,572.4,1047.6,572.4,1042.3z"/>
			</g>
			<g>
				<path class="st2" d="M572.4,1592.7v-62.6c0-5.3,4.3-9.5,9.5-9.5c5.3,0,9.5,4.3,9.5,9.5v62.6c0,5.3-4.3,9.5-9.5,9.5
					C576.7,1602.2,572.4,1598,572.4,1592.7z"/>
			</g>
			<g>
				<path class="st2" d="M572.4,1459.9v-336.4c0-5.3,4.3-9.5,9.5-9.5c5.3,0,9.5,4.3,9.5,9.5v336.4c0,5.3-4.3,9.5-9.5,9.5
					C576.7,1469.4,572.4,1465.1,572.4,1459.9z"/>
			</g>
			<g>
				<path class="st2" d="M572.4,1878.1v-234.3c0-5.3,4.3-9.5,9.5-9.5c5.3,0,9.5,4.3,9.5,9.5v234.3c0,5.3-4.3,9.5-9.5,9.5
					C576.7,1887.6,572.4,1883.3,572.4,1878.1z"/>
			</g>
			<g>
				<path class="st2" d="M572.4,2091.5v-111.4c0-5.3,4.3-9.5,9.5-9.5c5.3,0,9.5,4.3,9.5,9.5v111.4c0,5.3-4.3,9.5-9.5,9.5
					C576.7,2101,572.4,2096.7,572.4,2091.5z"/>
			</g>
		</g>
		<g>
			<g>
				<path class="st2" d="M727.9,1940.1L727.9,1940.1l0.4-504c0-5.3,4.3-9.5,9.5-9.5c5.2,0,9.5,4.3,9.5,9.5c0,0,0,0,0,0l-0.4,504
					c0,5.3-4.3,9.5-9.5,9.5C732.2,1949.6,727.9,1945.4,727.9,1940.1z"/>
			</g>
			<g>
				<path class="st2" d="M728.1,2091.5v-78.9c0-5.3,4.3-9.5,9.5-9.5s9.5,4.3,9.5,9.5v78.9c0,5.3-4.3,9.5-9.5,9.5
					S728.1,2096.7,728.1,2091.5z"/>
			</g>
			<g>
				<path class="st2" d="M728.1,1336.9V987.8c0-5.3,4.3-9.5,9.5-9.5s9.5,4.3,9.5,9.5v349.1c0,5.3-4.3,9.5-9.5,9.5
					S728.1,1342.2,728.1,1336.9z"/>
			</g>
			<g>
				<path class="st2" d="M728.1,377.1v-61.5c0-5.3,4.3-9.5,9.5-9.5s9.5,4.3,9.5,9.5v61.5c0,5.3-4.3,9.5-9.5,9.5
					S728.1,382.3,728.1,377.1z"/>
			</g>
			<g>
				<path class="st2" d="M727.9,792.9c0-5.2,4.2-9.5,9.5-9.5c5.3,0,9.5,4.2,9.5,9.5l0.4,92.2c0,0,0,0,0,0c0,5.2-4.2,9.5-9.5,9.5
					c-5.3,0-9.5-4.2-9.5-9.5L727.9,792.9C727.9,792.9,727.9,792.9,727.9,792.9z"/>
			</g>
			<g>
				<path class="st2" d="M728.1,731.4v-297c0-5.3,4.3-9.5,9.5-9.5s9.5,4.3,9.5,9.5v297c0,5.3-4.3,9.5-9.5,9.5
					S728.1,736.7,728.1,731.4z"/>
			</g>
			<g>
				<path class="st2" d="M728.1,251.8V17.5c0-5.3,4.3-9.5,9.5-9.5s9.5,4.3,9.5,9.5v234.3c0,5.3-4.3,9.5-9.5,9.5
					S728.1,257,728.1,251.8z"/>
			</g>
		</g>
		<g>
			<g>
				<path class="st2" d="M416.5,168.9c0-5.2,4.3-9.5,9.5-9.5c5.3,0,9.5,4.2,9.5,9.5l0.4,504c0,0,0,0,0,0c0,5.2-4.3,9.5-9.5,9.5
					c-5.3,0-9.5-4.2-9.5-9.5L416.5,168.9C416.5,168.9,416.5,168.9,416.5,168.9z"/>
			</g>
			<g>
				<path class="st2" d="M416.7,96.4V17.5c0-5.3,4.3-9.5,9.5-9.5c5.3,0,9.5,4.3,9.5,9.5v78.9c0,5.3-4.3,9.5-9.5,9.5
					C421,105.9,416.7,101.6,416.7,96.4z"/>
			</g>
			<g>
				<path class="st2" d="M416.7,1121.2V772c0-5.3,4.3-9.5,9.5-9.5c5.3,0,9.5,4.3,9.5,9.5v349.1c0,5.3-4.3,9.5-9.5,9.5
					C421,1130.7,416.7,1126.4,416.7,1121.2z"/>
			</g>
			<g>
				<path class="st2" d="M416.7,1793.4v-61.5c0-5.3,4.3-9.5,9.5-9.5c5.3,0,9.5,4.3,9.5,9.5v61.5c0,5.3-4.3,9.5-9.5,9.5
					C421,1802.9,416.7,1798.6,416.7,1793.4z"/>
			</g>
			<g>
				<path class="st2" d="M416.5,1316.1C416.5,1316,416.5,1316,416.5,1316.1l0.4-92.3c0-5.3,4.3-9.5,9.5-9.5c5.2,0,9.5,4.3,9.5,9.5
					c0,0,0,0,0,0l-0.4,92.2c0,5.3-4.3,9.5-9.5,9.5C420.7,1325.5,416.5,1321.3,416.5,1316.1z"/>
			</g>
			<g>
				<path class="st2" d="M416.7,1674.5v-297c0-5.3,4.3-9.5,9.5-9.5c5.3,0,9.5,4.3,9.5,9.5v297c0,5.3-4.3,9.5-9.5,9.5
					C421,1684,416.7,1679.7,416.7,1674.5z"/>
			</g>
			<g>
				<path class="st2" d="M416.7,2091.5v-234.3c0-5.3,4.3-9.5,9.5-9.5c5.3,0,9.5,4.3,9.5,9.5v234.3c0,5.3-4.3,9.5-9.5,9.5
					C421,2101,416.7,2096.7,416.7,2091.5z"/>
			</g>
		</g>
		<g>
			<g>
				<path class="st2" d="M494.7,366.6V17.5c0-5.3,4.3-9.5,9.5-9.5c5.3,0,9.5,4.3,9.5,9.5v349.1c0,5.3-4.3,9.5-9.5,9.5
					C498.9,376.1,494.7,371.9,494.7,366.6z"/>
			</g>
			<g>
				<path class="st2" d="M494.7,518.6v-83.5c0-5.3,4.3-9.5,9.5-9.5c5.3,0,9.5,4.3,9.5,9.5v83.5c0,5.3-4.3,9.5-9.5,9.5
					C498.9,528.1,494.7,523.8,494.7,518.6z"/>
			</g>
			<g>
				<path class="st2" d="M494.7,1824.7v-83.5c0-5.3,4.3-9.5,9.5-9.5c5.3,0,9.5,4.3,9.5,9.5v83.5c0,5.3-4.3,9.5-9.5,9.5
					C498.9,1834.2,494.7,1830,494.7,1824.7z"/>
			</g>
			<g>
				<path class="st2" d="M494.7,2091.5v-174c0-5.3,4.3-9.5,9.5-9.5c5.3,0,9.5,4.3,9.5,9.5v174c0,5.3-4.3,9.5-9.5,9.5
					C498.9,2101,494.7,2096.7,494.7,2091.5z"/>
			</g>
			<g>
				<path class="st2" d="M494.7,1665.8v-323.6c0-5.3,4.3-9.5,9.5-9.5c5.3,0,9.5,4.3,9.5,9.5v323.6c0,5.3-4.3,9.5-9.5,9.5
					C498.9,1675.3,494.7,1671,494.7,1665.8z"/>
			</g>
			<g>
				<path class="st2" d="M494.7,1287.1v-111.4c0-5.3,4.3-9.5,9.5-9.5c5.3,0,9.5,4.3,9.5,9.5v111.4c0,5.3-4.3,9.5-9.5,9.5
					C498.9,1296.6,494.7,1292.3,494.7,1287.1z"/>
			</g>
			<g>
				<path class="st2" d="M494.7,1127V705.9c0-5.3,4.3-9.5,9.5-9.5c5.3,0,9.5,4.3,9.5,9.5V1127c0,5.3-4.3,9.5-9.5,9.5
					C498.9,1136.5,494.7,1132.2,494.7,1127z"/>
			</g>
			<g>
				<path class="st2" d="M494.7,653.1v-85.8c0-5.3,4.3-9.5,9.5-9.5c5.3,0,9.5,4.3,9.5,9.5v85.8c0,5.3-4.3,9.5-9.5,9.5
					C498.9,662.6,494.7,658.4,494.7,653.1z"/>
			</g>
		</g>
		<g>
			<g>
				<path class="st2" d="M183.2,366.6V17.5c0-5.3,4.3-9.5,9.5-9.5s9.5,4.3,9.5,9.5v349.1c0,5.3-4.3,9.5-9.5,9.5
					S183.2,371.9,183.2,366.6z"/>
			</g>
			<g>
				<path class="st2" d="M183.2,518.6v-83.5c0-5.3,4.3-9.5,9.5-9.5s9.5,4.3,9.5,9.5v83.5c0,5.3-4.3,9.5-9.5,9.5
					S183.2,523.8,183.2,518.6z"/>
			</g>
			<g>
				<path class="st2" d="M183.2,1824.7v-83.5c0-5.3,4.3-9.5,9.5-9.5s9.5,4.3,9.5,9.5v83.5c0,5.3-4.3,9.5-9.5,9.5
					S183.2,1830,183.2,1824.7z"/>
			</g>
			<g>
				<path class="st2" d="M183.2,2091.5v-174c0-5.3,4.3-9.5,9.5-9.5s9.5,4.3,9.5,9.5v174c0,5.3-4.3,9.5-9.5,9.5
					S183.2,2096.7,183.2,2091.5z"/>
			</g>
			<g>
				<path class="st2" d="M183.2,1665.8v-323.6c0-5.3,4.3-9.5,9.5-9.5s9.5,4.3,9.5,9.5v323.6c0,5.3-4.3,9.5-9.5,9.5
					S183.2,1671,183.2,1665.8z"/>
			</g>
			<g>
				<path class="st2" d="M183.2,1287.1v-111.4c0-5.3,4.3-9.5,9.5-9.5s9.5,4.3,9.5,9.5v111.4c0,5.3-4.3,9.5-9.5,9.5
					S183.2,1292.3,183.2,1287.1z"/>
			</g>
			<g>
				<path class="st2" d="M183.2,1127V705.9c0-5.3,4.3-9.5,9.5-9.5s9.5,4.3,9.5,9.5V1127c0,5.3-4.3,9.5-9.5,9.5
					S183.2,1132.2,183.2,1127z"/>
			</g>
			<g>
				<path class="st2" d="M183.2,653.1v-85.8c0-5.3,4.3-9.5,9.5-9.5s9.5,4.3,9.5,9.5v85.8c0,5.3-4.3,9.5-9.5,9.5
					S183.2,658.4,183.2,653.1z"/>
			</g>
		</g>
		<g>
			<g>
				<path class="st2" d="M27.7,366.6V17.5c0-5.3,4.3-9.5,9.5-9.5s9.5,4.3,9.5,9.5v349.1c0,5.3-4.3,9.5-9.5,9.5
					S27.7,371.9,27.7,366.6z"/>
			</g>
			<g>
				<path class="st2" d="M27.7,518.6v-83.5c0-5.3,4.3-9.5,9.5-9.5s9.5,4.3,9.5,9.5v83.5c0,5.3-4.3,9.5-9.5,9.5
					S27.7,523.8,27.7,518.6z"/>
			</g>
			<g>
				<path class="st2" d="M27.7,1824.7v-83.5c0-5.3,4.3-9.5,9.5-9.5s9.5,4.3,9.5,9.5v83.5c0,5.3-4.3,9.5-9.5,9.5
					S27.7,1830,27.7,1824.7z"/>
			</g>
			<g>
				<path class="st2" d="M27.7,2091.5v-174c0-5.3,4.3-9.5,9.5-9.5s9.5,4.3,9.5,9.5v174c0,5.3-4.3,9.5-9.5,9.5
					S27.7,2096.7,27.7,2091.5z"/>
			</g>
			<g>
				<path class="st2" d="M27.7,1665.8v-323.6c0-5.3,4.3-9.5,9.5-9.5s9.5,4.3,9.5,9.5v323.6c0,5.3-4.3,9.5-9.5,9.5
					S27.7,1671,27.7,1665.8z"/>
			</g>
			<g>
				<path class="st2" d="M27.7,1287.1v-111.4c0-5.3,4.3-9.5,9.5-9.5s9.5,4.3,9.5,9.5v111.4c0,5.3-4.3,9.5-9.5,9.5
					S27.7,1292.3,27.7,1287.1z"/>
			</g>
			<g>
				<path class="st2" d="M27.7,1127V705.9c0-5.3,4.3-9.5,9.5-9.5s9.5,4.3,9.5,9.5V1127c0,5.3-4.3,9.5-9.5,9.5S27.7,1132.2,27.7,1127
					z"/>
			</g>
			<g>
				<path class="st2" d="M27.7,653.1v-85.8c0-5.3,4.3-9.5,9.5-9.5s9.5,4.3,9.5,9.5v85.8c0,5.3-4.3,9.5-9.5,9.5
					S27.7,658.4,27.7,653.1z"/>
			</g>
		</g>
		<g>
			<g>
				<path class="st2" d="M338.7,366.6V17.5c0-5.3,4.3-9.5,9.5-9.5c5.3,0,9.5,4.3,9.5,9.5v349.1c0,5.3-4.3,9.5-9.5,9.5
					C343,376.1,338.7,371.9,338.7,366.6z"/>
			</g>
			<g>
				<path class="st2" d="M338.7,518.6v-83.5c0-5.3,4.3-9.5,9.5-9.5c5.3,0,9.5,4.3,9.5,9.5v83.5c0,5.3-4.3,9.5-9.5,9.5
					C343,528.1,338.7,523.8,338.7,518.6z"/>
			</g>
			<g>
				<path class="st2" d="M338.7,1824.7v-83.5c0-5.3,4.3-9.5,9.5-9.5c5.3,0,9.5,4.3,9.5,9.5v83.5c0,5.3-4.3,9.5-9.5,9.5
					C343,1834.2,338.7,1830,338.7,1824.7z"/>
			</g>
			<g>
				<path class="st2" d="M338.7,2091.5v-174c0-5.3,4.3-9.5,9.5-9.5c5.3,0,9.5,4.3,9.5,9.5v174c0,5.3-4.3,9.5-9.5,9.5
					C343,2101,338.7,2096.7,338.7,2091.5z"/>
			</g>
			<g>
				<path class="st2" d="M338.7,1665.8v-323.6c0-5.3,4.3-9.5,9.5-9.5c5.3,0,9.5,4.3,9.5,9.5v323.6c0,5.3-4.3,9.5-9.5,9.5
					C343,1675.3,338.7,1671,338.7,1665.8z"/>
			</g>
			<g>
				<path class="st2" d="M338.7,1287.1v-111.4c0-5.3,4.3-9.5,9.5-9.5c5.3,0,9.5,4.3,9.5,9.5v111.4c0,5.3-4.3,9.5-9.5,9.5
					C343,1296.6,338.7,1292.3,338.7,1287.1z"/>
			</g>
			<g>
				<path class="st2" d="M338.7,1127V705.9c0-5.3,4.3-9.5,9.5-9.5c5.3,0,9.5,4.3,9.5,9.5V1127c0,5.3-4.3,9.5-9.5,9.5
					C343,1136.5,338.7,1132.2,338.7,1127z"/>
			</g>
			<g>
				<path class="st2" d="M338.7,653.1v-85.8c0-5.3,4.3-9.5,9.5-9.5c5.3,0,9.5,4.3,9.5,9.5v85.8c0,5.3-4.3,9.5-9.5,9.5
					C343,662.6,338.7,658.4,338.7,653.1z"/>
			</g>
		</g>
		<g>
			<g>
				<path class="st2" d="M261,2091.5v-349.1c0-5.3,4.3-9.5,9.5-9.5c5.3,0,9.5,4.3,9.5,9.5v349.1c0,5.3-4.3,9.5-9.5,9.5
					C265.2,2101,261,2096.7,261,2091.5z"/>
			</g>
			<g>
				<path class="st2" d="M261,1673.9v-83.5c0-5.3,4.3-9.5,9.5-9.5c5.3,0,9.5,4.3,9.5,9.5v83.5c0,5.3-4.3,9.5-9.5,9.5
					C265.2,1683.4,261,1679.2,261,1673.9z"/>
			</g>
			<g>
				<path class="st2" d="M261,367.8v-83.5c0-5.3,4.3-9.5,9.5-9.5c5.3,0,9.5,4.3,9.5,9.5v83.5c0,5.3-4.3,9.5-9.5,9.5
					C265.2,377.3,261,373,261,367.8z"/>
			</g>
			<g>
				<path class="st2" d="M261,191.5v-174c0-5.3,4.3-9.5,9.5-9.5c5.3,0,9.5,4.3,9.5,9.5v174c0,5.3-4.3,9.5-9.5,9.5
					C265.2,201,261,196.7,261,191.5z"/>
			</g>
			<g>
				<path class="st2" d="M261,766.8V443.2c0-5.3,4.3-9.5,9.5-9.5c5.3,0,9.5,4.3,9.5,9.5v323.6c0,5.3-4.3,9.5-9.5,9.5
					C265.2,776.3,261,772.1,261,766.8z"/>
			</g>
			<g>
				<path class="st2" d="M261,933.3V821.9c0-5.3,4.3-9.5,9.5-9.5c5.3,0,9.5,4.3,9.5,9.5v111.4c0,5.3-4.3,9.5-9.5,9.5
					C265.2,942.8,261,938.5,261,933.3z"/>
			</g>
			<g>
				<path class="st2" d="M261,1403.1V982c0-5.3,4.3-9.5,9.5-9.5c5.3,0,9.5,4.3,9.5,9.5v421.1c0,5.3-4.3,9.5-9.5,9.5
					C265.2,1412.6,261,1408.3,261,1403.1z"/>
			</g>
			<g>
				<path class="st2" d="M261,1541.7v-85.8c0-5.3,4.3-9.5,9.5-9.5c5.3,0,9.5,4.3,9.5,9.5v85.8c0,5.3-4.3,9.5-9.5,9.5
					C265.2,1551.2,261,1546.9,261,1541.7z"/>
			</g>
		</g>
		<g>
			<g>
				<path class="st2" d="M105.5,2091.5v-349.1c0-5.3,4.3-9.5,9.5-9.5s9.5,4.3,9.5,9.5v349.1c0,5.3-4.3,9.5-9.5,9.5
					S105.5,2096.7,105.5,2091.5z"/>
			</g>
			<g>
				<path class="st2" d="M105.5,1673.9v-83.5c0-5.3,4.3-9.5,9.5-9.5s9.5,4.3,9.5,9.5v83.5c0,5.3-4.3,9.5-9.5,9.5
					S105.5,1679.2,105.5,1673.9z"/>
			</g>
			<g>
				<path class="st2" d="M105.5,367.8v-83.5c0-5.3,4.3-9.5,9.5-9.5s9.5,4.3,9.5,9.5v83.5c0,5.3-4.3,9.5-9.5,9.5
					S105.5,373,105.5,367.8z"/>
			</g>
			<g>
				<path class="st2" d="M105.5,191.5v-174c0-5.3,4.3-9.5,9.5-9.5s9.5,4.3,9.5,9.5v174c0,5.3-4.3,9.5-9.5,9.5
					S105.5,196.7,105.5,191.5z"/>
			</g>
			<g>
				<path class="st2" d="M105.5,766.8V443.2c0-5.3,4.3-9.5,9.5-9.5s9.5,4.3,9.5,9.5v323.6c0,5.3-4.3,9.5-9.5,9.5
					S105.5,772.1,105.5,766.8z"/>
			</g>
			<g>
				<path class="st2" d="M105.5,933.3V821.9c0-5.3,4.3-9.5,9.5-9.5s9.5,4.3,9.5,9.5v111.4c0,5.3-4.3,9.5-9.5,9.5
					S105.5,938.5,105.5,933.3z"/>
			</g>
			<g>
				<path class="st2" d="M105.5,1403.1V982c0-5.3,4.3-9.5,9.5-9.5s9.5,4.3,9.5,9.5v421.1c0,5.3-4.3,9.5-9.5,9.5
					S105.5,1408.3,105.5,1403.1z"/>
			</g>
			<g>
				<path class="st2" d="M105.5,1541.7v-85.8c0-5.3,4.3-9.5,9.5-9.5s9.5,4.3,9.5,9.5v85.8c0,5.3-4.3,9.5-9.5,9.5
					S105.5,1546.9,105.5,1541.7z"/>
			</g>
		</g>
	</g>
	<g id="mirror_1_">
		<g id="mirror_x5F_exterior_1_">
			<path class="st3" d="M771,1375.9H230.1c-4,0-7.3-3.3-7.3-7.3V654.3c0-4,3.3-7.3,7.3-7.3H771c4,0,7.3,3.3,7.3,7.3v714.4
				C778.3,1372.6,775,1375.9,771,1375.9z"/>
			
				<rect x="150.3" y="748.1" transform="matrix(-1.836970e-16 1 -1 -1.836970e-16 1511.9624 510.9107)" class="st3" width="700.5" height="526.7"/>
		</g>
		<g id="mirror_x5F_interior_1_">
			<polygon class="st4" points="631.1,661.2 237.2,1050.1 237.2,1119.1 701,661.2 			"/>
			<polygon class="st4" points="454,661.2 237.2,661.2 237.2,875.3 			"/>
			<polygon class="st4" points="237.2,1196.4 237.2,1361.7 763.9,1361.7 763.9,676.3 			"/>
		</g>
		<g id="mirror_sparkles">
			<polygon id="sparkle_middle" class="st3" points="663.4,967.6 655.3,920.6 608.3,931.5 645.5,901.1 612.5,866.3 657.7,883 
				671.7,837.3 679.7,884.3 726.8,873.5 689.5,903.8 722.6,938.6 677.3,922 			"/>
			<polygon id="sparkle_bottom" class="st3" points="563.5,1020.8 558.4,991.1 528.7,998 552.2,978.8 531.4,956.9 559.9,967.4 
				568.7,938.6 573.8,968.3 603.4,961.4 580,980.6 600.8,1002.5 572.3,992 			"/>
			<polygon id="sparkle_top" class="st3" points="546.8,904.2 552,881.1 528.4,877.5 551.2,870.4 542.6,848.3 560.2,864.3 
				575.3,845.9 570.1,869 593.7,872.6 570.9,879.7 579.5,901.8 561.9,885.8 			"/>
		</g>
	</g>
	<g id="sink">
		<g id="faucet_1_">
			<path class="st3" d="M581.9,1325.1H568c-5.1,0-9.3,4.1-9.3,9.1v4.6h-75.8c-5.1,0-9.3,4.1-9.3,9.1v13.7c0,5,4.2,9.1,9.3,9.1h75.8
				v106.3c0,5,4.2,9.1,9.3,9.1h13.9c5.1,0,9.3-4.1,9.3-9.1v-142.7C591.1,1329.2,587,1325.1,581.9,1325.1z"/>
			<path class="st3" d="M673.6,1429.1H621c-5.1,0-9,4.1-9,9.1v2.3c0,5,3.9,9.1,9,9.1h5.8c-0.5,1.2-0.9,2.4-0.9,3.8v23.7
				c0,5,4.2,8.9,9.3,8.9h24.2c5.1,0,9.1-3.9,9.1-8.9v-23.7c0-1.4-0.1-2.6-0.7-3.8h5.8c5.1,0,9.6-4.1,9.6-9.1v-2.3
				C683.2,1433.2,678.7,1429.1,673.6,1429.1z"/>
			<path class="st3" d="M526.7,1429.1h-52.6c-5.1,0-9,4.1-9,9.1v2.3c0,5,3.9,9.1,9,9.1h5.8c-0.5,1.2-0.9,2.4-0.9,3.8v23.7
				c0,5,4.2,8.9,9.3,8.9h24.2c5.1,0,9.1-3.9,9.1-8.9v-23.7c0-1.4-0.1-2.6-0.7-3.8h5.8c5.1,0,9.6-4.1,9.6-9.1v-2.3
				C536.3,1433.2,531.8,1429.1,526.7,1429.1z"/>
		</g>
		<g id="sink_x5F_base_1_">
			<path class="st3" d="M344.5,1538.4v10.4c0,80.4,66.9,146,148.8,146h40.7v412.2c0,5,3.8,9.1,8.9,9.1h62.5c5.1,0,8.9-4.1,8.9-9.1
				v-412.2h40.5c81.9,0,148.9-65.6,148.9-146v-10.4H344.5z"/>
			<path class="st4" d="M582.6,1538.4H344.5v10.4c0,80.4,66.9,146,148.8,146L582.6,1538.4z"/>
			<path class="st4" d="M614.3,1692.7v24.4c0,0.3-4.2,0.5-9.2,0.5h-62.3c-5.1,0-9.2-0.2-9.2-0.5v-24.4"/>
			<path class="st3" d="M820.3,1548.2H325.2c-5.1,0-9.3-4.2-9.3-9.3v-27c0-5.1,4.2-9.3,9.3-9.3h495.1c5.1,0,9.3,4.2,9.3,9.3v27
				C829.5,1544.1,825.4,1548.2,820.3,1548.2z"/>
		</g>
	</g>
	<g id="bubbles_1_">
		<path id="b9" class="st3" d="M377.9,1395.8c-12.1-11.9-31.7-11.9-43.8,0c-12.1,11.9-12.1,31.3,0,43.3
			c12.1,11.9,31.7,11.9,43.8,0C390,1427.1,390,1407.8,377.9,1395.8z"/>
		<ellipse id="b10" class="st5" cx="433.9" cy="1386.1" rx="27.4" ry="27"/>
		<ellipse id="b3" class="st5" cx="371.9" cy="1292" rx="27.4" ry="27"/>
		<ellipse id="b7" class="st3" cx="308.3" cy="1362.9" rx="27.4" ry="27"/>
		<ellipse id="b4" class="st3" cx="428.5" cy="1266.8" rx="13.7" ry="13.5"/>
		<ellipse id="b2" class="st5" cx="298.7" cy="1286.7" rx="17.3" ry="17"/>
		<ellipse id="b1" class="st3" cx="331.5" cy="1234.4" rx="10.7" ry="10.6"/>
		<ellipse id="b8" class="st3" cx="305.3" cy="1421.4" rx="9.5" ry="9.4"/>
		<ellipse id="b6" class="st3" cx="379.7" cy="1354.9" rx="13.7" ry="13.5"/>
		<ellipse id="b5" class="st5" cx="423.2" cy="1328.5" rx="16.7" ry="16.5"/>
		<ellipse id="b11" class="st3" cx="413" cy="1458.4" rx="8.9" ry="8.8"/>
	</g>
	<g id="bottom_x5F_shelf">
		<g id="soap_1_">
			<path class="st4" d="M983.7,1359h-24.2c1.7-1.7,2.7-4.1,2.7-6.7c0-5.3-4.4-9.7-9.8-9.7c-5.4,0-9.8,4.3-9.8,9.7c0,2.6,1,5,2.7,6.7
				h-24.2c-2.8,0-5,2.2-5,5v16.4c0,2.8,2.1,5,5,5h62.6c2.8,0,5.3-2.3,5.3-5v-16.4C989,1361.3,986.6,1359,983.7,1359z"/>
		</g>
		<g id="small_x5F_bottle_1_">
			<path class="st4" d="M1185.4,1329.9h-69c-2.8,0-5.1,2.3-5.1,5v2.5c0,2.8,2.3,5,5.1,5h2.2c-0.3,0.6-0.5,1.4-0.5,2.1v33.6
				c0,2.8,2.3,5,5.1,5h55.3c2.8,0,5.1-2.3,5.1-5v-33.6c0-0.8-0.2-1.5-0.5-2.1h2.2c2.8,0,5.1-2.3,5.1-5v-2.5
				C1190.5,1332.1,1188.2,1329.9,1185.4,1329.9z"/>
			<path class="st3" d="M1164.6,1373.2h-27.5c-2.8,0-5.1-2.3-5.1-5.1v-17.2c0-2.8,2.3-5.1,5.1-5.1h27.5c2.8,0,5.1,2.3,5.1,5.1v17.2
				C1169.7,1370.9,1167.4,1373.2,1164.6,1373.2z"/>
		</g>
		<g id="bottle_4_">
			<path id="bottle_3_" class="st3" d="M1063.9,1273.2h-10.6v-10.4c0-2.8-2.3-5-5.1-5h-12.8c-2.8,0-5.1,2.3-5.1,5v10.4h-10.6
				c-2.8,0-5.1,2.3-5.1,5v99.8c0,2.8,2.3,5,5.1,5h44.3c2.8,0,5.1-2.3,5.1-5v-99.8C1069,1275.4,1066.7,1273.2,1063.9,1273.2z"/>
			<rect id="label_1_" x="1014.5" y="1310.1" class="st4" width="54.5" height="46.3"/>
		</g>
        <g id="top_x5F_shelf">
		<path id="plant_x5F_shelf_1_" class="st3" d="M1006.2,1161.7H811c-2.8,0-5.1-2.3-5.1-5.1v-19.2c0-2.8,2.3-5.1,5.1-5.1h195.1
			c2.8,0,5.1,2.3,5.1,5.1v19.2C1011.3,1159.4,1009,1161.7,1006.2,1161.7z"/>
		<g id="plant_1_">
			<path id="plant_x5F_box_1_" class="st4" d="M848.6,1054.8l20.4,74.6c0.4,1.5,2.5,2.7,5,2.7h34.6h34.5c2.5,0,4.6-1.1,5-2.7
				l20.4-74.6c0.5-2-1.9-3.8-5-3.8H853.7C850.5,1051,848.1,1052.8,848.6,1054.8z"/>
			<g id="left_x5F_leaf_1_">
				<path class="st3" d="M891.5,1030.5c-5.8,7.4-22.5,4.1-37.3-7.5c-14.8-11.6-22-27-16.1-34.5L891.5,1030.5z"/>
				<path class="st3" d="M839.4,986.8c5.8-7.4,22.5-4.1,37.3,7.5c14.8,11.6,22,27,16.1,34.5L839.4,986.8z"/>
			</g>
			<g id="right_x5F_leaf_1_">
				<path class="st3" d="M933.6,1034.7c-7.4-5.8-4.1-22.5,7.5-37.3c11.6-14.8,27-22,34.5-16.1L933.6,1034.7z"/>
				<path class="st3" d="M977.3,982.6c7.4,5.8,4.1,22.5-7.5,37.3c-11.6,14.8-27,22-34.5,16.1L977.3,982.6z"/>
			</g>
			<g id="middle_x5F_leaf_1_">
				<path class="st3" d="M907.8,999.3c-9.4-1-15.4-17-13.3-35.7c2.1-18.7,11.3-32.9,20.7-31.9L907.8,999.3z"/>
				<path class="st3" d="M917.4,932c9.4,1,15.4,17,13.3,35.7c-2.1,18.7-11.3,32.9-20.7,31.9L917.4,932z"/>
			</g>
			<path id="stem_1_" class="st6" d="M934.9,1035l-26,16l-17-22l17,22c20-20,0-52,0-52"/>
		</g>
	</g>
		<g id="brushteeth_1_">
			<g id="toothbrush">
				<path class="st3" d="M862.4,1221.2c-4.9,24.2,13.7,35.9-12.3,62.2c-0.9,0.9-2.5,0-2.1-1.3c11.9-33.5-11.4-52.2,12.7-62.4
					C861.7,1219.5,862.6,1220.3,862.4,1221.2z"/>
				<path class="st3" d="M854.5,1278.8l17.9,2.6l8-54.4l-18.3-2.7c-0.4,3.1-0.5,5.9-0.3,8.6l0,0c0.1,1.9,0.3,3.8,0.6,5.6l0,0
					c0.3,1.9,0.6,3.8,0.9,5.7l0,0c0.3,1.9,0.6,3.8,0.8,5.7l0,0c0.2,1.9,0.3,3.7,0.3,5.6l0,0c-0.1,1.8-0.2,3.6-0.6,5.5l0,0
					c-0.4,1.7-0.9,3.5-1.6,5.3l0,0c-0.7,1.7-1.5,3.4-2.6,5.2l0,0C858.2,1273.9,856.5,1276.3,854.5,1278.8z"/>
				<path class="st3" d="M880.2,1227.1l-8,54.4l-13.6,92.7c-0.4,2.4,1.3,4.6,3.6,4.9l1.4,0.2c2.4,0.4,4.6-1.3,4.9-3.6l13.6-92.7
					l7.4-50.2c0.4-2.4-1.3-4.6-3.6-4.9L880.2,1227.1z"/>
			</g>
			<path id="bottle_5_" class="st3" d="M896.7,1313.2l-11.7,67.1c-0.2,1.4-1.5,2.4-2.9,2.4h-19.9h-19.8c-1.4,0-2.6-1-2.9-2.4
				l-11.7-67.1c-0.3-1.8,1.1-3.4,2.9-3.4h63.2C895.7,1309.9,897,1311.5,896.7,1313.2z"/>
		</g>
		<path id="bottle_x5F_shelf_1_" class="st3" d="M1195.1,1413.7H811c-2.8,0-5.1-2.3-5.1-5.1v-19.2c0-2.8,2.3-5.1,5.1-5.1h384
			c2.8,0,5.1,2.3,5.1,5.1v19.2C1200.2,1411.4,1197.9,1413.7,1195.1,1413.7z"/>
	</g>
	<path id="trashcan_2_" class="st4" d="M715.2,1933.8l31,177.3c0.6,3.7,3.9,6.3,7.6,6.3h52.6h52.4c3.8,0,7-2.7,7.6-6.3l31-177.3
		c0.8-4.7-2.8-8.9-7.6-8.9H722.8C718,1924.9,714.4,1929.1,715.2,1933.8z"/>
</g>
</svg>
