<?xml version="1.0" encoding="utf-8"?>
<!-- Generator: Adobe Illustrator 21.0.2, SVG Export Plug-In . SVG Version: 6.00 Build 0)  -->
<svg version="1.1" xmlns="http://www.w3.org/2000/svg" xmlns:xlink="http://www.w3.org/1999/xlink" x="0px" y="0px"
	 viewBox="0 0 388.2 357" style="enable-background:new 0 0 388.2 357;" xml:space="preserve">
<style type="text/css">
	.st0{fill:#FFFFE5;stroke:#CE7824;stroke-miterlimit:10;}
	.st1{fill:#FFFFE5;stroke:#14275E;stroke-miterlimit:10;}
	.st2{fill:#CE7824;}
	.st3{fill:none;stroke:#14275E;stroke-width:0.9;stroke-miterlimit:10;}
	.st4{fill:#FFA639;stroke:#14275E;stroke-miterlimit:10;}
	.st5{fill:#FFAF3B;stroke:#14275E;stroke-miterlimit:10;}
	.st6{fill:#FFA639;stroke:#FF9C32;stroke-miterlimit:10;}
	.st7{fill:#FFAF3B;stroke:#FF9C32;stroke-miterlimit:10;}
	.st8{fill:none;stroke:#FF9C32;stroke-width:0.9;stroke-miterlimit:10;}
</style>
<g id="Layer_2">
</g>
<g id="Normal_1_">
</g>
<g id="Selected_1_">
	<g id="Selected">
		<path class="st6" d="M304.6,71.1c27.5,27.5,44.6,65.5,44.6,107.4c0,83.7-68.2,151.9-151.9,151.9c-39.7,0-75.9-15.3-102.9-40.3"/>
		<path class="st7" d="M94.4,289.9c-30.1-27.8-48.9-67.5-48.9-111.5c0-83.7,68.2-151.9,151.9-151.9c41.8,0,79.8,17,107.3,44.5"/>
		<circle class="st8" cx="196.7" cy="178.4" r="171"/>
	</g>
	<g>
		<g id="Spoon">
			<path class="st0" d="M266.9,139.2v7.3c0,9.5-6.7,17.6-15.7,19.6v63.7h-10v-64c-8.4-2.4-14.7-10.2-14.7-19.4v-7.3
				c0-11.1,9.1-20.2,20.2-20.2h0C257.9,119,266.9,128.1,266.9,139.2z M231.6,141.8v3.7c0,6,3.3,11.2,8.1,14 M231.6,141.8v3.7
				c0,6,3.3,11.2,8.1,14"/>
		</g>
		<path class="st0" d="M232,185.1c1.3,42.8-23.6,53-52.8,52.8c-29.1-0.3-53.3-3.9-52.7-52.8C126.5,185.1,173.2,198.7,232,185.1z
			 M232,185.1 M126.6,184.8c-0.1-0.1,47.2-13,105.2,0c0.4,0.1-0.9,0.6-1.3,0.7C174.6,198.4,126.8,184.8,126.6,184.8z"/>
		<path class="st0" d="M179.5,232.5c-20.6-0.2-38.5-2.2-45.2-24.1 M172.8,186.6c0-0.9-2-1.7-4.6-1.7c-2.5,0-4.6,0.7-4.6,1.7
			 M185.2,184.9c0-0.9-2-1.7-4.6-1.7s-4.6,0.7-4.6,1.7 M197.6,186.6c0-0.9-2-1.7-4.6-1.7s-4.6,0.7-4.6,1.7"/>
	</g>
</g>
</svg>
