<?xml version="1.0" encoding="utf-8"?>
<!-- Generator: Adobe Illustrator 21.0.2, SVG Export Plug-In . SVG Version: 6.00 Build 0)  -->
<svg version="1.1" xmlns="http://www.w3.org/2000/svg" xmlns:xlink="http://www.w3.org/1999/xlink" x="0px" y="0px"
	 viewBox="0 0 388.2 357" style="enable-background:new 0 0 388.2 357;" xml:space="preserve">
<style type="text/css">
	.st0{fill:#FFFFE5;stroke:#CE7824;stroke-miterlimit:10;}
	.st1{fill:#FFFFE5;stroke:#14275E;stroke-miterlimit:10;}
	.st2{fill:none;stroke:#14275E;stroke-width:0.9;stroke-miterlimit:10;}
	.st3{fill:#FFA639;stroke:#14275E;stroke-miterlimit:10;}
	.st4{fill:#FFAF3B;stroke:#14275E;stroke-miterlimit:10;}
	.st5{fill:#FFA639;stroke:#FF9C32;stroke-miterlimit:10;}
	.st6{fill:#FFAF3B;stroke:#FF9C32;stroke-miterlimit:10;}
	.st7{fill:none;stroke:#FF9C32;stroke-width:0.9;stroke-miterlimit:10;}
</style>
<g id="Layer_2">
</g>
<g id="Normal_1_">
</g>
<g id="Selected_1_">
	<g id="Selected">
		<path class="st5" d="M304.6,71.1c27.5,27.5,44.6,65.5,44.6,107.4c0,83.7-68.2,151.9-151.9,151.9c-39.7,0-75.9-15.3-102.9-40.3"/>
		<path class="st6" d="M94.4,289.9c-30.1-27.8-48.9-67.5-48.9-111.5c0-83.7,68.2-151.9,151.9-151.9c41.8,0,79.8,17,107.3,44.5"/>
		<circle class="st7" cx="196.7" cy="178.4" r="171"/>
	</g>
	<g id="BrushTeeth_1_">
		<path class="st0" d="M199.2,259h-37.7l1.5-131.6h35.1L199.2,259z M161.3,252.6h38 M165,252.6v5.9 M169.4,252.6v5.9 M173.8,252.6
			v5.9 M178.2,252.6v5.9 M182.6,252.6v5.9 M186.9,252.6v5.9 M191.3,252.6v5.9 M195.7,252.6v5.9 M192.4,109.6h-22.2l-7.1,17.6h35.1
			L192.4,109.6z M169.9,109.6h22.5V98.4h-22.5V109.6z M189.1,183l-1.4-38.7h-14.4l-1.8,38.7l9,14.3L189.1,183z M189.1,183l-1.5-38.5
			l-14.3-0.1l-1.8,38.7l9,14.3L189.1,183z"/>
		<path class="st0" d="M222,98.2c29,10.4,0,30.6,17,68.5C206,136.6,228.9,125.2,222,98.2z M231.4,132.6 M225.3,150.7l-5.5,0.8
			L225.3,150.7c-1.1-1.8-1.9-3.5-2.6-5.2l-3.8,0.6l3.8-0.6c-0.7-1.8-1.2-3.6-1.6-5.3l-3,0.4l3-0.4c-0.4-1.9-0.5-3.7-0.6-5.5
			l-3.2,0.5l3.2-0.5c0-1.9,0.1-3.7,0.3-5.6l-4.3,0.6l4.3-0.6c0.2-1.9,0.5-3.8,0.8-5.7l-6,0.9l6-0.9c0.3-1.9,0.6-3.8,0.9-5.7
			l-7.7,1.1l7.7-1.1c0.3-1.8,0.5-3.7,0.6-5.6l-9.1,1.3l9.1-1.3c0.2-2.7,0.1-5.5-0.3-8.6l-18.3,2.7l8,54.4l17.9-2.6
			C228.4,155.5,226.7,153.1,225.3,150.7z M199,107.1c-2.3,0.3-4,2.5-3.6,4.9l7.4,50.2l13.6,92.7c0.3,2.3,2.5,4,4.9,3.6l1.4-0.2
			c2.3-0.3,4-2.5,3.6-4.9l-13.6-92.7l-8-54.4L199,107.1z"/>
	</g>
</g>
</svg>
