<?xml version="1.0" encoding="utf-8"?>
<!-- Generator: Adobe Illustrator 21.0.2, SVG Export Plug-In . SVG Version: 6.00 Build 0)  -->
<svg version="1.1" xmlns="http://www.w3.org/2000/svg" xmlns:xlink="http://www.w3.org/1999/xlink" x="0px" y="0px"
	 viewBox="0 0 456 480" style="enable-background:new 0 0 456 480;" xml:space="preserve">
<style type="text/css">
	.st0{fill:#FFFFE8;}
	.st1{fill:#FFF1A5;}
	.st2{fill:#8E8E8E;}
	.st3{fill:#73E5E5;}
	.st4{fill:#FFFFFF;}
	.st5{fill:#FF9C32;}
	.st6{fill:#4C4C4C;}
	.st7{fill:#FFDB58;}
	.st8{fill:#14275E;}
	.st9{fill:#008DBF;}
	.st10{fill:none;stroke:#14275E;stroke-width:5.8676;stroke-miterlimit:10;}
	.st11{fill:#142C69;}
	.st12{fill:#FFA639;stroke:#FF9C32;stroke-miterlimit:10;}
	.st13{fill:#FFAF3B;stroke:#FF9C32;stroke-miterlimit:10;}
	.st14{fill:none;stroke:#FF9C32;stroke-width:0.9;stroke-miterlimit:10;}
	.st15{fill:#FFFFE5;stroke:#CE7824;stroke-miterlimit:10;}
	.st16{fill:#FFAF3B;stroke:#FF9C32;stroke-width:1.5044;stroke-miterlimit:10;}
	.st17{fill:#FFA639;stroke:#FF9C32;stroke-width:1.4402;stroke-miterlimit:10;}
	.st18{fill:#FFAF3B;stroke:#FF9C32;stroke-width:1.4402;stroke-miterlimit:10;}
	.st19{fill:none;stroke:#FF9C32;stroke-width:1.2962;stroke-miterlimit:10;}
	.st20{fill:#FFFFE5;stroke:#CE7824;stroke-width:1.4402;stroke-miterlimit:10;}
	.st21{fill:#FFAF3B;stroke:#FF9C32;stroke-width:1.4966;stroke-miterlimit:10;}
	.st22{fill:#FFA639;stroke:#FF9C32;stroke-width:1.4966;stroke-miterlimit:10;}
	.st23{fill:none;stroke:#FF9C32;stroke-width:1.347;stroke-miterlimit:10;}
	.st24{fill:#FFFFE5;stroke:#CE7824;stroke-width:1.4966;stroke-miterlimit:10;}
	.st25{fill:#CE7824;}
	.st26{fill:none;stroke:#CE7824;stroke-width:1.4966;stroke-miterlimit:10;}
	.st27{fill:none;stroke:#FF9C32;stroke-width:0.6523;stroke-miterlimit:10;}
	.st28{fill:#FFAF3B;stroke:#FF9C32;stroke-width:0.7248;stroke-miterlimit:10;}
	.st29{fill:#FFA639;stroke:#FF9C32;stroke-width:0.7248;stroke-miterlimit:10;}
	.st30{fill:none;stroke:#FF9C32;stroke-width:0.7203;stroke-miterlimit:10;}
	.st31{fill:#FFAF3B;stroke:#FF9C32;stroke-width:0.8004;stroke-miterlimit:10;}
	.st32{fill:#FFA639;stroke:#FF9C32;stroke-width:0.8004;stroke-miterlimit:10;}
</style>
<g id="tablet_x5F_teeth">
</g>
<g id="mobile_x5F_teeth">
</g>
<g id="challenge_x5F_popups">
</g>
<g id="mobile_x5F_challenges">
</g>
<g id="tablet_x5F_challenges">
	<g id="challenge_x5F_icon">
		<g id="challenge_x5F_container">
			<polygon class="st30" points="420,361.1 420,139.4 228,28.6 36,139.4 36,361.1 228,472 			"/>
			<polygon class="st31" points="403.5,351.6 403.5,148.9 228,47.6 52.5,148.9 52.5,351.6 228,452.9 			"/>
			<polygon class="st32" points="52.5,351.5 228.1,452.8 403.6,351.5 403.6,148.8 			"/>
		</g>
		<path id="star" class="st7" d="M230.5,194.3l16.5,33.3c0.4,0.8,1.2,1.4,2.1,1.5l36.8,5.3c2.3,0.3,3.2,3.2,1.6,4.8l-26.6,26
			c-0.7,0.6-1,1.6-0.8,2.5l6.3,36.7c0.4,2.3-2,4.1-4.1,3l-32.9-17.3c-0.8-0.4-1.8-0.4-2.6,0l-32.9,17.3c-2.1,1.1-4.5-0.7-4.1-3
			l6.3-36.7c0.2-0.9-0.1-1.9-0.8-2.5l-26.6-26c-1.7-1.6-0.8-4.5,1.6-4.8l36.8-5.3c0.9-0.1,1.7-0.7,2.1-1.5l16.5-33.3
			C226.5,192.2,229.5,192.2,230.5,194.3z"/>
	</g>
</g>
</svg>
