<?xml version="1.0" encoding="utf-8"?>
<!-- Generator: Adobe Illustrator 21.1.0, SVG Export Plug-In . SVG Version: 6.00 Build 0)  -->
<svg version="1.1" id="Layer_1" xmlns="http://www.w3.org/2000/svg" xmlns:xlink="http://www.w3.org/1999/xlink" x="0px" y="0px"
	 viewBox="0 0 393 455" style="enable-background:new 0 0 393 455;" xml:space="preserve">
<style type="text/css">
	.st0{fill:#FFAF3B;stroke:#FF9C32;stroke-width:0.5;stroke-miterlimit:10;}
	.st1{fill:#FFA639;stroke:#FF9C32;stroke-width:0.5;stroke-miterlimit:10;}
	.st2{fill:#FFDB58;}
	.st3{fill:none;stroke:#FF9C32;stroke-width:2;stroke-miterlimit:10;}
</style>
<g id="tablet_x5F_challenges">
	<g id="challenge_x5F_icon">
		<g id="challenge_x5F_container">
			<polygon class="st0" points="372.5,329 372.5,126.3 197,25 21.5,126.3 21.5,329 197,430.3 			"/>
			<polygon class="st1" points="21.5,328.9 197.1,430.2 372.6,328.9 372.6,126.2 			"/>
		</g>
		<path id="star" class="st2" d="M199.5,171.7L216,205c0.4,0.8,1.2,1.4,2.1,1.5l36.8,5.3c2.3,0.3,3.2,3.2,1.6,4.8l-26.6,26
			c-0.7,0.6-1,1.6-0.8,2.5l6.3,36.7c0.4,2.3-2,4.1-4.1,3l-32.9-17.3c-0.8-0.4-1.8-0.4-2.6,0l-32.9,17.3c-2.1,1.1-4.5-0.7-4.1-3
			l6.3-36.7c0.2-0.9-0.1-1.9-0.8-2.5l-26.6-26c-1.7-1.6-0.8-4.5,1.6-4.8l36.8-5.3c0.9-0.1,1.7-0.7,2.1-1.5l16.5-33.3
			C195.5,169.6,198.5,169.6,199.5,171.7z"/>
	</g>
</g>
<polygon class="st3" points="389,338.5 389,116.8 197,6 5,116.8 5,338.5 197,449.4 "/>
</svg>
