<?xml version="1.0" encoding="utf-8"?>
<!-- Generator: Adobe Illustrator 21.0.2, SVG Export Plug-In . SVG Version: 6.00 Build 0)  -->
<svg version="1.1" xmlns="http://www.w3.org/2000/svg" xmlns:xlink="http://www.w3.org/1999/xlink" x="0px" y="0px"
	 viewBox="0 0 388.2 357" style="enable-background:new 0 0 388.2 357;" xml:space="preserve">
<style type="text/css">
	.st0{fill:#FFFFE5;stroke:#CE7824;stroke-miterlimit:10;}
	.st1{fill:#FFFFE5;stroke:#14275E;stroke-miterlimit:10;}
	.st2{fill:none;stroke:#14275E;stroke-width:0.9;stroke-miterlimit:10;}
	.st3{fill:#FFA639;stroke:#14275E;stroke-miterlimit:10;}
	.st4{fill:#FFAF3B;stroke:#14275E;stroke-miterlimit:10;}
	.st5{fill:#FFA639;stroke:#FF9C32;stroke-miterlimit:10;}
	.st6{fill:#FFAF3B;stroke:#FF9C32;stroke-miterlimit:10;}
	.st7{fill:none;stroke:#FF9C32;stroke-width:0.9;stroke-miterlimit:10;}
</style>
<g id="Layer_2">
</g>
<g id="Normal_1_">
</g>
<g id="Selected_1_">
	<g id="Selected">
		<path class="st5" d="M304.6,71.1c27.5,27.5,44.6,65.5,44.6,107.4c0,83.7-68.2,151.9-151.9,151.9c-39.7,0-75.9-15.3-102.9-40.3"/>
		<path class="st6" d="M94.4,289.9c-30.1-27.8-48.9-67.5-48.9-111.5c0-83.7,68.2-151.9,151.9-151.9c41.8,0,79.8,17,107.3,44.5"/>
		<circle class="st7" cx="196.7" cy="178.4" r="171"/>
	</g>
	<g id="Clothing">
		<path class="st0" d="M158.8,120.8l11.3-0.8c1.9,5.8,8.6,9.9,16.3,9.3c7.6-0.5,13.7-5.5,14.8-11.5l11.3-0.8l0.9-0.1
			c20-2.2,27.3,42.2,27.3,42.2l-13.2,7.8l-9-12.3l4.6,64.2l-58.4,4.2l-1.4,0.1l-4.6-64.2l-7.2,13.5l-14.2-5.9c0,0,1-45,21-45.6
			l0.9-0.1l11.3-0.8"/>
		<path class="st0" d="M200.7,177.7l1.5-10.2l53.7,7.9l-1.5,10.2 M254.5,186l-53.7-7.9l-17.6,51.2c0,0,34,11.1,72.9,10.8L254.5,186z
			 M218.5,180.1l-6.1,17.2 M236.8,182.8l0.8,18.2 M225.9,192.6 M227.6,181.4"/>
	</g>
</g>
</svg>
