<?xml version="1.0" encoding="utf-8"?>
<!-- Generator: Adobe Illustrator 21.0.2, SVG Export Plug-In . SVG Version: 6.00 Build 0)  -->
<svg version="1.1" xmlns="http://www.w3.org/2000/svg" xmlns:xlink="http://www.w3.org/1999/xlink" x="0px" y="0px"
	 viewBox="0 0 388.2 357" style="enable-background:new 0 0 388.2 357;" xml:space="preserve">
<style type="text/css">
	.st0{fill:#FFFFE5;stroke:#CE7824;stroke-miterlimit:10;}
	.st1{fill:#FFFFE5;stroke:#14275E;stroke-miterlimit:10;}
	.st2{fill:#CE7824;}
	.st3{fill:none;stroke:#14275E;stroke-width:0.9;stroke-miterlimit:10;}
	.st4{fill:#FFA639;stroke:#14275E;stroke-miterlimit:10;}
	.st5{fill:#FFAF3B;stroke:#14275E;stroke-miterlimit:10;}
	.st6{fill:none;stroke:#14275E;stroke-miterlimit:10;}
	.st7{fill:#FFA639;stroke:#FF9C32;stroke-miterlimit:10;}
	.st8{fill:#FFAF3B;stroke:#FF9C32;stroke-miterlimit:10;}
	.st9{fill:none;stroke:#FF9C32;stroke-width:0.9;stroke-miterlimit:10;}
	.st10{fill:none;stroke:#CE7824;stroke-miterlimit:10;}
</style>
<g id="Layer_2">
</g>
<g id="Normal_1_">
</g>
<g id="Selected_1_">
	<g id="Selected">
		<path class="st7" d="M304.6,71.1c27.5,27.5,44.6,65.5,44.6,107.4c0,83.7-68.2,151.9-151.9,151.9c-39.7,0-75.9-15.3-102.9-40.3"/>
		<path class="st8" d="M94.4,289.9c-30.1-27.8-48.9-67.5-48.9-111.5c0-83.7,68.2-151.9,151.9-151.9c41.8,0,79.8,17,107.3,44.5"/>
		<circle class="st9" cx="196.7" cy="178.4" r="171"/>
	</g>
	<g id="Coffee">
		<path class="st0" d="M252,169c0,27.3-24.1,74.2-53.9,74.2s-53.9-46.9-53.9-74.2H252z M251.6,188.9h-2.8c-0.6,2-1.2,4-2,6h4.8
			c3,0,5.5,2.5,5.5,5.5c0,3-2.5,5.5-5.5,5.5h-9.5c-1,2-2.1,4-3.2,6h12.7c6.3,0,11.5-5.2,11.5-11.5S257.9,188.9,251.6,188.9z"/>
		<path class="st10" d="M177.3,220c-10.2-9.6-18.3-24-23.1-38.2"/>
		<path class="st10" d="M177.5,97.7c0-0.4-18,15.1-9.7,24c10.9,11.8,26.5,9.3,10.6,20.5c-4.8,3.4-2.2,11.2,3.3,13.1l4.8,1.7"/>
		<path class="st10" d="M216.1,100.5c-9.6,3.7-21.1,10.5-6.1,17.6c14.5,6.9,12.9,19.7,4.9,22.5c-12.3,4.3,3.9,16.4,3.9,16.4"/>
		<path class="st10" d="M199.6,103c0-0.3-23.1,15.1-7.9,20.2c9.7,3.3,10.8,9.3,5.1,18.3c-2.2,3.5-2.3,9.6,1.1,11.5l2.9,1.7"/>
		<line class="st10" x1="129.9" y1="243.2" x2="263.1" y2="243.2"/>
	</g>
</g>
</svg>
