<?xml version="1.0" encoding="utf-8"?>
<!-- Generator: Adobe Illustrator 21.0.2, SVG Export Plug-In . SVG Version: 6.00 Build 0)  -->
<svg version="1.1" id="Layer_1" xmlns="http://www.w3.org/2000/svg" xmlns:xlink="http://www.w3.org/1999/xlink" x="0px" y="0px"
	 viewBox="0 0 388.2 357" style="enable-background:new 0 0 388.2 357;" xml:space="preserve">
<style type="text/css">
	.st0{fill:#FFA639;stroke:#FF9C32;stroke-miterlimit:10;}
	.st1{fill:#FFAF3B;stroke:#FF9C32;stroke-miterlimit:10;}
	.st2{fill:none;stroke:#FF9C32;stroke-width:0.9;stroke-miterlimit:10;}
	.st3{fill:#FFFFE5;stroke:#CE7824;stroke-width:1.4785;stroke-miterlimit:10;}
</style>
<g id="Layer_2">
</g>
<g id="Normal_1_">
</g>
<g id="Selected">
	<path class="st0" d="M302,71.2c27.5,27.5,44.6,65.5,44.6,107.4c0,83.7-68.2,151.9-151.9,151.9c-39.7,0-75.9-15.3-102.9-40.3"/>
	<path class="st1" d="M91.8,290c-30.1-27.8-48.9-67.5-48.9-111.5c0-83.7,68.2-151.9,151.9-151.9c41.8,0,79.8,17,107.3,44.5"/>
	<circle class="st2" cx="194.1" cy="178.5" r="171"/>
</g>
<path class="st3" d="M196.7,106.8l16.4,50.3c0.4,1.1,1.4,1.9,2.6,1.9l52.9,0c2.7,0,3.8,3.4,1.6,5l-42.8,31.1c-1,0.7-1.4,2-1,3.1
	l16.3,50.3c0.8,2.6-2.1,4.7-4.3,3.1l-42.8-31.1c-1-0.7-2.3-0.7-3.3,0l-42.8,31.1c-2.2,1.6-5.1-0.5-4.3-3.1l16.3-50.3
	c0.4-1.1,0-2.4-1-3.1L117.9,164c-2.2-1.6-1.1-5,1.6-5l52.9,0c1.2,0,2.3-0.8,2.6-1.9l16.4-50.3C192.3,104.2,195.9,104.2,196.7,106.8z
	"/>
</svg>
