<?xml version="1.0" encoding="utf-8"?>
<!-- Generator: Adobe Illustrator 21.0.2, SVG Export Plug-In . SVG Version: 6.00 Build 0)  -->
<svg version="1.1" xmlns="http://www.w3.org/2000/svg" xmlns:xlink="http://www.w3.org/1999/xlink" x="0px" y="0px"
	 viewBox="0 0 388.2 357" style="enable-background:new 0 0 388.2 357;" xml:space="preserve">
<style type="text/css">
	.st0{fill:#FFFFE5;stroke:#CE7824;stroke-miterlimit:10;}
	.st1{fill:#FFFFE5;stroke:#14275E;stroke-miterlimit:10;}
	.st2{fill:#CE7824;}
	.st3{fill:none;stroke:#14275E;stroke-width:0.9;stroke-miterlimit:10;}
	.st4{fill:#FFA639;stroke:#14275E;stroke-miterlimit:10;}
	.st5{fill:#FFAF3B;stroke:#14275E;stroke-miterlimit:10;}
	.st6{fill:#FFA639;stroke:#FF9C32;stroke-miterlimit:10;}
	.st7{fill:#FFAF3B;stroke:#FF9C32;stroke-miterlimit:10;}
	.st8{fill:none;stroke:#FF9C32;stroke-width:0.9;stroke-miterlimit:10;}
</style>
<g id="Layer_2">
</g>
<g id="Normal_1_">
</g>
<g id="Selected_1_">
	<g id="Selected">
		<path class="st6" d="M304.6,71.1c27.5,27.5,44.6,65.5,44.6,107.4c0,83.7-68.2,151.9-151.9,151.9c-39.7,0-75.9-15.3-102.9-40.3"/>
		<path class="st7" d="M94.4,289.9c-30.1-27.8-48.9-67.5-48.9-111.5c0-83.7,68.2-151.9,151.9-151.9c41.8,0,79.8,17,107.3,44.5"/>
		<circle class="st8" cx="196.7" cy="178.4" r="171"/>
	</g>
	<g id="Lunch_1_">
		<g>
			<path class="st0" d="M191.9,139.3h-38.3c-2.5,0-4.6,2.1-4.6,4.6V167c0,2.5,2.1,4.6,4.6,4.6h38.4c2.5,0,4.6-2.1,4.6-4.6v-23.2
				C196.3,141.2,194.4,139.3,191.9,139.3z M188.9,164h-32.3v-17.1h32.3V164z"/>
			<path class="st0" d="M223.1,215.3c0,11.5-9.4,20.9-20.9,20.9h-60.8c-11.6,0-20.9-9.5-20.9-20.9v-36.1c0-11.5,9.4-20.9,20.9-20.9
				h60.8c11.5,0,20.9,9.4,20.9,20.9V215.3z"/>
			<path class="st0" d="M133.8,217.2v-41.8c0-3.1,2.6-5.7,5.7-5.7H206c3,0,5.7,2.4,5.7,5.6v42c0,3.2-2.6,5.6-5.7,5.6h-66.5
				C136.3,222.9,133.8,220.3,133.8,217.2z"/>
		</g>
		<path class="st0" d="M259.2,142.2v-37.1h-19v37.1c0,4.7-2.6,9.1-6.6,11.6c-4,2.7-6.7,6.8-6.7,11.6v70.9h45.6v-69.5
			c0-5.3-2.7-9.9-7.1-12.7C261.7,151.5,259.2,147.1,259.2,142.2z"/>
		<line class="st0" x1="241.1" y1="110.8" x2="258.2" y2="110.8"/>
		<line class="st0" x1="227.8" y1="183" x2="273.4" y2="183"/>
		<line class="st0" x1="227.8" y1="202" x2="273.4" y2="202"/>
		<path class="st0" d="M181.1,225.9c0,0-3.4-25.7,17.5-23.9c0.4,0,1,0.2,1.3,0.2c5.1,1.5,4.4,3,21.1-0.2
			c13.7-1.9,16.3,16.2,14.8,23.9s-6.5,29.1-26.4,25.5c-8.4-0.6-7,1.9-14.8-1.3C186,246.3,181.7,231.8,181.1,225.9z"/>
		<path class="st0" d="M200.1,207.7c4.6,1.3,4.6,2.7,17.1,0.6"/>
		<path class="st0" d="M200.1,188.3c3.6,0,9.9,14.1,9.9,20.3"/>
		<g>
			<path class="st0" d="M217.4,186c0,0-14.4,6.8-7.8,13.9C212.6,199.7,216.3,200.5,217.4,186z"/>
			<path class="st0" d="M212.8,192.7c0,0,0,3.8-3.6,7"/>
		</g>
	</g>
</g>
</svg>
