<?xml version="1.0" encoding="utf-8"?>
<!-- Generator: Adobe Illustrator 21.1.0, SVG Export Plug-In . SVG Version: 6.00 Build 0)  -->

<?xml-stylesheet type="text/css" href="../../../css/gameanim.css"?>

<svg version="1.1" id="Layer_1" xmlns="http://www.w3.org/2000/svg" xmlns:xlink="http://www.w3.org/1999/xlink" x="0px" y="0px"
	 viewBox="0 0 2048 1536" style="enable-background:new 0 0 2048 1536;" xml:space="preserve">
<style type="text/css">
	.st0{fill:none;}
	.st1{fill:none;stroke:#FFDB58;stroke-width:2;stroke-miterlimit:10;}
	.st2{fill:#FFF1A5;}
	.st3{opacity:0.5;fill:url(#Pattern_2_);enable-background:new    ;}
	.st4{fill:#F2F2F2;stroke:#132560;stroke-width:4;stroke-linecap:round;stroke-linejoin:round;stroke-miterlimit:10;}
	
		.st5{fill:none;stroke:#132560;stroke-width:4;stroke-linecap:round;stroke-linejoin:round;stroke-miterlimit:10;stroke-dasharray:400,50,200,50,0,0;}
	.st6{fill:#FFFFE4;stroke:#14275E;stroke-width:3;stroke-miterlimit:10;}
	.st7{fill:#132560;stroke:#14275E;stroke-width:0.75;stroke-miterlimit:10;stroke-dasharray:480,30,200,30,0,0;}
	
		.st8{fill:#F2F2F2;stroke:#132560;stroke-width:0.75;stroke-linecap:round;stroke-linejoin:round;stroke-miterlimit:10;stroke-dasharray:480,30,200,30,0,0;}
	.st9{fill:#132560;stroke:url(#SVGID_1_);stroke-width:0.75;stroke-miterlimit:10;stroke-dasharray:480,30,200,30,0,0;}
	.st10{fill:#132560;stroke:url(#SVGID_2_);stroke-width:0.75;stroke-miterlimit:10;stroke-dasharray:480,30,200,30,0,0;}
	.st11{fill:#FF9C32;}
	.st12{fill:#FFDB58;}
	.st13{fill:#FFFFFF;}
	.st14{fill:#132560;}
	
		.st15{fill:#FFFFE4;stroke:#132560;stroke-width:3;stroke-linecap:round;stroke-linejoin:round;stroke-miterlimit:10;stroke-dasharray:480,30,200,30,0,0;}
	.st16{fill:#F2F2F2;stroke:#132560;stroke-width:3;stroke-linecap:round;stroke-linejoin:round;stroke-miterlimit:10;}
	.st17{opacity:0.5;fill:#FFDB58;}
	.st18{fill:#F2F2F2;stroke:#14275E;stroke-width:3;stroke-miterlimit:10;}
	.st19{fill:#132560;stroke:#14275E;stroke-width:0.75;stroke-miterlimit:10;}
	.st20{fill:#F2F2F2;stroke:#132560;stroke-width:0.75;stroke-linecap:round;stroke-linejoin:round;stroke-miterlimit:10;}
	.st21{fill:#6696E2;stroke:#14275E;stroke-width:4;stroke-miterlimit:10;}
</style>
<pattern  y="1536" width="102.1" height="97.7" patternUnits="userSpaceOnUse" id="New_Pattern" viewBox="51.1 -122.2 102.1 97.7" style="overflow:visible;">
	<g>
		<rect x="51.1" y="-122.2" class="st0" width="102.1" height="97.7"/>
		<g>
			<rect x="51.1" y="-122.2" class="st0" width="102.1" height="97.7"/>
			<rect x="103.1" y="-145.6" class="st1" width="100.1" height="46.9"/>
			<rect x="1" y="-145.6" class="st1" width="100.1" height="46.9"/>
			<rect x="52.1" y="-96.8" class="st1" width="100.1" height="46.9"/>
			<rect x="103.1" y="-47.9" class="st1" width="100.1" height="46.9"/>
			<rect x="1" y="-47.9" class="st1" width="100.1" height="46.9"/>
		</g>
	</g>
</pattern>
<rect id="Background_1_" x="1" y="0.5" class="st2" width="2047" height="1535"/>
<pattern  id="Pattern_2_" xlink:href="#New_Pattern" patternTransform="matrix(1 0 0 -1 -167.5 -17102.8008)">
</pattern>
<rect id="Pattern_1_" x="130" y="215" class="st3" width="1821" height="1002"/>
<g id="Fridge_1_">
	<path class="st4" d="M205.1,567.5h334.4c6.6,0,12,5.4,12,12v624.2c0,6.6-5.4,12-12,12H205.1c-6.6,0-12-5.4-12-12V579.5
		C193.1,572.9,198.4,567.5,205.1,567.5z"/>
	<line class="st5" x1="551.5" y1="841.9" x2="193.1" y2="841.9"/>
	<line class="st5" x1="230.9" y1="708.9" x2="289.6" y2="708.9"/>
	<line class="st5" x1="230.9" y1="962.3" x2="289.6" y2="962.3"/>
</g>
<g id="Middle">
	<g id="MidCounter">
		<rect x="877" y="880.4" class="st6" width="323.4" height="334.6"/>
		<rect x="893" y="893.7" class="st7" width="140" height="308"/>
		<rect x="1046.3" y="894.4" class="st7" width="140" height="70"/>
		<rect x="1046.3" y="973.7" class="st7" width="140" height="70"/>
		<rect x="1046.3" y="1053.1" class="st7" width="140" height="70"/>
		<rect x="1046.3" y="1132.4" class="st7" width="140" height="70"/>
		<rect x="921" y="911.2" class="st8" width="84" height="18.2"/>
		<rect x="1074.3" y="991" class="st8" width="84" height="18.2"/>
		<rect x="1074.3" y="911.2" class="st8" width="84" height="18.2"/>
		<rect x="1074.3" y="1070.8" class="st8" width="84" height="18.2"/>
		<rect x="1074.3" y="1149.2" class="st8" width="84" height="18.2"/>
	</g>
	<g id="MidTop">
		<rect x="886.8" y="373.2" class="st6" width="323.4" height="277.9"/>
		<rect x="902.8" y="384.3" class="st7" width="140" height="255.8"/>
		<rect x="1056.2" y="383.7" class="st7" width="140" height="257"/>
		<rect x="930.8" y="585" class="st8" width="84" height="18.2"/>
		<rect x="1084.2" y="585" class="st8" width="84" height="18.2"/>
	</g>
</g>
<g id="Right">
	<g id="RightTop">
		<rect x="1554.6" y="373.2" class="st6" width="323.4" height="277.9"/>
		<rect x="1570.7" y="384.3" class="st7" width="140" height="255.8"/>
		<rect x="1723.9" y="383.7" class="st7" width="140" height="257"/>
		<rect x="1598.7" y="585" class="st8" width="84" height="18.2"/>
		<rect x="1751.9" y="585" class="st8" width="84" height="18.2"/>
	</g>
	<g id="RightCounter">
		<rect x="1551.8" y="881.8" class="st6" width="323.4" height="334.6"/>
		<rect x="1566.1" y="895.1" class="st7" width="293.3" height="91"/>
		
			<linearGradient id="SVGID_1_" gradientUnits="userSpaceOnUse" x1="1565.725" y1="378.4" x2="1859.7749" y2="378.4" gradientTransform="matrix(1 0 0 -1 0 1536)">
			<stop  offset="0" style="stop-color:#FFFFFF"/>
			<stop  offset="1" style="stop-color:#000000"/>
		</linearGradient>
		<rect x="1566.1" y="1112.1" class="st9" width="293.3" height="91"/>
		
			<linearGradient id="SVGID_2_" gradientUnits="userSpaceOnUse" x1="1565.725" y1="487.6" x2="1859.7749" y2="487.6" gradientTransform="matrix(1 0 0 -1 0 1536)">
			<stop  offset="0" style="stop-color:#FFFFFF"/>
			<stop  offset="1" style="stop-color:#000000"/>
		</linearGradient>
		<rect x="1566.1" y="1002.9" class="st10" width="293.3" height="91"/>
		<rect x="1670.8" y="912.6" class="st8" width="84" height="18.2"/>
		<rect x="1670.8" y="1023.2" class="st8" width="84" height="18.2"/>
		<rect x="1670.8" y="1133.8" class="st8" width="84" height="18.2"/>
	</g>
</g>
<g id="Oven">
	<g id="Oven_1_">
		<g id="leftFire">
			<path id="rightOrange_1_" class="st11" d="M1283,901.4c0,12.2,9.8,22,22,22l0,0c12.2,0,22-9.8,22-22c0-12.2-6.1-22-2-30.6
				c0,0-6.5,1.2-10.2,11c0,0-12.2-12.2-7.1-29.3c0,0-12.4,4.9-11.1,20.8c1.1,13.6-1.3,15.9-1.3,15.9c0-11-8.6-15.9-8.6-15.9
				C1289.1,886.8,1283,890.4,1283,901.4z"/>
			<path id="rightYellow_1_" class="st12" d="M1320.9,906.7c0,9.2-7.1,17-16.2,16.8c-8.6-0.2-15-6.7-14.3-15.3
				c0.3-3.8,3.2-10,7.9-16.3l3.2,1.9c-0.1-7.7,3.6-18,3.6-18C1307.4,886.6,1320.9,889.4,1320.9,906.7z"/>
			<path id="rightWhite_1_" class="st13" d="M1298.9,899c-1.2,7.3-3.7,10-3.7,14.7c0,4.9,4.4,9.8,9.8,9.8l0,0c5.4,0,9.8-4.4,9.8-9.9
				c0-14.6-8.6-21.9-8.6-21.9c1.2,7.3-2.4,11-2.4,11C1302.3,900.4,1298.9,899,1298.9,899z"/>
		</g>
		<g id="rightFire">
			<path id="rightOrange" class="st11" d="M1421.8,901.4c0,12.2,9.8,22,22,22l0,0c12.2,0,22-9.8,22-22c0-12.2-6.1-22-2-30.6
				c0,0-6.5,1.2-10.2,11c0,0-12.2-12.2-7.1-29.3c0,0-12.4,4.9-11.1,20.8c1.1,13.6-1.3,15.9-1.3,15.9c0-11-8.6-15.9-8.6-15.9
				C1427.9,886.8,1421.8,890.4,1421.8,901.4z"/>
			<path id="rightYellow" class="st12" d="M1459.7,906.7c0,9.2-7.1,17-16.2,16.8c-8.6-0.2-15-6.7-14.3-15.3c0.3-3.8,3.2-10,7.9-16.3
				l3.2,1.9c-0.1-7.7,3.6-18,3.6-18C1446.2,886.6,1459.7,889.4,1459.7,906.7z"/>
			<path id="rightWhite" class="st13" d="M1437.7,899c-1.2,7.3-3.7,10-3.7,14.7c0,4.9,4.4,9.8,9.8,9.8l0,0c5.4,0,9.8-4.4,9.8-9.9
				c0-14.6-8.6-21.9-8.6-21.9c1.2,7.3-2.4,11-2.4,11C1441,900.4,1437.7,899,1437.7,899z"/>
		</g>
		<rect x="1201.8" y="915.4" class="st4" width="350" height="299.6"/>
		<rect x="1257.8" y="991" class="st14" width="238" height="187.6"/>
		<polyline class="st14" points="1336.8,913.6 1277.3,913.6 1277.3,899.6 1336.8,899.6 		"/>
		<polyline class="st14" points="1475.4,913.6 1415.9,913.6 1415.9,899.6 1475.4,899.6 		"/>
		<circle id="button1" class="st15" cx="1268.9" cy="954.6" r="16.8"/>
		<circle id="button2" class="st15" cx="1340.3" cy="954.6" r="16.8"/>
		<circle id="button3" class="st15" cx="1411.8" cy="954.6" r="16.8"/>
		<circle id="button4" class="st15" cx="1483.2" cy="954.6" r="16.8"/>
		<rect x="1241.7" y="1016.9" class="st16" width="271.6" height="26.6"/>
	</g>
	<polygon id="ovenLight" class="st17" points="1236.1,705.6 1515.1,705.6 1545.1,912 1213.6,912.6 	"/>
	<path id="Oven_x5F_Top" class="st4" d="M1199.7,691.6h351.4v25.7h-351.4V691.6z M1269,593.6h212.6V279.1H1269V593.6z M1480.8,593.6
		h-211l-54.4,97.4h319.8L1480.8,593.6z"/>
</g>
<g id="Sink">
	<g id="SinkCounter">
		<rect x="553.5" y="915.4" class="st6" width="323.4" height="299.6"/>
		<rect x="553.5" y="880.4" class="st18" width="323.4" height="35"/>
		<rect x="567.9" y="928.7" class="st19" width="293.3" height="273.7"/>
		<rect x="672.5" y="946.2" class="st20" width="84" height="18.2"/>
		<g>
			<polygon class="st14" points="713.2,816.7 711.8,816.7 692.2,816.7 692.2,827.9 711.8,827.9 711.8,878.3 723,878.3 723,816.7 			
				"/>
			<rect x="669.8" y="868.4" class="st14" width="21" height="11.2"/>
			<rect x="739.8" y="868.4" class="st14" width="21" height="11.2"/>
		</g>
	</g>
	<g id="SinkTop">
		<path id="Fork" class="st14" d="M789.5,717.3h-4.9v-64.4h-8.4v64.4h-4.9c-5.4,0-9.8,4.4-9.8,9.8v19.6c0,5.4,4.4,9.8,9.8,9.8h18.2
			c5.4,0,9.8-4.4,9.8-9.8v-19.6C799.2,721.7,794.8,717.3,789.5,717.3z M772.7,747.4c0,1.2-0.9,2.1-2.1,2.1s-2.1-0.9-2.1-2.1v-21
			c0-1.2,0.9-2.1,2.1-2.1s2.1,0.9,2.1,2.1V747.4z M782.5,747.4c0,1.2-0.9,2.1-2.1,2.1c-1.2,0-2.1-0.9-2.1-2.1v-21
			c0-1.2,0.9-2.1,2.1-2.1c1.2,0,2.1,0.9,2.1,2.1V747.4z M792.2,747.4c0,1.2-0.9,2.1-2.1,2.1c-1.2,0-2.1-0.9-2.1-2.1v-21
			c0-1.2,0.9-2.1,2.1-2.1c1.2,0,2.1,0.9,2.1,2.1V747.4z"/>
		<path id="Spatula" class="st14" d="M838.5,717.3h-4.9v-64.4h-8.4v64.4h-4.9c-5.4,0-9.8,4.4-9.8,9.8v19.6c0,4.4,3,8.2,7,9.4V739
			c0-1.2,0.9-2.1,2.1-2.1s2.1,0.9,2.1,2.1v17.5h5.6V739c0-1.2,0.9-2.1,2.1-2.1c1.2,0,2.1,0.9,2.1,2.1v17.5h5.6V739
			c0-1.2,0.9-2.1,2.1-2.1c1.2,0,2.1,0.9,2.1,2.1v17.1c4-1.2,7-5,7-9.4v-19.6C848.2,721.7,843.8,717.3,838.5,717.3z"/>
		<path id="Spoon" class="st14" d="M737.7,715.2v-62.3h-8.4v62.3c-7.2,2.5-12.6,11.2-12.6,21.7c0,12.4,7.5,22.4,16.8,22.4
			s16.8-10,16.8-22.4C750.2,726.5,744.9,717.7,737.7,715.2z"/>
		<rect id="Shelf" x="568.2" y="623.5" class="st4" width="292.6" height="28"/>
	</g>
</g>
<path id="water5" class="st21" d="M669.4,850.5c-0.2,0.1-0.4,0.1-0.6,0.2c-1.6,0.4-3.2,0.2-4.5-0.5s-2.4-2-2.8-3.6
	c-0.4-1.6-0.2-3.2,0.5-4.5c0.5-0.9,1.3-1.7,2.3-2.3l1.8-1l6.7-3.8l0.1,3l0.1,2.3l0.2,4.3C673.3,847.3,671.8,849.6,669.4,850.5z"/>
<path id="water4" class="st21" d="M635.3,856.8c-0.3,0.1-0.5,0.2-0.8,0.3c-2.2,0.6-4.5,0.3-6.4-0.8s-3.4-2.8-4-5.1
	c-0.6-2.2-0.3-4.5,0.8-6.4c0.7-1.3,1.8-2.5,3.2-3.2l2.5-1.4l9.5-5.3l0.2,4.3l0.1,3.3l0.2,6.1C640.8,852.2,638.6,855.5,635.3,856.8z"
	/>
<path id="water3" class="st21" d="M674.3,915.8c-0.3,0.1-0.5,0.2-0.8,0.3c-2.2,0.6-4.5,0.3-6.4-0.8s-3.4-2.8-4-5.1
	c-0.6-2.2-0.3-4.5,0.8-6.4c0.7-1.3,1.8-2.5,3.2-3.2l2.5-1.4l9.5-5.3l0.2,4.3l0.1,3.3l0.2,6.1C679.8,911.2,677.6,914.5,674.3,915.8z"
	/>
<path id="water2" class="st21" d="M698.7,861.5c-0.2,0.1-0.3,0.2-0.5,0.3c-1.5,0.9-3.2,1-4.8,0.6c-1.6-0.4-3-1.4-3.8-3
	c-0.9-1.5-1-3.2-0.6-4.8c0.3-1.1,0.9-2.1,1.8-2.9l1.6-1.5l5.9-5.6l0.9,3.1l0.7,2.4l1.3,4.4C701.8,857.2,700.9,860,698.7,861.5z"/>
<path id="water1" class="st21" d="M649.2,889.1c-0.2,0.1-0.4,0.1-0.5,0.2c-1.5,0.4-3.1,0.2-4.4-0.5c-1.3-0.7-2.3-1.9-2.8-3.5
	c-0.4-1.5-0.2-3.1,0.5-4.4c0.5-0.9,1.3-1.7,2.2-2.2l1.7-1l6.5-3.7l0.1,3l0.1,2.3l0.2,4.2C653,886,651.5,888.2,649.2,889.1z"/>
</svg>
