<?xml version="1.0" encoding="utf-8"?>
<!-- Generator: Adobe Illustrator 21.0.2, SVG Export Plug-In . SVG Version: 6.00 Build 0)  -->
<svg version="1.1" xmlns="http://www.w3.org/2000/svg" xmlns:xlink="http://www.w3.org/1999/xlink" x="0px" y="0px"
	 viewBox="0 0 2048 1536" style="enable-background:new 0 0 2048 1536;" xml:space="preserve">
<style type="text/css">
	.st0{fill:none;}
	.st1{fill:none;stroke:#FFDB58;stroke-width:2;stroke-miterlimit:10;}
	.st2{fill:#FFF1A5;stroke:#000000;stroke-miterlimit:10;}
	.st3{opacity:0.5;fill:url(#New_Pattern);}
	.st4{fill:#132560;}
	.st5{fill:#F2F2F2;stroke:#132560;stroke-width:4;stroke-linecap:round;stroke-linejoin:round;stroke-miterlimit:10;}
	.st6{fill:#B3B3B3;stroke:#132560;stroke-width:4;stroke-linecap:round;stroke-linejoin:round;stroke-miterlimit:10;}
	.st7{fill:#FFFFE4;stroke:#132560;stroke-width:3;stroke-linecap:round;stroke-linejoin:round;stroke-miterlimit:10;}
	.st8{fill:none;stroke:#132560;stroke-width:3;stroke-linecap:round;stroke-linejoin:round;stroke-miterlimit:10;}
	.st9{fill:#FFF1A5;stroke:#14275E;stroke-width:3;stroke-miterlimit:10;}
	.st10{fill:none;stroke:#14275E;stroke-width:4;stroke-miterlimit:10;}
	.st11{fill:none;stroke:#14275E;stroke-width:4;stroke-linecap:round;stroke-linejoin:round;stroke-miterlimit:10;}
	
		.st12{fill:#F2F2F2;stroke:#132560;stroke-width:4;stroke-linecap:round;stroke-linejoin:round;stroke-miterlimit:10;stroke-dasharray:500,30,200,30,0,0;}
	
		.st13{fill:#B3B3B3;stroke:#132560;stroke-width:4;stroke-linecap:round;stroke-linejoin:round;stroke-miterlimit:10;stroke-dasharray:300,50,200,50;}
</style>
<pattern  x="-80" y="147" width="102.1" height="97.7" patternUnits="userSpaceOnUse" id="New_Pattern" viewBox="51.1 -122.1 102.1 97.7" style="overflow:visible;">
	<g>
		<rect x="51.1" y="-122.1" class="st0" width="102.1" height="97.7"/>
		<rect x="103.1" y="-47.9" class="st1" width="100.1" height="46.9"/>
		<rect x="1" y="-47.9" class="st1" width="100.1" height="46.9"/>
		<rect x="52.1" y="-96.7" class="st1" width="100.1" height="46.9"/>
		<rect x="103.1" y="-145.6" class="st1" width="100.1" height="46.9"/>
		<rect x="1" y="-145.6" class="st1" width="100.1" height="46.9"/>
	</g>
</pattern>
<g id="Tablet">
	<rect x="1" y="0.5" class="st2" width="2047" height="1535"/>
	<rect x="53" y="45" class="st3" width="1940" height="1260"/>
	<rect id="Table" x="111" y="1219" class="st4" width="1836" height="90"/>
	<g id="Machine">
		<g id="Machine_x5F_Base">
			<path class="st5" d="M805.7,1178.2H202.4c-13.8,0-25-11.2-25-25v-110.5c0-13.8,11.2-25,25-25h603.3c13.8,0,25,11.2,25,25v110.5
				C830.7,1167,819.5,1178.2,805.7,1178.2z"/>
			<path class="st6" d="M273.9,563.1h460.4c26.3,0,47.8,21.5,47.8,47.8L726.6,970c0,26.3-21.5,47.8-47.8,47.8H325.5
				c-26.3,0-47.8-21.5-47.8-47.8l-51.6-359.1C226.1,584.6,247.6,563.1,273.9,563.1z"/>
			<path class="st5" d="M130.8,173.4h746.6c13.8,0,25,11.2,25,25v339.7c0,13.8-11.2,25-25,25H130.8c-13.7,0-25-11.2-25-25V198.4
				C105.8,184.6,117,173.4,130.8,173.4z M106.7,291.8h792.8"/>
			<path class="st6" d="M805.7,1178.2H202.4c-13.8,0-25-11.2-25-25v38.2c0,13.8,11.2,25,25,25h603.3c13.8,0,25-11.2,25-25v-38.2
				C830.7,1167,819.5,1178.2,805.7,1178.2z"/>
			<path class="st6" d="M389.6,563.1h228.9c13.8,0,25,11.2,25,25v87.5c0,13.8-11.2,25-25,25H389.6c-13.8,0-25-11.2-25-25v-87.5
				C364.6,574.3,375.9,563.1,389.6,563.1z"/>
			<path class="st5" d="M445,562.5h118.1c13.8,0,25,11.2,25,25v237.6c0,13.8-11.2,25-25,25H445c-13.8,0-25-11.2-25-25V587.5
				C420,573.8,431.3,562.5,445,562.5z"/>
			<rect x="313" y="631.9" class="st4" width="189.1" height="28.7"/>
			<path class="st5" d="M74.4,620.4h238.5c7.4,0,13.5,6.1,13.5,13.5v24.6c0,7.4-6.1,13.5-13.5,13.5H74.4c-7.4,0-13.5-6.1-13.5-13.5
				v-24.6C60.9,626.5,67,620.4,74.4,620.4z"/>
			<path class="st4" d="M902.1,435.7V256.8c0-5.6,4.6-10.1,10.1-10.1h18.4c5.6,0,10.1,4.6,10.1,10.1v178.9c0,5.6-4.6,10.1-10.1,10.1
				h-18.4C906.7,445.8,902.1,441.3,902.1,435.7z"/>
		</g>
		<g id="Machine_x5F_Visuals">
			<g id="Meter">
				<circle class="st7" cx="747.6" cy="426.5" r="91.7"/>
				<path class="st8" d="M675,426.5c0-40,32.6-72.6,72.6-72.6c40,0,72.6,32.6,72.6,72.6 M748.6,430.3L712.3,394 M708.5,460.9h78.3
					 M725.7,478.1h43.9"/>
			</g>
			<g id="Left_x5F_Buttons">
				<circle class="st7" cx="222.3" cy="398.8" r="32.5"/>
				<path class="st7" d="M222.3,416c-9.5,0-17.2-7.7-17.2-17.2s7.7-17.2,17.2-17.2c9.5,0,17.2,7.7,17.2,17.2S231.8,416,222.3,416z"
					/>
				<path class="st9" d="M222.3,486.7c-9.5,0-17.2-7.7-17.2-17.2s7.7-17.2,17.2-17.2c9.5,0,17.2,7.7,17.2,17.2
					S231.8,486.7,222.3,486.7z"/>
			</g>
			<g id="Right_x5F_Buttons">
				<circle class="st7" cx="329.3" cy="398.8" r="32.5"/>
				<path class="st7" d="M329.3,416c-9.5,0-17.2-7.7-17.2-17.2s7.7-17.2,17.2-17.2c9.5,0,17.2,7.7,17.2,17.2S338.8,416,329.3,416z"
					/>
				<path class="st9" d="M329.3,486.7c-9.5,0-17.2-7.7-17.2-17.2s7.7-17.2,17.2-17.2c9.5,0,17.2,7.7,17.2,17.2
					S338.8,486.7,329.3,486.7z"/>
			</g>
		</g>
	</g>
	<g id="Coffee">
		<path class="st5" d="M1221.4,998.7c0,79.9-70.5,217.1-157.7,217.1S906,1078.6,906,998.7H1221.4z M1220.2,1056.9h-8.2
			c-1.8,5.9-3.5,11.7-5.9,17.6h14c8.8,0,16.1,7.3,16.1,16.1c0,8.8-7.3,16.1-16.1,16.1h-27.8c-2.9,5.9-6.1,11.7-9.4,17.6h37.2
			c18.4,0,33.7-15.2,33.7-33.7C1253.9,1072.1,1238.7,1056.9,1220.2,1056.9z"/>
		<path class="st10" d="M1002.8,1147.9c-29.8-28.1-53.5-70.2-67.6-111.8"/>
		<path class="st11" d="M1003.4,790c0-1.2-52.7,44.2-28.4,70.2c31.9,34.5,77.5,27.2,31,60c-14,9.9-6.4,32.8,9.7,38.3l14,5"/>
		<path class="st11" d="M1116.3,798.2c-28.1,10.8-61.7,30.7-17.8,51.5c42.4,20.2,37.7,57.6,14.3,65.8c-36,12.6,11.4,48,11.4,48"/>
		<path class="st11" d="M1068.1,805.6c0-0.9-67.6,44.2-23.1,59.1c28.4,9.7,31.6,27.2,14.9,53.5c-6.4,10.2-6.7,28.1,3.2,33.7l8.5,5"
			/>
	</g>
	<g id="Milk">
		<g id="Milk_x5F_Carton">
			<rect x="1298.5" y="775.4" class="st5" width="270.4" height="441.6"/>
			<polygon class="st5" points="1336.9,676.2 1533.7,677.8 1568.9,778.6 1298.5,778.6 			"/>
			<path class="st5" d="M1346.9,625h176.8c5.5,0,10,4.5,10,10v42.8h-196.8V635C1336.9,629.5,1341.4,625,1346.9,625z"/>
		</g>
		<g id="Milk_x5F_Cap">
			<path class="st6" d="M1466.5,681h-65.6v19.2h0.1c0,0.3-0.1,0.5-0.1,0.8c0,10.2,14.7,18.4,32.8,18.4c18.1,0,32.8-8.2,32.8-18.4
				c0-0.3-0.1-0.5-0.1-0.8h0.1V681z"/>
			<ellipse class="st6" cx="1433.7" cy="681.8" rx="32.8" ry="18.4"/>
		</g>
		<g id="Milk_x5F_Text">
			<path class="st4" d="M1355.5,887.5l13.5,31l13.5-31h17.8v56.1h-14.6l-0.1-33.2l-11.3,27.7h-10.9l-11.3-27.7v33.2h-14.6v-56.1
				H1355.5z"/>
			<path class="st4" d="M1426.5,887.5v56.1h-16.6v-56.1H1426.5z"/>
			<path class="st4" d="M1452.5,887.5v42.2h23.5v13.9h-40.2v-56.1H1452.5z"/>
			<path class="st4" d="M1517.8,943.6l-13-20.5l-6.3,7v13.4h-16.6v-56.1h16.6v21.6l18.8-21.6h19.2l-20.3,22.8l21.6,33.3H1517.8z"/>
		</g>
	</g>
	<g id="Sugar">
		<path id="Jar" class="st5" d="M1615,941h262v251c0,13.8-11.2,25-25,25h-212c-13.8,0-25-11.2-25-25V941z"/>
		<ellipse id="Label" class="st7" cx="1746" cy="1046" rx="86.4" ry="57.6"/>
		<g id="Sugar_x5F_Text">
			<path class="st4" d="M1686.1,1038.1c-1.4,0-2.3,0.5-2.3,1.5c0,4.1,14.6,1.7,14.6,11.8c0,6-5.3,8.8-11.6,8.8
				c-4.8,0-10-1.7-13.5-4.4l3.1-6.3c2.9,2.4,7.6,4.3,10.4,4.3c1.8,0,2.9-0.6,2.9-1.9c0-4.2-14.6-1.6-14.6-11.4
				c0-5.4,4.6-8.8,11.6-8.8c4.3,0,8.7,1.3,11.7,3.2l-3.1,6.4C1692.6,1039.6,1688.5,1038.1,1686.1,1038.1z"/>
			<path class="st4" d="M1714.4,1053.4c2.8,0,4.7-2,4.7-5.2V1032h8.3v16.2c0,7.4-5.1,12.2-13.1,12.2c-8,0-13.3-4.8-13.3-12.2V1032
				h8.3v16.2C1709.4,1051.4,1711.6,1053.4,1714.4,1053.4z"/>
			<path class="st4" d="M1750,1045.5h7.2v11.3c-3,2.1-8,3.6-12,3.6c-8.7,0-15.1-6.1-15.1-14.4c0-8.2,6.6-14.3,15.6-14.3
				c4.3,0,8.9,1.6,11.8,4.2l-4.7,5.7c-1.9-1.8-4.7-3-7.2-3c-4,0-7.1,3.2-7.1,7.4c0,4.3,3.1,7.4,7.2,7.4c1.2,0,2.7-0.4,4.2-1.1
				V1045.5z"/>
			<path class="st4" d="M1780.2,1055.5h-11.3l-1.7,4.5h-8.6l12-28h8.6l11.6,28h-8.9L1780.2,1055.5z M1778,1049.5l-3.4-9.2l-3.4,9.2
				H1778z"/>
			<path class="st4" d="M1809.2,1060l-3.7-7.6h-4.4v7.6h-8.3v-28h13.1c7.5,0,11.8,3.6,11.8,10c0,4.2-1.7,7.2-4.7,8.9l5.7,9.2H1809.2
				z M1801,1046.1h4.8c2.5,0,3.9-1.4,3.9-3.9c0-2.4-1.4-3.8-3.9-3.8h-4.8V1046.1z"/>
		</g>
		<g id="Jar_x5F_Lid">
			<path class="st4" d="M1612.5,930h267c3.6,0,6.5,2.9,6.5,6.5l0,0c0,3.6-2.9,6.5-6.5,6.5h-267c-3.6,0-6.5-2.9-6.5-6.5l0,0
				C1606,932.9,1608.9,930,1612.5,930z"/>
			<path id="_x3C_Compound_x5F_Path_x3E_" class="st6" d="M1750,845.1v-5.8c4.7-1.6,8-6.1,8-11.3c0-6.6-5.4-12-12-12s-12,5.4-12,12
				c0,5.2,3.3,9.7,8,11.3v5.8c-55.5,1.6-102.4,37.3-120.5,86.9h249C1852.4,882.4,1805.5,846.7,1750,845.1z"/>
		</g>
	</g>
</g>
<g id="Mobile">
</g>
</svg>
