<?xml version="1.0" encoding="utf-8"?>
<!-- Generator: Adobe Illustrator 21.1.0, SVG Export Plug-In . SVG Version: 6.00 Build 0)  -->

<?xml-stylesheet type="text/css" href="../../../gameanim.css"?>

<svg version="1.1" id="Layer_1" xmlns="http://www.w3.org/2000/svg" xmlns:xlink="http://www.w3.org/1999/xlink" x="0px" y="0px"
	 viewBox="0 0 2048 1536" style="enable-background:new 0 0 2048 1536;" xml:space="preserve">
  <defs>
    <style>
      .cls-1, .cls-10, .cls-12, .cls-15, .cls-18, .cls-2, .cls-20, .cls-21, .cls-22, .cls-26, .cls-28, .cls-3, .cls-30, .cls-33, .cls-8 {
        fill: none;
      }

      .cls-1, .cls-2, .cls-20, .cls-21, .cls-22, .cls-3 {
        stroke: #ffdb58;
      }

      .cls-1, .cls-10, .cls-11, .cls-12, .cls-13, .cls-14, .cls-15, .cls-16, .cls-17, .cls-18, .cls-19, .cls-2, .cls-20, .cls-21, .cls-22, .cls-25, .cls-26, .cls-27, .cls-28, .cls-29, .cls-3, .cls-30, .cls-31, .cls-32, .cls-33, .cls-34, .cls-7, .cls-8, .cls-9 {
        stroke-linecap: round;
        stroke-linejoin: round;
      }

      .cls-1, .cls-13, .cls-2, .cls-3, .cls-5, .cls-7, .cls-8 {
        stroke-width: 9.03px;
      }

      .cls-2 {
        stroke-dasharray: 20.91 20.91 20.91 20.91 20.91 20.91;
      }

      .cls-3 {
        stroke-dasharray: 18.88 18.88 18.88 18.88 18.88 18.88;
      }

      .cls-4 {
        fill: #ffdb58;
      }

      .cls-11, .cls-14, .cls-17, .cls-23, .cls-24, .cls-25, .cls-27, .cls-29, .cls-32, .cls-5, .cls-6, .cls-7, .cls-9 {
        fill: #ffffe5;
      }

      .cls-10, .cls-11, .cls-12, .cls-13, .cls-14, .cls-15, .cls-16, .cls-17, .cls-18, .cls-19, .cls-23, .cls-24, .cls-25, .cls-26, .cls-27, .cls-28, .cls-29, .cls-30, .cls-31, .cls-32, .cls-33, .cls-34, .cls-5, .cls-6, .cls-7, .cls-8, .cls-9 {
        stroke: #ffe063;
      }

      .cls-23, .cls-24, .cls-5, .cls-6 {
        stroke-miterlimit: 10;
      }

      .cls-6 {
        stroke-width: 3.78px;
      }

      .cls-10, .cls-9 {
        stroke-width: 5.24px;
      }

      .cls-11, .cls-12 {
        stroke-width: 4.74px;
      }

      .cls-13, .cls-16, .cls-19, .cls-31, .cls-34 {
        fill: #fff;
      }

      .cls-14, .cls-15, .cls-16 {
        stroke-width: 12.27px;
      }

      .cls-17, .cls-18, .cls-19 {
        stroke-width: 5.82px;
      }

      .cls-20, .cls-21, .cls-22, .cls-23, .cls-25, .cls-26, .cls-31 {
        stroke-width: 6.4px;
      }

      .cls-21 {
        stroke-dasharray: 14.8 14.8 14.8 14.8 14.8 14.8;
      }

      .cls-22 {
        stroke-dasharray: 13.37 13.37 13.37 13.37 13.37 13.37;
      }

      .cls-24 {
        stroke-width: 2.68px;
      }

      .cls-27, .cls-28 {
        stroke-width: 3.71px;
      }

      .cls-29, .cls-30 {
        stroke-width: 3.36px;
      }

      .cls-32, .cls-33, .cls-34 {
        stroke-width: 5.57px;
      }
    </style>
  </defs>
  <title>customactivity_tablet</title>
  <g id="Bee">
    <g>
      <path class="cls-1" d="M685.23,246.24q5.37-.8,10.75-1.35" transform="translate(-86.54 -16.44)"/>
      <path class="cls-2" d="M716.85,243.58C787.62,242,851.62,268.67,842,295.94a12.79,12.79,0,0,1-4.88,6.62" transform="translate(-86.54 -16.44)"/>
      <path class="cls-2" d="M827.08,304.57C783.86,300,686.81,169.48,957.62,169.48c51.43,0,76.39-28.74,87.6-49" transform="translate(-86.54 -16.44)"/>
      <path class="cls-1" d="M1049.79,111.06a71.48,71.48,0,0,0,3.57-10.22" transform="translate(-86.54 -16.44)"/>
    </g>
    <g>
      <path class="cls-1" d="M339.78,606.66s4,.24,10.83.08" transform="translate(-86.54 -16.44)"/>
      <path class="cls-3" d="M369.45,605.5c32.92-3.45,86.64-15.64,126.49-57.09" transform="translate(-86.54 -16.44)"/>
      <path class="cls-3" d="M502.28,541.42c26.37-30.81,45.25-76.08,45.25-142.51a199.86,199.86,0,0,1,1.71-26.57" transform="translate(-86.54 -16.44)"/>
      <path class="cls-1" d="M550.75,363q1-5.43,2.38-10.57" transform="translate(-86.54 -16.44)"/>
    </g>
    <g id="_5DqBM2.tif" data-name="5DqBM2.tif">
      <path class="cls-4" d="M670.2,272.75c-1.94,1.83-3.63,4.16-5.91,5.32-1.54.78-3.92-.07-5.92-.19.12-1.8-.46-4.26.5-5.26,3.19-3.34,5.45-6.45,2.09-10.91-2.73-3.61-10.47-6.75-14.54-5.43a5.34,5.34,0,0,0-3.13,3.32c-1.85,9.59-7.09,17.33-13.52,24.18-3.74,4-4.51,8.42-4.9,13.37-.78,9.84-2,19.55-6.75,28.53-4.17,8-10,13.72-19.29,13.94-10.2.24-19.17-3-23.65-13.07-1.77-4-4.25-3.2-7.15-2.87-14.45,1.64-27.8-1.65-40.47-8.6-4.65-2.55-6.66-5.8-6.28-11.23,1-14.19,5.45-26.95,14.72-37.83,2-2.39,3.32-4,1.23-7.53-5.47-9.17-2.83-18.25,2.54-26.38,5.18-7.83,13.67-10.26,22.21-8.22,10.19,2.44,19.91,6.82,29.9,10.16,3.36,1.12,7,2.45,10.38,2.27,9.57-.51,19.08-2,28.6.78,1.28.37,3.77-.89,4.65-2.13,3.68-5.25,3.82-11.05,1.32-16.85a6.67,6.67,0,0,0-7.75-4.26c-2.84.46-6.39,2.1-7.22-2.21-.93-4.83,3.2-5.26,6.59-6a22.74,22.74,0,0,0,2.7-1l7.12,2c10,11.51,11,20.16,3.57,34.14-2.54,4.81-1.28,6.82,4.37,7,14.87.47,21.4,5.37,25.62,19.25ZM608.64,256A92.23,92.23,0,0,0,580,237.57a85,85,0,0,0-19.71-5.65c-9.71-1.35-15.92,3.79-17.4,12.89-1.44,8.8,2,13.38,12.5,15.59C573.43,264.19,591,260.21,608.64,256Zm7.29,11c-11.44,11.45-21.15,22.62-28.48,35.69a50.16,50.16,0,0,0-4.35,10.1c-3.25,10.91,1.65,17.88,13,18.71,6,.44,10.35-2.27,13.48-7.27,4.57-7.3,6-15.5,6.85-23.85C617.49,289.74,618,279.07,615.93,267Zm-74.17,6.5c-8.15,7.3-8.69,9.94-4,18.31q4.66,8.38,9.31,16.75c3.66,6.58,6.94,8.11,14.22,7.32,3-.33,3.32-1.53,2.07-3.78C556.17,299.29,549,286.46,541.76,273.54ZM556,269.71c6.54,11.71,12.46,22.38,18.51,33a3.05,3.05,0,0,0,2.76,1.06c2.6-1.28,5.69-11.07,4.33-13.61-3.12-5.83-6.33-11.63-9.67-17.34-.67-1.14-2-2.48-3.19-2.61C564.91,269.77,561.06,269.86,556,269.71Zm69,5.67c9.81-9.5,12.69-19.41,8.43-25.92-3.65-5.59-13.44-7.52-24.49-3.77C622.6,251.17,625.56,261.8,625,275.38ZM600.65,271c-.71-1.17-1.47-3.26-2-3.21-3.8.36-7.56,1.17-11.33,1.83,1.27,2.81,2.42,5.68,3.92,8.36.31.56,2.4.91,2.82.49C596.28,276.25,598.24,273.77,600.65,271Z" transform="translate(-86.54 -16.44)"/>
    </g>
  </g>
  <path class="cls-5" d="M349.33,863.42A77.07,77.07,0,0,0,201.91,821,47,47,0,0,0,126,858a47.4,47.4,0,0,0,.32,5.42Z" transform="translate(-86.54 -16.44)"/>
  <path class="cls-5" d="M1009.63,965A77.07,77.07,0,0,1,1157,922.66a47,47,0,0,1,75.93,37,47.4,47.4,0,0,1-.32,5.42Z" transform="translate(-86.54 -16.44)"/>
  <path class="cls-5" d="M1035.46,440a47,47,0,0,0-43.1-65.64c-.46,0-.92,0-1.38,0a83.09,83.09,0,0,0-163.53.5,47,47,0,0,0-36,65.1Z" transform="translate(-86.54 -16.44)"/>
  <path class="cls-6" d="M1118.86,246.27a19.68,19.68,0,0,0-18.06-27.5h-.58a34.81,34.81,0,0,0-68.51.21,19.68,19.68,0,0,0-15.07,27.27Z" transform="translate(-86.54 -16.44)"/>
  <path class="cls-6" d="M900.58,989.25a19.68,19.68,0,0,0-18.06-27.5h-.58a34.81,34.81,0,0,0-68.51.21,19.68,19.68,0,0,0-15.07,27.27Z" transform="translate(-86.54 -16.44)"/>
  <path class="cls-6" d="M1346,128.84a19.68,19.68,0,0,0-18.06-27.5h-.58a34.81,34.81,0,0,0-68.51.21,19.68,19.68,0,0,0-15.07,27.27Z" transform="translate(-86.54 -16.44)"/>
  <g>
    <path class="cls-7" d="M91.05,610.2c0-42.57,34.51-128.26,77.08-128.26s77.08,85.69,77.08,128.26a77.08,77.08,0,1,1-154.16,0Z" transform="translate(-86.54 -16.44)"/>
    <ellipse class="cls-7" cx="36.43" cy="713.59" rx="17.46" ry="13.25"/>
    <path class="cls-8" d="M166.93,790.25V591.53M169.26,646s22,5.17,22-21.1m-68.85,107c0,51.79,40.55,43.36,40.55,43.36" transform="translate(-86.54 -16.44)"/>
  </g>
  <g>
    <path class="cls-9" d="M849.47,634.2c0-24.7,20-74.42,44.72-74.42s44.72,49.72,44.72,74.42a44.72,44.72,0,0,1-89.45,0Z" transform="translate(-86.54 -16.44)"/>
    <ellipse class="cls-9" cx="781.46" cy="687.29" rx="10.13" ry="7.69"/>
    <path class="cls-10" d="M893.5,738.67V623.37M894.85,655s12.74,3,12.74-12.24m-40,62.07c0,30,23.53,25.16,23.53,25.16" transform="translate(-86.54 -16.44)"/>
  </g>
  <g>
    <path class="cls-9" d="M476.45,891.72c0-24.7-20-74.42-44.72-74.42S387,867,387,891.72a44.72,44.72,0,0,0,89.45,0Z" transform="translate(-86.54 -16.44)"/>
    <ellipse class="cls-9" cx="371.4" cy="944.81" rx="10.13" ry="7.69"/>
    <path class="cls-10" d="M432.43,880.89V996.19m-14.09-96c0,15.24,12.74,12.24,12.74,12.24m3.68,75s23.53,4.89,23.53-25.16" transform="translate(-86.54 -16.44)"/>
  </g>
  <g>
    <path class="cls-7" d="M744.44,630.07a43.37,43.37,0,0,0-32.44-42,43.34,43.34,0,0,0-27-50.41,43.36,43.36,0,0,0-85,9.42,43.38,43.38,0,0,0-27.32,62.71,43.37,43.37,0,0,0,9.53,78.5,43.36,43.36,0,0,0,72.52,44.54A43.35,43.35,0,1,0,715.31,671,43.37,43.37,0,0,0,744.44,630.07Z" transform="translate(-86.54 -16.44)"/>
    <path class="cls-8" d="M652.91,996.19V593.38m-1.51,85.47-23.48-23.48m24.39,213.17,44.26-44.26M652.39,701.65l23.48-23.48" transform="translate(-86.54 -16.44)"/>
  </g>
  <g>
    <path class="cls-7" d="M1931.25,145a43.37,43.37,0,0,0-32.44-42,43.34,43.34,0,0,0-27-50.41,43.36,43.36,0,0,0-85,9.42,43.38,43.38,0,0,0-27.32,62.71,43.37,43.37,0,0,0,9.53,78.5,43.36,43.36,0,0,0,72.52,44.54A43.35,43.35,0,1,0,1902.11,186,43.37,43.37,0,0,0,1931.25,145Z" transform="translate(-86.54 -16.44)"/>
    <path class="cls-8" d="M1839.72,511.13V108.31m-1.51,85.47-23.48-23.48m24.39,213.17,44.26-44.26m-44.18-122.62,23.48-23.48" transform="translate(-86.54 -16.44)"/>
  </g>
  <g>
    <path class="cls-11" d="M1396.11,837.61a22.77,22.77,0,0,0-17-22,22.75,22.75,0,0,0-14.16-26.46,22.76,22.76,0,0,0-44.65,4.95A22.77,22.77,0,0,0,1305.92,827a22.77,22.77,0,0,0,5,41.21A22.76,22.76,0,0,0,1349,891.59a22.76,22.76,0,1,0,31.81-32.47A22.77,22.77,0,0,0,1396.11,837.61Z" transform="translate(-86.54 -16.44)"/>
    <path class="cls-12" d="M1348.05,1029.83V818.35m-.79,44.87-12.33-12.33m12.8,111.91L1371,939.57m-23.2-64.37,12.33-12.33" transform="translate(-86.54 -16.44)"/>
  </g>
  <g>
    <path class="cls-11" d="M191,141.09a22.77,22.77,0,0,0-17-22,22.75,22.75,0,0,0-14.16-26.46,22.76,22.76,0,0,0-44.65,4.95,22.77,22.77,0,0,0-14.34,32.92,22.77,22.77,0,0,0,5,41.21,22.76,22.76,0,0,0,38.08,23.38,22.76,22.76,0,1,0,31.81-32.47A22.77,22.77,0,0,0,191,141.09Z" transform="translate(-86.54 -16.44)"/>
    <path class="cls-12" d="M143,333.31V121.83m-.79,44.87-12.33-12.33m12.8,111.91L165.88,243m-23.2-64.37L155,166.34" transform="translate(-86.54 -16.44)"/>
  </g>
  <g>
    <path class="cls-7" d="M1084.24,697.07c-3.25-33.13,2-47.77,9.63-81.9,15.66-69.85,25.38-95.24,4.82-130.07-54.61-92.52,30.07-101.67,48.17-101.17,43.36,1.2,85.51,44.56,60.22,92.74-31.85,60.66,7.4,105.48,18.07,148.14,12,48.17,6.55,60.73,3.61,77.08-7.05,39.28-32.35,67.44-72.26,67.44S1088.14,736.79,1084.24,697.07Zm22.28-193h-83.1" transform="translate(-86.54 -16.44)"/>
    <path class="cls-8" d="M1155.9,937.94V559.77m-32.67,64s-.45,22.13,29.81,22.13m4.52-40.2c30.26,0,29.81-22.13,29.81-22.13m-29.81,114.71c48.78,0,41.1-33.42,41.1-33.42" transform="translate(-86.54 -16.44)"/>
    <path class="cls-13" d="M1041.49,532.07h-29.81m29.81,0h10.84a8.15,8.15,0,0,0,8.13-8.13h0a8.15,8.15,0,0,0-8.13-8.13H999a8.15,8.15,0,0,0-8.13,8.13h0a8.15,8.15,0,0,0,8.13,8.13h12.65M1060.46,592h0a8.15,8.15,0,0,0-8.13-8.13H999A8.15,8.15,0,0,0,990.9,592h0a8.15,8.15,0,0,0,8.13,8.13h53.29A8.15,8.15,0,0,0,1060.46,592Zm3.48-51.79h0a8.15,8.15,0,0,0-8.13-8.13H995.56a8.15,8.15,0,0,0-8.13,8.13h0a8.15,8.15,0,0,0,8.13,8.13h60.25A8.15,8.15,0,0,0,1063.93,540.2Zm0,33.72h0a8.15,8.15,0,0,0-8.13-8.13H995.56a8.15,8.15,0,0,0-8.13,8.13h0a8.15,8.15,0,0,0,8.13,8.13h60.25A8.15,8.15,0,0,0,1063.93,573.92Zm3.83-17.46h0a8.15,8.15,0,0,0-8.13-8.13h-67.9a8.15,8.15,0,0,0-8.13,8.13h0a8.15,8.15,0,0,0,8.13,8.13h67.9A8.15,8.15,0,0,0,1067.76,556.46Z" transform="translate(-86.54 -16.44)"/>
  </g>
  <g>
    <path class="cls-14" d="M1775.47,1144.64c-4.42-45,2.7-64.86,13.08-111.2,21.26-94.85,34.46-129.32,6.54-176.62-74.15-125.63,40.83-138.05,65.41-137.37,58.87,1.64,116.11,60.51,81.77,125.92-43.24,82.37,10.05,143.23,24.53,201.15,16.35,65.41,8.89,82.46,4.91,104.66-9.57,53.34-43.93,91.58-98.12,91.58S1780.77,1198.57,1775.47,1144.64Zm30.25-262.06H1692.89" transform="translate(-86.54 -16.44)"/>
    <path class="cls-15" d="M1872.77,1471.7V958.21m-44.36,86.88s-.61,30,40.47,30m6.13-54.58c41.09,0,40.47-30,40.47-30M1875,1146.27c66.23,0,55.81-45.38,55.81-45.38" transform="translate(-86.54 -16.44)"/>
    <path class="cls-16" d="M1717.42,920.6h-40.47m40.47,0h14.72a11.07,11.07,0,0,0,11-11h0a11.07,11.07,0,0,0-11-11h-72.36a11.07,11.07,0,0,0-11,11h0a11.07,11.07,0,0,0,11,11h17.17m66.23,81.36h0a11.07,11.07,0,0,0-11-11h-72.36a11.07,11.07,0,0,0-11,11h0a11.07,11.07,0,0,0,11,11h72.36A11.07,11.07,0,0,0,1743.17,1002Zm4.72-70.32h0a11.07,11.07,0,0,0-11-11H1655a11.07,11.07,0,0,0-11,11h0a11.07,11.07,0,0,0,11,11h81.81A11.07,11.07,0,0,0,1747.89,931.63Zm0,45.79h0a11.07,11.07,0,0,0-11-11H1655a11.07,11.07,0,0,0-11,11h0a11.07,11.07,0,0,0,11,11h81.81A11.07,11.07,0,0,0,1747.89,977.42Zm5.19-23.71h0a11.07,11.07,0,0,0-11-11h-92.2a11.07,11.07,0,0,0-11,11h0a11.07,11.07,0,0,0,11,11h92.2A11.07,11.07,0,0,0,1753.09,953.71Z" transform="translate(-86.54 -16.44)"/>
  </g>
  <g>
    <path class="cls-17" d="M371.64,241.55c-2.1-21.34,1.28-30.77,6.21-52.76,10.09-45,16.35-61.35,3.1-83.79-35.18-59.6,19.37-65.49,31-65.17,27.93.78,55.08,28.71,38.79,59.74-20.51,39.08,4.77,67.95,11.64,95.43,7.76,31,4.22,39.12,2.33,49.65-4.54,25.3-20.84,43.45-46.55,43.45S374.15,267.14,371.64,241.55ZM386,117.23H332.46" transform="translate(-86.54 -16.44)"/>
    <path class="cls-18" d="M417.8,396.72V153.11m-21,41.22s-.29,14.26,19.2,14.26m2.91-25.89c19.49,0,19.2-14.26,19.2-14.26m-19.2,73.9c31.42,0,26.48-21.53,26.48-21.53" transform="translate(-86.54 -16.44)"/>
    <path class="cls-19" d="M344.09,135.27h-19.2m19.2,0h7a5.25,5.25,0,0,0,5.24-5.24h0a5.25,5.25,0,0,0-5.24-5.24H316.75a5.25,5.25,0,0,0-5.24,5.24h0a5.25,5.25,0,0,0,5.24,5.24h8.15m31.42,38.6h0a5.25,5.25,0,0,0-5.24-5.24H316.75a5.25,5.25,0,0,0-5.24,5.24h0a5.25,5.25,0,0,0,5.24,5.24h34.33A5.25,5.25,0,0,0,356.31,173.86Zm2.24-33.36h0a5.25,5.25,0,0,0-5.24-5.24H314.5a5.25,5.25,0,0,0-5.24,5.24h0a5.25,5.25,0,0,0,5.24,5.24h38.81A5.25,5.25,0,0,0,358.55,140.5Zm0,21.72h0a5.25,5.25,0,0,0-5.24-5.24H314.5a5.25,5.25,0,0,0-5.24,5.24h0a5.25,5.25,0,0,0,5.24,5.24h38.81A5.25,5.25,0,0,0,358.55,162.23ZM361,151h0a5.25,5.25,0,0,0-5.24-5.24H312A5.25,5.25,0,0,0,306.8,151h0a5.25,5.25,0,0,0,5.24,5.24h43.74A5.25,5.25,0,0,0,361,151Z" transform="translate(-86.54 -16.44)"/>
  </g>
  <g id="Bee-2" data-name="Bee">
    <g>
      <path class="cls-20" d="M358.62,1125q-3.8-.56-7.61-1" transform="translate(-86.54 -16.44)"/>
      <path class="cls-21" d="M336.24,1123.14c-50.1-1.14-95.42,17.76-88.61,37.07a9.05,9.05,0,0,0,3.45,4.69" transform="translate(-86.54 -16.44)"/>
      <path class="cls-21" d="M258.2,1166.32c30.6-3.24,99.29-95.64-92.43-95.64-36.41,0-54.08-20.35-62-34.71" transform="translate(-86.54 -16.44)"/>
      <path class="cls-20" d="M100.51,1029.31a50.61,50.61,0,0,1-2.53-7.24" transform="translate(-86.54 -16.44)"/>
    </g>
    <g>
      <path class="cls-20" d="M603.2,1380.2s-2.82.17-7.67.05" transform="translate(-86.54 -16.44)"/>
      <path class="cls-22" d="M582.2,1379.38c-23.31-2.44-61.34-11.07-89.55-40.42" transform="translate(-86.54 -16.44)"/>
      <path class="cls-22" d="M488.15,1334c-18.67-21.82-32-53.86-32-100.9a141.51,141.51,0,0,0-1.21-18.8" transform="translate(-86.54 -16.44)"/>
      <path class="cls-20" d="M453.84,1207.71q-.73-3.85-1.68-7.49" transform="translate(-86.54 -16.44)"/>
    </g>
    <g id="_5DqBM2.tif-2" data-name="5DqBM2.tif">
      <path class="cls-4" d="M368.12,1139.76c3-9.83,7.61-13.3,18.14-13.63,4-.13,4.89-1.55,3.1-5-5.23-9.9-4.58-16,2.53-24.17l5-1.44a16.1,16.1,0,0,0,1.91.69c2.4.54,5.32.85,4.66,4.27-.59,3.05-3.1,1.89-5.11,1.56a4.72,4.72,0,0,0-5.49,3c-1.77,4.1-1.67,8.21.93,11.93.62.88,2.38,1.77,3.29,1.51,6.74-1.95,13.47-.91,20.25-.55,2.42.13,5-.81,7.35-1.61,7.07-2.36,14-5.47,21.17-7.19,6-1.44,12.05.27,15.72,5.82,3.81,5.75,5.67,12.18,1.8,18.68-1.48,2.47-.56,3.64.87,5.33,6.56,7.71,9.71,16.74,10.42,26.79.27,3.84-1.15,6.14-4.45,7.95-9,4.92-18.42,7.25-28.65,6.09-2.05-.23-3.81-.77-5.06,2-3.18,7.12-9.52,9.42-16.75,9.26-6.61-.15-10.71-4.23-13.66-9.87-3.33-6.36-4.23-13.23-4.78-20.2-.28-3.5-.82-6.65-3.47-9.47-4.55-4.85-8.26-10.33-9.57-17.12a3.78,3.78,0,0,0-2.22-2.35c-2.89-.94-8.37,1.29-10.3,3.84-2.38,3.16-.78,5.35,1.48,7.72.68.71.27,2.46.35,3.73-1.42.09-3.1.69-4.19.14-1.61-.82-2.81-2.47-4.18-3.77Zm82.46-4.71c7.47-1.57,9.87-4.81,8.85-11-1.05-6.44-5.45-10.08-12.32-9.12a60.15,60.15,0,0,0-14,4,65.3,65.3,0,0,0-20.3,13.05C425.36,1134.91,437.78,1137.73,450.57,1135Zm-43.22,28.33c.6,5.92,1.62,11.72,4.85,16.89,2.21,3.54,5.3,5.46,9.54,5.15,8-.59,11.48-5.52,9.18-13.25a35.52,35.52,0,0,0-3.08-7.15c-5.19-9.26-12.06-17.16-20.16-25.27C406.19,1148.27,406.59,1155.82,407.36,1163.38Zm37.58,8.29c-.89,1.59-.66,2.45,1.46,2.68,5.16.56,7.48-.52,10.07-5.18l6.59-11.86c3.29-5.92,2.91-7.79-2.86-13C455.09,1153.5,450,1162.58,444.94,1171.67ZM441.13,1142a3.8,3.8,0,0,0-2.26,1.85c-2.37,4-4.64,8.14-6.85,12.27-1,1.79,1.22,8.73,3.07,9.63a2.16,2.16,0,0,0,2-.75c4.29-7.5,8.48-15.05,13.11-23.34C446.53,1141.74,443.81,1141.68,441.13,1142Zm-28.47-17.35c-7.83-2.66-14.76-1.29-17.34,2.67-3,4.61-1,11.62,6,18.35C400.87,1136,403,1128.51,412.66,1124.63Zm10.53,23.2a2.11,2.11,0,0,0,2-.35c1.06-1.9,1.87-3.93,2.77-5.92-2.67-.47-5.33-1-8-1.3-.39,0-.93,1.44-1.43,2.27C420.21,1144.51,421.6,1146.27,423.18,1147.83Z" transform="translate(-86.54 -16.44)"/>
    </g>
  </g>
  <path class="cls-23" d="M1016.24,1326.8a54.57,54.57,0,0,1,104.37-30,33.25,33.25,0,0,1,53.76,26.17,33.56,33.56,0,0,1-.23,3.84Z" transform="translate(-86.54 -16.44)"/>
  <path class="cls-23" d="M1576,716.34a54.57,54.57,0,0,0-104.37-30,33.25,33.25,0,0,0-53.76,26.17,33.56,33.56,0,0,0,.23,3.84Z" transform="translate(-86.54 -16.44)"/>
  <path class="cls-23" d="M1557.75,344.64a33.26,33.26,0,0,1,30.52-46.47l1,0a58.83,58.83,0,0,1,115.78.36,33.27,33.27,0,0,1,25.46,46.09Z" transform="translate(-86.54 -16.44)"/>
  <path class="cls-6" d="M1479.37,1022.07a19.68,19.68,0,0,1,18.06-27.5h.58a34.81,34.81,0,0,1,68.51.21,19.68,19.68,0,0,1,15.07,27.27Z" transform="translate(-86.54 -16.44)"/>
  <path class="cls-24" d="M1653.25,733.49A13.93,13.93,0,0,1,1666,714h.41a24.64,24.64,0,0,1,48.5.15,13.94,13.94,0,0,1,10.67,19.31Z" transform="translate(-86.54 -16.44)"/>
  <path class="cls-6" d="M1515.17,846.35a19.68,19.68,0,0,1,18.06-27.5h.58a34.81,34.81,0,0,1,68.51.21,19.68,19.68,0,0,1,15.07,27.27Z" transform="translate(-86.54 -16.44)"/>
  <g>
    <path class="cls-25" d="M1199.1,1147.52c0-30.14-24.43-90.81-54.57-90.81s-54.57,60.67-54.57,90.81a54.57,54.57,0,0,0,109.14,0Z" transform="translate(-86.54 -16.44)"/>
    <ellipse class="cls-25" cx="1089.96" cy="1215.92" rx="12.36" ry="9.38"/>
    <path class="cls-26" d="M1145.38,1134.3V1275m-17.2-117.09c0,18.6,15.55,14.94,15.55,14.94m4.49,91.49s28.71,6,28.71-30.7" transform="translate(-86.54 -16.44)"/>
  </g>
  <g>
    <path class="cls-27" d="M1689.43,482.1c0-17.49-14.18-52.69-31.67-52.69s-31.67,35.2-31.67,52.69a31.67,31.67,0,1,0,63.33,0Z" transform="translate(-86.54 -16.44)"/>
    <ellipse class="cls-27" cx="1589.78" cy="514.89" rx="7.17" ry="5.44"/>
    <path class="cls-28" d="M1658.26,474.43v81.64m-10-67.94c0,10.79,9,8.67,9,8.67m2.6,53.09s16.66,3.46,16.66-17.81" transform="translate(-86.54 -16.44)"/>
  </g>
  <g>
    <path class="cls-27" d="M926.23,1346.84c0-17.49,14.18-52.69,31.67-52.69s31.67,35.2,31.67,52.69a31.67,31.67,0,1,1-63.33,0Z" transform="translate(-86.54 -16.44)"/>
    <ellipse class="cls-27" cx="852.8" cy="1379.62" rx="7.17" ry="5.44"/>
    <path class="cls-28" d="M957.4,1420.8v-81.64m1,22.37s9,2.12,9-8.67m-28.29,43.94c0,21.28,16.66,17.81,16.66,17.81" transform="translate(-86.54 -16.44)"/>
  </g>
  <g>
    <path class="cls-25" d="M736.49,1161.58a30.71,30.71,0,0,1,23-29.71,30.69,30.69,0,0,1,19.1-35.69,30.7,30.7,0,0,1,60.22,6.67,30.71,30.71,0,0,1,19.34,44.4,30.71,30.71,0,0,1-6.75,55.58A30.7,30.7,0,0,1,800,1234.37a30.69,30.69,0,1,1-42.9-43.79A30.7,30.7,0,0,1,736.49,1161.58Z" transform="translate(-86.54 -16.44)"/>
    <path class="cls-26" d="M801.29,1135.61v285.2M819,1179.49l-16.63,16.63m-32,103,31.34,31.34M785,1195.64l16.63,16.63" transform="translate(-86.54 -16.44)"/>
  </g>
  <g>
    <path class="cls-29" d="M1302.41,626.12a16.12,16.12,0,0,1,12.06-15.6,16.11,16.11,0,0,1,10-18.74,16.12,16.12,0,0,1,31.61,3.5,16.12,16.12,0,0,1,10.15,23.31,16.12,16.12,0,0,1-3.54,29.18,16.12,16.12,0,0,1-27,16.56,16.11,16.11,0,1,1-22.52-23A16.12,16.12,0,0,1,1302.41,626.12Z" transform="translate(-86.54 -16.44)"/>
    <path class="cls-30" d="M1336.43,612.49V762.21m9.29-126.69-8.73,8.73m-16.79,54.06,16.45,16.45M1327.9,644l8.73,8.73" transform="translate(-86.54 -16.44)"/>
  </g>
  <g>
    <path class="cls-29" d="M1314.92,204.82a16.12,16.12,0,0,1,12.06-15.6,16.11,16.11,0,0,1,10-18.74,16.12,16.12,0,0,1,31.61,3.5,16.12,16.12,0,0,1,10.15,23.31,16.12,16.12,0,0,1-3.54,29.18,16.12,16.12,0,0,1-27,16.56,16.11,16.11,0,1,1-22.52-23A16.12,16.12,0,0,1,1314.92,204.82Z" transform="translate(-86.54 -16.44)"/>
    <path class="cls-30" d="M1348.94,191.18V340.91m9.29-126.69-8.73,8.73M1332.71,277l16.45,16.45m-8.76-70.76,8.73,8.73" transform="translate(-86.54 -16.44)"/>
  </g>
  <g>
    <path class="cls-25" d="M1472,577.78c-28.26,0-46.17-19.94-51.16-47.75-2.08-11.57-6-20.46,2.56-54.57,7.55-30.2,35.34-61.93,12.79-104.88-17.91-34.11,11.94-64.8,42.63-65.66,12.82-.36,72.77,6.12,34.11,71.63-14.56,24.66-7.67,42.63,3.41,92.09,5.42,24.16,9.13,34.53,6.82,58C1520.45,554.74,1500.31,577.78,1472,577.78ZM1566.27,390h-58.84" transform="translate(-86.54 -16.44)"/>
    <path class="cls-26" d="M1472.48,429.41V697.16m2-206.78c21.42,0,21.1-15.67,21.1-15.67m-45.41-28.46s-.32,15.67,21.1,15.67m-29.1,41.89s-5.44,23.66,29.1,23.66" transform="translate(-86.54 -16.44)"/>
    <path class="cls-31" d="M1574.59,409.8h-21.1m21.1,0h9a5.77,5.77,0,0,0,5.76-5.76h0a5.77,5.77,0,0,0-5.76-5.76h-37.73a5.77,5.77,0,0,0-5.76,5.76h0a5.77,5.77,0,0,0,5.76,5.76h7.67m35.81,42.42h0a5.77,5.77,0,0,0-5.76-5.76h-37.73a5.77,5.77,0,0,0-5.76,5.76h0a5.77,5.77,0,0,0,5.76,5.76h37.73A5.77,5.77,0,0,0,1589.29,452.22Zm2.46-36.67h0a5.77,5.77,0,0,0-5.76-5.76h-42.66a5.77,5.77,0,0,0-5.76,5.76h0a5.77,5.77,0,0,0,5.76,5.76H1586A5.77,5.77,0,0,0,1591.76,415.55Zm0,23.88h0a5.77,5.77,0,0,0-5.76-5.76h-42.66a5.77,5.77,0,0,0-5.76,5.76h0a5.77,5.77,0,0,0,5.76,5.76H1586A5.77,5.77,0,0,0,1591.76,439.43Zm2.71-12.36h0a5.77,5.77,0,0,0-5.76-5.76h-48.07a5.77,5.77,0,0,0-5.76,5.76h0a5.77,5.77,0,0,0,5.76,5.76h48.07A5.77,5.77,0,0,0,1594.47,427.07Z" transform="translate(-86.54 -16.44)"/>
  </g>
  <g>
    <path class="cls-32" d="M1376.72,1373.93c-24.63,0-40.24-17.38-44.6-41.62-1.81-10.09-5.2-17.84,2.23-47.57,6.58-26.32,30.8-54,11.15-91.42-15.61-29.73,10.41-56.49,37.16-57.23,11.17-.31,63.43,5.34,29.73,62.43-12.69,21.5-6.69,37.16,3,80.27,4.72,21.06,8,30.1,5.95,50.54C1418.91,1353.84,1401.35,1373.93,1376.72,1373.93Zm82.13-163.7h-51.28" transform="translate(-86.54 -16.44)"/>
    <path class="cls-33" d="M1377.09,1244.6V1478m1.77-180.24c18.67,0,18.4-13.66,18.4-13.66m-39.58-24.81s-.28,13.66,18.4,13.66m-25.36,36.51s-4.74,20.63,25.36,20.63" transform="translate(-86.54 -16.44)"/>
    <path class="cls-34" d="M1466.1,1227.51h-18.4m18.4,0h7.8a5,5,0,0,0,5-5h0a5,5,0,0,0-5-5H1441a5,5,0,0,0-5,5h0a5,5,0,0,0,5,5h6.69m31.22,37h0a5,5,0,0,0-5-5H1441a5,5,0,0,0-5,5h0a5,5,0,0,0,5,5h32.89A5,5,0,0,0,1478.92,1264.48Zm2.15-32h0a5,5,0,0,0-5-5h-37.18a5,5,0,0,0-5,5h0a5,5,0,0,0,5,5H1476A5,5,0,0,0,1481.06,1232.52Zm0,20.81h0a5,5,0,0,0-5-5h-37.18a5,5,0,0,0-5,5h0a5,5,0,0,0,5,5H1476A5,5,0,0,0,1481.06,1253.33Zm2.36-10.78h0a5,5,0,0,0-5-5h-41.9a5,5,0,0,0-5,5h0a5,5,0,0,0,5,5h41.9A5,5,0,0,0,1483.42,1242.56Z" transform="translate(-86.54 -16.44)"/>
  </g>
</svg>
