<?xml version="1.0" encoding="utf-8"?>
<!-- Generator: Adobe Illustrator 21.1.0, SVG Export Plug-In . SVG Version: 6.00 Build 0)  -->

<?xml-stylesheet type="text/css" href="../../../css/gameanim.css"?>

<svg version="1.1" xmlns="http://www.w3.org/2000/svg" xmlns:xlink="http://www.w3.org/1999/xlink" x="0px" y="0px"
	 viewBox="0 0 2048 1536" style="enable-background:new 0 0 2048 1536;" xml:space="preserve">
<style type="text/css">
	.st0{fill:#FFF1A5;}
	.st1{opacity:0.46;}
	.st2{fill:none;stroke:#FFDB58;stroke-width:3;stroke-miterlimit:10;}
	.st3{fill:#75462D;}
	.st4{fill:#FFFFFF;}
	.st5{fill:#FFDB58;stroke:#FF9C32;stroke-width:4;stroke-miterlimit:10;}
	.st6{fill:#F9F9F9;stroke:#FF9C32;stroke-width:4;stroke-miterlimit:10;}
	.st7{fill:#FFF1A5;stroke:#FF9C32;stroke-width:4;stroke-miterlimit:10;}
	.st8{fill:#FFAE64;stroke:#FF9C32;stroke-width:4;stroke-miterlimit:10;}
	.st9{fill:#FF9C32;}
</style>
<g id="Closet">
</g>
<g id="Closet_1_">
	<rect id="background_1_" x="-1.3" y="1" class="st0" width="2046.6" height="1536"/>
	<g id="pattern_1_" class="st1">
		<g>
			<g>
				<path class="st2" d="M876.5,151.9H39.8c-5,0-9-4-9-9s4-9,9-9h836.8c5,0,9,4,9,9S881.5,151.9,876.5,151.9z"/>
			</g>
			<g>
				<path class="st2" d="M1011,151.9h-59.3c-5,0-9-4-9-9s4-9,9-9h59.3c5,0,9,4,9,9S1016,151.9,1011,151.9z"/>
			</g>
			<g>
				<path class="st2" d="M1532.1,151.9h-59.3c-5,0-9-4-9-9s4-9,9-9h59.3c5,0,9,4,9,9S1537,151.9,1532.1,151.9z"/>
			</g>
			<g>
				<path class="st2" d="M1406.3,151.9h-318.4c-5,0-9-4-9-9s4-9,9-9h318.4c5,0,9,4,9,9S1411.3,151.9,1406.3,151.9z"/>
			</g>
			<g>
				<path class="st2" d="M1802.2,151.9h-221.8c-5,0-9-4-9-9s4-9,9-9h221.8c5,0,9,4,9,9S1807.2,151.9,1802.2,151.9z"/>
			</g>
			<g>
				<path class="st2" d="M2004.3,151.9h-105.4c-5,0-9-4-9-9s4-9,9-9h105.4c5,0,9,4,9,9S2009.2,151.9,2004.3,151.9z"/>
			</g>
		</g>
		<g>
			<g>
				<path class="st2" d="M2004.3,225.5h-836.8c-5,0-9-4-9-9s4-9,9-9h836.8c5,0,9,4,9,9S2009.2,225.5,2004.3,225.5z"/>
			</g>
			<g>
				<path class="st2" d="M1092.3,225.5H1033c-5,0-9-4-9-9s4-9,9-9h59.3c5,0,9,4,9,9S1097.3,225.5,1092.3,225.5z"/>
			</g>
			<g>
				<path class="st2" d="M571.2,225.5h-59.3c-5,0-9-4-9-9s4-9,9-9h59.3c5,0,9,4,9,9S576.2,225.5,571.2,225.5z"/>
			</g>
			<g>
				<path class="st2" d="M956.1,225.5H637.7c-5,0-9-4-9-9s4-9,9-9h318.4c5,0,9,4,9,9S961.1,225.5,956.1,225.5z"/>
			</g>
			<g>
				<path class="st2" d="M463.6,225.5H241.8c-5,0-9-4-9-9s4-9,9-9h221.8c5,0,9,4,9,9S468.6,225.5,463.6,225.5z"/>
			</g>
			<g>
				<path class="st2" d="M145.2,225.5H39.8c-5,0-9-4-9-9s4-9,9-9h105.4c5,0,9,4,9,9S150.1,225.5,145.2,225.5z"/>
			</g>
		</g>
		<g>
			<g>
				<path class="st2" d="M184.2,78.3c-5,0-9-4-9-9c0-5,4-9,9-9l477.1-0.4c0,0,0,0,0,0c5,0,9,4,9,9c0,5-4,9-9,9L184.2,78.3
					C184.2,78.3,184.2,78.3,184.2,78.3z"/>
			</g>
			<g>
				<path class="st2" d="M115.5,78.1H40.9c-5,0-9-4-9-9s4-9,9-9h74.7c5,0,9,4,9,9S120.5,78.1,115.5,78.1z"/>
			</g>
			<g>
				<path class="st2" d="M1085.7,78.1H755.2c-5,0-9-4-9-9s4-9,9-9h330.5c5,0,9,4,9,9S1090.7,78.1,1085.7,78.1z"/>
			</g>
			<g>
				<path class="st2" d="M1722,78.1h-58.2c-5,0-9-4-9-9s4-9,9-9h58.2c5,0,9,4,9,9S1727,78.1,1722,78.1z"/>
			</g>
			<g>
				<path class="st2" d="M1270.2,78.3C1270.2,78.3,1270.1,78.3,1270.2,78.3l-87.3-0.4c-5,0-9-4.1-9-9c0-5,4-9,9-9c0,0,0,0,0,0
					l87.3,0.4c5,0,9,4.1,9,9C1279.2,74.3,1275.1,78.3,1270.2,78.3z"/>
			</g>
			<g>
				<path class="st2" d="M1609.5,78.1h-281.1c-5,0-9-4-9-9s4-9,9-9h281.1c5,0,9,4,9,9S1614.5,78.1,1609.5,78.1z"/>
			</g>
			<g>
				<path class="st2" d="M2004.3,78.1h-221.8c-5,0-9-4-9-9s4-9,9-9h221.8c5,0,9,4,9,9S2009.2,78.1,2004.3,78.1z"/>
			</g>
		</g>
		<g>
			<g>
				<path class="st2" d="M184.2,373.1c-5,0-9-4-9-9c0-5,4-9,9-9l477.1-0.4c0,0,0,0,0,0c5,0,9,4,9,9c0,5-4,9-9,9L184.2,373.1
					C184.2,373.1,184.2,373.1,184.2,373.1z"/>
			</g>
			<g>
				<path class="st2" d="M115.5,372.9H40.9c-5,0-9-4-9-9s4-9,9-9h74.7c5,0,9,4,9,9S120.5,372.9,115.5,372.9z"/>
			</g>
			<g>
				<path class="st2" d="M1085.7,372.9H755.2c-5,0-9-4-9-9s4-9,9-9h330.5c5,0,9,4,9,9S1090.7,372.9,1085.7,372.9z"/>
			</g>
			<g>
				<path class="st2" d="M1722,372.9h-58.2c-5,0-9-4-9-9s4-9,9-9h58.2c5,0,9,4,9,9S1727,372.9,1722,372.9z"/>
			</g>
			<g>
				<path class="st2" d="M1270.2,373.1C1270.2,373.1,1270.1,373.1,1270.2,373.1l-87.3-0.4c-5,0-9-4.1-9-9c0-5,4-9,9-9c0,0,0,0,0,0
					l87.3,0.4c5,0,9,4.1,9,9C1279.2,369.1,1275.1,373.1,1270.2,373.1z"/>
			</g>
			<g>
				<path class="st2" d="M1609.5,372.9h-281.1c-5,0-9-4-9-9s4-9,9-9h281.1c5,0,9,4,9,9S1614.5,372.9,1609.5,372.9z"/>
			</g>
			<g>
				<path class="st2" d="M2004.3,372.9h-221.8c-5,0-9-4-9-9s4-9,9-9h221.8c5,0,9,4,9,9S2009.2,372.9,2004.3,372.9z"/>
			</g>
		</g>
		<g>
			<g>
				<path class="st2" d="M2004.3,299.1h-330.5c-5,0-9-4-9-9s4-9,9-9h330.5c5,0,9,4,9,9S2009.2,299.1,2004.3,299.1z"/>
			</g>
			<g>
				<path class="st2" d="M1608.9,299.1h-79.1c-5,0-9-4-9-9s4-9,9-9h79.1c5,0,9,4,9,9S1613.9,299.1,1608.9,299.1z"/>
			</g>
			<g>
				<path class="st2" d="M372.5,299.1h-79.1c-5,0-9-4-9-9s4-9,9-9h79.1c5,0,9,4,9,9S377.4,299.1,372.5,299.1z"/>
			</g>
			<g>
				<path class="st2" d="M205.6,299.1H40.9c-5,0-9-4-9-9s4-9,9-9h164.7c5,0,9,4,9,9S210.5,299.1,205.6,299.1z"/>
			</g>
			<g>
				<path class="st2" d="M750.2,299.1H443.9c-5,0-9-4-9-9s4-9,9-9h306.4c5,0,9,4,9,9S755.2,299.1,750.2,299.1z"/>
			</g>
			<g>
				<path class="st2" d="M907.8,299.1H802.4c-5,0-9-4-9-9s4-9,9-9h105.4c5,0,9,4,9,9S912.8,299.1,907.8,299.1z"/>
			</g>
			<g>
				<path class="st2" d="M1352.5,299.1H953.9c-5,0-9-4-9-9s4-9,9-9h398.6c5,0,9,4,9,9S1357.5,299.1,1352.5,299.1z"/>
			</g>
			<g>
				<path class="st2" d="M1483.8,299.1h-81.3c-5,0-9-4-9-9s4-9,9-9h81.3c5,0,9,4,9,9S1488.7,299.1,1483.8,299.1z"/>
			</g>
		</g>
		<g>
			<g>
				<path class="st2" d="M2004.3,594h-330.5c-5,0-9-4-9-9s4-9,9-9h330.5c5,0,9,4,9,9S2009.2,594,2004.3,594z"/>
			</g>
			<g>
				<path class="st2" d="M1608.9,594h-79.1c-5,0-9-4-9-9s4-9,9-9h79.1c5,0,9,4,9,9S1613.9,594,1608.9,594z"/>
			</g>
			<g>
				<path class="st2" d="M372.5,594h-79.1c-5,0-9-4-9-9s4-9,9-9h79.1c5,0,9,4,9,9S377.4,594,372.5,594z"/>
			</g>
			<g>
				<path class="st2" d="M205.6,594H40.9c-5,0-9-4-9-9s4-9,9-9h164.7c5,0,9,4,9,9S210.5,594,205.6,594z"/>
			</g>
			<g>
				<path class="st2" d="M750.2,594H443.9c-5,0-9-4-9-9s4-9,9-9h306.4c5,0,9,4,9,9S755.2,594,750.2,594z"/>
			</g>
			<g>
				<path class="st2" d="M907.8,594H802.4c-5,0-9-4-9-9s4-9,9-9h105.4c5,0,9,4,9,9S912.8,594,907.8,594z"/>
			</g>
			<g>
				<path class="st2" d="M1352.5,594H953.9c-5,0-9-4-9-9s4-9,9-9h398.6c5,0,9,4,9,9S1357.5,594,1352.5,594z"/>
			</g>
			<g>
				<path class="st2" d="M1483.8,594h-81.3c-5,0-9-4-9-9s4-9,9-9h81.3c5,0,9,4,9,9S1488.7,594,1483.8,594z"/>
			</g>
		</g>
		<g>
			<g>
				<path class="st2" d="M2004.3,741.2h-330.5c-5,0-9-4-9-9s4-9,9-9h330.5c5,0,9,4,9,9S2009.2,741.2,2004.3,741.2z"/>
			</g>
			<g>
				<path class="st2" d="M1608.9,741.2h-79.1c-5,0-9-4-9-9s4-9,9-9h79.1c5,0,9,4,9,9S1613.9,741.2,1608.9,741.2z"/>
			</g>
			<g>
				<path class="st2" d="M372.5,741.2h-79.1c-5,0-9-4-9-9s4-9,9-9h79.1c5,0,9,4,9,9S377.4,741.2,372.5,741.2z"/>
			</g>
			<g>
				<path class="st2" d="M205.6,741.2H40.9c-5,0-9-4-9-9s4-9,9-9h164.7c5,0,9,4,9,9S210.5,741.2,205.6,741.2z"/>
			</g>
			<g>
				<path class="st2" d="M750.2,741.2H443.9c-5,0-9-4-9-9s4-9,9-9h306.4c5,0,9,4,9,9S755.2,741.2,750.2,741.2z"/>
			</g>
			<g>
				<path class="st2" d="M907.8,741.2H802.4c-5,0-9-4-9-9s4-9,9-9h105.4c5,0,9,4,9,9S912.8,741.2,907.8,741.2z"/>
			</g>
			<g>
				<path class="st2" d="M1352.5,741.2H953.9c-5,0-9-4-9-9s4-9,9-9h398.6c5,0,9,4,9,9S1357.5,741.2,1352.5,741.2z"/>
			</g>
			<g>
				<path class="st2" d="M1483.8,741.2h-81.3c-5,0-9-4-9-9s4-9,9-9h81.3c5,0,9,4,9,9S1488.7,741.2,1483.8,741.2z"/>
			</g>
		</g>
		<g>
			<g>
				<path class="st2" d="M2004.3,446.7h-330.5c-5,0-9-4-9-9s4-9,9-9h330.5c5,0,9,4,9,9S2009.2,446.7,2004.3,446.7z"/>
			</g>
			<g>
				<path class="st2" d="M1608.9,446.7h-79.1c-5,0-9-4-9-9s4-9,9-9h79.1c5,0,9,4,9,9S1613.9,446.7,1608.9,446.7z"/>
			</g>
			<g>
				<path class="st2" d="M372.5,446.7h-79.1c-5,0-9-4-9-9s4-9,9-9h79.1c5,0,9,4,9,9S377.4,446.7,372.5,446.7z"/>
			</g>
			<g>
				<path class="st2" d="M205.6,446.7H40.9c-5,0-9-4-9-9s4-9,9-9h164.7c5,0,9,4,9,9S210.5,446.7,205.6,446.7z"/>
			</g>
			<g>
				<path class="st2" d="M750.2,446.7H443.9c-5,0-9-4-9-9s4-9,9-9h306.4c5,0,9,4,9,9S755.2,446.7,750.2,446.7z"/>
			</g>
			<g>
				<path class="st2" d="M907.8,446.7H802.4c-5,0-9-4-9-9s4-9,9-9h105.4c5,0,9,4,9,9S912.8,446.7,907.8,446.7z"/>
			</g>
			<g>
				<path class="st2" d="M1352.5,446.7H953.9c-5,0-9-4-9-9s4-9,9-9h398.6c5,0,9,4,9,9S1357.5,446.7,1352.5,446.7z"/>
			</g>
			<g>
				<path class="st2" d="M1483.8,446.7h-81.3c-5,0-9-4-9-9s4-9,9-9h81.3c5,0,9,4,9,9S1488.7,446.7,1483.8,446.7z"/>
			</g>
		</g>
		<g>
			<g>
				<path class="st2" d="M371.4,520.4H40.9c-5,0-9-4-9-9s4-9,9-9h330.5c5,0,9,4,9,9S376.3,520.4,371.4,520.4z"/>
			</g>
			<g>
				<path class="st2" d="M515.2,520.4h-79.1c-5,0-9-4-9-9s4-9,9-9h79.1c5,0,9,4,9,9S520.2,520.4,515.2,520.4z"/>
			</g>
			<g>
				<path class="st2" d="M1751.7,520.4h-79.1c-5,0-9-4-9-9s4-9,9-9h79.1c5,0,9,4,9,9S1756.7,520.4,1751.7,520.4z"/>
			</g>
			<g>
				<path class="st2" d="M2004.3,520.4h-164.7c-5,0-9-4-9-9s4-9,9-9h164.7c5,0,9,4,9,9S2009.2,520.4,2004.3,520.4z"/>
			</g>
			<g>
				<path class="st2" d="M1601.2,520.4h-306.4c-5,0-9-4-9-9s4-9,9-9h306.4c5,0,9,4,9,9S1606.2,520.4,1601.2,520.4z"/>
			</g>
			<g>
				<path class="st2" d="M1242.7,520.4h-105.4c-5,0-9-4-9-9s4-9,9-9h105.4c5,0,9,4,9,9S1247.7,520.4,1242.7,520.4z"/>
			</g>
			<g>
				<path class="st2" d="M1091.2,520.4H692.6c-5,0-9-4-9-9s4-9,9-9h398.6c5,0,9,4,9,9S1096.2,520.4,1091.2,520.4z"/>
			</g>
			<g>
				<path class="st2" d="M642.6,520.4h-81.3c-5,0-9-4-9-9s4-9,9-9h81.3c5,0,9,4,9,9S647.6,520.4,642.6,520.4z"/>
			</g>
		</g>
		<g>
			<g>
				<path class="st2" d="M2004.3,667.6h-330.5c-5,0-9-4-9-9s4-9,9-9h330.5c5,0,9,4,9,9S2009.2,667.6,2004.3,667.6z"/>
			</g>
			<g>
				<path class="st2" d="M1608.9,667.6h-79.1c-5,0-9-4-9-9s4-9,9-9h79.1c5,0,9,4,9,9S1613.9,667.6,1608.9,667.6z"/>
			</g>
			<g>
				<path class="st2" d="M372.5,667.6h-79.1c-5,0-9-4-9-9s4-9,9-9h79.1c5,0,9,4,9,9S377.4,667.6,372.5,667.6z"/>
			</g>
			<g>
				<path class="st2" d="M205.6,667.6H40.9c-5,0-9-4-9-9s4-9,9-9h164.7c5,0,9,4,9,9S210.5,667.6,205.6,667.6z"/>
			</g>
			<g>
				<path class="st2" d="M750.2,667.6H443.9c-5,0-9-4-9-9s4-9,9-9h306.4c5,0,9,4,9,9S755.2,667.6,750.2,667.6z"/>
			</g>
			<g>
				<path class="st2" d="M907.8,667.6H802.4c-5,0-9-4-9-9s4-9,9-9h105.4c5,0,9,4,9,9S912.8,667.6,907.8,667.6z"/>
			</g>
			<g>
				<path class="st2" d="M1352.5,667.6H953.9c-5,0-9-4-9-9s4-9,9-9h398.6c5,0,9,4,9,9S1357.5,667.6,1352.5,667.6z"/>
			</g>
			<g>
				<path class="st2" d="M1483.8,667.6h-81.3c-5,0-9-4-9-9s4-9,9-9h81.3c5,0,9,4,9,9S1488.7,667.6,1483.8,667.6z"/>
			</g>
		</g>
		<g>
			<g>
				<path class="st2" d="M2004.3,888.8h-836.8c-5,0-9-4-9-9s4-9,9-9h836.8c5,0,9,4,9,9S2009.2,888.8,2004.3,888.8z"/>
			</g>
			<g>
				<path class="st2" d="M1092.3,888.8H1033c-5,0-9-4-9-9s4-9,9-9h59.3c5,0,9,4,9,9S1097.3,888.8,1092.3,888.8z"/>
			</g>
			<g>
				<path class="st2" d="M571.2,888.8h-59.3c-5,0-9-4-9-9s4-9,9-9h59.3c5,0,9,4,9,9S576.2,888.8,571.2,888.8z"/>
			</g>
			<g>
				<path class="st2" d="M956.1,888.8H637.7c-5,0-9-4-9-9s4-9,9-9h318.4c5,0,9,4,9,9S961.1,888.8,956.1,888.8z"/>
			</g>
			<g>
				<path class="st2" d="M463.6,888.8H241.8c-5,0-9-4-9-9s4-9,9-9h221.8c5,0,9,4,9,9S468.6,888.8,463.6,888.8z"/>
			</g>
			<g>
				<path class="st2" d="M145.2,888.8H39.8c-5,0-9-4-9-9s4-9,9-9h105.4c5,0,9,4,9,9S150.1,888.8,145.2,888.8z"/>
			</g>
		</g>
		<g>
			<g>
				<path class="st2" d="M876.5,962.4H39.8c-5,0-9-4-9-9s4-9,9-9h836.8c5,0,9,4,9,9S881.5,962.4,876.5,962.4z"/>
			</g>
			<g>
				<path class="st2" d="M1011,962.4h-59.3c-5,0-9-4-9-9s4-9,9-9h59.3c5,0,9,4,9,9S1016,962.4,1011,962.4z"/>
			</g>
			<g>
				<path class="st2" d="M1532.1,962.4h-59.3c-5,0-9-4-9-9s4-9,9-9h59.3c5,0,9,4,9,9S1537,962.4,1532.1,962.4z"/>
			</g>
			<g>
				<path class="st2" d="M1406.3,962.4h-318.4c-5,0-9-4-9-9s4-9,9-9h318.4c5,0,9,4,9,9S1411.3,962.4,1406.3,962.4z"/>
			</g>
			<g>
				<path class="st2" d="M1802.2,962.4h-221.8c-5,0-9-4-9-9s4-9,9-9h221.8c5,0,9,4,9,9S1807.2,962.4,1802.2,962.4z"/>
			</g>
			<g>
				<path class="st2" d="M2004.3,962.4h-105.4c-5,0-9-4-9-9s4-9,9-9h105.4c5,0,9,4,9,9S2009.2,962.4,2004.3,962.4z"/>
			</g>
		</g>
		<g>
			<g>
				<path class="st2" d="M1861,815.2C1861,815.2,1860.9,815.2,1861,815.2l-477.1-0.4c-5,0-9-4-9-9c0-5,4-9,9-9h0l477.1,0.4
					c5,0,9,4,9,9C1869.9,811.1,1865.9,815.2,1861,815.2z"/>
			</g>
			<g>
				<path class="st2" d="M2004.3,815h-74.7c-5,0-9-4-9-9s4-9,9-9h74.7c5,0,9,4,9,9S2009.2,815,2004.3,815z"/>
			</g>
			<g>
				<path class="st2" d="M1289.9,815H959.4c-5,0-9-4-9-9s4-9,9-9h330.5c5,0,9,4,9,9S1294.9,815,1289.9,815z"/>
			</g>
			<g>
				<path class="st2" d="M381.3,815h-58.2c-5,0-9-4-9-9s4-9,9-9h58.2c5,0,9,4,9,9S386.2,815,381.3,815z"/>
			</g>
			<g>
				<path class="st2" d="M774.9,815.2c-5,0-9-4-9-9c0-5,4-9,9-9l87.3-0.4c0,0,0,0,0,0c5,0,9,4,9,9c0,5-4,9-9,9L774.9,815.2
					C775,815.2,774.9,815.2,774.9,815.2z"/>
			</g>
			<g>
				<path class="st2" d="M716.7,815H435.6c-5,0-9-4-9-9s4-9,9-9h281.1c5,0,9,4,9,9S721.7,815,716.7,815z"/>
			</g>
			<g>
				<path class="st2" d="M262.7,815H40.9c-5,0-9-4-9-9s4-9,9-9h221.8c5,0,9,4,9,9S267.6,815,262.7,815z"/>
			</g>
		</g>
		<g>
			<g>
				<path class="st2" d="M184.2,1110c-5,0-9-4-9-9c0-5,4-9,9-9l477.1-0.4c0,0,0,0,0,0c5,0,9,4,9,9c0,5-4,9-9,9L184.2,1110
					C184.2,1110,184.2,1110,184.2,1110z"/>
			</g>
			<g>
				<path class="st2" d="M115.5,1109.8H40.9c-5,0-9-4-9-9s4-9,9-9h74.7c5,0,9,4,9,9S120.5,1109.8,115.5,1109.8z"/>
			</g>
			<g>
				<path class="st2" d="M1085.7,1109.8H755.2c-5,0-9-4-9-9s4-9,9-9h330.5c5,0,9,4,9,9S1090.7,1109.8,1085.7,1109.8z"/>
			</g>
			<g>
				<path class="st2" d="M1722,1109.8h-58.2c-5,0-9-4-9-9s4-9,9-9h58.2c5,0,9,4,9,9S1727,1109.8,1722,1109.8z"/>
			</g>
			<g>
				<path class="st2" d="M1270.2,1110C1270.2,1110,1270.1,1110,1270.2,1110l-87.3-0.4c-5,0-9-4.1-9-9c0-5,4-9,9-9c0,0,0,0,0,0
					l87.3,0.4c5,0,9,4.1,9,9C1279.2,1106,1275.1,1110,1270.2,1110z"/>
			</g>
			<g>
				<path class="st2" d="M1609.5,1109.8h-281.1c-5,0-9-4-9-9s4-9,9-9h281.1c5,0,9,4,9,9S1614.5,1109.8,1609.5,1109.8z"/>
			</g>
			<g>
				<path class="st2" d="M2004.3,1109.8h-221.8c-5,0-9-4-9-9s4-9,9-9h221.8c5,0,9,4,9,9S2009.2,1109.8,2004.3,1109.8z"/>
			</g>
		</g>
		<g>
			<g>
				<path class="st2" d="M371.4,1036H40.9c-5,0-9-4-9-9s4-9,9-9h330.5c5,0,9,4,9,9S376.3,1036,371.4,1036z"/>
			</g>
			<g>
				<path class="st2" d="M515.2,1036h-79.1c-5,0-9-4-9-9s4-9,9-9h79.1c5,0,9,4,9,9S520.2,1036,515.2,1036z"/>
			</g>
			<g>
				<path class="st2" d="M1751.7,1036h-79.1c-5,0-9-4-9-9s4-9,9-9h79.1c5,0,9,4,9,9S1756.7,1036,1751.7,1036z"/>
			</g>
			<g>
				<path class="st2" d="M2004.3,1036h-164.7c-5,0-9-4-9-9s4-9,9-9h164.7c5,0,9,4,9,9S2009.2,1036,2004.3,1036z"/>
			</g>
			<g>
				<path class="st2" d="M1601.2,1036h-306.4c-5,0-9-4-9-9s4-9,9-9h306.4c5,0,9,4,9,9S1606.2,1036,1601.2,1036z"/>
			</g>
			<g>
				<path class="st2" d="M1242.7,1036h-105.4c-5,0-9-4-9-9s4-9,9-9h105.4c5,0,9,4,9,9S1247.7,1036,1242.7,1036z"/>
			</g>
			<g>
				<path class="st2" d="M1091.2,1036H692.6c-5,0-9-4-9-9s4-9,9-9h398.6c5,0,9,4,9,9S1096.2,1036,1091.2,1036z"/>
			</g>
			<g>
				<path class="st2" d="M642.6,1036h-81.3c-5,0-9-4-9-9s4-9,9-9h81.3c5,0,9,4,9,9S647.6,1036,642.6,1036z"/>
			</g>
		</g>
		<g>
			<g>
				<path class="st2" d="M371.4,1330.8H40.9c-5,0-9-4-9-9s4-9,9-9h330.5c5,0,9,4,9,9S376.3,1330.8,371.4,1330.8z"/>
			</g>
			<g>
				<path class="st2" d="M515.2,1330.8h-79.1c-5,0-9-4-9-9s4-9,9-9h79.1c5,0,9,4,9,9S520.2,1330.8,515.2,1330.8z"/>
			</g>
			<g>
				<path class="st2" d="M1751.7,1330.8h-79.1c-5,0-9-4-9-9s4-9,9-9h79.1c5,0,9,4,9,9S1756.7,1330.8,1751.7,1330.8z"/>
			</g>
			<g>
				<path class="st2" d="M2004.3,1330.8h-164.7c-5,0-9-4-9-9s4-9,9-9h164.7c5,0,9,4,9,9S2009.2,1330.8,2004.3,1330.8z"/>
			</g>
			<g>
				<path class="st2" d="M1601.2,1330.8h-306.4c-5,0-9-4-9-9s4-9,9-9h306.4c5,0,9,4,9,9S1606.2,1330.8,1601.2,1330.8z"/>
			</g>
			<g>
				<path class="st2" d="M1242.7,1330.8h-105.4c-5,0-9-4-9-9s4-9,9-9h105.4c5,0,9,4,9,9S1247.7,1330.8,1242.7,1330.8z"/>
			</g>
			<g>
				<path class="st2" d="M1091.2,1330.8H692.6c-5,0-9-4-9-9s4-9,9-9h398.6c5,0,9,4,9,9S1096.2,1330.8,1091.2,1330.8z"/>
			</g>
			<g>
				<path class="st2" d="M642.6,1330.8h-81.3c-5,0-9-4-9-9s4-9,9-9h81.3c5,0,9,4,9,9S647.6,1330.8,642.6,1330.8z"/>
			</g>
		</g>
		<g>
			<g>
				<path class="st2" d="M371.4,1478.1H40.9c-5,0-9-4-9-9s4-9,9-9h330.5c5,0,9,4,9,9S376.3,1478.1,371.4,1478.1z"/>
			</g>
			<g>
				<path class="st2" d="M515.2,1478.1h-79.1c-5,0-9-4-9-9s4-9,9-9h79.1c5,0,9,4,9,9S520.2,1478.1,515.2,1478.1z"/>
			</g>
			<g>
				<path class="st2" d="M1751.7,1478.1h-79.1c-5,0-9-4-9-9s4-9,9-9h79.1c5,0,9,4,9,9S1756.7,1478.1,1751.7,1478.1z"/>
			</g>
			<g>
				<path class="st2" d="M2004.3,1478.1h-164.7c-5,0-9-4-9-9s4-9,9-9h164.7c5,0,9,4,9,9S2009.2,1478.1,2004.3,1478.1z"/>
			</g>
			<g>
				<path class="st2" d="M1601.2,1478.1h-306.4c-5,0-9-4-9-9s4-9,9-9h306.4c5,0,9,4,9,9S1606.2,1478.1,1601.2,1478.1z"/>
			</g>
			<g>
				<path class="st2" d="M1242.7,1478.1h-105.4c-5,0-9-4-9-9s4-9,9-9h105.4c5,0,9,4,9,9S1247.7,1478.1,1242.7,1478.1z"/>
			</g>
			<g>
				<path class="st2" d="M1091.2,1478.1H692.6c-5,0-9-4-9-9s4-9,9-9h398.6c5,0,9,4,9,9S1096.2,1478.1,1091.2,1478.1z"/>
			</g>
			<g>
				<path class="st2" d="M642.6,1478.1h-81.3c-5,0-9-4-9-9s4-9,9-9h81.3c5,0,9,4,9,9S647.6,1478.1,642.6,1478.1z"/>
			</g>
		</g>
		<g>
			<g>
				<path class="st2" d="M371.4,1183.6H40.9c-5,0-9-4-9-9s4-9,9-9h330.5c5,0,9,4,9,9S376.3,1183.6,371.4,1183.6z"/>
			</g>
			<g>
				<path class="st2" d="M515.2,1183.6h-79.1c-5,0-9-4-9-9s4-9,9-9h79.1c5,0,9,4,9,9S520.2,1183.6,515.2,1183.6z"/>
			</g>
			<g>
				<path class="st2" d="M1751.7,1183.6h-79.1c-5,0-9-4-9-9s4-9,9-9h79.1c5,0,9,4,9,9S1756.7,1183.6,1751.7,1183.6z"/>
			</g>
			<g>
				<path class="st2" d="M2004.3,1183.6h-164.7c-5,0-9-4-9-9s4-9,9-9h164.7c5,0,9,4,9,9S2009.2,1183.6,2004.3,1183.6z"/>
			</g>
			<g>
				<path class="st2" d="M1601.2,1183.6h-306.4c-5,0-9-4-9-9s4-9,9-9h306.4c5,0,9,4,9,9S1606.2,1183.6,1601.2,1183.6z"/>
			</g>
			<g>
				<path class="st2" d="M1242.7,1183.6h-105.4c-5,0-9-4-9-9s4-9,9-9h105.4c5,0,9,4,9,9S1247.7,1183.6,1242.7,1183.6z"/>
			</g>
			<g>
				<path class="st2" d="M1091.2,1183.6H692.6c-5,0-9-4-9-9s4-9,9-9h398.6c5,0,9,4,9,9S1096.2,1183.6,1091.2,1183.6z"/>
			</g>
			<g>
				<path class="st2" d="M642.6,1183.6h-81.3c-5,0-9-4-9-9s4-9,9-9h81.3c5,0,9,4,9,9S647.6,1183.6,642.6,1183.6z"/>
			</g>
		</g>
		<g>
			<g>
				<path class="st2" d="M2004.3,1257.2h-330.5c-5,0-9-4-9-9s4-9,9-9h330.5c5,0,9,4,9,9S2009.2,1257.2,2004.3,1257.2z"/>
			</g>
			<g>
				<path class="st2" d="M1608.9,1257.2h-79.1c-5,0-9-4-9-9s4-9,9-9h79.1c5,0,9,4,9,9S1613.9,1257.2,1608.9,1257.2z"/>
			</g>
			<g>
				<path class="st2" d="M372.5,1257.2h-79.1c-5,0-9-4-9-9s4-9,9-9h79.1c5,0,9,4,9,9S377.4,1257.2,372.5,1257.2z"/>
			</g>
			<g>
				<path class="st2" d="M205.6,1257.2H40.9c-5,0-9-4-9-9s4-9,9-9h164.7c5,0,9,4,9,9S210.5,1257.2,205.6,1257.2z"/>
			</g>
			<g>
				<path class="st2" d="M750.2,1257.2H443.9c-5,0-9-4-9-9s4-9,9-9h306.4c5,0,9,4,9,9S755.2,1257.2,750.2,1257.2z"/>
			</g>
			<g>
				<path class="st2" d="M907.8,1257.2H802.4c-5,0-9-4-9-9s4-9,9-9h105.4c5,0,9,4,9,9S912.8,1257.2,907.8,1257.2z"/>
			</g>
			<g>
				<path class="st2" d="M1352.5,1257.2H953.9c-5,0-9-4-9-9s4-9,9-9h398.6c5,0,9,4,9,9S1357.5,1257.2,1352.5,1257.2z"/>
			</g>
			<g>
				<path class="st2" d="M1483.8,1257.2h-81.3c-5,0-9-4-9-9s4-9,9-9h81.3c5,0,9,4,9,9S1488.7,1257.2,1483.8,1257.2z"/>
			</g>
		</g>
		<g>
			<g>
				<path class="st2" d="M2004.3,1404.4h-330.5c-5,0-9-4-9-9s4-9,9-9h330.5c5,0,9,4,9,9S2009.2,1404.4,2004.3,1404.4z"/>
			</g>
			<g>
				<path class="st2" d="M1608.9,1404.4h-79.1c-5,0-9-4-9-9s4-9,9-9h79.1c5,0,9,4,9,9S1613.9,1404.4,1608.9,1404.4z"/>
			</g>
			<g>
				<path class="st2" d="M372.5,1404.4h-79.1c-5,0-9-4-9-9s4-9,9-9h79.1c5,0,9,4,9,9S377.4,1404.4,372.5,1404.4z"/>
			</g>
			<g>
				<path class="st2" d="M205.6,1404.4H40.9c-5,0-9-4-9-9s4-9,9-9h164.7c5,0,9,4,9,9S210.5,1404.4,205.6,1404.4z"/>
			</g>
			<g>
				<path class="st2" d="M750.2,1404.4H443.9c-5,0-9-4-9-9s4-9,9-9h306.4c5,0,9,4,9,9S755.2,1404.4,750.2,1404.4z"/>
			</g>
			<g>
				<path class="st2" d="M907.8,1404.4H802.4c-5,0-9-4-9-9s4-9,9-9h105.4c5,0,9,4,9,9S912.8,1404.4,907.8,1404.4z"/>
			</g>
			<g>
				<path class="st2" d="M1352.5,1404.4H953.9c-5,0-9-4-9-9s4-9,9-9h398.6c5,0,9,4,9,9S1357.5,1404.4,1352.5,1404.4z"/>
			</g>
			<g>
				<path class="st2" d="M1483.8,1404.4h-81.3c-5,0-9-4-9-9s4-9,9-9h81.3c5,0,9,4,9,9S1488.7,1404.4,1483.8,1404.4z"/>
			</g>
		</g>
	</g>
	<g id="closet_1_">
		<path id="closetBase_1_" class="st3" d="M122.5,1322.5v-1106c0-6.6,5.4-12,12-12h1779c6.6,0,12,5.4,12,12v1106c0,6.6-5.4,12-12,12
			h-1779C127.9,1334.5,122.5,1329.1,122.5,1322.5z"/>
		
			<rect id="closetBG_1_" x="172.5" y="254.5" transform="matrix(-1 -1.224647e-16 1.224647e-16 -1 2048 1539)" class="st4" width="1703" height="1030"/>
		<polygon id="shelves_1_" class="st3" points="1592,1310.5 1630.5,1310.5 1630.5,994 1876,994 1876,960 1630.5,960 1630.5,254 
			1592,254 1592,960 755.5,960 755.5,241 721.5,241 721.5,960 436.5,960 398,960 172,960 172,994 398,994 398,1310.5 436.5,1310.5 
			436.5,994 872,994 872,1310.5 906.5,1310.5 906.5,994 1592,994 		"/>
	</g>
	<g id="booksTop">
		<path class="st8" d="M665.5,1268H487c-6.6,0-12-5.4-12-12v-11.5c0-6.6,5.4-12,12-12h178.5c6.6,0,12,5.4,12,12v11.5
			C677.5,1262.6,672.1,1268,665.5,1268z"/>
		<path class="st5" d="M611.7,1232.5H493.9c-6.6,0-12-5.4-12-12v-21.8c0-6.6,5.4-12,12-12h117.9c6.6,0,12,5.4,12,12v21.8
			C623.7,1227.1,618.3,1232.5,611.7,1232.5z"/>
		<path id="top" class="st8" d="M632.3,1186.8H531.6c-6.6,0-12-5.4-12-12V1153c0-6.6,5.4-12,12-12h100.7c6.6,0,12,5.4,12,12v21.8
			C644.3,1181.4,638.9,1186.8,632.3,1186.8z"/>
	</g>
	<g id="foldedClothes_1_">
		<path class="st5" d="M1271,949h293c6.6,0,12-5.4,12-12v-34.5c0-6.6-5.4-12-12-12h-293c-6.6,0-12,5.4-12,12V937
			C1259,943.6,1264.4,949,1271,949z"/>
		<path class="st7" d="M1355.2,890.5h198.1c6.6,0,12-5.4,12-12V827c0-6.6-5.4-12-12-12h-198.1c-6.6,0-12,5.4-12,12v51.5
			C1343.2,885.1,1348.6,890.5,1355.2,890.5z"/>
		<path class="st5" d="M1355.2,814.5h198.1c6.6,0,12-5.4,12-12V762c0-6.6-5.4-12-12-12h-198.1c-6.6,0-12,5.4-12,12v40.5
			C1343.2,809.1,1348.6,814.5,1355.2,814.5z"/>
	</g>
	<g id="bag_1_">
		<path class="st6" d="M353,1262.5H215c-6.6,0-12-5.4-12-12v-92c0-6.6,5.4-12,12-12h138c6.6,0,12,5.4,12,12v92
			C365,1257.1,359.6,1262.5,353,1262.5z"/>
		<path class="st6" d="M353,1185.5H215c-6.6,0-12-5.4-12-12v-54.1c0-6.6,5.4-12,12-12h138c6.6,0,12,5.4,12,12v54.1
			C365,1180.1,359.6,1185.5,353,1185.5z"/>
		<path class="st6" d="M284.1,1222.3h-0.1c-6.6,0-12-5.4-12-12v-23.1c0-6.6,5.4-12,12-12h0.1c6.6,0,12,5.4,12,12v23.1
			C296.1,1216.9,290.7,1222.3,284.1,1222.3z"/>
		<circle class="st6" cx="284" cy="1198.4" r="6"/>
		<path class="st6" d="M284,1050.5c-31.4,0-56.9,25.5-56.9,56.9h13.6c0-23.9,19.4-43.3,43.3-43.3s43.3,19.4,43.3,43.3h13.6
			C340.9,1076,315.4,1050.5,284,1050.5z"/>
	</g>
<g id="shirts">
    <g id="shirtHanger">
		<path class="st9" d="M974.8,284.3c0,7.4,0,14.9,0.1,22.5c0,0.7,1.1,1.5,1.9,1.9c14.6,7.5,29.2,15,43.8,22.5
			c20.8,10.6,41.6,21.1,62.2,32c8.8,4.7,15.3,11.7,16.4,22.2c1.2,11.2-7.6,22-19.3,21.9c-69.7-0.2-139.5-0.3-209.2,0.1
			c-14.3,0.1-23.7-14.2-19.2-27.3c2.5-7.3,7.7-12.4,14-16.4c12.2-7.7,24.4-15.3,36.7-22.9c12.2-7.6,24.4-15.3,36.7-22.9
			c1.3-0.8,2.9-1.4,4.4-1.4c2.2,0,3.9,1.4,4.6,3.6c0.7,2.2,0.1,4.1-1.6,5.6c-0.7,0.6-1.5,1-2.3,1.5c-24,15-48.1,30-72.1,45.1
			c-3,1.9-5.7,4.6-8.2,7.2c-2.2,2.3-2.9,5.4-2.6,8.6c0.5,5.1,3.8,8.2,8.8,8.2c69.7,0,139.3,0,209,0c7.1,0,11.2-5.5,9.2-12.4
			c-1.7-5.7-5.8-9.2-10.9-11.8c-25.4-13.1-50.9-26-76.3-39.1c-11-5.6-21.9-11.3-32.9-16.8c-2.7-1.4-3.9-3.3-3.9-6.3
			c0.1-10.1,0-20.2,0-30.3c0-4,1.9-5.9,6-6.1c8.1-0.5,15-3.7,20.6-9.5c7-7.3,7.3-17.2,0.7-25.2c-5.9-7.1-13.5-9.5-22.4-7.2
			c-8.2,2.1-14.2,9.3-15.3,17.9c-0.1,1-0.2,2-0.3,3c-0.3,2.9-2.5,5-5.3,5c-2.9,0-5.2-2.2-5.3-5.2c-0.1-5.9,1.5-11.4,4.5-16.4
			c7.4-12.4,22.3-18.4,36-14.5c14.2,4,23.8,16.8,23.5,31.4c-0.1,6.3-2.5,11.7-6.4,16.5c-6.3,7.7-14.4,12.2-24,14.3
			c-0.4,0.1-0.8,0.2-1.2,0.3C975.1,284,975.1,284,974.8,284.3z"/>
	</g>
	<path id="yellowShirt_1_" class="st7" d="M1154.1,391c0,0-85.7-47.7-86.3-47.7h-0.3c-0.6,0-1.1,0.2-1.5,0.6
		c-16.1,15.6-51.4,26.4-92.3,26.4s-76.2-10.8-92.3-26.4c-0.4-0.4-1-0.6-1.5-0.6l0,0c0,0,0,0-0.1,0c-0.8-0.1-83.7,46.2-83.7,46.2
		c-3.4,1.9-4.9,6.9-3.4,11.1l27.8,74.6c1.6,4.2,5.6,6.1,9.1,4.1l42.7-24.1c1.2-0.7,2.6,0.4,2.6,2.1v212.9c0,4.6,3.1,8.4,6.8,8.4
		H1066c3.8,0,6.8-3.8,6.8-8.4V457.5c0-1.7,1.4-2.8,2.6-2.1l45.3,25.5c2.5,1.4,5.4,0,6.6-3l29.3-78.8
		C1157.7,396.1,1156.6,392.4,1154.1,391z"/>
</g>
	<g id="bikiniHanger_1_">
		<path class="st9" d="M1442.8,284.3c0,7.4,0,14.9,0.1,22.5c0,0.7,1.1,1.5,1.9,1.9c14.6,7.5,29.2,15,43.8,22.5
			c20.8,10.6,41.6,21.1,62.2,32c8.8,4.7,15.3,11.7,16.4,22.2c1.2,11.2-7.6,22-19.3,21.9c-69.7-0.2-139.5-0.3-209.2,0.1
			c-14.3,0.1-23.7-14.2-19.2-27.3c2.5-7.3,7.7-12.4,14-16.4c12.2-7.7,24.4-15.3,36.7-22.9c12.2-7.6,24.4-15.3,36.7-22.9
			c1.3-0.8,2.9-1.4,4.4-1.4c2.2,0,3.9,1.4,4.6,3.6c0.7,2.2,0.1,4.1-1.6,5.6c-0.7,0.6-1.5,1-2.3,1.5c-24,15-48.1,30-72.1,45.1
			c-3,1.9-5.7,4.6-8.2,7.2c-2.2,2.3-2.9,5.4-2.6,8.6c0.5,5.1,3.8,8.2,8.8,8.2c69.7,0,139.3,0,209,0c7.1,0,11.2-5.5,9.2-12.4
			c-1.7-5.7-5.8-9.2-10.9-11.8c-25.4-13.1-50.9-26-76.3-39.1c-11-5.6-21.9-11.3-32.9-16.8c-2.7-1.4-3.9-3.3-3.9-6.3
			c0.1-10.1,0-20.2,0-30.3c0-4,1.9-5.9,6-6.1c8.1-0.5,15-3.7,20.6-9.5c7-7.3,7.3-17.2,0.7-25.2c-5.9-7.1-13.5-9.5-22.4-7.2
			c-8.2,2.1-14.2,9.3-15.3,17.9c-0.1,1-0.2,2-0.3,3c-0.3,2.9-2.5,5-5.3,5c-2.9,0-5.2-2.2-5.3-5.2c-0.1-5.9,1.5-11.4,4.5-16.4
			c7.4-12.4,22.3-18.4,36-14.5c14.2,4,23.8,16.8,23.5,31.4c-0.1,6.3-2.5,11.7-6.4,16.5c-6.3,7.7-14.4,12.2-24,14.3
			c-0.4,0.1-0.8,0.2-1.2,0.3C1443.1,284,1443.1,284,1442.8,284.3z"/>
	</g>
	<g id="box">
		<path class="st7" d="M1827.9,1269.8h-141.3c-6.6,0-12-5.4-12-12v-77.6c0-6.6,5.4-12,12-12h141.3c6.6,0,12,5.4,12,12v77.6
			C1839.9,1264.4,1834.5,1269.8,1827.9,1269.8z"/>
		<path id="boxLid" class="st7" d="M1840.2,1174.6h-166c-6.6,0-12-5.4-12-12v-14.4c0-6.6,5.4-12,12-12h166c6.6,0,12,5.4,12,12v14.4
			C1852.2,1169.2,1846.8,1174.6,1840.2,1174.6z"/>
		<rect x="1732.8" y="1202.6" class="st6" width="48.8" height="33.6"/>
	</g>
<g id="polos">
    	<g id="poloHanger">
		<path class="st9" d="M1108.8,284.3c0,7.4,0,14.9,0.1,22.5c0,0.7,1.1,1.5,1.9,1.9c14.6,7.5,29.2,15,43.8,22.5
			c20.8,10.6,41.6,21.1,62.2,32c8.8,4.7,15.3,11.7,16.4,22.2c1.2,11.2-7.6,22-19.3,21.9c-69.7-0.2-139.5-0.3-209.2,0.1
			c-14.3,0.1-23.7-14.2-19.2-27.3c2.5-7.3,7.7-12.4,14-16.4c12.2-7.7,24.4-15.3,36.7-22.9c12.2-7.6,24.4-15.3,36.7-22.9
			c1.3-0.8,2.9-1.4,4.4-1.4c2.2,0,3.9,1.4,4.6,3.6c0.7,2.2,0.1,4.1-1.6,5.6c-0.7,0.6-1.5,1-2.3,1.5c-24,15-48.1,30-72.1,45.1
			c-3,1.9-5.7,4.6-8.2,7.2c-2.2,2.3-2.9,5.4-2.6,8.6c0.5,5.1,3.8,8.2,8.8,8.2c69.7,0,139.3,0,209,0c7.1,0,11.2-5.5,9.2-12.4
			c-1.7-5.7-5.8-9.2-10.9-11.8c-25.4-13.1-50.9-26-76.3-39.1c-11-5.6-21.9-11.3-32.9-16.8c-2.7-1.4-3.9-3.3-3.9-6.3
			c0.1-10.1,0-20.2,0-30.3c0-4,1.9-5.9,6-6.1c8.1-0.5,15-3.7,20.6-9.5c7-7.3,7.3-17.2,0.7-25.2c-5.9-7.1-13.5-9.5-22.4-7.2
			c-8.2,2.1-14.2,9.3-15.3,17.9c-0.1,1-0.2,2-0.3,3c-0.3,2.9-2.5,5-5.3,5c-2.9,0-5.2-2.2-5.3-5.2c-0.1-5.9,1.5-11.4,4.5-16.4
			c7.4-12.4,22.3-18.4,36-14.5c14.2,4,23.8,16.8,23.5,31.4c-0.1,6.3-2.5,11.7-6.4,16.5c-6.3,7.7-14.4,12.2-24,14.3
			c-0.4,0.1-0.8,0.2-1.2,0.3C1109.1,284,1109.1,284,1108.8,284.3z"/>
	</g>
	<g id="whitePolo">
		<path class="st6" d="M1288.1,391c0,0-85.7-47.7-86.3-47.7h-0.3c-0.6,0-1.1,0.2-1.5,0.6c-16.1,15.6-51.4,26.4-92.3,26.4
			s-76.2-10.8-92.3-26.4c-0.4-0.4-1-0.6-1.5-0.6l0,0c0,0,0,0-0.1,0c-0.8-0.1-83.7,46.2-83.7,46.2c-3.4,1.9-4.9,6.9-3.4,11.1
			l27.8,74.6c1.6,4.2,5.6,6.1,9.1,4.1l42.7-24.1c1.2-0.7,2.6,0.4,2.6,2.1v212.9c0,4.6,3.1,8.4,6.8,8.4H1200c3.8,0,6.8-3.8,6.8-8.4
			V457.5c0-1.7,1.4-2.8,2.6-2.1l45.3,25.5c2.5,1.4,5.4,0,6.6-3l29.3-78.8C1291.7,396.1,1290.6,392.4,1288.1,391z"/>
		<g>
			<rect x="1093.7" y="370" class="st6" width="23.7" height="308.6"/>
			<g>
				<ellipse class="st6" cx="1105.5" cy="404.7" rx="5.9" ry="8.6"/>
				<ellipse class="st6" cx="1105.7" cy="464.5" rx="5.9" ry="8.6"/>
				<ellipse class="st6" cx="1105.7" cy="524.3" rx="5.9" ry="8.6"/>
				<ellipse class="st6" cx="1105.3" cy="584.1" rx="5.9" ry="8.6"/>
				<ellipse class="st6" cx="1105.3" cy="643.8" rx="5.9" ry="8.6"/>
			</g>
		</g>
		<g>
			<path class="st6" d="M1191.3,669.5h-41.4c-1.6,0-3-1.3-3-3v-33.6c0-1.6,1.3-3,3-3h41.4c1.6,0,3,1.3,3,3v33.6
				C1194.3,668.1,1192.9,669.5,1191.3,669.5z"/>
			<path class="st6" d="M1192.9,632.8h-44.7c-2.8,0-5.1-2.3-5.1-5.1v-1.4c0-2.8,2.3-5.1,5.1-5.1h44.7c2.8,0,5.1,2.3,5.1,5.1v1.4
				C1198,630.5,1195.7,632.8,1192.9,632.8z"/>
			<ellipse class="st6" cx="1153" cy="661" rx="3.3" ry="3.8"/>
			<ellipse class="st6" cx="1153" cy="626.6" rx="3.3" ry="3.8"/>
			<ellipse class="st6" cx="1188" cy="661.1" rx="3.3" ry="3.8"/>
			<ellipse class="st6" cx="1188" cy="627.1" rx="3.3" ry="3.8"/>
			<path class="st6" d="M1172.4,657.3h-3.6c-2.5,0-4.6-2.1-4.6-4.6v-14c0-2.5,2.1-4.6,4.6-4.6h3.6c2.5,0,4.6,2.1,4.6,4.6v14
				C1176.9,655.3,1174.9,657.3,1172.4,657.3z"/>
		</g>
		<g>
			<path class="st6" d="M1068.3,669.5h-41.4c-1.6,0-3-1.3-3-3v-33.6c0-1.6,1.3-3,3-3h41.4c1.6,0,3,1.3,3,3v33.6
				C1071.2,668.1,1069.9,669.5,1068.3,669.5z"/>
			<path class="st6" d="M1069.9,632.8h-44.7c-2.8,0-5.1-2.3-5.1-5.1v-1.4c0-2.8,2.3-5.1,5.1-5.1h44.7c2.8,0,5.1,2.3,5.1,5.1v1.4
				C1075,630.5,1072.7,632.8,1069.9,632.8z"/>
			<ellipse class="st6" cx="1030" cy="661" rx="3.3" ry="3.8"/>
			<ellipse class="st6" cx="1030" cy="626.6" rx="3.3" ry="3.8"/>
			<ellipse class="st6" cx="1065" cy="661.1" rx="3.3" ry="3.8"/>
			<ellipse class="st6" cx="1065" cy="627.1" rx="3.3" ry="3.8"/>
			<path class="st6" d="M1049.3,657.3h-3.6c-2.5,0-4.6-2.1-4.6-4.6v-14c0-2.5,2.1-4.6,4.6-4.6h3.6c2.5,0,4.6,2.1,4.6,4.6v14
				C1053.9,655.3,1051.9,657.3,1049.3,657.3z"/>
		</g>
	</g>
</g>
	<path id="dressHanger_1_" class="st9" d="M1754.2,286.6c0,6.6,0,13.5,0.1,20.3c0,0.6,1,1.4,1.7,1.7c13.1,6.8,26.3,13.5,39.4,20.2
		c18.7,9.6,37.5,19,56,28.8c8,4.2,13.8,10.5,14.7,20c1,10.1-6.8,19.8-17.4,19.7c-62.8-0.2-125.5-0.3-188.3,0.1
		c-12.9,0.1-21.4-12.8-17.3-24.5c2.3-6.6,6.9-11.2,12.6-14.8c11-6.9,22-13.8,33-20.7c11-6.9,22-13.8,33-20.6
		c1.2-0.7,2.6-1.3,3.9-1.3c2,0,3.5,1.3,4.1,3.3c0.6,2,0.1,3.7-1.5,5.1c-0.6,0.5-1.4,0.9-2.1,1.4c-21.6,13.5-43.3,27-64.9,40.6
		c-2.7,1.7-5.1,4.1-7.4,6.5c-1.9,2.1-2.6,4.8-2.3,7.8c0.4,4.6,3.4,7.3,8,7.3c62.7,0,125.4,0,188.1,0c6.3,0,10.1-5,8.3-11.2
		c-1.5-5.1-5.3-8.3-9.8-10.6c-22.9-11.8-45.8-23.4-68.7-35.2c-9.9-5.1-19.7-10.2-29.6-15.1c-2.5-1.2-3.5-3-3.5-5.7
		c0.1-9.1,0-18.2,0-27.3c0-3.6,1.7-5.3,5.4-5.5c7.3-0.4,13.5-3.3,18.6-8.5c6.3-6.5,6.6-15.4,0.6-22.7c-5.3-6.4-12.2-8.5-20.2-6.5
		c-7.4,1.9-12.8,8.4-13.8,16.1c-0.1,0.9-0.2,1.8-0.3,2.7c-0.3,2.6-2.2,4.5-4.8,4.5c-2.6,0-4.7-2-4.8-4.7c-0.1-5.3,1.3-10.2,4-14.8
		c6.6-11.2,20.1-16.6,32.4-13.1c12.8,3.6,21.4,15.1,21.2,28.3c-0.1,5.6-2.2,10.5-5.7,14.8c-5.6,6.9-13,11-21.6,12.9
		c-0.4,0.1-0.7,0.1-1.1,0.2C1754.5,286.3,1754.4,286.4,1754.2,286.6z"/>
	<path id="coatHanger" class="st9" d="M396.8,283.3c0,7.4,0,14.9,0.1,22.5c0,0.7,1.1,1.5,1.9,1.9c14.6,7.5,29.2,15,43.8,22.5
		c20.8,10.6,41.6,21.1,62.2,32c8.8,4.7,15.3,11.7,16.4,22.2c1.2,11.2-7.6,22-19.3,21.9c-69.7-0.2-139.5-0.3-209.2,0.1
		c-14.3,0.1-23.7-14.2-19.2-27.3c2.5-7.3,7.7-12.4,14-16.4c12.2-7.7,24.4-15.3,36.7-22.9c12.2-7.6,24.4-15.3,36.7-22.9
		c1.3-0.8,2.9-1.4,4.4-1.4c2.2,0,3.9,1.4,4.6,3.6c0.7,2.2,0.1,4.1-1.6,5.6c-0.7,0.6-1.5,1-2.3,1.5c-24,15-48.1,30-72.1,45.1
		c-3,1.9-5.7,4.6-8.2,7.2c-2.2,2.3-2.9,5.4-2.6,8.6c0.5,5.1,3.8,8.2,8.8,8.2c69.7,0,139.3,0,209,0c7.1,0,11.2-5.5,9.2-12.4
		c-1.7-5.7-5.8-9.2-10.9-11.8c-25.4-13.1-50.9-26-76.3-39.1c-11-5.6-21.9-11.3-32.9-16.8c-2.7-1.4-3.9-3.3-3.9-6.3
		c0.1-10.1,0-20.2,0-30.3c0-4,1.9-5.9,6-6.1c8.1-0.5,15-3.7,20.6-9.5c7-7.3,7.3-17.2,0.7-25.2c-5.9-7.1-13.5-9.5-22.4-7.2
		c-8.2,2.1-14.2,9.3-15.3,17.9c-0.1,1-0.2,2-0.3,3c-0.3,2.9-2.5,5-5.3,5c-2.9,0-5.2-2.2-5.3-5.2c-0.1-5.9,1.5-11.4,4.5-16.4
		c7.4-12.4,22.3-18.4,36-14.5c14.2,4,23.8,16.8,23.5,31.4c-0.1,6.3-2.5,11.7-6.4,16.5c-6.3,7.7-14.4,12.2-24,14.3
		c-0.4,0.1-0.8,0.2-1.2,0.3C397.1,283,397.1,283,396.8,283.3z"/>
	<g id="dress_1_">
		<path class="st6" d="M1798.2,532.9v-25c0,0,18.8-18.8,18.8-75c-15.8-11.3-45.8-8.9-62.5,18.8c-16.7-27.7-46.7-30-62.5-18.8
			c0,56.3,18.8,75,18.8,75v25c-51.8,47.8-75,162.6-75,162.6s87.5,25,118.8,25c31.3,0,118.8-25,118.8-25S1850,580.7,1798.2,532.9"/>
		<g>
			<polygon class="st9" points="1710.6,532.9 1741.9,532.9 1741.9,507.9 1710.6,507.9 			"/>
			<polygon class="st9" points="1766.9,532.9 1798.2,532.9 1798.2,507.9 1766.9,507.9 			"/>
			<path class="st9" d="M1797.8,383.6c0,0.1-0.1,0.2-0.1,0.3l-2.7,42.6c0,0,0,0,0,0c4.3-0.1,8.4,0.5,12.2,1.7
				c0.1-0.3,0.2-0.6,0.2-0.9l2.7-41.9C1806.5,384.6,1802.4,384,1797.8,383.6"/>
			<path class="st9" d="M1701.3,427.3c0,0.3,0.2,0.6,0.2,0.9c3.8-1.2,7.9-1.7,12.2-1.7c0,0,0,0,0,0l-2.7-42.6c0-0.1-0.1-0.2-0.1-0.3
				c-4.6,0.4-8.7,1-12.4,1.8L1701.3,427.3z"/>
		</g>
	</g>
	<g id="boots_1_">
		<g id="rightBoot_1_">
			<path class="st3" d="M1059.6,1243.9c0,0,36.8,1.3,44.5,3.5c7.6,2.2,60.5,15.3,77.1,14.4c16.5-0.9,58.4-14.8,58.4-14.8
				s5.1,4.8,2.5,8.7c-2.5,3.9-18.2,18.8-65.2,16.6c-47-2.2-67.7-14-67.7-14l1.7,8.7c0,0-44.9,1.3-51.2-3.1V1243.9z"/>
			<polygon class="st3" points="1083.2,1175.5 1117.2,1178.9 1117.2,1248.3 1090.5,1248.3 			"/>
			<path class="st9" d="M1067.5,1171.6c0-1.6,1.5-2.8,3.1-2.5c4.8,0.9,13.7,2.8,15.6,4.7c2.6,2.6,8.3,74.6,8.3,74.6h-34.9
				c0,0-6.1-6.5-3.5-16.1C1058.6,1223.2,1067.1,1187.6,1067.5,1171.6z"/>
			<path class="st9" d="M1111.1,1248.3c0,0,0-64.6,0-68.5s7.9-22.7,18.8-8.7c10.9,14,25.7,49.3,45.8,53.2s50.2-1.7,57.6,5.2
				c7.4,7,7.4,18.8,7.4,18.8s-33.1,15.3-54.1,14.8C1165.6,1262.7,1121.1,1255.3,1111.1,1248.3z"/>
		</g>
		<g id="leftBoot_1_">
			<path class="st3" d="M1084,1120.2c0,0-24,28-27.6,35c-3.6,7.1-29.9,54.8-41.7,66.4c-11.8,11.5-50.5,32.9-50.5,32.9s0.1,7,4.7,7.8
				c4.6,0.8,26.1-0.7,56.4-36.7c30.3-36,35.7-59.2,35.7-59.2l5.3,7.2c0,0,31.4-32.1,32.5-39.7L1084,1120.2z"/>
			<polygon class="st3" points="1017.7,1091.1 997.2,1118.4 1048.2,1165.5 1066.3,1145.9 			"/>
			<path class="st9" d="M1025.5,1076.9c-1.2-1.1-3.1-0.8-4,0.6c-2.6,4.2-7.2,12-7.1,14.6c0.1,3.7,49.2,56.7,49.2,56.7l23.7-25.6
				c0,0-0.7-8.9-9.5-13.5C1069.5,1105.4,1037.6,1087.5,1025.5,1076.9z"/>
			<path class="st9" d="M1052.3,1161c0,0-47.4-43.8-50.3-46.5c-2.9-2.7-22-9.6-19.1,7.9c2.9,17.5,18.8,52.3,8,69.7
				s-35.3,35.7-35.2,45.9c0.1,10.2,8.8,18.2,8.8,18.2s33.7-14,47.6-29.7C1025.9,1210.8,1050.6,1173.1,1052.3,1161z"/>
		</g>
	</g>
	<g id="bikini" class="float2">
		<path class="st7" d="M1347.4,478.9c12.1-22.7,44.4-28.7,67.5-11.2c14,10.7,19.6,29.2,9.4,43.5c-6.2,8.6-16,16-31.8,15.9
			C1355.5,526.7,1347.4,478.9,1347.4,478.9"/>
		<path class="st8" d="M1364.9,462.1l0.7-74.3l-17.4-0.2l-0.8,91.2C1351.4,471.4,1357.6,465.8,1364.9,462.1"/>
		<path class="st7" d="M1538.4,480.6c-11.7-22.9-43.8-29.5-67.3-12.4c-14.2,10.4-20.2,28.8-10.1,43.3c6,8.7,15.8,16.3,31.5,16.4
			C1529.4,528.3,1538.4,480.6,1538.4,480.6"/>
		<path class="st8" d="M1347.4,478.9c-8.5,4.6-18.2,8.5-30.5,8.4l-0.3,30.4l51.7,0.5C1354.3,506.3,1348.7,484.7,1347.4,478.9"/>
		<path class="st8" d="M1521.2,463.6l0.7-74.3l17.4,0.2l-0.8,91.2C1534.6,473.1,1528.4,467.3,1521.2,463.6"/>
		<path class="st8" d="M1428.7,488.3c1.8,7.7,0.6,15.8-4.5,22.9c-1.9,2.7-4.2,5.2-6.9,7.4l50.4,0.5c-2.6-2.3-4.9-4.8-6.8-7.5
			c-5-7.2-6-15.3-4.1-23L1428.7,488.3L1428.7,488.3z"/>
		<g>
			<path class="st6" d="M1350.9,491.2c5.1,14.2,16.9,35.6,41.6,35.8c12.8,0.1,21.7-4.8,27.9-11.2c-1.5-8.4-6.6-16.4-14.1-22.2
				C1388.8,480.4,1366.1,480.6,1350.9,491.2"/>
			<path class="st6" d="M1534.7,492.9c-5.4,14.1-17.6,35.3-42.2,35.1c-12.8-0.1-21.6-5.2-27.7-11.7c1.7-8.4,6.9-16.3,14.5-21.9
				C1497,481.4,1519.6,482,1534.7,492.9"/>
		</g>
		<path class="st8" d="M1538.4,480.6c8.4,4.7,18,8.8,30.3,9l-0.3,30.4l-51.7-0.5C1531,508,1537,486.4,1538.4,480.6"/>
	</g>
	<g id="sandals_1_">
		<g id="sandalsBack_1_">
			<path class="st6" d="M1362.3,1255.4h151.5c3.7,0,6.7,3,6.7,6.7l0,0c0,3.7-3,6.7-6.7,6.7h-151.5c-3.7,0-6.7-3-6.7-6.7l0,0
				C1355.6,1258.4,1358.6,1255.4,1362.3,1255.4z"/>
			<path class="st6" d="M1402.9,1255.3c0,0,40.7-18.8,45.2-21.5s21.3-10.4,37.1,1.6c15.7,12,5.9,18.9,5.9,18.9s-5.1-9.1-19.2-10.4
				c-14.1-1.3-17.9,11.2-27.5,11.5C1434.8,1255.7,1402.9,1255.3,1402.9,1255.3z"/>
			<line class="st6" x1="1448.1" y1="1233.8" x2="1463.7" y2="1244.8"/>
			<line class="st6" x1="1442.4" y1="1236.6" x2="1458" y2="1247.7"/>
		</g>
		<g id="sandalsFront_1_">
			<path class="st6" d="M1327.3,1255.4h151.5c3.7,0,6.7,3,6.7,6.7l0,0c0,3.7-3,6.7-6.7,6.7h-151.5c-3.7,0-6.7-3-6.7-6.7l0,0
				C1320.6,1258.4,1323.6,1255.4,1327.3,1255.4z"/>
			<path class="st6" d="M1367.9,1255.3c0,0,40.7-18.8,45.2-21.5s21.3-10.4,37.1,1.6c15.7,12,5.9,18.9,5.9,18.9s-5.1-9.1-19.2-10.4
				c-14.1-1.3-17.9,11.2-27.5,11.5C1399.8,1255.7,1367.9,1255.3,1367.9,1255.3z"/>
			<line class="st6" x1="1413.1" y1="1233.8" x2="1428.7" y2="1244.8"/>
			<line class="st6" x1="1407.4" y1="1236.6" x2="1423" y2="1247.7"/>
		</g>
	</g>
	<g id="coat">
		<path class="st6" d="M516.5,365.6c-6-5.7-25.9-13.9-45-20.1c3,16.5-7.5,34.8-29.4,35c-5.3,0-8,0-14.9,0l26.4,19.5
			c12,8.5,14.5,25.7,4.7,36.8c-0.1,0.2-0.3,0.3-0.5,0.5c-15.4,17-47.9,54.9-67.9,54.9s-52.6-37.9-67.9-54.9
			c-0.2-0.2-0.3-0.3-0.5-0.5c-9.7-11.1-7.3-28.3,4.7-36.8l26.4-19.5c-6.9,0-9.6,0-14.9,0c-21.9-0.1-32.4-18.5-29.4-35
			c-19.1,6.2-39,14.4-45,20.1c-16.8,15.8-56.8,249-74.5,335.1l52.1,7.4c0,0,33.5-185.7,38.6-201.1c5.1-15.4,20.8-52,20.8-52
			c7.5,21.3,13.9,51.7,14.9,81.8H308c-2.8,13.3-4.6,28.7-7.4,44.7h6.5c-8.8,41.4-21.4,100.3-21.4,141.3
			c59.3,0,104.3-33.9,104.3-89.4c0,55.5,45,89.4,104.3,89.4c0-41-12.6-99.9-21.4-141.3h6.5c-2.8-16-4.7-31.3-7.4-44.7h-7.3
			c0.9-30,7.4-60.5,14.9-81.8c0,0,15.7,36.6,20.8,52c5.1,15.4,38.6,201.1,38.6,201.1l52.1-7.4C573.3,614.6,533.2,381.4,516.5,365.6"
			/>
		<g>
			<path class="st6" d="M337.7,313.4c-7.8,3.2-14.6,9.7-20.7,15.7c-0.1,0.1-0.1,0.1-0.2,0.2c-17.6,17-8.8,50.9,20.9,51.1
				c5.3,0,8,0,14.9,0l-26.4,19.5c-12,8.5-14.5,25.7-4.7,36.8c0.1,0.2,0.3,0.3,0.5,0.5c15.4,17,47.9,54.9,67.9,54.9V455
				C357.8,435.6,337.7,313.4,337.7,313.4"/>
			<path class="st6" d="M442,313.4c7.8,3.2,14.6,9.7,20.7,15.7c0.1,0.1,0.1,0.1,0.2,0.2c17.6,17,8.8,50.9-20.9,51.1
				c-5.3,0-8,0-14.9,0l26.4,19.5c12,8.5,14.5,25.7,4.7,36.8c-0.1,0.2-0.3,0.3-0.5,0.5c-15.4,17-47.9,54.9-67.9,54.9V455
				C422,435.6,442,313.4,442,313.4"/>
		</g>
		<path class="st8" d="M389.9,350.7h-44.7c8.6,37.6,24.1,91.9,44.7,104.3c20.5-12.4,36.1-66.7,44.7-104.3
			C434.5,350.7,389.9,350.7,389.9,350.7z"/>
		<g>
			<path class="st8" d="M389.9,633.5c0,55.5-45,89.4-104.3,89.4c29.8,14.9,74.5,14.9,104.3,14.9s74.5,0,104.3-14.9
				C434.8,722.9,389.9,689,389.9,633.5"/>
			<path class="st8" d="M367.5,566.7v-14.9c0-5.7,2.2-10.9,5.8-14.9H308c-2.8,13.3-4.6,28.7-7.4,44.7h72.8
				C369.8,577.6,367.5,572.4,367.5,566.7"/>
			<path class="st8" d="M412.2,566.7v-14.9c0-5.7-2.2-10.9-5.8-14.9h65.4c2.8,13.3,4.6,28.7,7.4,44.7h-72.8
				C410,577.6,412.2,572.4,412.2,566.7"/>
			<path class="st8" d="M389.9,536.9c-4.1,0-7.4-3.3-7.4-7.4v-37.2c0-4.1,3.3-7.4,7.4-7.4c4.1,0,7.4,3.3,7.4,7.4v37.2
				C397.3,533.6,394,536.9,389.9,536.9"/>
			<path class="st8" d="M389.9,678.2c-4.1,0-7.4-3.3-7.4-7.4V589c0-4.1,3.3-7.4,7.4-7.4c4.1,0,7.4,3.3,7.4,7.4v81.7
				C397.3,674.8,394,678.2,389.9,678.2"/>
		</g>
		<path class="st6" d="M389.9,589L389.9,589c-12.3,0-22.3-10-22.3-22.3v-14.9c0-12.3,10-22.3,22.3-22.3c12.3,0,22.3,10,22.3,22.3
			v14.9C412.2,579,402.2,589,389.9,589"/>
		<path class="st6" d="M397.3,559.2c0-4.1-3.3-7.4-7.4-7.4c-4.1,0-7.4,3.3-7.4,7.4c0,4.1,3.3,7.4,7.4,7.4
			C394,566.7,397.3,563.3,397.3,559.2"/>
	</g>
	<g id="umbrella">
		
			<ellipse transform="matrix(0.3964 -0.9181 0.9181 0.3964 -317.334 979.9554)" class="st6" cx="586.6" cy="731.3" rx="2.4" ry="2.4"/>
		
			<ellipse transform="matrix(0.3964 -0.9181 0.9181 0.3964 -297.257 1109.9894)" class="st6" cx="695.5" cy="781.1" rx="2.4" ry="2.4"/>
		<g>
			<path class="st6" d="M662.5,622.3c-18.9-8.2-40.9,0.2-50.9,18.7c-1,1.8-0.2,4.1,1.7,4.9l2.2,1c1.7,0.7,3.6,0,4.5-1.6
				c7.7-13.9,24.3-20.1,38.6-14c15.2,6.6,22,24.8,15.2,40.7l0,0l-45.2,104.8c-0.8,1.8,0.1,3.8,1.8,4.6l2.2,1
				c1.8,0.8,3.8-0.1,4.6-1.8l45.2-104.8C691.5,654.8,682.5,630.9,662.5,622.3z"/>
			
				<ellipse transform="matrix(0.3964 -0.9181 0.9181 0.3964 -295.4795 1044.5027)" class="st6" cx="646.6" cy="747" rx="2.4" ry="2.4"/>
			<path class="st6" d="M667.9,781c-13-5.6-21-17.9-21.8-31.1c0-0.3-0.2-0.5-0.5-0.7l0,0c-0.3-0.1-0.6-0.1-0.8,0.1
				c-10.2,8.5-24.6,11.1-37.6,5.5c-9.4-4.1-16.2-11.6-19.5-20.5c-0.3-0.7-1.4-0.6-1.5,0.2l-26.5,209.2c-0.1,0.8,0.9,1.2,1.4,0.6
				l132.3-160.6c0.5-0.6-0.1-1.4-0.8-1.2C684.7,784.8,676,784.5,667.9,781z"/>
			<path class="st8" d="M561,944.3l132.3-160.6c0.5-0.6-0.1-1.4-0.8-1.2c-7.9,2.3-16.5,2-24.6-1.5c-13-5.6-21-17.9-21.8-31.1
				c0-0.3-0.2-0.5-0.5-0.7l0,0c-0.3-0.1-0.6-0.1-0.8,0.1L561,944.3z"/>
		</g>
	</g>
</g>
</svg>
