<?xml version="1.0" encoding="utf-8"?>
<!-- Generator: Adobe Illustrator 21.1.0, SVG Export Plug-In . SVG Version: 6.00 Build 0)  -->  

<?xml-stylesheet type="text/css" href="../../../css/game_animation.css"?>

<svg version="1.1" id="Layer_1" xmlns="http://www.w3.org/2000/svg" xmlns:xlink="http://www.w3.org/1999/xlink" x="0px" y="0px"
	 viewBox="0 0 2048 1536" style="enable-background:new 0 0 2048 1536;" xml:space="preserve">
<style type="text/css">
	.st0{fill:none;}
	.st1{fill:#F9BE78;}
	.st2{fill:#A58460;}
	.st3{fill:#FF9D1C;}
	.st4{fill:#FFFFFF;}
	.st5{fill:#FFF1A5;}
	.st6{fill:none;stroke:#FFDC4A;stroke-width:3;stroke-miterlimit:10;}
	.st7{opacity:0.5;fill:url(#pattern_2_);enable-background:new    ;}
	.st8{fill:#F2F2F2;}
	.st9{fill:#14275E;}
	.st10{fill:#FFE67B;}
	.st11{fill:#FFF2A1;stroke:#14275E;stroke-width:4;stroke-miterlimit:10;}
	.st12{fill:url(#SVGID_1_);stroke:#14275E;stroke-width:4;stroke-miterlimit:10;}
	.st13{fill:url(#SVGID_2_);stroke:#14275E;stroke-width:4;stroke-miterlimit:10;}
	.st14{fill:url(#SVGID_3_);stroke:#14275E;stroke-width:4;stroke-miterlimit:10;}
	.st15{fill:url(#SVGID_4_);stroke:#14275E;stroke-width:4;stroke-miterlimit:10;}
	.st16{fill:#FFF1A5;}
	.st17{fill:none;stroke:#14275E;stroke-width:4;stroke-linecap:round;stroke-linejoin:round;stroke-miterlimit:10;}
	.st18{fill:#4E892C;}
	.st19{fill:#4E892C;stroke:#14275E;stroke-width:4;stroke-linecap:round;stroke-linejoin:round;stroke-miterlimit:10;}
	.st20{fill:#20397F;}
	.st21{fill:#A58460;stroke:#14275E;stroke-width:4;stroke-miterlimit:10;}
	.st22{fill:url(#SVGID_5_);stroke:#14275E;stroke-width:4;stroke-miterlimit:10;}
	.st23{fill:#FFFFE4;stroke:#14275E;stroke-width:4;stroke-miterlimit:10;}
	.st24{fill:#FFDC4A;stroke:#14275E;stroke-width:4;stroke-miterlimit:10;}
	.st25{fill:#4E892C;stroke:#14275E;stroke-width:4;stroke-miterlimit:10;}
	.st26{fill:url(#SVGID_6_);stroke:#14275E;stroke-width:4;stroke-miterlimit:10;}
	.st27{fill:url(#_x3C_Path_x3E__2_);stroke:#14275E;stroke-width:4;stroke-miterlimit:10;}
	.st28{fill:url(#_x3C_Path_x3E__3_);stroke:#14275E;stroke-width:4;stroke-miterlimit:10;}
</style>
<pattern  y="1536" width="334" height="240" patternUnits="userSpaceOnUse" id="New_Pattern_3" viewBox="83.5 -300 334 240" style="overflow:visible;">
	<g>
		<rect x="83.5" y="-300" class="st0" width="334" height="240"/>
		<g>
			<rect x="83.5" y="-300" class="st0" width="334" height="240"/>
			<g>
				<rect x="334" y="-300" class="st1" width="167" height="120"/>
				<circle class="st2" cx="371" cy="-270" r="8"/>
				<circle class="st2" cx="416" cy="-222" r="8"/>
			</g>
			<g>
				<rect x="167" y="-360" class="st1" width="167" height="120"/>
				<circle class="st2" cx="249" cy="-282" r="8"/>
			</g>
			<g>
				<rect y="-300" class="st1" width="167" height="120"/>
				<circle class="st2" cx="82" cy="-222" r="8"/>
				<circle class="st2" cx="133" cy="-260" r="8"/>
			</g>
			<g>
				<rect x="334" y="-180" class="st1" width="167" height="120"/>
				<circle class="st2" cx="371" cy="-150" r="8"/>
				<circle class="st2" cx="416" cy="-102" r="8"/>
			</g>
			<g>
				<rect x="167" y="-240" class="st1" width="167" height="120"/>
				<circle class="st2" cx="204" cy="-210" r="8"/>
				<circle class="st2" cx="249" cy="-162" r="8"/>
				<circle class="st2" cx="300" cy="-200" r="8"/>
			</g>
			<g>
				<rect y="-180" class="st1" width="167" height="120"/>
				<circle class="st2" cx="82" cy="-102" r="8"/>
				<circle class="st2" cx="133" cy="-140" r="8"/>
			</g>
			<g>
				<rect x="167" y="-120" class="st1" width="167" height="120"/>
				<circle class="st2" cx="204" cy="-90" r="8"/>
				<circle class="st2" cx="300" cy="-80" r="8"/>
			</g>
		</g>
	</g>
</pattern>
<pattern  y="1536" width="246" height="320" patternUnits="userSpaceOnUse" id="New_Pattern_4" viewBox="61.5 -400 246 320" style="overflow:visible;">
	<g>
		<rect x="61.5" y="-400" class="st0" width="246" height="320"/>
		<g>
			<rect x="61.5" y="-400" class="st0" width="246" height="320"/>
			<g>
				<rect x="184.5" y="-480" class="st3" width="123" height="160"/>
				<circle class="st4" cx="218.5" cy="-356" r="6"/>
				<circle class="st4" cx="274.5" cy="-392" r="6"/>
			</g>
			<g>
				<rect x="61.5" y="-480" class="st3" width="123" height="160"/>
				<circle class="st4" cx="95.5" cy="-356" r="6"/>
				<circle class="st4" cx="151.5" cy="-392" r="6"/>
			</g>
			<g>
				<rect x="246" y="-320" class="st3" width="123" height="160"/>
				<circle class="st4" cx="280" cy="-196" r="6"/>
				<circle class="st4" cx="286" cy="-274" r="6"/>
			</g>
			<g>
				<rect x="123" y="-320" class="st3" width="123" height="160"/>
				<circle class="st4" cx="157" cy="-196" r="6"/>
				<circle class="st4" cx="213" cy="-232" r="6"/>
				<circle class="st4" cx="163" cy="-274" r="6"/>
			</g>
			<g>
				<rect y="-320" class="st3" width="123" height="160"/>
				<circle class="st4" cx="90" cy="-232" r="6"/>
			</g>
			<g>
				<rect x="184.5" y="-160" class="st3" width="123" height="160"/>
				<circle class="st4" cx="224.5" cy="-114" r="6"/>
			</g>
			<g>
				<rect x="61.5" y="-160" class="st3" width="123" height="160"/>
				<circle class="st4" cx="101.5" cy="-114" r="6"/>
			</g>
		</g>
	</g>
</pattern>
<pattern  y="1536" width="264" height="264" patternUnits="userSpaceOnUse" id="New_Pattern_7" viewBox="66 -330 264 264" style="overflow:visible;">
	<g>
		<rect x="66" y="-330" class="st0" width="264" height="264"/>
		<g>
			<rect x="66" y="-330" class="st0" width="264" height="264"/>
			<g>
				<rect x="132" y="-132" class="st5" width="132" height="132"/>
				<rect x="143" y="-121" class="st6" width="110" height="110"/>
			</g>
			<g>
				<rect x="264" y="-198" class="st5" width="132" height="132"/>
				<rect x="275" y="-187" class="st6" width="110" height="110"/>
			</g>
			<g>
				<rect x="132" y="-264" class="st5" width="132" height="132"/>
				<rect x="143" y="-253" class="st6" width="110" height="110"/>
			</g>
			<g>
				<rect y="-198" class="st5" width="132" height="132"/>
				<rect x="11" y="-187" class="st6" width="110" height="110"/>
			</g>
			<g>
				<rect x="264" y="-330" class="st5" width="132" height="132"/>
				<rect x="275" y="-319" class="st6" width="110" height="110"/>
			</g>
			<g>
				<rect x="132" y="-396" class="st5" width="132" height="132"/>
				<rect x="143" y="-385" class="st6" width="110" height="110"/>
			</g>
			<g>
				<rect y="-330" class="st5" width="132" height="132"/>
				<rect x="11" y="-319" class="st6" width="110" height="110"/>
			</g>
		</g>
	</g>
</pattern>
<rect id="background_1_" x="1" y="0.5" class="st5" width="2047" height="1535"/>
<pattern  id="pattern_2_" xlink:href="#New_Pattern_7" patternTransform="matrix(1 0 0 -1 -267 -17824)">
</pattern>
<rect id="pattern_1_" x="55" y="41" class="st7" width="1939" height="1303"/>
<g id="waterBottle">
	<g id="bottle">
		<path class="st8" d="M1248,670.6c0,34.3-18.8,67.4-49,86.3c-14,9.4-25.5,21.4-33.4,34.5c-8.4,14-12.7,29.1-12.7,45v502.8h318
			V846.4c0-35.8-17.8-67.6-48.9-87.4c-0.1,0-0.2-0.1-0.2-0.1c-13.8-9.7-25.3-22.8-33.3-37.8c-8.3-15.6-12.7-33.1-12.7-50.6V446H1248
			V670.6z"/>
		<path class="st9" d="M1474.9,846.4v496.7h-326V836.4c0-1.2,0-2.5,0.1-3.7c0-0.2,0-0.4,0-0.7c0-1,0.1-2,0.2-3
			c0-0.3,0.1-0.6,0.1-0.9c0.1-0.9,0.2-1.8,0.3-2.7c0-0.3,0.1-0.6,0.1-0.9c0.1-0.9,0.3-1.8,0.4-2.7c0-0.3,0.1-0.5,0.1-0.8
			c0.2-1.1,0.4-2.3,0.7-3.4c0.1-0.3,0.2-0.7,0.2-1c0.2-0.7,0.3-1.5,0.5-2.2c0.2-0.6,0.3-1.3,0.5-1.9c0.1-0.4,0.2-0.8,0.3-1.2
			c0.2-0.7,0.4-1.5,0.7-2.2c0.1-0.2,0.2-0.5,0.2-0.7c3.1-9.5,7.8-18.3,13.6-26.5c0.1-0.1,0.2-0.3,0.3-0.4c0.4-0.5,0.7-1,1.1-1.5
			c7.7-10.1,17.3-19,28.3-26.4c0,0,0,0,0-0.1c0,0,0,0,0.1,0c28.6-17.8,47.2-49.3,47.2-82.9V446h4v224.6c0,34.3-18.8,67.4-49,86.3
			c-14,9.4-25.5,21.4-33.4,34.5c-8.4,14-12.7,29.1-12.7,45v502.8h318V846.4c0-35.8-17.8-67.6-48.9-87.4c-0.1,0-0.2-0.1-0.2-0.1
			c-13.8-9.7-25.3-22.8-33.3-37.8c-8.3-15.6-12.7-33.1-12.7-50.6V446h3.9v224.6c0,12.9,2.4,25.3,6.8,36.7c1.6,4.1,3.4,8.1,5.5,12
			c2.8,5.1,5.9,9.9,9.4,14.5c2,2.6,4.2,5.1,6.4,7.6c0.1,0.1,0.3,0.3,0.4,0.4c0.6,0.7,1.3,1.3,1.9,2c0.1,0.1,0.1,0.1,0.2,0.2
			c2.8,2.8,5.8,5.5,8.8,7.9c0.1,0,0.1,0.1,0.2,0.1c0.7,0.6,1.5,1.2,2.2,1.7c0.8,0.6,1.7,1.2,2.5,1.8
			C1455.6,775.6,1474.9,808.5,1474.9,846.4z M1375.8,442H1248v4h127.8V442z"/>
	</g>
	<g id="bottleLid">
		<rect x="1248" y="409.3" class="st10" width="127.8" height="32.7"/>
		<path class="st9" d="M1244,405.3v3.7v0.3V446h1.5h2.5h127.8h2.7h1.2v-40.7H1244z M1248,409.3V409h128v33h-0.2H1248V409.3z"/>
	</g>
	<g id="bottleLabel">
		<rect x="1149" y="961" class="st10" width="326" height="136"/>
		<path class="st9" d="M1475,961h-326v4l0,0c0,22.5,0,132,0,132h4l0,0l0,0l0,0l0,0c37.2,0,322,0,322,0V961L1475,961z M1153,965h318
			v128h-318V965L1153,965z"/>
	</g>
</g>
<g id="Donut3">
	<path class="st11" d="M1932.7,1005.5c-10.6,6.7-23.2,10.6-36.7,10.6c-33.5,0-61.4-23.9-67.7-55.6c-8.6,3.9-18.2,6.1-28.3,6.1
		c-20.3,0-38.5-8.7-51.1-22.6c-12.7,23.3-37.5,39.1-65.9,39.1c-33.7,0-62.2-22.2-71.7-52.8c-11.5,7.8-22.3,16.8-32.3,26.8
		c-42.3,42.3-65.6,98.6-65.6,158.4s23.3,116.1,65.6,158.4s98.6,65.6,158.4,65.6s116.1-23.3,158.4-65.6s65.6-98.6,65.6-158.4
		C1961.5,1076.4,1951.5,1038.7,1932.7,1005.5z M1737.5,1193.5c-43,0-78-35-78-78s35-78,78-78s78,35,78,78
		S1780.5,1193.5,1737.5,1193.5z"/>
	<pattern  id="SVGID_1_" xlink:href="#New_Pattern_4" patternTransform="matrix(1 0 0 -1 -53.0001 -17713.5)">
	</pattern>
	<path class="st12" d="M1917.7,1028.7l-10.8-13.5c-3.6,0.6-7.2,0.9-10.9,0.9c-33.5,0-61.4-23.9-67.7-55.6
		c-8.6,3.9-18.2,6.1-28.3,6.1c-20.3,0-38.5-8.7-51.1-22.7c-12.7,23.3-37.5,39.2-65.9,39.2c-24.2,0-45.7-11.5-59.4-29.2l-10.9,5.2
		l-55.5,69.6l-19.8,86.8l19.8,86.8l55.5,69.6l80.2,38.6h89l80.2-38.6l55.5-69.6l19.8-86.8L1917.7,1028.7z M1737.5,1191.5
		c-41.9,0-76-34.1-76-76c0-41.9,34.1-76,76-76c41.9,0,76,34.1,76,76C1813.5,1157.4,1779.4,1191.5,1737.5,1191.5z"/>
</g>
<g id="Donut2">
	<path class="st11" d="M1896,1016.1c-33.5,0-61.4-23.9-67.7-55.6c-8.6,3.9-18.2,6.1-28.3,6.1c-38.1,0-69-30.9-69-69c0-2,0.1-4,0.3-6
		c-57.5,1.5-111.4,24.7-152.2,65.5c-42.3,42.3-65.6,98.6-65.6,158.4s23.3,116.1,65.6,158.4s98.6,65.6,158.4,65.6
		s116.1-23.3,158.4-65.6s65.6-98.6,65.6-158.4c0-39.1-10-76.8-28.8-110C1922.1,1012.2,1909.5,1016.1,1896,1016.1z M1737.5,1193.5
		c-43,0-78-35-78-78s35-78,78-78s78,35,78,78S1780.5,1193.5,1737.5,1193.5z"/>
	<pattern  id="SVGID_2_" xlink:href="#New_Pattern_4" patternTransform="matrix(1 0 0 -1 -53.0001 -17713.5)">
	</pattern>
	<path class="st13" d="M1906.9,1015.2c-3.6,0.6-7.2,0.9-10.9,0.9c-33.5,0-61.4-23.9-67.7-55.6c-8.6,3.9-18.2,6.1-28.3,6.1
		c-30.1,0-55.6-19.2-65.1-46.1h-42l-80.2,38.6l-55.5,69.6l-19.8,86.8l19.8,86.8l55.5,69.6l80.2,38.6h89l80.2-38.6l55.5-69.6
		l19.8-86.8l-19.8-86.8L1906.9,1015.2z M1737.5,1191.5c-41.9,0-76-34.1-76-76c0-41.9,34.1-76,76-76c41.9,0,76,34.1,76,76
		C1813.5,1157.4,1779.4,1191.5,1737.5,1191.5z"/>
</g>
<g id="Donut1">
	<path class="st11" d="M1895.9,957.1c-10.6-10.6-22.1-20.1-34.4-28.2c-11.4,22.4-34.6,37.7-61.5,37.7c-38.1,0-69-30.9-69-69
		c0-2,0.1-4,0.3-6c-57.5,1.5-111.4,24.7-152.2,65.5c-42.3,42.3-65.6,98.6-65.6,158.4s23.3,116.1,65.6,158.4s98.6,65.6,158.4,65.6
		s116.1-23.3,158.4-65.6s65.6-98.6,65.6-158.4S1938.2,999.4,1895.9,957.1z M1737.5,1193.5c-43,0-78-35-78-78s35-78,78-78
		s78,35,78,78S1780.5,1193.5,1737.5,1193.5z"/>
	<pattern  id="SVGID_3_" xlink:href="#New_Pattern_4" patternTransform="matrix(1 0 0 -1 -53.0001 -17713.5)">
	</pattern>
	<path class="st14" d="M1917.7,1028.7l-55.5-69.6l-17.9-8.6c-12,10-27.4,16.1-44.3,16.1c-30.1,0-55.6-19.2-65.1-46.1h-42l-80.2,38.6
		l-55.5,69.6l-19.8,86.8l19.8,86.8l55.5,69.6l80.2,38.6h89l80.2-38.6l55.5-69.6l19.8-86.8L1917.7,1028.7z M1737.5,1191.5
		c-41.9,0-76-34.1-76-76c0-41.9,34.1-76,76-76c41.9,0,76,34.1,76,76C1813.5,1157.4,1779.4,1191.5,1737.5,1191.5z"/>
</g>
<g id="Donut">
	<g>
		<path class="st11" d="M1737.5,1339.5c-59.8,0-116.1-23.3-158.4-65.6c-42.3-42.3-65.6-98.6-65.6-158.4s23.3-116.1,65.6-158.4
			c42.3-42.3,98.6-65.6,158.4-65.6s116.1,23.3,158.4,65.6s65.6,98.6,65.6,158.4s-23.3,116.1-65.6,158.4
			C1853.6,1316.2,1797.3,1339.5,1737.5,1339.5z M1737.5,1037.5c-43,0-78,35-78,78s35,78,78,78s78-35,78-78
			S1780.5,1037.5,1737.5,1037.5z"/>
	</g>
	<g>
		<pattern  id="SVGID_4_" xlink:href="#New_Pattern_4" patternTransform="matrix(1 0 0 -1 -53.0001 -17713.5)">
		</pattern>
		<path class="st15" d="M1917.7,1028.7l-55.5-69.6l-80.2-38.6h-89l-80.2,38.6l-55.5,69.6l-19.8,86.8l19.8,86.8l55.5,69.6l80.2,38.6
			h89l80.2-38.6l55.5-69.6l19.8-86.8L1917.7,1028.7z M1737.5,1191.5c-41.9,0-76-34.1-76-76s34.1-76,76-76s76,34.1,76,76
			S1779.4,1191.5,1737.5,1191.5z"/>
	</g>
</g>
<g id="Lunch">
	<g id="Box">
		<g>
			<path class="st16" d="M182.5,1346.6c-40.3,0-73-32.7-73-73V767.3c0-40.3,32.7-73,73-73h830c40.3,0,73,32.7,73,73v506.2
				c0,40.3-32.7,73-73,73L182.5,1346.6L182.5,1346.6z"/>
			<path class="st9" d="M1012.5,696.3c39.1,0,71,31.9,71,71v506.2c0,39.1-31.9,71-71,71h-830c-39.1,0-71-31.9-71-71V767.3
				c0-39.1,31.9-71,71-71H1012.5 M1012.5,692.3h-830c-41.4,0-75,33.6-75,75v506.2c0,41.4,33.6,75,75,75h830c41.4,0,75-33.6,75-75
				V767.3C1087.5,725.9,1053.9,692.3,1012.5,692.3L1012.5,692.3z"/>
		</g>
		<g>
			<path class="st10" d="M172.5,1306.6c-12.7,0-23-10.3-23-23V757.3c0-12.7,10.3-23,23-23h850c12.7,0,23,10.3,23,23v526.2
				c0,12.7-10.3,23-23,23L172.5,1306.6L172.5,1306.6z"/>
			<path class="st9" d="M1022.5,736.3c11.6,0,21,9.4,21,21v526.2c0,11.6-9.4,21-21,21h-850c-11.6,0-21-9.4-21-21V757.3
				c0-11.6,9.4-21,21-21H1022.5 M1022.5,732.3h-850c-13.8,0-25,11.2-25,25v526.2c0,13.8,11.2,25,25,25h850c13.8,0,25-11.2,25-25
				V757.3C1047.5,743.6,1036.2,732.3,1022.5,732.3L1022.5,732.3z"/>
		</g>
		<g>
			<path class="st10" d="M762.3,695.2c-4.2,0-7.6-3.4-7.6-7.6v-4c0-4.2,3.4-7.6,7.6-7.6h40c1.1,0,2-0.9,2-2v-4.8
				c0-23.2-18.8-42-42-42H437.5c-23.2,0-42,18.8-42,42v4.8c0,1.1,0.9,2,2,2h35.2c4.2,0,7.6,3.4,7.6,7.6v4c0,4.2-3.4,7.6-7.6,7.6
				H315.9c-4.2,0-7.6-3.4-7.6-7.6v-4c0-4.2,3.4-7.6,7.6-7.6h41.6c1.1,0,2-0.9,2-2v-4.8c0-43,35-78,78-78h324.8c43,0,78,35,78,78v4.8
				c0,1.1,0.9,2,2,2h36.8c4.2,0,7.6,3.4,7.6,7.6v4c0,4.2-3.4,7.6-7.6,7.6H762.3z"/>
			<path class="st9" d="M762.3,593.2c20.2,0,39.3,7.9,53.7,22.3c14.4,14.4,22.3,33.5,22.3,53.7v4.8c0,2.2,1.8,4,4,4h36.8
				c3.1,0,5.6,2.5,5.6,5.6v4c0,3.1-2.5,5.6-5.6,5.6H762.3c-3.1,0-5.6-2.5-5.6-5.6v-4c0-3.1,2.5-5.6,5.6-5.6h40c2.2,0,4-1.8,4-4v-4.8
				c0-24.3-19.7-44-44-44H437.5c-24.3,0-44,19.7-44,44v4.8c0,2.2,1.8,4,4,4h35.2c3.1,0,5.6,2.5,5.6,5.6v4c0,3.1-2.5,5.6-5.6,5.6
				H315.9c-3.1,0-5.6-2.5-5.6-5.6v-4c0-3.1,2.5-5.6,5.6-5.6h41.6c2.2,0,4-1.8,4-4v-4.8c0-20.2,7.9-39.3,22.3-53.7
				s33.5-22.3,53.7-22.3H762.3 M762.3,589.2H437.5c-44,0-80,36-80,80v4.8h-41.6c-5.3,0-9.6,4.3-9.6,9.6v4c0,5.3,4.3,9.6,9.6,9.6
				h116.8c5.3,0,9.6-4.3,9.6-9.6v-4c0-5.3-4.3-9.6-9.6-9.6h-35.2v-4.8c0-22.1,17.9-40,40-40h324.8c22.1,0,40,17.9,40,40v4.8h-40
				c-5.3,0-9.6,4.3-9.6,9.6v4c0,5.3,4.3,9.6,9.6,9.6h116.8c5.3,0,9.6-4.3,9.6-9.6v-4c0-5.3-4.3-9.6-9.6-9.6h-36.8v-4.8
				C842.3,625.2,806.3,589.2,762.3,589.2L762.3,589.2z"/>
		</g>
	</g>
	<g id="Orange">
		<g>
			<path class="st3" d="M839,1280c-77.7,0-141-63.3-141-141s63.3-141,141-141s141,63.3,141,141S916.7,1280,839,1280z"/>
			<path class="st9" d="M839,1000c37.1,0,72,14.5,98.3,40.7c26.3,26.3,40.7,61.2,40.7,98.3s-14.5,72-40.7,98.3
				c-26.3,26.3-61.2,40.7-98.3,40.7s-72-14.5-98.3-40.7c-26.3-26.3-40.7-61.2-40.7-98.3s14.5-72,40.7-98.3
				C767,1014.5,801.9,1000,839,1000 M839,996c-79,0-143,64-143,143s64,143,143,143s143-64,143-143S918,996,839,996L839,996z"/>
		</g>
		<path class="st17" d="M814.4,1029.4c16.2,4.9,16.2,10.1,60.1,2.3 M814.4,956.6c12.7,0,34.8,52.9,34.8,76.2"/>
		<g>
			<g>
				<path class="st18" d="M851.1,1001.4c-5.6-6.3-7.8-13.1-6.5-20c3.5-18.4,30.2-34,39.5-38.9c-4.9,57.6-18.9,58.2-31.3,58.8
					C852.2,1001.4,851.7,1001.4,851.1,1001.4z"/>
				<path class="st9" d="M881.7,946.1c-2.2,23.1-6.2,38.3-12.1,46.1c-5,6.6-10.5,6.9-16.9,7.1c-0.3,0-0.5,0-0.8,0
					c-4.8-5.7-6.5-11.4-5.4-17.5C849.6,966.1,870.9,952.2,881.7,946.1 M886.4,939.1L886.4,939.1L886.4,939.1z M886.4,939.1
					c0,0-66.7,31.5-36.1,64.3C864.1,1002.5,881.3,1006.2,886.4,939.1L886.4,939.1z"/>
			</g>
			<path class="st19" d="M865.1,970.1c0,0,0,17.6-16.7,32.4"/>
		</g>
	</g>
	<g id="Carrot">
		<g>
			<path class="st18" d="M794.7,838c-5.8,0-11.7-1.4-17.2-4.2c-11.1-5.5-18.8-15.5-19.7-25.5c-0.1-0.6-0.4-1.2-1-1.5
				c-7.9-4.8-10.9-15-6.8-23.4c3.1-6.2,9.2-10,16.2-10c2.8,0,5.4,0.6,8,1.9c3,1.5,5.6,3.8,7.4,6.7c0.3,0.5,0.9,0.9,1.5,0.9
				c0.1,0,0.1,0,0.2,0c0.6,0,1.1-0.3,1.5-0.7c3.4-4,8.4-6.3,13.7-6.3c2.8,0,5.4,0.6,7.9,1.9c7.4,3.6,11.3,11.8,9.6,19.9
				c-0.1,0.6,0,1.3,0.5,1.8c0.4,0.4,0.9,0.7,1.5,0.7c0.1,0,0.1,0,0.2,0c0.6-0.1,1.3-0.1,1.9-0.1c2.8,0,5.4,0.6,7.9,1.8
				c8.9,4.4,12.6,15.2,8.2,24.1c-3.1,6.2-9.2,10-16.2,10l0,0c-2.8,0-5.4-0.6-8-1.9c-0.1-0.1-0.2-0.1-0.3-0.2
				c-0.3-0.1-0.6-0.2-0.9-0.2c-0.4,0-0.7,0.1-1.1,0.3C805.5,836.6,800.3,838,794.7,838z"/>
			<g>
				<path class="st9" d="M766.1,775.4c2.5,0,4.8,0.6,7.1,1.7c2.7,1.3,4.9,3.4,6.5,6c0.7,1.1,1.8,1.8,3.1,1.9c0.1,0,0.2,0,0.3,0
					c1.2,0,2.3-0.5,3-1.4c3-3.6,7.5-5.6,12.2-5.6c2.5,0,4.8,0.6,7,1.7c6.6,3.2,10.1,10.5,8.5,17.7c-0.3,1.3,0.1,2.6,0.9,3.5
					c0.8,0.8,1.8,1.3,3,1.3c0.1,0,0.3,0,0.4,0c0.6-0.1,1.1-0.1,1.7-0.1c2.5,0,4.8,0.6,7,1.6c7.9,3.9,11.2,13.5,7.3,21.4
					c-2.7,5.5-8.2,8.9-14.4,8.9c-2.4,0-4.8-0.5-7-1.6c-0.1-0.1-0.2-0.1-0.3-0.2c-0.6-0.3-1.2-0.4-1.8-0.4c-0.7,0-1.5,0.2-2.1,0.6
					c-3.8,2.4-8.6,3.7-13.9,3.7c-5.4,0-11.1-1.4-16.3-4c-10.5-5.2-17.8-14.5-18.6-23.9c-0.1-1.3-0.8-2.4-1.9-3.1
					c-7.1-4.3-9.7-13.4-6.1-20.8C754.4,778.8,759.9,775.4,766.1,775.4L766.1,775.4 M766.1,771.4c-7.4,0-14.5,4.1-17.9,11.1
					c-4.6,9.4-1.2,20.7,7.6,26c1,10.4,8.7,21.1,20.8,27.1c6,3,12.2,4.4,18.1,4.4c6,0,11.6-1.5,16-4.3c0.1,0.1,0.2,0.1,0.3,0.2
					c2.8,1.4,5.9,2.1,8.8,2.1c7.4,0,14.5-4.1,17.9-11.1c4.9-9.9,0.8-21.9-9.1-26.8c-2.8-1.4-5.8-2.1-8.8-2.1c-0.7,0-1.4,0-2.1,0.1
					c1.9-8.7-2.3-18-10.7-22.1c-2.8-1.4-5.9-2.1-8.8-2.1c-5.8,0-11.4,2.5-15.2,7c-1.9-3.1-4.7-5.7-8.2-7.5
					C772.1,772.1,769.1,771.4,766.1,771.4L766.1,771.4z"/>
			</g>
		</g>
		<g>
			<path class="st3" d="M701.7,979.8c0.9-26,8.7-168.5,67.4-168.5c6.2,0,13,1.6,20,4.8c13.8,7.4,21.2,17.4,22,29.8
				C814.1,894.1,720.5,965.9,701.7,979.8z"/>
			<path class="st9" d="M769,813.3c5.9,0,12.4,1.6,19.1,4.6c13.3,7.1,20.1,16.3,20.9,28.1c1.4,21.3-17.4,51.2-54.1,86.4
				c-20.2,19.4-40.8,35.5-51.1,43.2c0.6-14.6,2.7-46.7,9.3-78.4c5.1-24.9,12-44.6,20.3-58.7C743.3,821.8,755.3,813.3,769,813.3
				L769,813.3 M769,809.3c-67,0-69.5,174.5-69.5,174.5s175.1-124.3,90.4-169.5C782.3,810.9,775.4,809.3,769,809.3L769,809.3z"/>
		</g>
		<g>
			<path class="st17" d="M730.6,841.9l67.2,33.2 M761.7,889.6l27.8,13.7 M711.2,899.3L739,913 M723.9,936.8l18.8,9.3"/>
		</g>
	</g>
	<g id="Berry_x5F_Left" class="float">
		<g>
			<path class="st20" d="M908,834c-17.1,0-31-13.9-31-31s13.9-31,31-31s31,13.9,31,31S925.1,834,908,834z"/>
			<path class="st9" d="M908,774c16,0,29,13,29,29s-13,29-29,29s-29-13-29-29S892,774,908,774 M908,770c-18.2,0-33,14.8-33,33
				s14.8,33,33,33s33-14.8,33-33S926.2,770,908,770L908,770z"/>
		</g>
		<g>
			<path class="st9" d="M895.2,786l1.6,5.8c0.1,0.3,0.4,0.5,0.7,0.5l6-0.8c0.7-0.1,1.1,0.9,0.5,1.3l-5,3.3c-0.3,0.2-0.4,0.6-0.2,0.9
				l2.6,5.5c0.3,0.7-0.5,1.3-1,0.8l-4.7-3.8c-0.3-0.2-0.6-0.2-0.9,0l-4.4,4.1c-0.5,0.5-1.4-0.1-1.1-0.7l2.1-5.6
				c0.1-0.3,0-0.7-0.3-0.8l-5.3-2.9c-0.6-0.3-0.4-1.3,0.4-1.3l6,0.3c0.3,0,0.6-0.2,0.7-0.6l1.1-5.9C894,785.4,895,785.3,895.2,786z"
				/>
		</g>
	</g>
	<g id="Berry_x5F_Right"  class="float2">
		<g>
			<path class="st20" d="M985.5,863c-17.1-0.3-30.8-14.4-30.5-31.5c0.3-16.8,14.2-30.5,31-30.5h0.5c17.1,0.3,30.8,14.4,30.5,31.5
				c-0.3,16.8-14.2,30.5-31,30.5H985.5z"/>
			<path class="st9" d="M986,799v4c0.2,0,0.3,0,0.5,0c7.7,0.1,15,3.3,20.4,8.8c5.4,5.6,8.3,12.9,8.2,20.6
				c-0.2,15.7-13.3,28.5-29,28.5c-0.2,0-0.3,0-0.5,0c-7.7-0.1-15-3.3-20.4-8.8c-5.4-5.6-8.3-12.9-8.2-20.6
				c0.2-15.7,13.3-28.5,29-28.5V799 M986,799c-18,0-32.7,14.4-33,32.5c-0.3,18.2,14.3,33.2,32.5,33.5c0.2,0,0.4,0,0.5,0
				c18,0,32.7-14.4,33-32.5c0.3-18.2-14.3-33.2-32.5-33.5C986.3,799,986.2,799,986,799L986,799z"/>
		</g>
		<g>
			<path class="st9" d="M1003.2,819.4l-5.8,1.5c-0.3,0.1-0.5,0.4-0.5,0.7l0.7,6c0.1,0.7-0.9,1.1-1.3,0.4l-3.3-5
				c-0.2-0.3-0.6-0.4-0.9-0.3l-5.5,2.5c-0.7,0.3-1.3-0.5-0.8-1.1l3.8-4.7c0.2-0.3,0.2-0.6,0-0.9l-4.1-4.5c-0.5-0.5,0.1-1.4,0.8-1.1
				l5.6,2.2c0.3,0.1,0.7,0,0.8-0.3l3-5.2c0.4-0.6,1.3-0.3,1.3,0.4l-0.4,6c0,0.3,0.2,0.6,0.5,0.7l5.9,1.2
				C1003.9,818.2,1003.9,819.2,1003.2,819.4z"/>
		</g>
	</g>
	<g id="Berry_x5F_Middle" class="lHandle-anim">
		<g>
			<path class="st20" d="M920,921c-6.5,0-12.8-2-18.1-5.8c-6.7-4.8-11.2-12-12.5-20.2s0.6-16.4,5.4-23.1
				c5.8-8.1,15.2-12.9,25.2-12.9c6.5,0,12.8,2,18.1,5.8c6.7,4.8,11.2,12,12.5,20.2s-0.6,16.4-5.4,23.1
				C939.4,916.2,929.9,921,920,921z"/>
			<path class="st9" d="M920,857v4l0,0c6.1,0,11.9,1.9,16.9,5.5c13,9.3,15.9,27.5,6.6,40.5c-5.4,7.6-14.2,12.1-23.6,12.1
				c-6.1,0-11.9-1.9-16.9-5.5c-6.3-4.5-10.4-11.2-11.7-18.9s0.6-15.3,5.1-21.6c5.4-7.6,14.2-12.1,23.6-12.1L920,857 M920,857
				c-10.3,0-20.4,4.8-26.8,13.7c-10.6,14.8-7.3,35.4,7.5,46.1c5.8,4.2,12.6,6.2,19.2,6.2c10.3,0,20.4-4.8,26.8-13.7
				c10.6-14.8,7.3-35.4-7.5-46.1C933.4,859,926.7,857,920,857L920,857z"/>
		</g>
		<g>
			<path class="st9" d="M941.3,889.5l-5.7-2.1c-0.3-0.1-0.7,0-0.8,0.3l-2.9,5.3c-0.3,0.6-1.3,0.4-1.3-0.4l0.2-6
				c0-0.3-0.2-0.6-0.6-0.7l-5.9-1.1c-0.7-0.1-0.8-1.1-0.1-1.3l5.8-1.6c0.3-0.1,0.5-0.4,0.5-0.8l-0.8-6c-0.1-0.7,0.8-1.1,1.3-0.5
				l3.4,5c0.2,0.3,0.6,0.4,0.9,0.2l5.4-2.6c0.7-0.3,1.3,0.5,0.8,1l-3.7,4.7c-0.2,0.3-0.2,0.7,0,0.9l4.2,4.4
				C942.5,888.9,942,889.7,941.3,889.5z"/>
		</g>
	</g>
	<g id="Sandwich">
		<g id="Left_x5F_Sandwich_1_">
			<g id="lBreadBottom">
				<path class="st21" d="M227,1217.1c-5.3-4.8-8.4-11.9-8.1-19.5l15.2-329.7c0.6-13.7,12.4-24.5,26.1-23.8l329.7,15.2
					c7.6,0.4,14.4,4.2,18.7,9.8L227,1217.1z"/>
				<pattern  id="SVGID_5_" xlink:href="#New_Pattern_3" patternTransform="matrix(1 0 0 -1 -478.5 -17734)">
				</pattern>
				<path class="st22" d="M243.8,1201.8c-0.9-1-1.4-2.3-1.4-3.6l15.2-329.7c0.1-2.7,2.5-4.9,5.2-4.8l329.7,15.2
					c1.4,0.1,2.6,0.7,3.4,1.6L243.8,1201.8z"/>
			</g>
			<path id="lHam" class="st23" d="M580.1,894.9c-18.1-8.1-43.5-14.2-79-15.9c-138-6.3-172.7-101.1-253.9-14.1
				s-44.1,224.6-20.4,258.6c11.6,16.7,21.7,39.1,39.7,57.6L580.1,894.9z"/>
			<path id="lCheese" class="st24" d="M290.7,1160.1L188,1094.4c-2.3-1.5-3-4.6-1.5-6.9l179.1-279.7c1.5-2.3,4.6-3,6.9-1.5
				l179,114.6L290.7,1160.1z"/>
			<path id="lLettuce" class="st25" d="M577.8,897.4c-14.6-31.6-44.5-53.9-79.9-55.5c-1.5-0.1-3-0.1-4.5-0.1
				c-11-12.1-26.2-19.8-43.3-20.6c-20.7-1-39.5,8.6-52.1,24.1c-4.7-1-9.5-1.6-14.3-1.8c-34.9-1.6-66.4,17.2-84.2,46.5
				c-32.2,15-55.4,48.6-57.3,88.5c-0.6,12,0.9,23.6,4,34.4c-6.2,12.7-10,26.9-10.7,42.1c-1.7,37.5,15.9,71.1,43.4,89.9
				c0.9,7.2,2.6,14.1,4.8,20.8L577.8,897.4z"/>
			<g id="lBreadTop">
				<path class="st21" d="M227,1217.1c-5.3-4.8-8.4-11.9-8.1-19.5l15.2-329.7c0.6-13.7,12.4-24.5,26.1-23.8l329.7,15.2
					c7.6,0.4,14.4,4.2,18.7,9.8L227,1217.1z"/>
				<pattern  id="SVGID_6_" xlink:href="#New_Pattern_3" patternTransform="matrix(1 0 0 -1 -478.5 -17734)">
				</pattern>
				<path class="st26" d="M243.8,1201.8c-0.9-1-1.4-2.3-1.4-3.6l15.2-329.7c0.1-2.7,2.5-4.9,5.2-4.8l329.7,15.2
					c1.4,0.1,2.6,0.7,3.4,1.6L243.8,1201.8z"/>
			</g>
		</g>
		<g id="Right_x5F_Sandwich_1_">
			<g id="rBreadBottom">
				<path class="st21" d="M621.4,883.1c3.5,4.5,5.4,10.2,5.1,16.3l-15.2,329.7c-0.6,13.7-12.4,24.5-26.1,23.8l-329.7-15.2
					c-6.1-0.3-11.6-2.7-15.7-6.6L621.4,883.1z"/>
				<pattern  id="_x3C_Path_x3E__2_" xlink:href="#New_Pattern_3" patternTransform="matrix(1 0 0 -1 -478.5 -17734)">
				</pattern>
				<path id="_x3C_Path_x3E_" class="st27" d="M609.4,895.3c0.9,1,1.4,2.2,1.3,3.6l-15.2,329.7c-0.1,2.7-2.5,4.9-5.2,4.8
					l-329.7-15.2c-1.3-0.1-2.5-0.7-3.4-1.6L609.4,895.3z"/>
			</g>
			<path id="rHam" class="st23" d="M279.9,1195.9c20.2,20.7,50.3,36.4,103.8,33.4c182.5-10.3,158,33.4,216.5-56.9
				c25.7-39.8,84.2-58.6,41.2-187.3c-2.1-6.3-3.3-12.9-3.6-19.5c-0.4-13-6.4-38.9-44.2-55.9L279.9,1195.9z"/>
			<path id="rCheese" class="st24" d="M564.4,934.9l100.7,64.5c2.3,1.5,3,4.6,1.5,6.9L487.5,1286c-1.5,2.3-4.6,3-6.9,1.5l-177-113.4
				L564.4,934.9z"/>
			<path id="rLettuce" class="st25" d="M296.5,1179.6c8.7,25.4,26.7,46.1,49.8,57.2c10.8,18.9,29.9,31.8,52.2,32.9
				c21.2,1,40.6-9.1,53.1-25.4c12.7,7.9,27.3,12.7,43,13.4c30.2,1.4,57.7-12.6,76-35.4c32.4-14.7,55.8-48.3,57.7-88.3
				c0.7-15.2-1.8-29.7-6.8-42.9c8.3-14.2,13.4-30.7,14.3-48.6c1.5-33.7-12.6-64.2-35.5-83.5c0.5-17-3-33.2-9.6-47.5L296.5,1179.6z"
				/>
			<g id="rBreadTop">
				<path class="st21" d="M621.4,883.1c3.5,4.5,5.4,10.2,5.1,16.3l-15.2,329.7c-0.6,13.7-12.4,24.5-26.1,23.8l-329.7-15.2
					c-6.1-0.3-11.6-2.7-15.7-6.6L621.4,883.1z"/>
				<pattern  id="_x3C_Path_x3E__3_" xlink:href="#New_Pattern_3" patternTransform="matrix(1 0 0 -1 -478.5 -17734)">
				</pattern>
				<path id="_x3C_Path_x3E__1_" class="st28" d="M609.4,895.3c0.9,1,1.4,2.2,1.3,3.6l-15.2,329.7c-0.1,2.7-2.5,4.9-5.2,4.8
					l-329.7-15.2c-1.3-0.1-2.5-0.7-3.4-1.6L609.4,895.3z"/>
			</g>
		</g>
	</g>
</g>
</svg>
