<?xml version="1.0" encoding="utf-8"?>
<!-- Generator: Adobe Illustrator 21.0.2, SVG Export Plug-In . SVG Version: 6.00 Build 0)  -->
<svg version="1.1" xmlns="http://www.w3.org/2000/svg" xmlns:xlink="http://www.w3.org/1999/xlink" x="0px" y="0px"
	 viewBox="0 0 2048 1536" style="enable-background:new 0 0 2048 1536;" xml:space="preserve">
<style type="text/css">
	.st0{fill:#FFF1A5;}
	.st1{opacity:0.46;}
	.st2{fill:none;stroke:#FFDB58;stroke-width:3;stroke-miterlimit:10;}
	.st3{fill:#F9F9F9;stroke:#FF9C32;stroke-width:4;stroke-miterlimit:10;}
	.st4{fill:#FF9C32;}
	.st5{fill:#FF9C32;stroke:#F9F9F9;stroke-width:4;stroke-miterlimit:10;}
	.st6{fill:none;stroke:#FF9C32;stroke-width:4;stroke-miterlimit:10;}
	.st7{fill:#14275E;}
</style>
<g id="tablet_x5F_teeth">
	<rect id="background_1_" x="0" y="-0.5" class="st0" width="2046.6" height="1536"/>
	<g id="pattern" class="st1">
		<g>
			<g>
				<path class="st2" d="M885.3,117.5H48.5c-5,0-9-4-9-9s4-9,9-9h836.8c5,0,9,4,9,9S890.3,117.5,885.3,117.5z"/>
			</g>
			<g>
				<path class="st2" d="M1019.8,117.5h-59.3c-5,0-9-4-9-9s4-9,9-9h59.3c5,0,9,4,9,9S1024.8,117.5,1019.8,117.5z"/>
			</g>
			<g>
				<path class="st2" d="M1540.9,117.5h-59.3c-5,0-9-4-9-9s4-9,9-9h59.3c5,0,9,4,9,9S1545.8,117.5,1540.9,117.5z"/>
			</g>
			<g>
				<path class="st2" d="M1415.1,117.5h-318.4c-5,0-9-4-9-9s4-9,9-9h318.4c5,0,9,4,9,9S1420.1,117.5,1415.1,117.5z"/>
			</g>
			<g>
				<path class="st2" d="M1811,117.5h-221.8c-5,0-9-4-9-9s4-9,9-9H1811c5,0,9,4,9,9S1816,117.5,1811,117.5z"/>
			</g>
			<g>
				<path class="st2" d="M2013,117.5h-105.4c-5,0-9-4-9-9s4-9,9-9H2013c5,0,9,4,9,9S2018,117.5,2013,117.5z"/>
			</g>
		</g>
		<g>
			<g>
				<path class="st2" d="M2013,191.1h-836.8c-5,0-9-4-9-9s4-9,9-9H2013c5,0,9,4,9,9S2018,191.1,2013,191.1z"/>
			</g>
			<g>
				<path class="st2" d="M1101.1,191.1h-59.3c-5,0-9-4-9-9s4-9,9-9h59.3c5,0,9,4,9,9S1106,191.1,1101.1,191.1z"/>
			</g>
			<g>
				<path class="st2" d="M580,191.1h-59.3c-5,0-9-4-9-9s4-9,9-9H580c5,0,9,4,9,9S585,191.1,580,191.1z"/>
			</g>
			<g>
				<path class="st2" d="M964.9,191.1H646.5c-5,0-9-4-9-9s4-9,9-9h318.4c5,0,9,4,9,9S969.9,191.1,964.9,191.1z"/>
			</g>
			<g>
				<path class="st2" d="M472.4,191.1H250.6c-5,0-9-4-9-9s4-9,9-9h221.8c5,0,9,4,9,9S477.4,191.1,472.4,191.1z"/>
			</g>
			<g>
				<path class="st2" d="M154,191.1H48.5c-5,0-9-4-9-9s4-9,9-9H154c5,0,9,4,9,9S158.9,191.1,154,191.1z"/>
			</g>
		</g>
		<g>
			<g>
				<path class="st2" d="M192.9,43.9c-5,0-9-4-9-9c0-5,4-9,9-9l477.1-0.4c0,0,0,0,0,0c5,0,9,4,9,9c0,5-4,9-9,9L192.9,43.9
					C192.9,43.9,192.9,43.9,192.9,43.9z"/>
			</g>
			<g>
				<path class="st2" d="M124.3,43.7H49.6c-5,0-9-4-9-9s4-9,9-9h74.7c5,0,9,4,9,9S129.3,43.7,124.3,43.7z"/>
			</g>
			<g>
				<path class="st2" d="M1094.5,43.7H764c-5,0-9-4-9-9s4-9,9-9h330.5c5,0,9,4,9,9S1099.5,43.7,1094.5,43.7z"/>
			</g>
			<g>
				<path class="st2" d="M1730.8,43.7h-58.2c-5,0-9-4-9-9s4-9,9-9h58.2c5,0,9,4,9,9S1735.8,43.7,1730.8,43.7z"/>
			</g>
			<g>
				<path class="st2" d="M1279,43.9C1279,43.9,1278.9,43.9,1279,43.9l-87.3-0.4c-5,0-9-4.1-9-9c0-5,4-9,9-9c0,0,0,0,0,0l87.3,0.4
					c5,0,9,4.1,9,9C1287.9,39.9,1283.9,43.9,1279,43.9z"/>
			</g>
			<g>
				<path class="st2" d="M1618.3,43.7h-281.1c-5,0-9-4-9-9s4-9,9-9h281.1c5,0,9,4,9,9S1623.2,43.7,1618.3,43.7z"/>
			</g>
			<g>
				<path class="st2" d="M2013,43.7h-221.8c-5,0-9-4-9-9s4-9,9-9H2013c5,0,9,4,9,9S2018,43.7,2013,43.7z"/>
			</g>
		</g>
		<g>
			<g>
				<path class="st2" d="M192.9,338.7c-5,0-9-4-9-9c0-5,4-9,9-9l477.1-0.4c0,0,0,0,0,0c5,0,9,4,9,9c0,5-4,9-9,9L192.9,338.7
					C192.9,338.7,192.9,338.7,192.9,338.7z"/>
			</g>
			<g>
				<path class="st2" d="M124.3,338.5H49.6c-5,0-9-4-9-9s4-9,9-9h74.7c5,0,9,4,9,9S129.3,338.5,124.3,338.5z"/>
			</g>
			<g>
				<path class="st2" d="M1094.5,338.5H764c-5,0-9-4-9-9s4-9,9-9h330.5c5,0,9,4,9,9S1099.5,338.5,1094.5,338.5z"/>
			</g>
			<g>
				<path class="st2" d="M1730.8,338.5h-58.2c-5,0-9-4-9-9s4-9,9-9h58.2c5,0,9,4,9,9S1735.8,338.5,1730.8,338.5z"/>
			</g>
			<g>
				<path class="st2" d="M1279,338.7C1279,338.7,1278.9,338.7,1279,338.7l-87.3-0.4c-5,0-9-4.1-9-9c0-5,4-9,9-9c0,0,0,0,0,0
					l87.3,0.4c5,0,9,4.1,9,9C1287.9,334.7,1283.9,338.7,1279,338.7z"/>
			</g>
			<g>
				<path class="st2" d="M1618.3,338.5h-281.1c-5,0-9-4-9-9s4-9,9-9h281.1c5,0,9,4,9,9S1623.2,338.5,1618.3,338.5z"/>
			</g>
			<g>
				<path class="st2" d="M2013,338.5h-221.8c-5,0-9-4-9-9s4-9,9-9H2013c5,0,9,4,9,9S2018,338.5,2013,338.5z"/>
			</g>
		</g>
		<g>
			<g>
				<path class="st2" d="M2013,264.7h-330.5c-5,0-9-4-9-9s4-9,9-9H2013c5,0,9,4,9,9S2018,264.7,2013,264.7z"/>
			</g>
			<g>
				<path class="st2" d="M1617.7,264.7h-79.1c-5,0-9-4-9-9s4-9,9-9h79.1c5,0,9,4,9,9S1622.7,264.7,1617.7,264.7z"/>
			</g>
			<g>
				<path class="st2" d="M381.3,264.7h-79.1c-5,0-9-4-9-9s4-9,9-9h79.1c5,0,9,4,9,9S386.2,264.7,381.3,264.7z"/>
			</g>
			<g>
				<path class="st2" d="M214.4,264.7H49.6c-5,0-9-4-9-9s4-9,9-9h164.7c5,0,9,4,9,9S219.3,264.7,214.4,264.7z"/>
			</g>
			<g>
				<path class="st2" d="M759,264.7H452.6c-5,0-9-4-9-9s4-9,9-9H759c5,0,9,4,9,9S764,264.7,759,264.7z"/>
			</g>
			<g>
				<path class="st2" d="M916.6,264.7H811.2c-5,0-9-4-9-9s4-9,9-9h105.4c5,0,9,4,9,9S921.6,264.7,916.6,264.7z"/>
			</g>
			<g>
				<path class="st2" d="M1361.3,264.7H962.7c-5,0-9-4-9-9s4-9,9-9h398.6c5,0,9,4,9,9S1366.3,264.7,1361.3,264.7z"/>
			</g>
			<g>
				<path class="st2" d="M1492.5,264.7h-81.3c-5,0-9-4-9-9s4-9,9-9h81.3c5,0,9,4,9,9S1497.5,264.7,1492.5,264.7z"/>
			</g>
		</g>
		<g>
			<g>
				<path class="st2" d="M2013,559.5h-330.5c-5,0-9-4-9-9s4-9,9-9H2013c5,0,9,4,9,9S2018,559.5,2013,559.5z"/>
			</g>
			<g>
				<path class="st2" d="M1617.7,559.5h-79.1c-5,0-9-4-9-9s4-9,9-9h79.1c5,0,9,4,9,9S1622.7,559.5,1617.7,559.5z"/>
			</g>
			<g>
				<path class="st2" d="M381.3,559.5h-79.1c-5,0-9-4-9-9s4-9,9-9h79.1c5,0,9,4,9,9S386.2,559.5,381.3,559.5z"/>
			</g>
			<g>
				<path class="st2" d="M214.4,559.5H49.6c-5,0-9-4-9-9s4-9,9-9h164.7c5,0,9,4,9,9S219.3,559.5,214.4,559.5z"/>
			</g>
			<g>
				<path class="st2" d="M759,559.5H452.6c-5,0-9-4-9-9s4-9,9-9H759c5,0,9,4,9,9S764,559.5,759,559.5z"/>
			</g>
			<g>
				<path class="st2" d="M916.6,559.5H811.2c-5,0-9-4-9-9s4-9,9-9h105.4c5,0,9,4,9,9S921.6,559.5,916.6,559.5z"/>
			</g>
			<g>
				<path class="st2" d="M1361.3,559.5H962.7c-5,0-9-4-9-9s4-9,9-9h398.6c5,0,9,4,9,9S1366.3,559.5,1361.3,559.5z"/>
			</g>
			<g>
				<path class="st2" d="M1492.5,559.5h-81.3c-5,0-9-4-9-9s4-9,9-9h81.3c5,0,9,4,9,9S1497.5,559.5,1492.5,559.5z"/>
			</g>
		</g>
		<g>
			<g>
				<path class="st2" d="M2013,706.8h-330.5c-5,0-9-4-9-9s4-9,9-9H2013c5,0,9,4,9,9S2018,706.8,2013,706.8z"/>
			</g>
			<g>
				<path class="st2" d="M1617.7,706.8h-79.1c-5,0-9-4-9-9s4-9,9-9h79.1c5,0,9,4,9,9S1622.7,706.8,1617.7,706.8z"/>
			</g>
			<g>
				<path class="st2" d="M381.3,706.8h-79.1c-5,0-9-4-9-9s4-9,9-9h79.1c5,0,9,4,9,9S386.2,706.8,381.3,706.8z"/>
			</g>
			<g>
				<path class="st2" d="M214.4,706.8H49.6c-5,0-9-4-9-9s4-9,9-9h164.7c5,0,9,4,9,9S219.3,706.8,214.4,706.8z"/>
			</g>
			<g>
				<path class="st2" d="M759,706.8H452.6c-5,0-9-4-9-9s4-9,9-9H759c5,0,9,4,9,9S764,706.8,759,706.8z"/>
			</g>
			<g>
				<path class="st2" d="M916.6,706.8H811.2c-5,0-9-4-9-9s4-9,9-9h105.4c5,0,9,4,9,9S921.6,706.8,916.6,706.8z"/>
			</g>
			<g>
				<path class="st2" d="M1361.3,706.8H962.7c-5,0-9-4-9-9s4-9,9-9h398.6c5,0,9,4,9,9S1366.3,706.8,1361.3,706.8z"/>
			</g>
			<g>
				<path class="st2" d="M1492.5,706.8h-81.3c-5,0-9-4-9-9s4-9,9-9h81.3c5,0,9,4,9,9S1497.5,706.8,1492.5,706.8z"/>
			</g>
		</g>
		<g>
			<g>
				<path class="st2" d="M2013,412.3h-330.5c-5,0-9-4-9-9s4-9,9-9H2013c5,0,9,4,9,9S2018,412.3,2013,412.3z"/>
			</g>
			<g>
				<path class="st2" d="M1617.7,412.3h-79.1c-5,0-9-4-9-9s4-9,9-9h79.1c5,0,9,4,9,9S1622.7,412.3,1617.7,412.3z"/>
			</g>
			<g>
				<path class="st2" d="M381.3,412.3h-79.1c-5,0-9-4-9-9s4-9,9-9h79.1c5,0,9,4,9,9S386.2,412.3,381.3,412.3z"/>
			</g>
			<g>
				<path class="st2" d="M214.4,412.3H49.6c-5,0-9-4-9-9s4-9,9-9h164.7c5,0,9,4,9,9S219.3,412.3,214.4,412.3z"/>
			</g>
			<g>
				<path class="st2" d="M759,412.3H452.6c-5,0-9-4-9-9s4-9,9-9H759c5,0,9,4,9,9S764,412.3,759,412.3z"/>
			</g>
			<g>
				<path class="st2" d="M916.6,412.3H811.2c-5,0-9-4-9-9s4-9,9-9h105.4c5,0,9,4,9,9S921.6,412.3,916.6,412.3z"/>
			</g>
			<g>
				<path class="st2" d="M1361.3,412.3H962.7c-5,0-9-4-9-9s4-9,9-9h398.6c5,0,9,4,9,9S1366.3,412.3,1361.3,412.3z"/>
			</g>
			<g>
				<path class="st2" d="M1492.5,412.3h-81.3c-5,0-9-4-9-9s4-9,9-9h81.3c5,0,9,4,9,9S1497.5,412.3,1492.5,412.3z"/>
			</g>
		</g>
		<g>
			<g>
				<path class="st2" d="M380.2,485.9H49.6c-5,0-9-4-9-9s4-9,9-9h330.5c5,0,9,4,9,9S385.1,485.9,380.2,485.9z"/>
			</g>
			<g>
				<path class="st2" d="M524,485.9H445c-5,0-9-4-9-9s4-9,9-9H524c5,0,9,4,9,9S529,485.9,524,485.9z"/>
			</g>
			<g>
				<path class="st2" d="M1760.5,485.9h-79.1c-5,0-9-4-9-9s4-9,9-9h79.1c5,0,9,4,9,9S1765.4,485.9,1760.5,485.9z"/>
			</g>
			<g>
				<path class="st2" d="M2013,485.9h-164.7c-5,0-9-4-9-9s4-9,9-9H2013c5,0,9,4,9,9S2018,485.9,2013,485.9z"/>
			</g>
			<g>
				<path class="st2" d="M1610,485.9h-306.4c-5,0-9-4-9-9s4-9,9-9H1610c5,0,9,4,9,9S1615,485.9,1610,485.9z"/>
			</g>
			<g>
				<path class="st2" d="M1251.5,485.9h-105.4c-5,0-9-4-9-9s4-9,9-9h105.4c5,0,9,4,9,9S1256.5,485.9,1251.5,485.9z"/>
			</g>
			<g>
				<path class="st2" d="M1100,485.9H701.4c-5,0-9-4-9-9s4-9,9-9H1100c5,0,9,4,9,9S1104.9,485.9,1100,485.9z"/>
			</g>
			<g>
				<path class="st2" d="M651.4,485.9h-81.3c-5,0-9-4-9-9s4-9,9-9h81.3c5,0,9,4,9,9S656.4,485.9,651.4,485.9z"/>
			</g>
		</g>
		<g>
			<g>
				<path class="st2" d="M2013,633.1h-330.5c-5,0-9-4-9-9s4-9,9-9H2013c5,0,9,4,9,9S2018,633.1,2013,633.1z"/>
			</g>
			<g>
				<path class="st2" d="M1617.7,633.1h-79.1c-5,0-9-4-9-9s4-9,9-9h79.1c5,0,9,4,9,9S1622.7,633.1,1617.7,633.1z"/>
			</g>
			<g>
				<path class="st2" d="M381.3,633.1h-79.1c-5,0-9-4-9-9s4-9,9-9h79.1c5,0,9,4,9,9S386.2,633.1,381.3,633.1z"/>
			</g>
			<g>
				<path class="st2" d="M214.4,633.1H49.6c-5,0-9-4-9-9s4-9,9-9h164.7c5,0,9,4,9,9S219.3,633.1,214.4,633.1z"/>
			</g>
			<g>
				<path class="st2" d="M759,633.1H452.6c-5,0-9-4-9-9s4-9,9-9H759c5,0,9,4,9,9S764,633.1,759,633.1z"/>
			</g>
			<g>
				<path class="st2" d="M916.6,633.1H811.2c-5,0-9-4-9-9s4-9,9-9h105.4c5,0,9,4,9,9S921.6,633.1,916.6,633.1z"/>
			</g>
			<g>
				<path class="st2" d="M1361.3,633.1H962.7c-5,0-9-4-9-9s4-9,9-9h398.6c5,0,9,4,9,9S1366.3,633.1,1361.3,633.1z"/>
			</g>
			<g>
				<path class="st2" d="M1492.5,633.1h-81.3c-5,0-9-4-9-9s4-9,9-9h81.3c5,0,9,4,9,9S1497.5,633.1,1492.5,633.1z"/>
			</g>
		</g>
		<g>
			<g>
				<path class="st2" d="M2013,854.3h-836.8c-5,0-9-4-9-9s4-9,9-9H2013c5,0,9,4,9,9S2018,854.3,2013,854.3z"/>
			</g>
			<g>
				<path class="st2" d="M1101.1,854.3h-59.3c-5,0-9-4-9-9s4-9,9-9h59.3c5,0,9,4,9,9S1106,854.3,1101.1,854.3z"/>
			</g>
			<g>
				<path class="st2" d="M580,854.3h-59.3c-5,0-9-4-9-9s4-9,9-9H580c5,0,9,4,9,9S585,854.3,580,854.3z"/>
			</g>
			<g>
				<path class="st2" d="M964.9,854.3H646.5c-5,0-9-4-9-9s4-9,9-9h318.4c5,0,9,4,9,9S969.9,854.3,964.9,854.3z"/>
			</g>
			<g>
				<path class="st2" d="M472.4,854.3H250.6c-5,0-9-4-9-9s4-9,9-9h221.8c5,0,9,4,9,9S477.4,854.3,472.4,854.3z"/>
			</g>
			<g>
				<path class="st2" d="M154,854.3H48.5c-5,0-9-4-9-9s4-9,9-9H154c5,0,9,4,9,9S158.9,854.3,154,854.3z"/>
			</g>
		</g>
		<g>
			<g>
				<path class="st2" d="M885.3,928H48.5c-5,0-9-4-9-9s4-9,9-9h836.8c5,0,9,4,9,9S890.3,928,885.3,928z"/>
			</g>
			<g>
				<path class="st2" d="M1019.8,928h-59.3c-5,0-9-4-9-9s4-9,9-9h59.3c5,0,9,4,9,9S1024.8,928,1019.8,928z"/>
			</g>
			<g>
				<path class="st2" d="M1540.9,928h-59.3c-5,0-9-4-9-9s4-9,9-9h59.3c5,0,9,4,9,9S1545.8,928,1540.9,928z"/>
			</g>
			<g>
				<path class="st2" d="M1415.1,928h-318.4c-5,0-9-4-9-9s4-9,9-9h318.4c5,0,9,4,9,9S1420.1,928,1415.1,928z"/>
			</g>
			<g>
				<path class="st2" d="M1811,928h-221.8c-5,0-9-4-9-9s4-9,9-9H1811c5,0,9,4,9,9S1816,928,1811,928z"/>
			</g>
			<g>
				<path class="st2" d="M2013,928h-105.4c-5,0-9-4-9-9s4-9,9-9H2013c5,0,9,4,9,9S2018,928,2013,928z"/>
			</g>
		</g>
		<g>
			<g>
				<path class="st2" d="M1869.7,780.7C1869.7,780.7,1869.7,780.7,1869.7,780.7l-477.1-0.4c-5,0-9-4-9-9c0-5,4-9,9-9c0,0,0,0,0,0
					l477.1,0.4c5,0,9,4,9,9C1878.7,776.7,1874.7,780.7,1869.7,780.7z"/>
			</g>
			<g>
				<path class="st2" d="M2013,780.5h-74.7c-5,0-9-4-9-9s4-9,9-9h74.7c5,0,9,4,9,9S2018,780.5,2013,780.5z"/>
			</g>
			<g>
				<path class="st2" d="M1298.7,780.5H968.2c-5,0-9-4-9-9s4-9,9-9h330.5c5,0,9,4,9,9S1303.7,780.5,1298.7,780.5z"/>
			</g>
			<g>
				<path class="st2" d="M390.1,780.5h-58.2c-5,0-9-4-9-9s4-9,9-9h58.2c5,0,9,4,9,9S395,780.5,390.1,780.5z"/>
			</g>
			<g>
				<path class="st2" d="M783.7,780.7c-5,0-9-4-9-9c0-5,4-9,9-9l87.3-0.4c0,0,0,0,0,0c5,0,9,4,9,9c0,5-4,9-9,9L783.7,780.7
					C783.7,780.7,783.7,780.7,783.7,780.7z"/>
			</g>
			<g>
				<path class="st2" d="M725.5,780.5H444.4c-5,0-9-4-9-9s4-9,9-9h281.1c5,0,9,4,9,9S730.5,780.5,725.5,780.5z"/>
			</g>
			<g>
				<path class="st2" d="M271.5,780.5H49.6c-5,0-9-4-9-9s4-9,9-9h221.8c5,0,9,4,9,9S276.4,780.5,271.5,780.5z"/>
			</g>
		</g>
		<g>
			<g>
				<path class="st2" d="M192.9,1075.6c-5,0-9-4-9-9c0-5,4-9,9-9l477.1-0.4c0,0,0,0,0,0c5,0,9,4,9,9c0,5-4,9-9,9L192.9,1075.6
					C192.9,1075.6,192.9,1075.6,192.9,1075.6z"/>
			</g>
			<g>
				<path class="st2" d="M124.3,1075.4H49.6c-5,0-9-4-9-9s4-9,9-9h74.7c5,0,9,4,9,9S129.3,1075.4,124.3,1075.4z"/>
			</g>
			<g>
				<path class="st2" d="M1094.5,1075.4H764c-5,0-9-4-9-9s4-9,9-9h330.5c5,0,9,4,9,9S1099.5,1075.4,1094.5,1075.4z"/>
			</g>
			<g>
				<path class="st2" d="M1730.8,1075.4h-58.2c-5,0-9-4-9-9s4-9,9-9h58.2c5,0,9,4,9,9S1735.8,1075.4,1730.8,1075.4z"/>
			</g>
			<g>
				<path class="st2" d="M1279,1075.6C1279,1075.6,1278.9,1075.6,1279,1075.6l-87.3-0.4c-5,0-9-4.1-9-9c0-5,4-9,9-9c0,0,0,0,0,0
					l87.3,0.4c5,0,9,4.1,9,9C1287.9,1071.5,1283.9,1075.6,1279,1075.6z"/>
			</g>
			<g>
				<path class="st2" d="M1618.3,1075.4h-281.1c-5,0-9-4-9-9s4-9,9-9h281.1c5,0,9,4,9,9S1623.2,1075.4,1618.3,1075.4z"/>
			</g>
			<g>
				<path class="st2" d="M2013,1075.4h-221.8c-5,0-9-4-9-9s4-9,9-9H2013c5,0,9,4,9,9S2018,1075.4,2013,1075.4z"/>
			</g>
		</g>
		<g>
			<g>
				<path class="st2" d="M380.2,1001.6H49.6c-5,0-9-4-9-9s4-9,9-9h330.5c5,0,9,4,9,9S385.1,1001.6,380.2,1001.6z"/>
			</g>
			<g>
				<path class="st2" d="M524,1001.6H445c-5,0-9-4-9-9s4-9,9-9H524c5,0,9,4,9,9S529,1001.6,524,1001.6z"/>
			</g>
			<g>
				<path class="st2" d="M1760.5,1001.6h-79.1c-5,0-9-4-9-9s4-9,9-9h79.1c5,0,9,4,9,9S1765.4,1001.6,1760.5,1001.6z"/>
			</g>
			<g>
				<path class="st2" d="M2013,1001.6h-164.7c-5,0-9-4-9-9s4-9,9-9H2013c5,0,9,4,9,9S2018,1001.6,2013,1001.6z"/>
			</g>
			<g>
				<path class="st2" d="M1610,1001.6h-306.4c-5,0-9-4-9-9s4-9,9-9H1610c5,0,9,4,9,9S1615,1001.6,1610,1001.6z"/>
			</g>
			<g>
				<path class="st2" d="M1251.5,1001.6h-105.4c-5,0-9-4-9-9s4-9,9-9h105.4c5,0,9,4,9,9S1256.5,1001.6,1251.5,1001.6z"/>
			</g>
			<g>
				<path class="st2" d="M1100,1001.6H701.4c-5,0-9-4-9-9s4-9,9-9H1100c5,0,9,4,9,9S1104.9,1001.6,1100,1001.6z"/>
			</g>
			<g>
				<path class="st2" d="M651.4,1001.6h-81.3c-5,0-9-4-9-9s4-9,9-9h81.3c5,0,9,4,9,9S656.4,1001.6,651.4,1001.6z"/>
			</g>
		</g>
		<g>
			<g>
				<path class="st2" d="M380.2,1296.4H49.6c-5,0-9-4-9-9s4-9,9-9h330.5c5,0,9,4,9,9S385.1,1296.4,380.2,1296.4z"/>
			</g>
			<g>
				<path class="st2" d="M524,1296.4H445c-5,0-9-4-9-9s4-9,9-9H524c5,0,9,4,9,9S529,1296.4,524,1296.4z"/>
			</g>
			<g>
				<path class="st2" d="M1760.5,1296.4h-79.1c-5,0-9-4-9-9s4-9,9-9h79.1c5,0,9,4,9,9S1765.4,1296.4,1760.5,1296.4z"/>
			</g>
			<g>
				<path class="st2" d="M2013,1296.4h-164.7c-5,0-9-4-9-9s4-9,9-9H2013c5,0,9,4,9,9S2018,1296.4,2013,1296.4z"/>
			</g>
			<g>
				<path class="st2" d="M1610,1296.4h-306.4c-5,0-9-4-9-9s4-9,9-9H1610c5,0,9,4,9,9S1615,1296.4,1610,1296.4z"/>
			</g>
			<g>
				<path class="st2" d="M1251.5,1296.4h-105.4c-5,0-9-4-9-9s4-9,9-9h105.4c5,0,9,4,9,9S1256.5,1296.4,1251.5,1296.4z"/>
			</g>
			<g>
				<path class="st2" d="M1100,1296.4H701.4c-5,0-9-4-9-9s4-9,9-9H1100c5,0,9,4,9,9S1104.9,1296.4,1100,1296.4z"/>
			</g>
			<g>
				<path class="st2" d="M651.4,1296.4h-81.3c-5,0-9-4-9-9s4-9,9-9h81.3c5,0,9,4,9,9S656.4,1296.4,651.4,1296.4z"/>
			</g>
		</g>
		<g>
			<g>
				<path class="st2" d="M380.2,1443.6H49.6c-5,0-9-4-9-9s4-9,9-9h330.5c5,0,9,4,9,9S385.1,1443.6,380.2,1443.6z"/>
			</g>
			<g>
				<path class="st2" d="M524,1443.6H445c-5,0-9-4-9-9s4-9,9-9H524c5,0,9,4,9,9S529,1443.6,524,1443.6z"/>
			</g>
			<g>
				<path class="st2" d="M1760.5,1443.6h-79.1c-5,0-9-4-9-9s4-9,9-9h79.1c5,0,9,4,9,9S1765.4,1443.6,1760.5,1443.6z"/>
			</g>
			<g>
				<path class="st2" d="M2013,1443.6h-164.7c-5,0-9-4-9-9s4-9,9-9H2013c5,0,9,4,9,9S2018,1443.6,2013,1443.6z"/>
			</g>
			<g>
				<path class="st2" d="M1610,1443.6h-306.4c-5,0-9-4-9-9s4-9,9-9H1610c5,0,9,4,9,9S1615,1443.6,1610,1443.6z"/>
			</g>
			<g>
				<path class="st2" d="M1251.5,1443.6h-105.4c-5,0-9-4-9-9s4-9,9-9h105.4c5,0,9,4,9,9S1256.5,1443.6,1251.5,1443.6z"/>
			</g>
			<g>
				<path class="st2" d="M1100,1443.6H701.4c-5,0-9-4-9-9s4-9,9-9H1100c5,0,9,4,9,9S1104.9,1443.6,1100,1443.6z"/>
			</g>
			<g>
				<path class="st2" d="M651.4,1443.6h-81.3c-5,0-9-4-9-9s4-9,9-9h81.3c5,0,9,4,9,9S656.4,1443.6,651.4,1443.6z"/>
			</g>
		</g>
		<g>
			<g>
				<path class="st2" d="M380.2,1149.2H49.6c-5,0-9-4-9-9s4-9,9-9h330.5c5,0,9,4,9,9S385.1,1149.2,380.2,1149.2z"/>
			</g>
			<g>
				<path class="st2" d="M524,1149.2H445c-5,0-9-4-9-9s4-9,9-9H524c5,0,9,4,9,9S529,1149.2,524,1149.2z"/>
			</g>
			<g>
				<path class="st2" d="M1760.5,1149.2h-79.1c-5,0-9-4-9-9s4-9,9-9h79.1c5,0,9,4,9,9S1765.4,1149.2,1760.5,1149.2z"/>
			</g>
			<g>
				<path class="st2" d="M2013,1149.2h-164.7c-5,0-9-4-9-9s4-9,9-9H2013c5,0,9,4,9,9S2018,1149.2,2013,1149.2z"/>
			</g>
			<g>
				<path class="st2" d="M1610,1149.2h-306.4c-5,0-9-4-9-9s4-9,9-9H1610c5,0,9,4,9,9S1615,1149.2,1610,1149.2z"/>
			</g>
			<g>
				<path class="st2" d="M1251.5,1149.2h-105.4c-5,0-9-4-9-9s4-9,9-9h105.4c5,0,9,4,9,9S1256.5,1149.2,1251.5,1149.2z"/>
			</g>
			<g>
				<path class="st2" d="M1100,1149.2H701.4c-5,0-9-4-9-9s4-9,9-9H1100c5,0,9,4,9,9S1104.9,1149.2,1100,1149.2z"/>
			</g>
			<g>
				<path class="st2" d="M651.4,1149.2h-81.3c-5,0-9-4-9-9s4-9,9-9h81.3c5,0,9,4,9,9S656.4,1149.2,651.4,1149.2z"/>
			</g>
		</g>
		<g>
			<g>
				<path class="st2" d="M2013,1222.8h-330.5c-5,0-9-4-9-9s4-9,9-9H2013c5,0,9,4,9,9S2018,1222.8,2013,1222.8z"/>
			</g>
			<g>
				<path class="st2" d="M1617.7,1222.8h-79.1c-5,0-9-4-9-9s4-9,9-9h79.1c5,0,9,4,9,9S1622.7,1222.8,1617.7,1222.8z"/>
			</g>
			<g>
				<path class="st2" d="M381.3,1222.8h-79.1c-5,0-9-4-9-9s4-9,9-9h79.1c5,0,9,4,9,9S386.2,1222.8,381.3,1222.8z"/>
			</g>
			<g>
				<path class="st2" d="M214.4,1222.8H49.6c-5,0-9-4-9-9s4-9,9-9h164.7c5,0,9,4,9,9S219.3,1222.8,214.4,1222.8z"/>
			</g>
			<g>
				<path class="st2" d="M759,1222.8H452.6c-5,0-9-4-9-9s4-9,9-9H759c5,0,9,4,9,9S764,1222.8,759,1222.8z"/>
			</g>
			<g>
				<path class="st2" d="M916.6,1222.8H811.2c-5,0-9-4-9-9s4-9,9-9h105.4c5,0,9,4,9,9S921.6,1222.8,916.6,1222.8z"/>
			</g>
			<g>
				<path class="st2" d="M1361.3,1222.8H962.7c-5,0-9-4-9-9s4-9,9-9h398.6c5,0,9,4,9,9S1366.3,1222.8,1361.3,1222.8z"/>
			</g>
			<g>
				<path class="st2" d="M1492.5,1222.8h-81.3c-5,0-9-4-9-9s4-9,9-9h81.3c5,0,9,4,9,9S1497.5,1222.8,1492.5,1222.8z"/>
			</g>
		</g>
		<g>
			<g>
				<path class="st2" d="M2013,1370h-330.5c-5,0-9-4-9-9s4-9,9-9H2013c5,0,9,4,9,9S2018,1370,2013,1370z"/>
			</g>
			<g>
				<path class="st2" d="M1617.7,1370h-79.1c-5,0-9-4-9-9s4-9,9-9h79.1c5,0,9,4,9,9S1622.7,1370,1617.7,1370z"/>
			</g>
			<g>
				<path class="st2" d="M381.3,1370h-79.1c-5,0-9-4-9-9s4-9,9-9h79.1c5,0,9,4,9,9S386.2,1370,381.3,1370z"/>
			</g>
			<g>
				<path class="st2" d="M214.4,1370H49.6c-5,0-9-4-9-9s4-9,9-9h164.7c5,0,9,4,9,9S219.3,1370,214.4,1370z"/>
			</g>
			<g>
				<path class="st2" d="M759,1370H452.6c-5,0-9-4-9-9s4-9,9-9H759c5,0,9,4,9,9S764,1370,759,1370z"/>
			</g>
			<g>
				<path class="st2" d="M916.6,1370H811.2c-5,0-9-4-9-9s4-9,9-9h105.4c5,0,9,4,9,9S921.6,1370,916.6,1370z"/>
			</g>
			<g>
				<path class="st2" d="M1361.3,1370H962.7c-5,0-9-4-9-9s4-9,9-9h398.6c5,0,9,4,9,9S1366.3,1370,1361.3,1370z"/>
			</g>
			<g>
				<path class="st2" d="M1492.5,1370h-81.3c-5,0-9-4-9-9s4-9,9-9h81.3c5,0,9,4,9,9S1497.5,1370,1492.5,1370z"/>
			</g>
		</g>
	</g>
	<g id="mirror">
		<g id="mirror_x5F_exterior">
			<path class="st3" d="M1054.2,789.4H601.8c-4,0-7.3-3.3-7.3-7.3V183.9c0-4,3.3-7.3,7.3-7.3h452.4c4,0,7.3,3.3,7.3,7.3v598.2
				C1061.5,786.1,1058.2,789.4,1054.2,789.4z"/>
			
				<rect x="533.5" y="261.6" transform="matrix(-1.836970e-16 1 -1 -1.836970e-16 1311.0063 -344.9937)" class="st3" width="588.9" height="442.8"/>
		</g>
		<g id="mirror_x5F_interior">
			<polygon class="st4" points="937.7,188.5 606.6,515.5 606.6,573.5 996.5,188.5 			"/>
			<polygon class="st4" points="788.9,188.5 606.6,188.5 606.6,368.5 			"/>
			<polygon class="st4" points="606.6,638.5 606.6,777.5 1049.4,777.5 1049.4,201.3 			"/>
		</g>
		<g id="mirror_x5F_sparkles">
			<polygon id="sparkle_x5F_middle_1_" class="st3" points="964.9,446.2 958.1,406.6 918.6,415.8 949.9,390.2 922.1,361 960.2,375 
				971.9,336.6 978.7,376.2 1018.2,367 986.9,392.6 1014.7,421.8 976.6,407.8 			"/>
			<polygon id="sparkle_x5F_bottom_1_" class="st3" points="880.9,490.9 876.6,465.9 851.7,471.7 871.5,455.6 853.9,437.2 
				877.9,446 885.3,421.8 889.6,446.7 914.5,440.9 894.8,457 912.3,475.5 888.3,466.7 			"/>
			<polygon id="sparkle_x5F_top_1_" class="st3" points="866.9,392.9 871.3,373.5 851.4,370.4 870.6,364.4 863.4,345.9 878.2,359.3 
				890.8,343.9 886.5,363.3 906.3,366.3 887.1,372.3 894.4,390.8 879.6,377.4 			"/>
		</g>
	</g>
	<g id="Sink">
		<g id="sink_x5F_base">
			<path class="st3" d="M620.7,937.9v10.4c0,80.4,66.9,146,148.8,146h40.7v412.2c0,5,3.8,9.1,8.9,9.1h62.5c5.1,0,8.9-4.1,8.9-9.1
				v-412.2h40.5c81.9,0,148.9-65.6,148.9-146v-10.4H620.7z"/>
			<path class="st4" d="M858.9,937.9H620.7v10.4c0,80.4,66.9,146,148.8,146L858.9,937.9z"/>
			<path class="st4" d="M890.6,1092.2v24.4c0,0.3-4.2,0.5-9.2,0.5h-62.3c-5.1,0-9.2-0.2-9.2-0.5v-24.4"/>
			<path class="st3" d="M1096.5,947.7H601.4c-5.1,0-9.3-4.2-9.3-9.3v-27c0-5.1,4.2-9.3,9.3-9.3h495.1c5.1,0,9.3,4.2,9.3,9.3v27
				C1105.8,943.6,1101.6,947.7,1096.5,947.7z"/>
		</g>
		<g id="faucet">
			<path class="st3" d="M858.1,724.6h-13.9c-5.1,0-9.3,4.1-9.3,9.1v4.6h-75.8c-5.1,0-9.3,4.1-9.3,9.1V761c0,5,4.2,9.1,9.3,9.1h75.8
				v106.3c0,5,4.2,9.1,9.3,9.1h13.9c5.1,0,9.3-4.1,9.3-9.1V733.7C867.4,728.7,863.2,724.6,858.1,724.6z"/>
			<path class="st3" d="M949.8,828.6h-52.6c-5.1,0-9,4.1-9,9.1v2.3c0,5,3.9,9.1,9,9.1h5.8c-0.5,1.2-0.9,2.4-0.9,3.8v23.7
				c0,5,4.2,8.9,9.3,8.9h24.2c5.1,0,9.1-3.9,9.1-8.9v-23.7c0-1.4-0.1-2.6-0.7-3.8h5.8c5.1,0,9.6-4.1,9.6-9.1v-2.3
				C959.4,832.7,954.9,828.6,949.8,828.6z"/>
			<path class="st3" d="M802.9,828.6h-52.6c-5.1,0-9,4.1-9,9.1v2.3c0,5,3.9,9.1,9,9.1h5.8c-0.5,1.2-0.9,2.4-0.9,3.8v23.7
				c0,5,4.2,8.9,9.3,8.9h24.2c5.1,0,9.1-3.9,9.1-8.9v-23.7c0-1.4-0.1-2.6-0.7-3.8h5.8c5.1,0,9.6-4.1,9.6-9.1v-2.3
				C812.5,832.7,808,828.6,802.9,828.6z"/>
		</g>
	</g>
	<g id="bubbles">
		<path id="b9" class="st3" d="M654.1,795.3c-12.1-11.9-31.7-11.9-43.8,0c-12.1,11.9-12.1,31.3,0,43.3c12.1,11.9,31.7,11.9,43.8,0
			C666.2,826.6,666.2,807.3,654.1,795.3z"/>
		<ellipse id="b10_1_" class="st5" cx="710.1" cy="785.6" rx="27.4" ry="27"/>
		<ellipse id="b3" class="st5" cx="648.2" cy="691.5" rx="27.4" ry="27"/>
		<ellipse id="b7" class="st3" cx="584.5" cy="762.4" rx="27.4" ry="27"/>
		<ellipse id="b4" class="st3" cx="704.7" cy="666.3" rx="13.7" ry="13.5"/>
		<ellipse id="b2" class="st5" cx="574.9" cy="686.2" rx="17.3" ry="17"/>
		<ellipse id="b1" class="st3" cx="607.7" cy="633.9" rx="10.7" ry="10.6"/>
		<ellipse id="b8" class="st3" cx="581.5" cy="820.9" rx="9.5" ry="9.4"/>
		<ellipse id="b6" class="st3" cx="655.9" cy="754.4" rx="13.7" ry="13.5"/>
		<ellipse id="b5" class="st5" cx="699.4" cy="728" rx="16.7" ry="16.5"/>
		<ellipse id="b11" class="st3" cx="689.3" cy="857.9" rx="8.9" ry="8.8"/>
	</g>
	<path id="trashcan_1_" class="st4" d="M958.4,1292.3l31,177.3c0.6,3.7,3.9,6.3,7.6,6.3h52.6h52.4c3.8,0,7-2.7,7.6-6.3l31-177.3
		c0.8-4.7-2.8-8.9-7.6-8.9H966C961.2,1283.4,957.6,1287.6,958.4,1292.3z"/>
	<g id="right_x5F_shelf_1_">
		<g id="soap">
			<path class="st4" d="M1277,772.5h-24.2c1.7-1.7,2.7-4.1,2.7-6.7c0-5.3-4.4-9.7-9.8-9.7c-5.4,0-9.8,4.3-9.8,9.7c0,2.6,1,5,2.7,6.7
				h-24.2c-2.8,0-5,2.2-5,5V794c0,2.8,2.1,5,5,5h62.6c2.8,0,5.3-2.3,5.3-5v-16.4C1282.2,774.8,1279.8,772.5,1277,772.5z"/>
		</g>
		<g id="small_x5F_bottle">
			<path class="st4" d="M1478.6,743.4h-69c-2.8,0-5.1,2.3-5.1,5v2.5c0,2.8,2.3,5,5.1,5h2.2c-0.3,0.6-0.5,1.4-0.5,2.1v33.6
				c0,2.8,2.3,5,5.1,5h55.3c2.8,0,5.1-2.3,5.1-5v-33.6c0-0.8-0.2-1.5-0.5-2.1h2.2c2.8,0,5.1-2.3,5.1-5v-2.5
				C1483.7,745.6,1481.4,743.4,1478.6,743.4z"/>
			<path class="st3" d="M1457.8,786.7h-27.5c-2.8,0-5.1-2.3-5.1-5.1v-17.2c0-2.8,2.3-5.1,5.1-5.1h27.5c2.8,0,5.1,2.3,5.1,5.1v17.2
				C1463,784.4,1460.7,786.7,1457.8,786.7z"/>
		</g>
		<g id="bottle_2_">
			<path id="bottle_1_" class="st3" d="M1357.2,686.7h-10.6v-10.4c0-2.8-2.3-5-5.1-5h-12.8c-2.8,0-5.1,2.3-5.1,5v10.4h-10.6
				c-2.8,0-5.1,2.3-5.1,5v99.8c0,2.8,2.3,5,5.1,5h44.3c2.8,0,5.1-2.3,5.1-5v-99.8C1362.3,688.9,1360,686.7,1357.2,686.7z"/>
			<rect id="label" x="1307.8" y="723.6" class="st4" width="54.5" height="46.3"/>
		</g>
		<path id="bottle_x5F_shelf" class="st3" d="M1488.3,827.2h-384c-2.8,0-5.1-2.3-5.1-5.1v-19.2c0-2.8,2.3-5.1,5.1-5.1h384
			c2.8,0,5.1,2.3,5.1,5.1v19.2C1493.4,824.9,1491.1,827.2,1488.3,827.2z"/>
		<g id="brushteeth">
			<g id="toothbrush">
				<path class="st3" d="M1155.6,634.7c-4.9,24.2,13.7,35.9-12.3,62.2c-0.9,0.9-2.5,0-2.1-1.3c11.9-33.5-11.4-52.2,12.7-62.4
					C1154.9,633,1155.8,633.8,1155.6,634.7z"/>
				<path class="st3" d="M1147.8,692.3l17.9,2.6l8-54.4l-18.3-2.7c-0.4,3.1-0.5,5.9-0.3,8.6l0,0c0.1,1.9,0.3,3.8,0.6,5.6l0,0
					c0.3,1.9,0.6,3.8,0.9,5.7l0,0c0.3,1.9,0.6,3.8,0.8,5.7l0,0c0.2,1.9,0.3,3.7,0.3,5.6l0,0c-0.1,1.8-0.2,3.6-0.6,5.5l0,0
					c-0.4,1.7-0.9,3.5-1.6,5.3l0,0c-0.7,1.7-1.5,3.4-2.6,5.2l0,0C1151.5,687.4,1149.8,689.8,1147.8,692.3z"/>
				<path class="st3" d="M1173.5,640.6l-8,54.4l-13.6,92.7c-0.4,2.4,1.3,4.6,3.6,4.9l1.4,0.2c2.4,0.4,4.6-1.3,4.9-3.6l13.6-92.7
					l7.4-50.2c0.4-2.4-1.3-4.6-3.6-4.9L1173.5,640.6z"/>
			</g>
			<path id="bottle" class="st3" d="M1189.9,726.7l-11.7,67.1c-0.2,1.4-1.5,2.4-2.9,2.4h-19.9h-19.8c-1.4,0-2.6-1-2.9-2.4
				l-11.7-67.1c-0.3-1.8,1.1-3.4,2.9-3.4h63.2C1188.9,723.4,1190.3,725,1189.9,726.7z"/>
		</g>
	</g>
	<g id="left_x5F_shelf">
		<g id="plant">
			<path id="plant_x5F_box" class="st4" d="M361.8,775.3l20.4,74.6c0.4,1.5,2.5,2.7,5,2.7h34.6h34.5c2.5,0,4.6-1.1,5-2.7l20.4-74.6
				c0.5-2-1.9-3.8-5-3.8H366.8C363.6,771.5,361.2,773.3,361.8,775.3z"/>
			<g id="left_x5F_leaf">
				<path class="st3" d="M404.6,751c-5.8,7.4-22.5,4.1-37.3-7.5c-14.8-11.6-22-27-16.1-34.5L404.6,751z"/>
				<path class="st3" d="M352.5,707.3c5.8-7.4,22.5-4.1,37.3,7.5c14.8,11.6,22,27,16.1,34.5L352.5,707.3z"/>
			</g>
			<g id="right_x5F_leaf">
				<path class="st3" d="M446.7,755.2c-7.4-5.8-4.1-22.5,7.5-37.3c11.6-14.8,27-22,34.5-16.1L446.7,755.2z"/>
				<path class="st3" d="M490.4,703.1c7.4,5.8,4.1,22.5-7.5,37.3c-11.6,14.8-27,22-34.5,16.1L490.4,703.1z"/>
			</g>
			<g id="middle_x5F_leaf">
				<path class="st3" d="M420.9,719.8c-9.4-1-15.4-17-13.3-35.7c2.1-18.7,11.3-32.9,20.7-31.9L420.9,719.8z"/>
				<path class="st3" d="M430.5,652.5c9.4,1,15.4,17,13.3,35.7c-2.1,18.7-11.3,32.9-20.7,31.9L430.5,652.5z"/>
			</g>
			<path id="stem" class="st6" d="M448,755.5l-26,16l-17-22l17,22c20-20,0-52,0-52"/>
		</g>
		<path id="plant_x5F_shelf" class="st3" d="M519.3,882.2H324.2c-2.8,0-5.1-2.3-5.1-5.1v-19.2c0-2.8,2.3-5.1,5.1-5.1h154.5h40.6
			c2.8,0,5.1,2.3,5.1,5.1v19.2C524.4,879.9,522.1,882.2,519.3,882.2z"/>
	</g>
	<rect id="floor_1_" x="0" y="1477.5" class="st7" width="2048" height="58"/>
</g>
<g id="mobile_x5F_teeth">
</g>
</svg>
