<?xml version="1.0" encoding="utf-8"?>
<!-- Generator: Adobe Illustrator 21.0.2, SVG Export Plug-In . SVG Version: 6.00 Build 0)  -->
<svg version="1.1" id="Layer_1" xmlns="http://www.w3.org/2000/svg" xmlns:xlink="http://www.w3.org/1999/xlink" x="0px" y="0px"
	 viewBox="0 0 87.2 87.6" style="enable-background:new 0 0 87.2 87.6;" xml:space="preserve">
<style type="text/css">
	.st0{fill:#FFEFA1;stroke:#FFB319;stroke-miterlimit:10;}
	.st1{fill:#FFF3AE;stroke:#FFB319;stroke-miterlimit:10;}
	.st2{fill:#FFFFE5;stroke:#142C69;stroke-miterlimit:10;}
	.st3{fill:#142C69;}
	.st4{font-family:'DidactGothic-Regular';}
	.st5{font-size:19.2px;}
</style>
<g id="Info">
	<path class="st0" d="M70.9,13c8.4,7.6,13.6,18.5,13.6,30.6c0,22.7-18.5,41.3-41.3,41.3c-12.6,0-23.8-5.6-31.4-14.5"/>
	<path class="st1" d="M11.9,70.4C5.8,63.2,2,53.8,2,43.6C2,20.9,20.5,2.4,43.3,2.4c10.6,0,20.3,4,27.6,10.6"/>
	<path class="st2" d="M43.6,25.6C32.8,25.6,24,33.3,24,42.9c0,3.6,1.2,7,3.4,9.7l-1.8,6.5l7.1-1.8c3.1,1.9,6.9,3,10.9,3
		c10.8,0,19.6-7.8,19.6-17.4C63.2,33.3,54.5,25.6,43.6,25.6z"/>
	<text transform="matrix(1 0 0 1 39.2152 48.445)" class="st3 st4 st5">?</text>
</g>
</svg>
